<?xml version="1.0" encoding="utf-8" standalone="no"?>
<!DOCTYPE svg PUBLIC "-//W3C//DTD SVG 1.1//EN"
  "http://www.w3.org/Graphics/SVG/1.1/DTD/svg11.dtd">
<svg xmlns:xlink="http://www.w3.org/1999/xlink" width="460.8pt" height="345.6pt" viewBox="0 0 460.8 345.6" xmlns="http://www.w3.org/2000/svg" version="1.1">
 <metadata>
  <rdf:RDF xmlns:dc="http://purl.org/dc/elements/1.1/" xmlns:cc="http://creativecommons.org/ns#" xmlns:rdf="http://www.w3.org/1999/02/22-rdf-syntax-ns#">
   <cc:Work>
    <dc:type rdf:resource="http://purl.org/dc/dcmitype/StillImage"/>
    <dc:date>2025-05-29T13:15:33.126589</dc:date>
    <dc:format>image/svg+xml</dc:format>
    <dc:creator>
     <cc:Agent>
      <dc:title>Matplotlib v3.10.0, https://matplotlib.org/</dc:title>
     </cc:Agent>
    </dc:creator>
   </cc:Work>
  </rdf:RDF>
 </metadata>
 <defs>
  <style type="text/css">*{stroke-linejoin: round; stroke-linecap: butt}</style>
 </defs>
 <g id="figure_1">
  <g id="patch_1">
   <path d="M 0 345.6 
L 460.8 345.6 
L 460.8 0 
L 0 0 
z
" style="fill: #ffffff"/>
  </g>
  <g id="axes_1">
   <g id="patch_2">
    <path d="M 57.6 307.584 
L 414.72 307.584 
L 414.72 41.472 
L 57.6 41.472 
z
" style="fill: #ffffff"/>
   </g>
   <g id="matplotlib.axis_1">
    <g id="xtick_1">
     <g id="line2d_1">
      <defs>
       <path id="m49b5c0f400" d="M 0 0 
L 0 3.5 
" style="stroke: #000000; stroke-width: 0.8"/>
      </defs>
      <g>
       <use xlink:href="#m49b5c0f400" x="57.6" y="307.584" style="stroke: #000000; stroke-width: 0.8"/>
      </g>
     </g>
     <g id="text_1">
      <!-- 0 -->
      <g transform="translate(54.41875 322.182437) scale(0.1 -0.1)">
       <defs>
        <path id="DejaVuSans-30" d="M 2034 4250 
Q 1547 4250 1301 3770 
Q 1056 3291 1056 2328 
Q 1056 1369 1301 889 
Q 1547 409 2034 409 
Q 2525 409 2770 889 
Q 3016 1369 3016 2328 
Q 3016 3291 2770 3770 
Q 2525 4250 2034 4250 
z
M 2034 4750 
Q 2819 4750 3233 4129 
Q 3647 3509 3647 2328 
Q 3647 1150 3233 529 
Q 2819 -91 2034 -91 
Q 1250 -91 836 529 
Q 422 1150 422 2328 
Q 422 3509 836 4129 
Q 1250 4750 2034 4750 
z
" transform="scale(0.015625)"/>
       </defs>
       <use xlink:href="#DejaVuSans-30"/>
      </g>
     </g>
    </g>
    <g id="xtick_2">
     <g id="line2d_2">
      <g>
       <use xlink:href="#m49b5c0f400" x="129.024" y="307.584" style="stroke: #000000; stroke-width: 0.8"/>
      </g>
     </g>
     <g id="text_2">
      <!-- 200 -->
      <g transform="translate(119.48025 322.182437) scale(0.1 -0.1)">
       <defs>
        <path id="DejaVuSans-32" d="M 1228 531 
L 3431 531 
L 3431 0 
L 469 0 
L 469 531 
Q 828 903 1448 1529 
Q 2069 2156 2228 2338 
Q 2531 2678 2651 2914 
Q 2772 3150 2772 3378 
Q 2772 3750 2511 3984 
Q 2250 4219 1831 4219 
Q 1534 4219 1204 4116 
Q 875 4013 500 3803 
L 500 4441 
Q 881 4594 1212 4672 
Q 1544 4750 1819 4750 
Q 2544 4750 2975 4387 
Q 3406 4025 3406 3419 
Q 3406 3131 3298 2873 
Q 3191 2616 2906 2266 
Q 2828 2175 2409 1742 
Q 1991 1309 1228 531 
z
" transform="scale(0.015625)"/>
       </defs>
       <use xlink:href="#DejaVuSans-32"/>
       <use xlink:href="#DejaVuSans-30" transform="translate(63.623047 0)"/>
       <use xlink:href="#DejaVuSans-30" transform="translate(127.246094 0)"/>
      </g>
     </g>
    </g>
    <g id="xtick_3">
     <g id="line2d_3">
      <g>
       <use xlink:href="#m49b5c0f400" x="200.448" y="307.584" style="stroke: #000000; stroke-width: 0.8"/>
      </g>
     </g>
     <g id="text_3">
      <!-- 400 -->
      <g transform="translate(190.90425 322.182437) scale(0.1 -0.1)">
       <defs>
        <path id="DejaVuSans-34" d="M 2419 4116 
L 825 1625 
L 2419 1625 
L 2419 4116 
z
M 2253 4666 
L 3047 4666 
L 3047 1625 
L 3713 1625 
L 3713 1100 
L 3047 1100 
L 3047 0 
L 2419 0 
L 2419 1100 
L 313 1100 
L 313 1709 
L 2253 4666 
z
" transform="scale(0.015625)"/>
       </defs>
       <use xlink:href="#DejaVuSans-34"/>
       <use xlink:href="#DejaVuSans-30" transform="translate(63.623047 0)"/>
       <use xlink:href="#DejaVuSans-30" transform="translate(127.246094 0)"/>
      </g>
     </g>
    </g>
    <g id="xtick_4">
     <g id="line2d_4">
      <g>
       <use xlink:href="#m49b5c0f400" x="271.872" y="307.584" style="stroke: #000000; stroke-width: 0.8"/>
      </g>
     </g>
     <g id="text_4">
      <!-- 600 -->
      <g transform="translate(262.32825 322.182437) scale(0.1 -0.1)">
       <defs>
        <path id="DejaVuSans-36" d="M 2113 2584 
Q 1688 2584 1439 2293 
Q 1191 2003 1191 1497 
Q 1191 994 1439 701 
Q 1688 409 2113 409 
Q 2538 409 2786 701 
Q 3034 994 3034 1497 
Q 3034 2003 2786 2293 
Q 2538 2584 2113 2584 
z
M 3366 4563 
L 3366 3988 
Q 3128 4100 2886 4159 
Q 2644 4219 2406 4219 
Q 1781 4219 1451 3797 
Q 1122 3375 1075 2522 
Q 1259 2794 1537 2939 
Q 1816 3084 2150 3084 
Q 2853 3084 3261 2657 
Q 3669 2231 3669 1497 
Q 3669 778 3244 343 
Q 2819 -91 2113 -91 
Q 1303 -91 875 529 
Q 447 1150 447 2328 
Q 447 3434 972 4092 
Q 1497 4750 2381 4750 
Q 2619 4750 2861 4703 
Q 3103 4656 3366 4563 
z
" transform="scale(0.015625)"/>
       </defs>
       <use xlink:href="#DejaVuSans-36"/>
       <use xlink:href="#DejaVuSans-30" transform="translate(63.623047 0)"/>
       <use xlink:href="#DejaVuSans-30" transform="translate(127.246094 0)"/>
      </g>
     </g>
    </g>
    <g id="xtick_5">
     <g id="line2d_5">
      <g>
       <use xlink:href="#m49b5c0f400" x="343.296" y="307.584" style="stroke: #000000; stroke-width: 0.8"/>
      </g>
     </g>
     <g id="text_5">
      <!-- 800 -->
      <g transform="translate(333.75225 322.182437) scale(0.1 -0.1)">
       <defs>
        <path id="DejaVuSans-38" d="M 2034 2216 
Q 1584 2216 1326 1975 
Q 1069 1734 1069 1313 
Q 1069 891 1326 650 
Q 1584 409 2034 409 
Q 2484 409 2743 651 
Q 3003 894 3003 1313 
Q 3003 1734 2745 1975 
Q 2488 2216 2034 2216 
z
M 1403 2484 
Q 997 2584 770 2862 
Q 544 3141 544 3541 
Q 544 4100 942 4425 
Q 1341 4750 2034 4750 
Q 2731 4750 3128 4425 
Q 3525 4100 3525 3541 
Q 3525 3141 3298 2862 
Q 3072 2584 2669 2484 
Q 3125 2378 3379 2068 
Q 3634 1759 3634 1313 
Q 3634 634 3220 271 
Q 2806 -91 2034 -91 
Q 1263 -91 848 271 
Q 434 634 434 1313 
Q 434 1759 690 2068 
Q 947 2378 1403 2484 
z
M 1172 3481 
Q 1172 3119 1398 2916 
Q 1625 2713 2034 2713 
Q 2441 2713 2670 2916 
Q 2900 3119 2900 3481 
Q 2900 3844 2670 4047 
Q 2441 4250 2034 4250 
Q 1625 4250 1398 4047 
Q 1172 3844 1172 3481 
z
" transform="scale(0.015625)"/>
       </defs>
       <use xlink:href="#DejaVuSans-38"/>
       <use xlink:href="#DejaVuSans-30" transform="translate(63.623047 0)"/>
       <use xlink:href="#DejaVuSans-30" transform="translate(127.246094 0)"/>
      </g>
     </g>
    </g>
    <g id="xtick_6">
     <g id="line2d_6">
      <g>
       <use xlink:href="#m49b5c0f400" x="414.72" y="307.584" style="stroke: #000000; stroke-width: 0.8"/>
      </g>
     </g>
     <g id="text_6">
      <!-- 1000 -->
      <g transform="translate(401.995 322.182437) scale(0.1 -0.1)">
       <defs>
        <path id="DejaVuSans-31" d="M 794 531 
L 1825 531 
L 1825 4091 
L 703 3866 
L 703 4441 
L 1819 4666 
L 2450 4666 
L 2450 531 
L 3481 531 
L 3481 0 
L 794 0 
L 794 531 
z
" transform="scale(0.015625)"/>
       </defs>
       <use xlink:href="#DejaVuSans-31"/>
       <use xlink:href="#DejaVuSans-30" transform="translate(63.623047 0)"/>
       <use xlink:href="#DejaVuSans-30" transform="translate(127.246094 0)"/>
       <use xlink:href="#DejaVuSans-30" transform="translate(190.869141 0)"/>
      </g>
     </g>
    </g>
    <g id="text_7">
     <!-- $t$ -->
     <g transform="translate(232.96 340.419625) scale(0.16 -0.16)">
      <defs>
       <path id="DejaVuSans-Oblique-74" d="M 2706 3500 
L 2619 3053 
L 1472 3053 
L 1100 1153 
Q 1081 1047 1072 975 
Q 1063 903 1063 863 
Q 1063 663 1183 572 
Q 1303 481 1569 481 
L 2150 481 
L 2053 0 
L 1503 0 
Q 991 0 739 200 
Q 488 400 488 806 
Q 488 878 497 964 
Q 506 1050 525 1153 
L 897 3053 
L 409 3053 
L 500 3500 
L 978 3500 
L 1172 4494 
L 1747 4494 
L 1556 3500 
L 2706 3500 
z
" transform="scale(0.015625)"/>
      </defs>
      <use xlink:href="#DejaVuSans-Oblique-74" transform="translate(0 0.78125)"/>
     </g>
    </g>
   </g>
   <g id="matplotlib.axis_2">
    <g id="ytick_1">
     <g id="line2d_7">
      <defs>
       <path id="m94b3d13d4f" d="M 0 0 
L -3.5 0 
" style="stroke: #000000; stroke-width: 0.8"/>
      </defs>
      <g>
       <use xlink:href="#m94b3d13d4f" x="57.6" y="307.584" style="stroke: #000000; stroke-width: 0.8"/>
      </g>
     </g>
     <g id="text_8">
      <!-- 0.0 -->
      <g transform="translate(34.696875 311.383219) scale(0.1 -0.1)">
       <defs>
        <path id="DejaVuSans-2e" d="M 684 794 
L 1344 794 
L 1344 0 
L 684 0 
L 684 794 
z
" transform="scale(0.015625)"/>
       </defs>
       <use xlink:href="#DejaVuSans-30"/>
       <use xlink:href="#DejaVuSans-2e" transform="translate(63.623047 0)"/>
       <use xlink:href="#DejaVuSans-30" transform="translate(95.410156 0)"/>
      </g>
     </g>
    </g>
    <g id="ytick_2">
     <g id="line2d_8">
      <g>
       <use xlink:href="#m94b3d13d4f" x="57.6" y="254.3616" style="stroke: #000000; stroke-width: 0.8"/>
      </g>
     </g>
     <g id="text_9">
      <!-- 0.2 -->
      <g transform="translate(34.696875 258.160819) scale(0.1 -0.1)">
       <use xlink:href="#DejaVuSans-30"/>
       <use xlink:href="#DejaVuSans-2e" transform="translate(63.623047 0)"/>
       <use xlink:href="#DejaVuSans-32" transform="translate(95.410156 0)"/>
      </g>
     </g>
    </g>
    <g id="ytick_3">
     <g id="line2d_9">
      <g>
       <use xlink:href="#m94b3d13d4f" x="57.6" y="201.1392" style="stroke: #000000; stroke-width: 0.8"/>
      </g>
     </g>
     <g id="text_10">
      <!-- 0.4 -->
      <g transform="translate(34.696875 204.938419) scale(0.1 -0.1)">
       <use xlink:href="#DejaVuSans-30"/>
       <use xlink:href="#DejaVuSans-2e" transform="translate(63.623047 0)"/>
       <use xlink:href="#DejaVuSans-34" transform="translate(95.410156 0)"/>
      </g>
     </g>
    </g>
    <g id="ytick_4">
     <g id="line2d_10">
      <g>
       <use xlink:href="#m94b3d13d4f" x="57.6" y="147.9168" style="stroke: #000000; stroke-width: 0.8"/>
      </g>
     </g>
     <g id="text_11">
      <!-- 0.6 -->
      <g transform="translate(34.696875 151.716019) scale(0.1 -0.1)">
       <use xlink:href="#DejaVuSans-30"/>
       <use xlink:href="#DejaVuSans-2e" transform="translate(63.623047 0)"/>
       <use xlink:href="#DejaVuSans-36" transform="translate(95.410156 0)"/>
      </g>
     </g>
    </g>
    <g id="ytick_5">
     <g id="line2d_11">
      <g>
       <use xlink:href="#m94b3d13d4f" x="57.6" y="94.6944" style="stroke: #000000; stroke-width: 0.8"/>
      </g>
     </g>
     <g id="text_12">
      <!-- 0.8 -->
      <g transform="translate(34.696875 98.493619) scale(0.1 -0.1)">
       <use xlink:href="#DejaVuSans-30"/>
       <use xlink:href="#DejaVuSans-2e" transform="translate(63.623047 0)"/>
       <use xlink:href="#DejaVuSans-38" transform="translate(95.410156 0)"/>
      </g>
     </g>
    </g>
    <g id="ytick_6">
     <g id="line2d_12">
      <g>
       <use xlink:href="#m94b3d13d4f" x="57.6" y="41.472" style="stroke: #000000; stroke-width: 0.8"/>
      </g>
     </g>
     <g id="text_13">
      <!-- 1.0 -->
      <g transform="translate(34.696875 45.271219) scale(0.1 -0.1)">
       <use xlink:href="#DejaVuSans-31"/>
       <use xlink:href="#DejaVuSans-2e" transform="translate(63.623047 0)"/>
       <use xlink:href="#DejaVuSans-30" transform="translate(95.410156 0)"/>
      </g>
     </g>
    </g>
    <g id="text_14">
     <!-- $x_i(t)$ -->
     <g transform="translate(27.369375 190.448) rotate(-90) scale(0.16 -0.16)">
      <defs>
       <path id="DejaVuSans-Oblique-78" d="M 3841 3500 
L 2234 1784 
L 3219 0 
L 2559 0 
L 1819 1388 
L 531 0 
L -166 0 
L 1556 1844 
L 641 3500 
L 1300 3500 
L 1972 2234 
L 3144 3500 
L 3841 3500 
z
" transform="scale(0.015625)"/>
       <path id="DejaVuSans-Oblique-69" d="M 1172 4863 
L 1747 4863 
L 1606 4134 
L 1031 4134 
L 1172 4863 
z
M 909 3500 
L 1484 3500 
L 800 0 
L 225 0 
L 909 3500 
z
" transform="scale(0.015625)"/>
       <path id="DejaVuSans-28" d="M 1984 4856 
Q 1566 4138 1362 3434 
Q 1159 2731 1159 2009 
Q 1159 1288 1364 580 
Q 1569 -128 1984 -844 
L 1484 -844 
Q 1016 -109 783 600 
Q 550 1309 550 2009 
Q 550 2706 781 3412 
Q 1013 4119 1484 4856 
L 1984 4856 
z
" transform="scale(0.015625)"/>
       <path id="DejaVuSans-29" d="M 513 4856 
L 1013 4856 
Q 1481 4119 1714 3412 
Q 1947 2706 1947 2009 
Q 1947 1309 1714 600 
Q 1481 -109 1013 -844 
L 513 -844 
Q 928 -128 1133 580 
Q 1338 1288 1338 2009 
Q 1338 2731 1133 3434 
Q 928 4138 513 4856 
z
" transform="scale(0.015625)"/>
      </defs>
      <use xlink:href="#DejaVuSans-Oblique-78" transform="translate(0 0.125)"/>
      <use xlink:href="#DejaVuSans-Oblique-69" transform="translate(59.179688 -16.28125) scale(0.7)"/>
      <use xlink:href="#DejaVuSans-28" transform="translate(81.362305 0.125)"/>
      <use xlink:href="#DejaVuSans-Oblique-74" transform="translate(120.375977 0.125)"/>
      <use xlink:href="#DejaVuSans-29" transform="translate(159.584961 0.125)"/>
     </g>
    </g>
   </g>
   <g id="line2d_13">
    <path d="M 57.6 207.738778 
L 58.67136 194.353344 
L 59.3856 187.700544 
L 59.74272 186.077261 
L 60.09984 187.514266 
L 60.45696 189.802829 
L 61.1712 196.535462 
L 61.52832 205.317158 
L 61.88544 210.479731 
L 62.24256 213.247296 
L 62.59968 219.713818 
L 63.31392 224.87639 
L 63.67104 225.96745 
L 64.02816 226.499674 
L 64.38528 226.552896 
L 64.7424 224.424 
L 65.09952 221.470157 
L 67.59936 190.893888 
L 67.95648 188.71177 
L 68.3136 189.004493 
L 68.67072 190.814054 
L 69.02784 190.840666 
L 69.38496 191.080166 
L 69.74208 194.326733 
L 70.81344 214.631078 
L 71.17056 219.447706 
L 71.52768 221.869325 
L 71.8848 226.499674 
L 72.24192 229.267238 
L 72.59904 230.145408 
L 72.95616 230.677632 
L 73.31328 227.96329 
L 73.6704 222.614438 
L 74.38464 214.870579 
L 74.74176 210.426509 
L 75.456 199.409472 
L 75.81312 196.26935 
L 76.17024 190.148774 
L 76.52736 186.795763 
L 76.88448 187.461043 
L 77.59872 190.095552 
L 77.95584 191.905114 
L 78.67008 200.207808 
L 79.0272 204.731712 
L 79.38432 207.33961 
L 79.74144 212.342515 
L 80.09856 213.194074 
L 80.8128 219.208205 
L 81.16992 220.937933 
L 81.52704 221.044378 
L 81.88416 222.082214 
L 82.24128 221.949158 
L 82.5984 217.7712 
L 82.95552 216.201139 
L 83.66976 205.184102 
L 84.02688 204.039821 
L 85.09824 194.513011 
L 85.45536 194.353344 
L 85.81248 193.767898 
L 86.1696 194.167066 
L 86.52672 196.02985 
L 87.24096 203.906765 
L 88.31232 215.243136 
L 88.66944 215.828582 
L 89.02656 216.759974 
L 89.38368 217.345421 
L 89.7408 220.246042 
L 90.09792 221.31049 
L 90.45504 217.98409 
L 90.81216 220.21943 
L 91.16928 218.330035 
L 91.88352 217.7712 
L 92.59776 210.799066 
L 92.95488 206.195328 
L 93.312 204.305933 
L 94.02624 196.721741 
L 94.38336 195.524237 
L 94.74048 197.919245 
L 95.0976 199.542528 
L 95.45472 199.515917 
L 95.81184 202.975373 
L 96.16896 205.290547 
L 96.52608 208.936282 
L 96.8832 208.962893 
L 97.59744 213.726298 
L 97.95456 214.923802 
L 98.31168 214.790746 
L 98.6688 214.364966 
L 99.02592 211.411123 
L 99.38304 210.080563 
L 99.74016 205.104269 
L 100.09728 203.001984 
L 100.4544 203.58743 
L 100.81152 201.910925 
L 101.52576 206.860608 
L 101.88288 206.541274 
L 102.24 209.362061 
L 102.59712 210.426509 
L 102.95424 210.745843 
L 103.31136 212.395738 
L 103.66848 212.954573 
L 104.0256 212.688461 
L 104.38272 213.433574 
L 104.73984 212.794906 
L 105.09696 212.582016 
L 105.45408 210.45312 
L 106.16832 208.377446 
L 106.52544 208.67017 
L 107.23968 203.268096 
L 107.5968 203.959987 
L 108.31104 202.150426 
L 109.02528 202.709261 
L 109.3824 203.614042 
L 109.73952 204.971213 
L 110.09664 200.367475 
L 110.45376 198.424858 
L 110.81088 197.892634 
L 111.168 195.870182 
L 112.59648 204.838157 
L 112.9536 206.67433 
L 113.31072 210.772454 
L 113.66784 210.692621 
L 114.02496 211.091789 
L 114.38208 214.23191 
L 114.7392 211.597402 
L 115.09632 209.974118 
L 115.45344 209.920896 
L 115.81056 207.472666 
L 116.16768 207.206554 
L 116.5248 205.450214 
L 116.88192 204.385766 
L 117.59616 201.192422 
L 117.95328 201.165811 
L 118.3104 200.606976 
L 118.66752 201.378701 
L 119.02464 200.154586 
L 119.38176 201.192422 
L 119.73888 200.68681 
L 120.096 201.910925 
L 120.81024 205.609882 
L 121.16736 209.362061 
L 121.8816 213.673075 
L 122.23872 214.604467 
L 122.59584 218.43648 
L 122.95296 220.006541 
L 123.31008 220.778266 
L 124.02432 224.370778 
L 124.38144 224.982835 
L 124.73856 222.960384 
L 125.09568 221.842714 
L 126.16704 210.958733 
L 126.52416 205.051046 
L 127.2384 198.424858 
L 127.59552 196.854797 
L 127.95264 196.162906 
L 128.30976 193.528397 
L 128.66688 195.870182 
L 129.024 193.421952 
L 129.38112 194.885568 
L 129.73824 196.854797 
L 130.45248 204.492211 
L 130.8096 212.209459 
L 131.52384 218.516314 
L 131.88096 219.740429 
L 132.23808 219.953318 
L 132.5952 221.070989 
L 132.95232 219.527539 
L 133.30944 222.374938 
L 133.66656 219.926707 
L 134.02368 219.793651 
L 134.73792 213.460186 
L 135.45216 206.754163 
L 135.80928 204.492211 
L 136.1664 201.219034 
L 136.52352 200.367475 
L 137.23776 195.763738 
L 137.952 194.27351 
L 138.66624 197.945856 
L 139.38048 202.948762 
L 140.09472 212.209459 
L 140.45184 214.604467 
L 140.80896 215.349581 
L 141.5232 219.367872 
L 142.23744 221.150822 
L 142.59456 224.370778 
L 142.95168 223.678886 
L 143.3088 221.97577 
L 143.66592 219.154982 
L 144.02304 215.296358 
L 145.45152 194.326733 
L 145.80864 191.532557 
L 146.16576 185.704704 
L 146.88 184.134643 
L 148.30848 204.758323 
L 149.37984 219.048538 
L 150.09408 225.834394 
L 150.4512 227.803622 
L 150.80832 227.936678 
L 151.16544 230.757466 
L 151.52256 229.054349 
L 151.87968 230.172019 
L 152.2368 227.138342 
L 152.95104 216.147917 
L 154.0224 192.836506 
L 154.73664 183.602419 
L 155.09376 182.271859 
L 155.45088 182.29847 
L 155.808 182.937139 
L 156.52224 192.597005 
L 157.95072 218.88887 
L 158.66496 228.681792 
L 159.3792 236.824819 
L 159.73632 235.920038 
L 160.09344 235.707149 
L 160.45056 234.296755 
L 160.80768 230.544576 
L 161.1648 228.335846 
L 162.9504 185.465203 
L 163.30752 179.158349 
L 163.66464 177.561677 
L 164.02176 177.40201 
L 164.37888 180.781632 
L 165.80736 204.731712 
L 166.16448 214.631078 
L 166.87872 226.286784 
L 167.59296 232.221082 
L 167.95008 232.114637 
L 168.3072 230.41152 
L 168.66432 229.693018 
L 169.37856 224.051443 
L 170.80704 196.801574 
L 171.8784 184.5072 
L 172.23552 183.895142 
L 172.59264 185.864371 
L 173.664 200.234419 
L 174.37824 214.019021 
L 174.73536 221.124211 
L 175.09248 225.062669 
L 175.4496 226.526285 
L 175.80672 226.366618 
L 176.16384 225.701338 
L 176.52096 225.648115 
L 176.87808 224.344166 
L 177.59232 223.30633 
L 179.37792 193.82112 
L 180.09216 185.731315 
L 180.44928 186.157094 
L 180.8064 185.598259 
L 181.16352 185.784538 
L 182.23488 201.964147 
L 183.66336 226.978675 
L 184.02048 227.936678 
L 184.3776 229.347072 
L 184.73472 231.555802 
L 185.09184 232.753306 
L 185.44896 232.008192 
L 185.80608 229.240627 
L 186.1632 227.723789 
L 186.52032 224.796557 
L 186.87744 218.090534 
L 187.23456 213.619853 
L 189.02016 178.093901 
L 189.37728 176.444006 
L 190.09152 174.767501 
L 190.80576 189.297216 
L 191.16288 194.566234 
L 191.87712 208.643558 
L 192.59136 222.055603 
L 193.66272 238.18199 
L 194.37696 241.72128 
L 194.73408 239.93833 
L 195.0912 236.558707 
L 196.16256 215.482637 
L 196.8768 199.249805 
L 197.23392 188.685158 
L 197.94816 175.752115 
L 198.30528 170.74921 
L 199.01952 175.672282 
L 199.37664 180.089741 
L 200.09088 192.463949 
L 201.16224 217.505088 
L 201.87648 227.510899 
L 202.2336 233.764531 
L 202.59072 235.041869 
L 202.94784 237.915878 
L 203.30496 238.288435 
L 203.66208 235.920038 
L 204.37632 225.408614 
L 204.73344 218.303424 
L 205.8048 189.802829 
L 206.51904 180.781632 
L 206.87616 178.226957 
L 207.23328 174.794112 
L 207.5904 174.048998 
L 207.94752 174.155443 
L 208.30464 177.694733 
L 208.66176 183.549197 
L 209.73312 207.153331 
L 210.80448 225.727949 
L 211.51872 232.646861 
L 211.87584 231.821914 
L 212.23296 233.152474 
L 212.59008 231.103411 
L 212.9472 227.191565 
L 213.30432 225.914227 
L 214.37568 213.300518 
L 215.44704 191.745446 
L 215.80416 186.769152 
L 216.16128 183.655642 
L 216.5184 182.325082 
L 216.87552 186.742541 
L 217.58976 196.987853 
L 218.304 209.042726 
L 218.66112 217.398643 
L 219.01824 222.401549 
L 219.37536 225.08928 
L 219.73248 226.127117 
L 220.0896 226.073894 
L 220.44672 226.313395 
L 220.80384 226.978675 
L 221.16096 223.918387 
L 221.51808 222.321715 
L 221.8752 218.862259 
L 222.58944 208.936282 
L 222.94656 206.142106 
L 223.6608 193.661453 
L 224.01792 192.570394 
L 224.37504 192.597005 
L 224.73216 193.421952 
L 225.08928 193.448563 
L 226.51776 204.305933 
L 228.66048 218.702592 
L 229.0176 220.591987 
L 229.73184 218.622758 
L 230.08896 218.463091 
L 230.44608 216.22775 
L 230.8032 214.790746 
L 231.16032 210.027341 
L 231.87456 207.951667 
L 232.23168 207.312998 
L 232.94592 203.720486 
L 233.30304 202.549594 
L 233.66016 204.625267 
L 234.01728 204.811546 
L 234.3744 206.195328 
L 235.08864 207.499277 
L 235.44576 208.776614 
L 236.16 208.084723 
L 236.51712 208.031501 
L 236.87424 207.179942 
L 237.58848 209.867674 
L 237.9456 211.198234 
L 238.30272 211.757069 
L 238.65984 210.852288 
L 239.01696 211.33129 
L 239.37408 211.224845 
L 239.7312 208.829837 
L 240.08832 207.33961 
L 240.44544 206.488051 
L 240.80256 207.845222 
L 241.15968 208.616947 
L 241.87392 210.985344 
L 242.23104 212.608627 
L 242.58816 215.589082 
L 242.94528 214.471411 
L 243.3024 215.402803 
L 243.65952 214.098854 
L 244.01664 215.456026 
L 244.37376 212.741683 
L 244.73088 212.315904 
L 245.44512 205.609882 
L 245.80224 204.784934 
L 246.15936 202.842317 
L 246.51648 202.735872 
L 246.8736 199.835251 
L 247.58784 196.828186 
L 247.94496 196.056461 
L 248.30208 198.957082 
L 248.6592 199.835251 
L 249.01632 201.165811 
L 249.73056 205.317158 
L 250.80192 216.573696 
L 251.15904 217.478477 
L 251.51616 215.296358 
L 251.87328 216.946253 
L 252.2304 216.733363 
L 252.58752 215.269747 
L 252.94464 214.577856 
L 254.37312 206.780774 
L 255.08736 201.80448 
L 255.44448 200.580365 
L 255.8016 200.234419 
L 256.51584 202.709261 
L 256.87296 204.971213 
L 257.23008 206.381606 
L 257.94432 211.650624 
L 258.30144 212.608627 
L 258.65856 215.163302 
L 259.01568 214.577856 
L 259.3728 215.801971 
L 259.72992 214.471411 
L 260.08704 214.977024 
L 260.44416 215.216525 
L 260.80128 214.098854 
L 261.1584 212.422349 
L 261.51552 209.708006 
L 261.87264 209.069338 
L 262.944 200.92631 
L 263.30112 197.839411 
L 263.65824 197.59991 
L 264.01536 197.839411 
L 264.37248 199.755418 
L 264.7296 204.172877 
L 265.08672 206.780774 
L 265.44384 207.392832 
L 266.5152 219.55415 
L 266.87232 220.405709 
L 267.22944 219.128371 
L 267.58656 216.999475 
L 267.94368 215.828582 
L 268.3008 216.094694 
L 268.65792 216.094694 
L 269.37216 214.418189 
L 269.72928 215.402803 
L 270.44352 211.33129 
L 271.15776 201.671424 
L 271.51488 199.648973 
L 271.872 198.584525 
L 272.22912 195.81696 
L 272.58624 196.242739 
L 273.6576 206.940442 
L 274.37184 211.411123 
L 275.08608 215.243136 
L 275.4432 216.254362 
L 275.80032 216.44064 
L 276.51456 219.208205 
L 277.2288 213.460186 
L 277.58592 212.635238 
L 279.0144 198.557914 
L 279.37152 196.562074 
L 279.72864 195.417792 
L 280.08576 195.231514 
L 280.44288 196.242739 
L 281.15712 204.625267 
L 281.87136 209.282227 
L 282.22848 214.23191 
L 282.5856 215.881805 
L 282.94272 215.695526 
L 283.29984 216.334195 
L 283.65696 217.238976 
L 284.01408 215.935027 
L 284.3712 217.957478 
L 284.72832 218.702592 
L 285.08544 217.797811 
L 285.44256 219.474317 
L 285.79968 218.729203 
L 286.1568 217.292198 
L 286.87104 211.943347 
L 287.58528 204.891379 
L 287.9424 203.58743 
L 288.29952 203.933376 
L 288.65664 204.997824 
L 289.01376 202.762483 
L 289.37088 201.831091 
L 289.728 201.272256 
L 290.08512 197.732966 
L 290.44224 197.8128 
L 290.79936 201.485146 
L 291.15648 202.01737 
L 291.5136 205.051046 
L 291.87072 206.408218 
L 292.22784 208.563725 
L 292.58496 209.867674 
L 293.2992 215.269747 
L 293.65632 215.376192 
L 294.01344 217.7712 
L 294.37056 218.037312 
L 294.72768 217.079309 
L 295.44192 211.916736 
L 295.79904 206.967053 
L 296.15616 203.933376 
L 296.51328 202.549594 
L 297.22752 196.987853 
L 297.58464 195.36457 
L 297.94176 195.497626 
L 298.29888 194.912179 
L 298.656 197.866022 
L 299.37024 201.298867 
L 299.72736 201.618202 
L 300.08448 204.997824 
L 300.4416 206.035661 
L 301.15584 210.799066 
L 302.2272 217.797811 
L 302.58432 218.755814 
L 302.94144 217.664755 
L 303.29856 219.234816 
L 303.65568 216.254362 
L 304.0128 215.456026 
L 304.72704 209.33545 
L 305.08416 209.654784 
L 305.7984 202.043981 
L 306.15552 201.192422 
L 306.51264 197.227354 
L 306.86976 197.59991 
L 307.22688 195.204902 
L 307.584 195.018624 
L 308.29824 198.770803 
L 309.01248 206.887219 
L 309.3696 207.392832 
L 309.72672 208.643558 
L 311.51232 226.180339 
L 312.22656 227.377843 
L 312.58368 225.062669 
L 313.29792 218.117146 
L 313.65504 216.600307 
L 315.44064 187.16832 
L 315.79776 187.221542 
L 316.512 189.989107 
L 316.86912 191.559168 
L 318.65472 207.073498 
L 319.01184 212.635238 
L 320.0832 221.54999 
L 320.44032 222.534605 
L 320.79744 224.104666 
L 321.51168 225.914227 
L 321.8688 223.599053 
L 322.58304 214.152077 
L 322.94016 210.586176 
L 324.36864 189.643162 
L 324.72576 187.567488 
L 325.08288 186.556262 
L 325.44 186.95543 
L 326.15424 193.555008 
L 326.86848 207.366221 
L 327.58272 215.695526 
L 327.93984 217.159142 
L 328.29696 223.998221 
L 328.65408 226.260173 
L 329.0112 226.898842 
L 329.36832 229.134182 
L 329.72544 228.548736 
L 330.08256 226.073894 
L 330.43968 226.153728 
L 330.7968 221.683046 
L 331.15392 220.192819 
L 332.22528 205.902605 
L 332.5824 202.25687 
L 332.93952 196.641907 
L 333.29664 195.311347 
L 333.65376 192.996173 
L 334.01088 191.745446 
L 334.368 195.337958 
L 334.72512 195.896794 
L 335.08224 197.626522 
L 336.51072 216.999475 
L 337.22496 221.789491 
L 337.58208 223.066829 
L 337.9392 223.040218 
L 338.29632 223.678886 
L 338.65344 222.720883 
L 339.01056 222.64105 
L 339.36768 216.22775 
L 339.7248 212.66185 
L 340.08192 206.621107 
L 340.43904 203.188262 
L 340.79616 197.387021 
L 341.5104 190.148774 
L 341.86752 190.388275 
L 342.22464 188.339213 
L 342.58176 188.365824 
L 345.0816 212.156237 
L 345.79584 220.725043 
L 346.8672 224.503834 
L 347.22432 223.75872 
L 347.58144 222.028992 
L 349.00992 208.24439 
L 349.36704 202.789094 
L 350.4384 194.353344 
L 350.79552 192.94295 
L 351.15264 192.969562 
L 351.50976 195.204902 
L 351.86688 194.379955 
L 352.224 197.387021 
L 352.58112 201.35209 
L 353.29536 204.651878 
L 355.08096 223.811942 
L 355.43808 223.625664 
L 355.7952 224.397389 
L 356.86656 220.192819 
L 357.22368 217.824422 
L 359.72352 191.958336 
L 360.08064 193.395341 
L 360.43776 194.246899 
L 360.79488 195.444403 
L 361.152 197.067686 
L 361.50912 202.602816 
L 361.86624 205.024435 
L 362.22336 205.79616 
L 362.58048 208.45728 
L 362.9376 209.33545 
L 364.00896 222.774106 
L 364.36608 222.21527 
L 364.7232 221.443546 
L 365.43744 219.154982 
L 365.79456 215.216525 
L 366.15168 213.11424 
L 366.86592 205.689715 
L 367.22304 203.374541 
L 368.2944 193.262285 
L 368.65152 192.730061 
L 369.00864 191.585779 
L 369.72288 193.741286 
L 370.43712 203.188262 
L 370.79424 206.940442 
L 371.15136 207.712166 
L 371.8656 214.125466 
L 373.29408 219.633984 
L 374.00832 217.584922 
L 374.36544 217.212365 
L 374.72256 214.843968 
L 375.07968 213.300518 
L 375.4368 208.723392 
L 376.15104 203.081818 
L 376.50816 199.329638 
L 376.86528 198.318413 
L 377.2224 194.539622 
L 377.57952 194.805734 
L 377.93664 195.231514 
L 378.29376 195.417792 
L 378.65088 196.26935 
L 379.008 197.706355 
L 379.72224 209.761229 
L 380.07936 211.357901 
L 381.15072 226.526285 
L 381.50784 230.331686 
L 381.86496 232.380749 
L 382.22208 233.711309 
L 382.5792 232.114637 
L 382.93632 229.693018 
L 384.00768 216.600307 
L 385.07904 197.067686 
L 386.1504 185.491814 
L 386.50752 184.267699 
L 387.22176 190.70761 
L 387.57888 192.384115 
L 388.29312 202.46976 
L 389.00736 214.65769 
L 390.07872 228.256013 
L 390.79296 231.52919 
L 391.86432 222.401549 
L 392.22144 215.695526 
L 393.2928 203.34793 
L 393.64992 198.318413 
L 394.00704 197.227354 
L 394.36416 198.744192 
L 394.72128 196.908019 
L 395.43552 198.132134 
L 395.79264 199.728806 
L 396.14976 199.968307 
L 396.50688 203.507597 
L 396.864 202.735872 
L 397.22112 205.476826 
L 397.93536 213.11424 
L 398.29248 215.296358 
L 399.00672 222.348326 
L 399.36384 221.709658 
L 399.72096 222.082214 
L 400.07808 222.241882 
L 400.4352 222.933773 
L 400.79232 222.321715 
L 401.50656 221.443546 
L 402.2208 216.839808 
L 403.29216 201.325478 
L 403.64928 199.648973 
L 404.0064 197.333798 
L 404.36352 194.03401 
L 405.07776 192.064781 
L 405.43488 193.528397 
L 405.792 193.288896 
L 406.14912 197.999078 
L 406.50624 197.866022 
L 407.93472 213.77952 
L 408.64896 217.55831 
L 409.00608 217.292198 
L 409.3632 216.866419 
L 409.72032 219.208205 
L 410.07744 220.405709 
L 410.43456 222.321715 
L 410.79168 223.120051 
L 411.50592 217.079309 
L 412.57728 201.80448 
L 412.9344 200.420698 
L 413.64864 190.388275 
L 414.00576 186.529651 
L 414.36288 187.487654 
L 414.36288 187.487654 
" clip-path="url(#pac1b3f952f)" style="fill: none; stroke: #0000ff; stroke-width: 1.5; stroke-linecap: square"/>
   </g>
   <g id="line2d_14">
    <path d="M 57.6 220.325875 
L 58.31424 223.97161 
L 58.67136 223.838554 
L 59.02848 222.960384 
L 59.74272 216.467251 
L 60.09984 210.320064 
L 61.1712 197.8128 
L 61.52832 191.213222 
L 61.88544 187.727155 
L 62.24256 187.035264 
L 62.59968 185.17248 
L 62.9568 184.453978 
L 63.31392 187.487654 
L 63.67104 188.525491 
L 64.02816 190.627776 
L 64.7424 200.952922 
L 65.45664 213.300518 
L 65.81376 217.55831 
L 66.528 223.30633 
L 66.88512 223.705498 
L 67.59936 222.082214 
L 67.95648 220.192819 
L 69.38496 207.472666 
L 70.81344 183.655642 
L 71.17056 184.108032 
L 71.52768 185.119258 
L 71.8848 184.453978 
L 72.24192 189.61655 
L 72.59904 192.357504 
L 72.95616 197.253965 
L 73.6704 210.399898 
L 74.74176 222.028992 
L 75.09888 225.248947 
L 75.456 225.009446 
L 75.81312 225.275558 
L 76.17024 224.131277 
L 76.52736 222.481382 
L 76.88448 218.835648 
L 77.2416 216.387418 
L 77.95584 209.308838 
L 78.67008 199.409472 
L 79.0272 195.550848 
L 79.38432 194.832346 
L 79.74144 190.388275 
L 80.09856 191.37289 
L 80.45568 189.669773 
L 80.8128 191.505946 
L 81.16992 192.543782 
L 81.88416 197.014464 
L 82.24128 201.192422 
L 82.5984 211.091789 
L 82.95552 212.369126 
L 83.31264 216.919642 
L 83.66976 218.037312 
L 84.02688 217.691366 
L 84.384 218.409869 
L 84.74112 218.22359 
L 85.09824 217.55831 
L 85.81248 212.954573 
L 86.52672 207.179942 
L 87.9552 191.293056 
L 88.31232 188.924659 
L 89.02656 191.851891 
L 89.38368 191.931725 
L 89.7408 191.319667 
L 90.09792 193.022784 
L 90.45504 195.950016 
L 90.81216 197.759578 
L 91.16928 201.80448 
L 91.88352 204.25271 
L 92.24064 210.00073 
L 92.95488 215.509248 
L 93.312 216.041472 
L 93.66912 217.877645 
L 94.02624 216.280973 
L 95.0976 206.754163 
L 95.45472 205.636493 
L 95.81184 201.219034 
L 96.16896 198.664358 
L 96.52608 197.732966 
L 96.8832 198.398246 
L 97.24032 198.158746 
L 97.59744 197.307187 
L 97.95456 199.515917 
L 98.6688 200.899699 
L 99.02592 204.146266 
L 99.38304 205.875994 
L 99.74016 210.320064 
L 100.4544 207.020275 
L 100.81152 205.609882 
L 101.16864 202.735872 
L 101.52576 201.511757 
L 101.88288 201.538368 
L 102.24 197.573299 
L 102.59712 198.26519 
L 103.31136 197.067686 
L 103.66848 197.653133 
L 104.0256 197.120909 
L 104.38272 198.318413 
L 104.73984 200.766643 
L 105.09696 201.511757 
L 105.45408 204.146266 
L 105.8112 208.164557 
L 106.16832 209.708006 
L 106.52544 209.521728 
L 106.88256 212.741683 
L 107.23968 212.927962 
L 107.5968 212.90135 
L 107.95392 212.23607 
L 108.31104 212.848128 
L 108.66816 212.315904 
L 109.02528 211.411123 
L 109.73952 213.540019 
L 110.09664 216.573696 
L 110.45376 215.695526 
L 110.81088 215.722138 
L 111.168 213.300518 
L 111.52512 207.845222 
L 111.88224 205.210714 
L 112.23936 201.431923 
L 112.59648 201.219034 
L 112.9536 199.861862 
L 113.31072 195.125069 
L 114.02496 200.02153 
L 114.38208 199.14336 
L 115.09632 207.179942 
L 115.45344 209.069338 
L 116.5248 210.160397 
L 116.88192 210.399898 
L 117.59616 211.411123 
L 118.3104 209.78784 
L 118.66752 207.658944 
L 119.02464 206.91383 
L 119.38176 204.572045 
L 120.096 203.108429 
L 121.16736 195.497626 
L 121.52448 195.630682 
L 121.8816 193.634842 
L 122.23872 193.262285 
L 122.59584 190.814054 
L 122.95296 190.680998 
L 123.31008 192.49056 
L 123.6672 192.463949 
L 124.02432 193.767898 
L 124.73856 205.982438 
L 126.52416 223.492608 
L 126.88128 222.401549 
L 127.95264 216.094694 
L 128.30976 215.056858 
L 128.66688 212.103014 
L 129.024 210.772454 
L 129.38112 207.765389 
L 130.45248 194.4864 
L 130.8096 190.335053 
L 131.16672 189.16416 
L 131.52384 187.248154 
L 131.88096 188.791603 
L 132.5952 193.767898 
L 132.95232 196.562074 
L 133.30944 197.786189 
L 133.66656 203.108429 
L 134.02368 206.381606 
L 134.3808 211.224845 
L 135.09504 216.759974 
L 135.45216 217.238976 
L 135.80928 215.642304 
L 136.1664 216.680141 
L 136.52352 216.041472 
L 136.88064 217.398643 
L 137.23776 215.98825 
L 139.02336 201.751258 
L 139.7376 194.779123 
L 140.09472 190.840666 
L 140.45184 191.37289 
L 140.80896 190.654387 
L 141.16608 190.920499 
L 141.5232 190.308442 
L 141.88032 192.517171 
L 142.23744 195.444403 
L 142.59456 196.721741 
L 144.38016 220.618598 
L 145.0944 224.690112 
L 145.45152 225.275558 
L 146.16576 223.572442 
L 146.88 216.972864 
L 147.59424 202.842317 
L 147.95136 195.737126 
L 148.6656 186.449818 
L 149.02272 184.480589 
L 149.37984 184.374144 
L 150.09408 184.587034 
L 150.80832 189.430272 
L 151.16544 192.091392 
L 151.52256 198.69097 
L 151.87968 203.001984 
L 152.2368 210.080563 
L 153.66528 228.788237 
L 154.0224 229.240627 
L 154.37952 227.08512 
L 154.73664 226.552896 
L 155.09376 223.226496 
L 155.808 212.555405 
L 157.5936 180.808243 
L 157.95072 176.763341 
L 158.30784 174.767501 
L 158.66496 176.284339 
L 159.02208 176.07145 
L 159.73632 185.358758 
L 160.80768 208.084723 
L 161.1648 213.77952 
L 161.87904 226.952064 
L 162.23616 228.708403 
L 162.59328 231.502579 
L 163.30752 229.134182 
L 164.02176 220.325875 
L 164.37888 214.045632 
L 165.09312 197.280576 
L 165.80736 186.662707 
L 166.16448 179.105126 
L 166.5216 176.896397 
L 166.87872 176.896397 
L 167.23584 177.535066 
L 167.59296 181.340467 
L 168.3072 194.193677 
L 170.44992 226.579507 
L 170.80704 225.727949 
L 171.52128 224.982835 
L 171.8784 222.667661 
L 174.02112 189.110938 
L 174.73536 182.05897 
L 175.09248 182.883917 
L 175.4496 184.241088 
L 175.80672 187.194931 
L 176.16384 192.011558 
L 176.52096 194.965402 
L 176.87808 200.02153 
L 177.2352 202.948762 
L 178.66368 223.625664 
L 179.0208 226.499674 
L 179.37792 227.031898 
L 180.09216 223.572442 
L 180.44928 219.367872 
L 180.8064 216.493862 
L 181.16352 212.395738 
L 181.87776 196.615296 
L 182.94912 181.367078 
L 183.30624 178.173734 
L 183.66336 178.493069 
L 184.02048 181.1808 
L 184.3776 182.192026 
L 184.73472 185.411981 
L 185.09184 189.856051 
L 187.23456 227.590733 
L 187.9488 233.551642 
L 188.30592 233.791142 
L 188.66304 234.270144 
L 189.02016 232.327526 
L 189.37728 228.894682 
L 190.09152 216.680141 
L 190.80576 197.466854 
L 191.87712 178.626125 
L 192.59136 171.068544 
L 192.94848 169.764595 
L 193.3056 169.471872 
L 193.66272 172.266048 
L 194.01984 177.694733 
L 194.37696 184.906368 
L 195.80544 224.024832 
L 196.16256 230.145408 
L 196.8768 235.600704 
L 197.23392 238.128768 
L 197.59104 237.197376 
L 197.94816 234.828979 
L 198.30528 231.662246 
L 198.6624 223.54583 
L 199.01952 218.276813 
L 200.80512 180.355853 
L 201.16224 176.098061 
L 201.51936 175.991616 
L 201.87648 176.284339 
L 202.2336 175.486003 
L 202.94784 186.210317 
L 204.73344 225.275558 
L 205.09056 230.172019 
L 205.8048 235.494259 
L 206.16192 233.258918 
L 206.51904 231.74208 
L 207.23328 225.701338 
L 207.94752 218.516314 
L 209.73312 181.234022 
L 210.44736 173.809498 
L 210.80448 174.155443 
L 211.1616 174.261888 
L 211.51872 177.508454 
L 212.23296 187.115098 
L 212.59008 194.27351 
L 213.66144 209.33545 
L 214.37568 220.033152 
L 215.08992 229.054349 
L 215.44704 226.340006 
L 215.80416 224.903002 
L 216.16128 222.401549 
L 216.5184 217.98409 
L 217.23264 204.651878 
L 218.66112 183.469363 
L 219.01824 182.883917 
L 220.0896 190.335053 
L 220.44672 193.581619 
L 220.80384 195.550848 
L 221.51808 205.875994 
L 222.58944 220.858099 
L 222.94656 222.481382 
L 223.6608 222.853939 
L 224.01792 220.086374 
L 224.73216 212.129626 
L 225.08928 209.894285 
L 225.4464 204.838157 
L 226.16064 198.957082 
L 226.51776 198.531302 
L 227.58912 193.421952 
L 227.94624 193.475174 
L 228.66048 196.48224 
L 229.0176 196.828186 
L 229.73184 202.762483 
L 230.08896 202.789094 
L 231.16032 210.506342 
L 231.51744 211.091789 
L 231.87456 211.304678 
L 232.23168 212.076403 
L 232.5888 211.251456 
L 233.66016 205.902605 
L 234.73152 202.363315 
L 235.08864 203.321318 
L 235.80288 204.199488 
L 236.16 204.039821 
L 236.51712 205.290547 
L 236.87424 203.773709 
L 237.58848 200.181197 
L 237.9456 199.941696 
L 238.30272 200.420698 
L 238.65984 202.25687 
L 239.01696 202.789094 
L 239.37408 202.948762 
L 239.7312 205.530048 
L 240.80256 201.298867 
L 241.15968 200.500531 
L 241.5168 200.074752 
L 242.23104 196.961242 
L 242.58816 195.81696 
L 242.94528 197.094298 
L 243.3024 199.994918 
L 244.01664 203.321318 
L 244.73088 207.871834 
L 245.088 209.415283 
L 245.44512 212.076403 
L 245.80224 212.874739 
L 246.15936 211.038566 
L 246.51648 211.011955 
L 246.8736 210.266842 
L 247.58784 212.209459 
L 247.94496 209.814451 
L 248.30208 206.168717 
L 248.6592 204.891379 
L 249.73056 196.083072 
L 250.4448 191.026944 
L 250.80192 192.623616 
L 251.51616 198.211968 
L 253.65888 210.559565 
L 254.016 211.065178 
L 254.37312 212.289293 
L 254.73024 213.034406 
L 255.08736 213.406963 
L 255.8016 210.107174 
L 256.15872 205.663104 
L 256.51584 204.332544 
L 256.87296 200.048141 
L 257.23008 198.158746 
L 257.5872 195.36457 
L 257.94432 194.779123 
L 258.30144 196.455629 
L 258.65856 196.881408 
L 259.3728 199.169971 
L 259.72992 201.112589 
L 260.08704 200.606976 
L 260.80128 204.4656 
L 261.1584 206.062272 
L 261.51552 208.962893 
L 261.87264 209.761229 
L 262.22976 211.1184 
L 262.58688 213.77952 
L 262.944 213.460186 
L 263.30112 214.338355 
L 263.65824 210.00073 
L 264.01536 207.446054 
L 264.37248 203.534208 
L 264.7296 197.972467 
L 265.44384 195.15168 
L 265.80096 191.080166 
L 266.15808 190.308442 
L 266.5152 191.053555 
L 266.87232 192.463949 
L 267.22944 193.36873 
L 267.58656 197.759578 
L 267.94368 199.036915 
L 268.3008 199.648973 
L 268.65792 201.219034 
L 269.37216 206.035661 
L 269.72928 207.12672 
L 270.44352 213.247296 
L 270.80064 216.147917 
L 271.15776 216.680141 
L 271.51488 214.364966 
L 271.872 213.806131 
L 272.22912 211.544179 
L 272.58624 208.324224 
L 273.30048 199.036915 
L 273.6576 196.908019 
L 274.01472 196.48224 
L 274.37184 196.908019 
L 274.72896 195.417792 
L 275.08608 196.668518 
L 275.80032 198.078912 
L 276.15744 198.078912 
L 276.51456 201.405312 
L 276.87168 203.13504 
L 277.2288 206.275162 
L 277.58592 208.137946 
L 278.30016 213.513408 
L 278.65728 212.927962 
L 279.0144 214.684301 
L 279.37152 213.646464 
L 279.72864 212.182848 
L 280.44288 205.317158 
L 280.8 200.181197 
L 282.22848 190.49472 
L 282.5856 191.266445 
L 282.94272 194.433178 
L 283.29984 194.140454 
L 283.65696 195.204902 
L 284.01408 197.653133 
L 284.3712 198.47808 
L 284.72832 199.59575 
L 285.08544 200.26103 
L 285.44256 199.648973 
L 285.79968 201.80448 
L 286.51392 208.350835 
L 287.22816 212.715072 
L 287.58528 212.715072 
L 287.9424 212.981184 
L 288.29952 211.517568 
L 288.65664 211.1184 
L 289.01376 211.78368 
L 289.37088 211.33129 
L 289.728 209.78784 
L 290.08512 208.829837 
L 290.44224 208.750003 
L 290.79936 204.066432 
L 291.15648 202.975373 
L 291.5136 199.35625 
L 291.87072 198.211968 
L 292.22784 196.668518 
L 292.58496 196.987853 
L 292.94208 195.36457 
L 293.2992 195.497626 
L 293.65632 196.136294 
L 294.01344 197.094298 
L 294.37056 199.409472 
L 295.0848 206.301773 
L 295.44192 208.111334 
L 295.79904 214.391578 
L 296.15616 214.631078 
L 296.51328 213.167462 
L 296.8704 213.220685 
L 297.22752 215.801971 
L 297.58464 214.285133 
L 298.656 204.518822 
L 299.01312 203.933376 
L 299.37024 200.660198 
L 299.72736 200.287642 
L 300.08448 197.36041 
L 300.4416 196.535462 
L 300.79872 193.262285 
L 301.15584 192.676838 
L 301.51296 192.463949 
L 301.87008 192.597005 
L 302.2272 192.197837 
L 302.58432 194.353344 
L 302.94144 197.36041 
L 303.29856 199.276416 
L 303.65568 205.051046 
L 304.0128 207.818611 
L 304.36992 211.544179 
L 304.72704 213.140851 
L 305.08416 213.752909 
L 305.7984 218.729203 
L 306.15552 218.569536 
L 307.22688 216.041472 
L 307.584 213.540019 
L 308.29824 204.385766 
L 309.01248 195.870182 
L 309.3696 194.539622 
L 310.79808 187.248154 
L 311.51232 188.605325 
L 312.22656 193.501786 
L 313.29792 210.932122 
L 313.65504 213.806131 
L 314.01216 220.246042 
L 314.36928 223.120051 
L 314.7264 224.450611 
L 315.08352 223.519219 
L 315.44064 223.944998 
L 316.15488 214.471411 
L 316.86912 207.818611 
L 317.22624 205.769549 
L 319.01184 186.822374 
L 319.72608 187.194931 
L 320.0832 188.764992 
L 320.44032 192.064781 
L 320.79744 193.049395 
L 321.15456 197.573299 
L 321.51168 200.074752 
L 322.58304 215.98825 
L 323.6544 225.222336 
L 324.01152 226.579507 
L 324.36864 224.823168 
L 325.44 213.619853 
L 326.51136 191.639002 
L 326.86848 187.088486 
L 327.2256 185.704704 
L 327.58272 182.644416 
L 327.93984 182.218637 
L 328.29696 179.876851 
L 328.65408 181.500134 
L 329.0112 186.71593 
L 329.36832 188.818214 
L 330.43968 200.553754 
L 330.7968 206.621107 
L 331.51104 214.418189 
L 331.86816 219.500928 
L 332.22528 222.268493 
L 332.5824 222.295104 
L 332.93952 223.439386 
L 333.29664 222.188659 
L 333.65376 219.793651 
L 334.368 209.628173 
L 334.72512 207.792 
L 335.43936 195.125069 
L 335.79648 191.798669 
L 336.1536 190.308442 
L 336.51072 187.194931 
L 337.22496 189.270605 
L 337.58208 191.426112 
L 337.9392 197.493466 
L 338.29632 198.26519 
L 339.01056 204.811546 
L 339.36768 212.023181 
L 340.08192 218.622758 
L 340.79616 223.253107 
L 341.15328 224.024832 
L 341.5104 224.051443 
L 341.86752 220.272653 
L 342.22464 220.086374 
L 342.93888 210.745843 
L 344.01024 195.630682 
L 344.36736 191.905114 
L 345.43872 186.822374 
L 345.79584 187.487654 
L 346.15296 189.110938 
L 346.51008 190.201997 
L 347.22432 196.083072 
L 348.6528 213.433574 
L 349.00992 216.972864 
L 349.36704 217.7712 
L 350.08128 218.330035 
L 350.4384 217.98409 
L 350.79552 216.22775 
L 351.15264 213.806131 
L 351.50976 210.160397 
L 351.86688 209.78784 
L 352.224 206.541274 
L 352.58112 201.831091 
L 352.93824 200.26103 
L 353.29536 197.573299 
L 353.65248 191.639002 
L 354.0096 191.426112 
L 354.72384 186.742541 
L 355.08096 189.456883 
L 355.43808 193.315507 
L 355.7952 195.870182 
L 356.15232 199.569139 
L 356.50944 201.724646 
L 357.5808 212.049792 
L 357.93792 214.577856 
L 358.29504 219.367872 
L 358.65216 221.230656 
L 359.00928 220.725043 
L 359.72352 219.10176 
L 360.08064 213.273907 
L 361.50912 199.036915 
L 361.86624 197.839411 
L 362.22336 197.972467 
L 362.58048 195.018624 
L 362.9376 194.566234 
L 363.29472 192.011558 
L 364.00896 191.16 
L 364.7232 199.303027 
L 365.08032 201.777869 
L 366.5088 217.10592 
L 366.86592 217.292198 
L 367.22304 218.809037 
L 367.58016 217.7712 
L 367.93728 218.170368 
L 368.2944 217.717978 
L 368.65152 213.99241 
L 369.00864 212.103014 
L 369.72288 205.742938 
L 370.08 200.234419 
L 370.79424 194.752512 
L 371.15136 195.81696 
L 371.50848 192.809894 
L 371.8656 192.463949 
L 372.22272 191.479334 
L 373.29408 196.349184 
L 373.6512 200.447309 
L 374.00832 201.378701 
L 375.07968 211.011955 
L 375.4368 213.752909 
L 375.79392 215.509248 
L 376.15104 214.977024 
L 376.50816 216.706752 
L 376.86528 216.786586 
L 377.2224 215.855194 
L 377.57952 211.863514 
L 378.65088 204.864768 
L 379.008 200.819866 
L 379.72224 188.818214 
L 380.07936 186.609485 
L 380.43648 181.553357 
L 381.15072 179.318016 
L 381.50784 179.823629 
L 382.5792 195.657293 
L 383.65056 214.338355 
L 384.3648 222.561216 
L 384.72192 225.674726 
L 385.07904 227.218176 
L 385.43616 226.87223 
L 385.79328 224.024832 
L 386.1504 222.108826 
L 386.50752 218.968704 
L 388.65024 188.71177 
L 389.36448 183.070195 
L 389.7216 180.941299 
L 390.07872 182.404915 
L 390.43584 184.693478 
L 390.79296 188.844826 
L 391.15008 199.063526 
L 392.22144 214.604467 
L 392.57856 216.733363 
L 392.93568 218.037312 
L 393.2928 218.729203 
L 393.64992 217.851034 
L 394.36416 212.289293 
L 394.72128 211.171622 
L 395.0784 208.217779 
L 395.43552 206.860608 
L 395.79264 203.294707 
L 396.14976 202.25687 
L 396.50688 199.702195 
L 396.864 198.557914 
L 397.22112 195.471014 
L 397.57824 193.927565 
L 397.93536 191.505946 
L 398.6496 190.148774 
L 399.00672 189.82944 
L 400.07808 195.204902 
L 400.4352 196.216128 
L 400.79232 200.92631 
L 401.14944 202.363315 
L 401.50656 205.875994 
L 401.86368 210.612787 
L 402.2208 212.90135 
L 402.93504 220.139597 
L 403.29216 220.43232 
L 403.64928 217.584922 
L 404.0064 215.668915 
L 404.36352 215.642304 
L 405.07776 212.981184 
L 405.43488 208.510502 
L 405.792 206.24855 
L 406.14912 201.618202 
L 406.50624 201.751258 
L 406.86336 196.908019 
L 407.22048 194.779123 
L 407.5776 191.16 
L 407.93472 189.16416 
L 408.29184 189.962496 
L 409.00608 193.102618 
L 409.3632 196.322573 
L 409.72032 196.881408 
L 410.79168 203.241485 
L 411.86304 216.068083 
L 412.22016 221.390323 
L 412.57728 223.226496 
L 412.9344 222.162048 
L 413.29152 221.922547 
L 413.64864 221.044378 
L 414.00576 221.416934 
L 414.36288 217.797811 
L 414.36288 217.797811 
" clip-path="url(#pac1b3f952f)" style="fill: none; stroke: #bf00bf; stroke-width: 1.5; stroke-linecap: square"/>
   </g>
   <g id="line2d_15">
    <path d="M 57.6 228.575347 
L 58.67136 238.448102 
L 59.3856 248.799859 
L 60.09984 258.80567 
L 60.45696 260.668454 
L 60.81408 261.706291 
L 61.1712 262.291738 
L 62.24256 256.35744 
L 62.59968 251.753702 
L 62.9568 249.970752 
L 63.31392 244.275955 
L 64.02816 239.51255 
L 64.38528 234.562867 
L 65.09952 227.936678 
L 65.45664 226.233562 
L 65.81376 226.712563 
L 66.17088 227.777011 
L 66.528 230.491354 
L 67.24224 237.7296 
L 67.59936 243.663898 
L 68.3136 250.556198 
L 68.67072 251.24809 
L 69.74208 260.881344 
L 70.0992 259.391117 
L 70.45632 259.524173 
L 70.81344 258.35328 
L 71.17056 253.084262 
L 71.8848 245.686349 
L 72.24192 237.756211 
L 72.59904 234.137088 
L 73.31328 223.75872 
L 73.6704 223.625664 
L 74.02752 223.146662 
L 74.74176 224.184499 
L 75.09888 227.351232 
L 75.456 232.221082 
L 75.81312 235.095091 
L 76.52736 247.362854 
L 76.88448 250.343309 
L 77.2416 251.540813 
L 78.31296 257.288832 
L 78.67008 257.02272 
L 79.0272 256.35744 
L 79.38432 254.468045 
L 79.74144 253.90921 
L 80.45568 250.742477 
L 80.8128 245.92585 
L 81.88416 237.543322 
L 82.24128 233.498419 
L 82.5984 227.777011 
L 82.95552 228.069734 
L 83.31264 228.601958 
L 83.66976 233.418586 
L 84.02688 234.908813 
L 84.384 237.303821 
L 85.09824 244.568678 
L 85.45536 246.804019 
L 86.1696 252.073037 
L 86.52672 253.430208 
L 86.88384 254.095488 
L 87.24096 254.068877 
L 87.59808 255.02688 
L 87.9552 254.015654 
L 88.31232 252.472205 
L 89.02656 248.028134 
L 89.38368 247.362854 
L 90.09792 242.306726 
L 90.45504 242.705894 
L 90.81216 238.660992 
L 91.16928 236.505485 
L 91.88352 234.61609 
L 92.24064 232.247693 
L 92.59776 232.806528 
L 92.95488 234.935424 
L 93.312 236.292595 
L 93.66912 238.341658 
L 94.38336 248.241024 
L 94.74048 249.598195 
L 95.0976 250.343309 
L 95.81184 252.445594 
L 96.16896 252.685094 
L 96.52608 249.970752 
L 96.8832 249.278861 
L 97.24032 246.910464 
L 97.59744 245.606515 
L 97.95456 242.200282 
L 98.31168 241.641446 
L 99.02592 241.082611 
L 99.38304 240.683443 
L 99.74016 241.215667 
L 100.09728 245.180736 
L 100.4544 246.032294 
L 100.81152 249.119194 
L 101.16864 249.544973 
L 101.52576 248.267635 
L 101.88288 248.560358 
L 102.24 249.70464 
L 102.59712 247.948301 
L 102.95424 248.214413 
L 103.66848 246.032294 
L 104.0256 246.83063 
L 104.73984 243.078451 
L 105.45408 242.040614 
L 105.8112 238.927104 
L 106.16832 238.554547 
L 106.52544 238.448102 
L 106.88256 238.048934 
L 107.23968 240.443942 
L 107.5968 239.778662 
L 107.95392 241.50839 
L 108.31104 241.641446 
L 108.66816 241.93417 
L 109.02528 242.519616 
L 109.73952 238.128768 
L 110.09664 239.698829 
L 110.45376 242.519616 
L 110.81088 243.025229 
L 111.52512 250.609421 
L 112.23936 252.232704 
L 112.59648 250.58281 
L 112.9536 250.103808 
L 113.31072 250.742477 
L 113.66784 248.640192 
L 114.38208 243.26473 
L 114.7392 241.668058 
L 115.45344 237.649766 
L 115.81056 239.698829 
L 116.16768 239.592384 
L 116.5248 241.029389 
L 117.23904 242.918784 
L 117.59616 244.036454 
L 117.95328 244.754957 
L 119.73888 252.019814 
L 120.096 251.620646 
L 120.45312 251.966592 
L 120.81024 252.498816 
L 121.16736 251.780314 
L 121.52448 249.544973 
L 121.8816 249.332083 
L 122.23872 248.773248 
L 122.95296 245.952461 
L 123.31008 243.371174 
L 123.6672 241.72128 
L 124.02432 238.501325 
L 124.38144 232.008192 
L 124.73856 227.697178 
L 125.09568 225.435226 
L 125.4528 225.75456 
L 125.80992 226.552896 
L 126.16704 226.765786 
L 126.52416 228.096346 
L 127.59552 242.040614 
L 127.95264 244.3824 
L 128.30976 248.054746 
L 128.66688 248.666803 
L 129.024 252.445594 
L 129.38112 253.989043 
L 129.73824 256.942886 
L 130.09536 258.459725 
L 130.45248 257.661389 
L 130.8096 254.095488 
L 131.16672 251.647258 
L 131.52384 250.875533 
L 133.66656 233.604864 
L 134.02368 230.464742 
L 134.3808 228.548736 
L 135.09504 229.799462 
L 135.45216 232.646861 
L 135.80928 236.505485 
L 136.1664 238.740826 
L 136.52352 240.231053 
L 136.88064 241.162445 
L 137.952 251.514202 
L 138.66624 254.201933 
L 139.02336 254.201933 
L 139.38048 255.000269 
L 139.7376 254.57449 
L 140.09472 253.589875 
L 140.45184 250.662643 
L 140.80896 250.636032 
L 141.16608 248.320858 
L 141.5232 246.963686 
L 142.23744 240.044774 
L 143.3088 227.936678 
L 143.66592 226.313395 
L 144.02304 225.54167 
L 144.38016 226.313395 
L 145.80864 240.630221 
L 146.16576 247.362854 
L 147.23712 258.912115 
L 147.95136 261.67968 
L 148.6656 260.269286 
L 149.37984 253.217318 
L 150.4512 242.147059 
L 150.80832 239.27305 
L 151.87968 223.465997 
L 152.2368 219.421094 
L 152.59392 219.394483 
L 152.95104 220.43232 
L 153.66528 227.111731 
L 154.37952 241.774502 
L 155.808 261.147456 
L 156.16512 262.611072 
L 156.52224 264.873024 
L 156.87936 264.181133 
L 157.23648 264.686746 
L 157.5936 263.409408 
L 157.95072 260.987789 
L 158.30784 257.395277 
L 160.09344 227.510899 
L 160.45056 221.204045 
L 161.1648 214.524634 
L 161.52192 215.722138 
L 161.87904 219.421094 
L 162.23616 225.275558 
L 163.30752 248.347469 
L 164.02176 258.912115 
L 164.736 264.660134 
L 165.09312 266.310029 
L 165.45024 266.576141 
L 165.80736 265.245581 
L 166.16448 262.903795 
L 166.5216 258.965338 
L 168.66432 227.138342 
L 169.37856 221.230656 
L 169.73568 222.481382 
L 170.0928 224.370778 
L 170.44992 227.723789 
L 170.80704 234.110477 
L 171.52128 244.009843 
L 172.23552 255.798605 
L 172.59264 258.592781 
L 173.30688 260.508787 
L 173.664 260.615232 
L 174.02112 260.987789 
L 175.09248 248.693414 
L 175.80672 243.078451 
L 176.52096 236.026483 
L 176.87808 232.274304 
L 177.2352 229.932518 
L 177.59232 225.142502 
L 177.94944 224.903002 
L 178.30656 225.275558 
L 178.66368 227.803622 
L 179.37792 235.786982 
L 180.09216 247.336243 
L 181.52064 262.105459 
L 181.87776 262.451405 
L 182.23488 263.728742 
L 182.592 262.637683 
L 182.94912 261.094234 
L 183.30624 257.049331 
L 183.66336 251.168256 
L 184.02048 247.522522 
L 184.3776 245.100902 
L 186.1632 219.607373 
L 186.52032 215.11008 
L 186.87744 215.509248 
L 187.23456 215.429414 
L 187.59168 218.809037 
L 188.30592 229.586573 
L 190.09152 265.192358 
L 190.44864 268.33248 
L 191.16288 271.472602 
L 191.52 269.317094 
L 191.87712 269.370317 
L 192.94848 258.858893 
L 193.66272 246.191962 
L 194.37696 230.012352 
L 195.0912 215.296358 
L 195.44832 209.947507 
L 195.80544 208.90967 
L 196.16256 211.011955 
L 196.51968 215.296358 
L 197.23392 229.826074 
L 198.6624 259.976563 
L 199.73376 268.11959 
L 200.09088 269.45015 
L 200.448 269.104205 
L 200.80512 267.188198 
L 201.51936 258.273446 
L 202.59072 241.322112 
L 203.30496 224.131277 
L 203.66208 220.64521 
L 204.0192 215.801971 
L 204.37632 213.646464 
L 204.73344 213.061018 
L 205.44768 223.54583 
L 206.16192 238.687603 
L 207.5904 261.067622 
L 207.94752 263.968243 
L 208.30464 268.359091 
L 208.66176 269.716262 
L 209.01888 269.503373 
L 209.73312 268.252646 
L 210.09024 266.176973 
L 210.44736 262.13207 
L 210.80448 256.756608 
L 211.1616 253.563264 
L 211.51872 246.484685 
L 211.87584 242.785728 
L 212.59008 231.263078 
L 212.9472 230.597798 
L 213.30432 226.20695 
L 213.66144 225.248947 
L 214.01856 222.827328 
L 214.37568 223.30633 
L 214.7328 226.819008 
L 215.08992 229.08096 
L 215.44704 238.554547 
L 216.5184 256.330829 
L 216.87552 259.01856 
L 217.23264 259.284672 
L 217.58976 260.508787 
L 217.94688 260.535398 
L 218.304 259.604006 
L 219.01824 251.354534 
L 219.37536 246.37824 
L 220.0896 240.231053 
L 220.80384 234.110477 
L 221.51808 228.442291 
L 222.23232 226.340006 
L 222.58944 226.845619 
L 222.94656 228.016512 
L 223.6608 240.124608 
L 224.73216 251.088422 
L 225.4464 255.426048 
L 225.80352 255.532493 
L 226.87488 253.164096 
L 227.232 253.376986 
L 227.94624 248.560358 
L 228.30336 244.302566 
L 229.0176 239.219827 
L 229.73184 235.254758 
L 230.08896 235.387814 
L 230.44608 235.095091 
L 230.8032 234.216922 
L 231.16032 236.106317 
L 231.51744 236.61193 
L 231.87456 237.383654 
L 232.23168 237.250598 
L 233.30304 246.005683 
L 233.66016 246.112128 
L 234.01728 247.016909 
L 234.3744 247.070131 
L 234.73152 247.309632 
L 235.44576 244.036454 
L 235.80288 244.009843 
L 236.16 244.515456 
L 236.51712 243.317952 
L 236.87424 245.686349 
L 237.58848 246.59113 
L 239.01696 242.519616 
L 239.37408 242.466394 
L 239.7312 242.280115 
L 240.44544 247.442688 
L 241.15968 247.522522 
L 241.5168 246.83063 
L 241.87392 247.336243 
L 242.23104 247.070131 
L 242.58816 245.233958 
L 242.94528 245.074291 
L 243.3024 241.242278 
L 243.65952 241.056 
L 244.01664 237.862656 
L 244.37376 238.18199 
L 244.73088 236.452262 
L 245.088 238.660992 
L 245.44512 238.953715 
L 245.80224 238.980326 
L 246.15936 242.759117 
L 246.51648 242.892173 
L 246.8736 246.537907 
L 247.58784 247.602355 
L 247.94496 250.769088 
L 248.30208 251.514202 
L 248.6592 251.91337 
L 249.37344 255.745382 
L 249.73056 255.23977 
L 250.08768 254.388211 
L 250.4448 252.418982 
L 251.15904 243.530842 
L 251.51616 243.131674 
L 251.87328 239.326272 
L 252.2304 237.090931 
L 252.94464 234.882202 
L 253.30176 235.254758 
L 253.65888 235.015258 
L 255.08736 241.428557 
L 255.44448 244.3824 
L 255.8016 246.298406 
L 256.15872 249.411917 
L 256.51584 249.598195 
L 256.87296 251.620646 
L 257.5872 252.498816 
L 258.30144 247.575744 
L 258.65856 244.59529 
L 259.01568 243.93001 
L 259.3728 241.668058 
L 259.72992 241.056 
L 260.08704 241.056 
L 260.44416 238.660992 
L 260.80128 238.075546 
L 261.1584 238.155379 
L 261.87264 237.809434 
L 262.22976 238.953715 
L 262.58688 239.246438 
L 264.37248 253.350374 
L 264.7296 254.494656 
L 265.08672 253.110874 
L 265.44384 254.095488 
L 265.80096 253.855987 
L 266.15808 250.82231 
L 266.5152 246.032294 
L 266.87232 243.770342 
L 267.22944 244.142899 
L 267.58656 241.880947 
L 267.94368 241.774502 
L 268.3008 240.896333 
L 269.37216 236.18615 
L 270.0864 232.593638 
L 270.44352 232.061414 
L 271.15776 238.288435 
L 271.51488 242.626061 
L 271.872 244.249344 
L 272.22912 249.278861 
L 272.58624 252.073037 
L 272.94336 252.685094 
L 273.30048 254.042266 
L 273.6576 252.791539 
L 274.37184 248.320858 
L 274.72896 247.868467 
L 275.08608 244.728346 
L 275.4432 242.998618 
L 275.80032 242.120448 
L 276.15744 240.84311 
L 276.51456 236.026483 
L 276.87168 236.85143 
L 277.2288 236.904653 
L 277.58592 235.866816 
L 277.94304 236.558707 
L 278.30016 238.208602 
L 278.65728 241.72128 
L 279.0144 243.397786 
L 280.44288 255.080102 
L 280.8 255.718771 
L 281.15712 254.255155 
L 281.51424 254.57449 
L 281.87136 254.414822 
L 282.94272 246.511296 
L 283.29984 246.16535 
L 283.65696 244.196122 
L 284.01408 243.05184 
L 284.3712 240.204442 
L 284.72832 238.341658 
L 285.08544 238.581158 
L 285.79968 236.106317 
L 286.1568 234.323366 
L 286.51392 233.338752 
L 286.87104 234.456422 
L 287.22816 235.148314 
L 287.58528 239.033549 
L 288.29952 241.189056 
L 288.65664 240.523776 
L 289.728 245.579904 
L 290.08512 250.077197 
L 290.44224 250.077197 
L 290.79936 251.088422 
L 291.5136 252.232704 
L 291.87072 252.019814 
L 292.22784 251.407757 
L 292.58496 249.784474 
L 292.94208 249.012749 
L 293.2992 245.872627 
L 293.65632 245.127514 
L 294.37056 239.193216 
L 294.72768 236.638541 
L 295.0848 235.600704 
L 295.44192 236.61193 
L 295.79904 235.28137 
L 296.8704 243.637286 
L 297.22752 243.850176 
L 298.29888 253.190707 
L 298.656 254.255155 
L 299.01312 253.057651 
L 299.37024 254.680934 
L 299.72736 254.734157 
L 300.08448 254.281766 
L 300.4416 254.068877 
L 300.79872 254.57449 
L 301.15584 253.164096 
L 302.94144 241.614835 
L 303.65568 235.334592 
L 304.0128 233.365363 
L 304.36992 232.806528 
L 304.72704 234.163699 
L 305.08416 233.232307 
L 306.15552 236.878042 
L 306.51264 241.668058 
L 306.86976 242.147059 
L 307.94112 251.434368 
L 308.29824 253.48343 
L 308.65536 253.536653 
L 309.01248 253.882598 
L 309.72672 255.292992 
L 310.79808 250.077197 
L 311.1552 246.750797 
L 311.51232 241.854336 
L 312.9408 229.426906 
L 313.65504 226.233562 
L 314.01216 225.96745 
L 314.36928 229.001126 
L 316.15488 253.323763 
L 316.86912 257.262221 
L 317.22624 256.250995 
L 317.58336 257.129165 
L 318.2976 258.033946 
L 318.65472 258.512947 
L 319.01184 257.182387 
L 319.72608 250.396531 
L 320.44032 242.040614 
L 320.79744 239.485939 
L 321.15456 234.110477 
L 321.8688 227.29801 
L 322.22592 225.195725 
L 322.58304 226.499674 
L 322.94016 226.978675 
L 323.6544 231.688858 
L 324.01152 235.361203 
L 324.72576 248.187802 
L 326.15424 263.356186 
L 326.51136 264.048077 
L 326.86848 262.185293 
L 327.2256 259.604006 
L 327.93984 257.262221 
L 329.72544 235.307981 
L 330.08256 233.099251 
L 330.43968 229.932518 
L 331.15392 226.393229 
L 331.51104 226.898842 
L 331.86816 225.887616 
L 332.22528 228.468902 
L 333.65376 243.850176 
L 334.01088 250.769088 
L 334.368 251.673869 
L 334.72512 252.951206 
L 335.08224 257.874278 
L 335.43936 259.125005 
L 335.79648 257.075942 
L 336.1536 255.878438 
L 337.58208 242.147059 
L 337.9392 236.106317 
L 338.29632 234.695923 
L 339.01056 229.187405 
L 339.36768 228.389069 
L 339.7248 228.096346 
L 340.08192 231.396134 
L 340.43904 232.274304 
L 340.79616 235.999872 
L 341.15328 238.554547 
L 341.86752 245.979072 
L 342.22464 248.214413 
L 342.58176 252.285926 
L 343.65312 258.007334 
L 344.01024 259.178227 
L 344.36736 258.858893 
L 344.72448 258.35328 
L 345.0816 256.011494 
L 345.43872 252.764928 
L 345.79584 248.427302 
L 347.93856 231.263078 
L 348.29568 231.369523 
L 348.6528 230.837299 
L 349.00992 231.422746 
L 349.36704 236.079706 
L 349.72416 238.581158 
L 350.08128 242.014003 
L 350.4384 244.302566 
L 351.15264 249.864307 
L 351.86688 252.472205 
L 352.224 252.711706 
L 352.58112 253.456819 
L 352.93824 253.137485 
L 353.29536 254.414822 
L 353.65248 256.437274 
L 354.0096 252.15287 
L 354.36672 251.91337 
L 354.72384 249.678029 
L 355.08096 243.371174 
L 355.7952 236.372429 
L 356.15232 234.083866 
L 356.50944 233.258918 
L 356.86656 231.103411 
L 357.5808 230.62441 
L 357.93792 231.236467 
L 358.29504 231.422746 
L 358.65216 233.232307 
L 359.3664 242.652672 
L 359.72352 245.579904 
L 360.08064 249.970752 
L 360.79488 255.02688 
L 361.152 256.756608 
L 361.86624 253.776154 
L 362.22336 252.871373 
L 362.58048 253.164096 
L 362.9376 252.738317 
L 363.29472 250.36992 
L 363.65184 247.096742 
L 364.36608 239.006938 
L 364.7232 235.893427 
L 365.08032 234.483034 
L 365.43744 231.635635 
L 366.15168 229.985741 
L 366.5088 230.704243 
L 366.86592 233.658086 
L 367.22304 234.456422 
L 367.93728 242.333338 
L 369.36576 254.867213 
L 369.72288 257.155776 
L 370.08 257.608166 
L 370.43712 255.90505 
L 370.79424 254.947046 
L 371.15136 253.110874 
L 371.50848 252.472205 
L 371.8656 250.050586 
L 372.22272 249.757862 
L 373.6512 237.51671 
L 374.00832 237.676378 
L 374.36544 234.669312 
L 374.72256 233.977421 
L 375.07968 232.327526 
L 375.4368 234.163699 
L 375.79392 234.908813 
L 376.15104 238.581158 
L 376.50816 240.60361 
L 376.86528 241.535002 
L 377.57952 249.970752 
L 377.93664 251.780314 
L 378.29376 254.255155 
L 378.65088 255.505882 
L 379.008 258.113779 
L 379.36512 257.688 
L 379.72224 258.060557 
L 380.07936 258.672614 
L 380.43648 258.512947 
L 380.7936 255.346214 
L 381.50784 246.484685 
L 382.22208 234.376589 
L 382.93632 224.477222 
L 383.29344 222.188659 
L 383.65056 220.671821 
L 384.00768 221.204045 
L 384.72192 226.845619 
L 386.50752 253.403597 
L 386.86464 255.000269 
L 387.57888 259.976563 
L 387.936 259.630618 
L 388.29312 260.482176 
L 388.65024 259.23145 
L 389.7216 250.848922 
L 390.79296 236.265984 
L 391.15008 228.947904 
L 391.86432 224.583667 
L 392.57856 227.989901 
L 393.2928 234.562867 
L 394.00704 244.83479 
L 394.36416 245.606515 
L 395.0784 250.875533 
L 395.43552 251.647258 
L 395.79264 253.616486 
L 396.14976 254.414822 
L 396.50688 253.430208 
L 396.864 255.346214 
L 397.22112 255.69216 
L 397.57824 253.403597 
L 398.29248 250.609421 
L 399.00672 244.462234 
L 399.36384 243.131674 
L 399.72096 240.523776 
L 400.4352 237.490099 
L 400.79232 233.391974 
L 401.14944 232.327526 
L 401.86368 227.244787 
L 402.2208 226.898842 
L 402.57792 227.883456 
L 402.93504 230.065574 
L 404.0064 243.637286 
L 404.36352 246.963686 
L 405.07776 251.594035 
L 405.792 257.102554 
L 406.50624 257.02272 
L 406.86336 257.608166 
L 407.5776 254.787379 
L 407.93472 253.69632 
L 408.29184 251.061811 
L 408.64896 247.575744 
L 409.00608 246.245184 
L 410.07744 237.144154 
L 410.43456 232.886362 
L 410.79168 230.278464 
L 411.1488 228.947904 
L 411.50592 228.069734 
L 411.86304 228.86807 
L 412.22016 227.564122 
L 412.57728 231.609024 
L 412.9344 234.057254 
L 413.64864 245.207347 
L 414.36288 251.354534 
L 414.36288 251.354534 
" clip-path="url(#pac1b3f952f)" style="fill: none; stroke: #bfbf00; stroke-width: 1.5; stroke-linecap: square"/>
   </g>
   <g id="patch_3">
    <path d="M 57.6 307.584 
L 57.6 41.472 
" style="fill: none; stroke: #000000; stroke-width: 0.8; stroke-linejoin: miter; stroke-linecap: square"/>
   </g>
   <g id="patch_4">
    <path d="M 414.72 307.584 
L 414.72 41.472 
" style="fill: none; stroke: #000000; stroke-width: 0.8; stroke-linejoin: miter; stroke-linecap: square"/>
   </g>
   <g id="patch_5">
    <path d="M 57.6 307.584 
L 414.72 307.584 
" style="fill: none; stroke: #000000; stroke-width: 0.8; stroke-linejoin: miter; stroke-linecap: square"/>
   </g>
   <g id="patch_6">
    <path d="M 57.6 41.472 
L 414.72 41.472 
" style="fill: none; stroke: #000000; stroke-width: 0.8; stroke-linejoin: miter; stroke-linecap: square"/>
   </g>
  </g>
 </g>
 <defs>
  <clipPath id="pac1b3f952f">
   <rect x="57.6" y="41.472" width="357.12" height="266.112"/>
  </clipPath>
 </defs>
</svg>
