<?xml version="1.0" encoding="utf-8" standalone="no"?>
<!DOCTYPE svg PUBLIC "-//W3C//DTD SVG 1.1//EN"
  "http://www.w3.org/Graphics/SVG/1.1/DTD/svg11.dtd">
<svg xmlns:xlink="http://www.w3.org/1999/xlink" width="460.8pt" height="345.6pt" viewBox="0 0 460.8 345.6" xmlns="http://www.w3.org/2000/svg" version="1.1">
 <metadata>
  <rdf:RDF xmlns:dc="http://purl.org/dc/elements/1.1/" xmlns:cc="http://creativecommons.org/ns#" xmlns:rdf="http://www.w3.org/1999/02/22-rdf-syntax-ns#">
   <cc:Work>
    <dc:type rdf:resource="http://purl.org/dc/dcmitype/StillImage"/>
    <dc:date>2025-05-29T13:15:30.982126</dc:date>
    <dc:format>image/svg+xml</dc:format>
    <dc:creator>
     <cc:Agent>
      <dc:title>Matplotlib v3.10.0, https://matplotlib.org/</dc:title>
     </cc:Agent>
    </dc:creator>
   </cc:Work>
  </rdf:RDF>
 </metadata>
 <defs>
  <style type="text/css">*{stroke-linejoin: round; stroke-linecap: butt}</style>
 </defs>
 <g id="figure_1">
  <g id="patch_1">
   <path d="M 0 345.6 
L 460.8 345.6 
L 460.8 0 
L 0 0 
z
" style="fill: #ffffff"/>
  </g>
  <g id="axes_1">
   <g id="patch_2">
    <path d="M 57.6 307.584 
L 414.72 307.584 
L 414.72 41.472 
L 57.6 41.472 
z
" style="fill: #ffffff"/>
   </g>
   <g id="matplotlib.axis_1">
    <g id="xtick_1">
     <g id="line2d_1">
      <defs>
       <path id="m877578ae4a" d="M 0 0 
L 0 3.5 
" style="stroke: #000000; stroke-width: 0.8"/>
      </defs>
      <g>
       <use xlink:href="#m877578ae4a" x="57.6" y="307.584" style="stroke: #000000; stroke-width: 0.8"/>
      </g>
     </g>
     <g id="text_1">
      <!-- 0 -->
      <g transform="translate(54.41875 322.182437) scale(0.1 -0.1)">
       <defs>
        <path id="DejaVuSans-30" d="M 2034 4250 
Q 1547 4250 1301 3770 
Q 1056 3291 1056 2328 
Q 1056 1369 1301 889 
Q 1547 409 2034 409 
Q 2525 409 2770 889 
Q 3016 1369 3016 2328 
Q 3016 3291 2770 3770 
Q 2525 4250 2034 4250 
z
M 2034 4750 
Q 2819 4750 3233 4129 
Q 3647 3509 3647 2328 
Q 3647 1150 3233 529 
Q 2819 -91 2034 -91 
Q 1250 -91 836 529 
Q 422 1150 422 2328 
Q 422 3509 836 4129 
Q 1250 4750 2034 4750 
z
" transform="scale(0.015625)"/>
       </defs>
       <use xlink:href="#DejaVuSans-30"/>
      </g>
     </g>
    </g>
    <g id="xtick_2">
     <g id="line2d_2">
      <g>
       <use xlink:href="#m877578ae4a" x="129.024" y="307.584" style="stroke: #000000; stroke-width: 0.8"/>
      </g>
     </g>
     <g id="text_2">
      <!-- 200 -->
      <g transform="translate(119.48025 322.182437) scale(0.1 -0.1)">
       <defs>
        <path id="DejaVuSans-32" d="M 1228 531 
L 3431 531 
L 3431 0 
L 469 0 
L 469 531 
Q 828 903 1448 1529 
Q 2069 2156 2228 2338 
Q 2531 2678 2651 2914 
Q 2772 3150 2772 3378 
Q 2772 3750 2511 3984 
Q 2250 4219 1831 4219 
Q 1534 4219 1204 4116 
Q 875 4013 500 3803 
L 500 4441 
Q 881 4594 1212 4672 
Q 1544 4750 1819 4750 
Q 2544 4750 2975 4387 
Q 3406 4025 3406 3419 
Q 3406 3131 3298 2873 
Q 3191 2616 2906 2266 
Q 2828 2175 2409 1742 
Q 1991 1309 1228 531 
z
" transform="scale(0.015625)"/>
       </defs>
       <use xlink:href="#DejaVuSans-32"/>
       <use xlink:href="#DejaVuSans-30" transform="translate(63.623047 0)"/>
       <use xlink:href="#DejaVuSans-30" transform="translate(127.246094 0)"/>
      </g>
     </g>
    </g>
    <g id="xtick_3">
     <g id="line2d_3">
      <g>
       <use xlink:href="#m877578ae4a" x="200.448" y="307.584" style="stroke: #000000; stroke-width: 0.8"/>
      </g>
     </g>
     <g id="text_3">
      <!-- 400 -->
      <g transform="translate(190.90425 322.182437) scale(0.1 -0.1)">
       <defs>
        <path id="DejaVuSans-34" d="M 2419 4116 
L 825 1625 
L 2419 1625 
L 2419 4116 
z
M 2253 4666 
L 3047 4666 
L 3047 1625 
L 3713 1625 
L 3713 1100 
L 3047 1100 
L 3047 0 
L 2419 0 
L 2419 1100 
L 313 1100 
L 313 1709 
L 2253 4666 
z
" transform="scale(0.015625)"/>
       </defs>
       <use xlink:href="#DejaVuSans-34"/>
       <use xlink:href="#DejaVuSans-30" transform="translate(63.623047 0)"/>
       <use xlink:href="#DejaVuSans-30" transform="translate(127.246094 0)"/>
      </g>
     </g>
    </g>
    <g id="xtick_4">
     <g id="line2d_4">
      <g>
       <use xlink:href="#m877578ae4a" x="271.872" y="307.584" style="stroke: #000000; stroke-width: 0.8"/>
      </g>
     </g>
     <g id="text_4">
      <!-- 600 -->
      <g transform="translate(262.32825 322.182437) scale(0.1 -0.1)">
       <defs>
        <path id="DejaVuSans-36" d="M 2113 2584 
Q 1688 2584 1439 2293 
Q 1191 2003 1191 1497 
Q 1191 994 1439 701 
Q 1688 409 2113 409 
Q 2538 409 2786 701 
Q 3034 994 3034 1497 
Q 3034 2003 2786 2293 
Q 2538 2584 2113 2584 
z
M 3366 4563 
L 3366 3988 
Q 3128 4100 2886 4159 
Q 2644 4219 2406 4219 
Q 1781 4219 1451 3797 
Q 1122 3375 1075 2522 
Q 1259 2794 1537 2939 
Q 1816 3084 2150 3084 
Q 2853 3084 3261 2657 
Q 3669 2231 3669 1497 
Q 3669 778 3244 343 
Q 2819 -91 2113 -91 
Q 1303 -91 875 529 
Q 447 1150 447 2328 
Q 447 3434 972 4092 
Q 1497 4750 2381 4750 
Q 2619 4750 2861 4703 
Q 3103 4656 3366 4563 
z
" transform="scale(0.015625)"/>
       </defs>
       <use xlink:href="#DejaVuSans-36"/>
       <use xlink:href="#DejaVuSans-30" transform="translate(63.623047 0)"/>
       <use xlink:href="#DejaVuSans-30" transform="translate(127.246094 0)"/>
      </g>
     </g>
    </g>
    <g id="xtick_5">
     <g id="line2d_5">
      <g>
       <use xlink:href="#m877578ae4a" x="343.296" y="307.584" style="stroke: #000000; stroke-width: 0.8"/>
      </g>
     </g>
     <g id="text_5">
      <!-- 800 -->
      <g transform="translate(333.75225 322.182437) scale(0.1 -0.1)">
       <defs>
        <path id="DejaVuSans-38" d="M 2034 2216 
Q 1584 2216 1326 1975 
Q 1069 1734 1069 1313 
Q 1069 891 1326 650 
Q 1584 409 2034 409 
Q 2484 409 2743 651 
Q 3003 894 3003 1313 
Q 3003 1734 2745 1975 
Q 2488 2216 2034 2216 
z
M 1403 2484 
Q 997 2584 770 2862 
Q 544 3141 544 3541 
Q 544 4100 942 4425 
Q 1341 4750 2034 4750 
Q 2731 4750 3128 4425 
Q 3525 4100 3525 3541 
Q 3525 3141 3298 2862 
Q 3072 2584 2669 2484 
Q 3125 2378 3379 2068 
Q 3634 1759 3634 1313 
Q 3634 634 3220 271 
Q 2806 -91 2034 -91 
Q 1263 -91 848 271 
Q 434 634 434 1313 
Q 434 1759 690 2068 
Q 947 2378 1403 2484 
z
M 1172 3481 
Q 1172 3119 1398 2916 
Q 1625 2713 2034 2713 
Q 2441 2713 2670 2916 
Q 2900 3119 2900 3481 
Q 2900 3844 2670 4047 
Q 2441 4250 2034 4250 
Q 1625 4250 1398 4047 
Q 1172 3844 1172 3481 
z
" transform="scale(0.015625)"/>
       </defs>
       <use xlink:href="#DejaVuSans-38"/>
       <use xlink:href="#DejaVuSans-30" transform="translate(63.623047 0)"/>
       <use xlink:href="#DejaVuSans-30" transform="translate(127.246094 0)"/>
      </g>
     </g>
    </g>
    <g id="xtick_6">
     <g id="line2d_6">
      <g>
       <use xlink:href="#m877578ae4a" x="414.72" y="307.584" style="stroke: #000000; stroke-width: 0.8"/>
      </g>
     </g>
     <g id="text_6">
      <!-- 1000 -->
      <g transform="translate(401.995 322.182437) scale(0.1 -0.1)">
       <defs>
        <path id="DejaVuSans-31" d="M 794 531 
L 1825 531 
L 1825 4091 
L 703 3866 
L 703 4441 
L 1819 4666 
L 2450 4666 
L 2450 531 
L 3481 531 
L 3481 0 
L 794 0 
L 794 531 
z
" transform="scale(0.015625)"/>
       </defs>
       <use xlink:href="#DejaVuSans-31"/>
       <use xlink:href="#DejaVuSans-30" transform="translate(63.623047 0)"/>
       <use xlink:href="#DejaVuSans-30" transform="translate(127.246094 0)"/>
       <use xlink:href="#DejaVuSans-30" transform="translate(190.869141 0)"/>
      </g>
     </g>
    </g>
    <g id="text_7">
     <!-- $t$ -->
     <g transform="translate(232.96 340.419625) scale(0.16 -0.16)">
      <defs>
       <path id="DejaVuSans-Oblique-74" d="M 2706 3500 
L 2619 3053 
L 1472 3053 
L 1100 1153 
Q 1081 1047 1072 975 
Q 1063 903 1063 863 
Q 1063 663 1183 572 
Q 1303 481 1569 481 
L 2150 481 
L 2053 0 
L 1503 0 
Q 991 0 739 200 
Q 488 400 488 806 
Q 488 878 497 964 
Q 506 1050 525 1153 
L 897 3053 
L 409 3053 
L 500 3500 
L 978 3500 
L 1172 4494 
L 1747 4494 
L 1556 3500 
L 2706 3500 
z
" transform="scale(0.015625)"/>
      </defs>
      <use xlink:href="#DejaVuSans-Oblique-74" transform="translate(0 0.78125)"/>
     </g>
    </g>
   </g>
   <g id="matplotlib.axis_2">
    <g id="ytick_1">
     <g id="line2d_7">
      <defs>
       <path id="m11ae5e0a74" d="M 0 0 
L -3.5 0 
" style="stroke: #000000; stroke-width: 0.8"/>
      </defs>
      <g>
       <use xlink:href="#m11ae5e0a74" x="57.6" y="307.584" style="stroke: #000000; stroke-width: 0.8"/>
      </g>
     </g>
     <g id="text_8">
      <!-- 0.0 -->
      <g transform="translate(34.696875 311.383219) scale(0.1 -0.1)">
       <defs>
        <path id="DejaVuSans-2e" d="M 684 794 
L 1344 794 
L 1344 0 
L 684 0 
L 684 794 
z
" transform="scale(0.015625)"/>
       </defs>
       <use xlink:href="#DejaVuSans-30"/>
       <use xlink:href="#DejaVuSans-2e" transform="translate(63.623047 0)"/>
       <use xlink:href="#DejaVuSans-30" transform="translate(95.410156 0)"/>
      </g>
     </g>
    </g>
    <g id="ytick_2">
     <g id="line2d_8">
      <g>
       <use xlink:href="#m11ae5e0a74" x="57.6" y="254.3616" style="stroke: #000000; stroke-width: 0.8"/>
      </g>
     </g>
     <g id="text_9">
      <!-- 0.2 -->
      <g transform="translate(34.696875 258.160819) scale(0.1 -0.1)">
       <use xlink:href="#DejaVuSans-30"/>
       <use xlink:href="#DejaVuSans-2e" transform="translate(63.623047 0)"/>
       <use xlink:href="#DejaVuSans-32" transform="translate(95.410156 0)"/>
      </g>
     </g>
    </g>
    <g id="ytick_3">
     <g id="line2d_9">
      <g>
       <use xlink:href="#m11ae5e0a74" x="57.6" y="201.1392" style="stroke: #000000; stroke-width: 0.8"/>
      </g>
     </g>
     <g id="text_10">
      <!-- 0.4 -->
      <g transform="translate(34.696875 204.938419) scale(0.1 -0.1)">
       <use xlink:href="#DejaVuSans-30"/>
       <use xlink:href="#DejaVuSans-2e" transform="translate(63.623047 0)"/>
       <use xlink:href="#DejaVuSans-34" transform="translate(95.410156 0)"/>
      </g>
     </g>
    </g>
    <g id="ytick_4">
     <g id="line2d_10">
      <g>
       <use xlink:href="#m11ae5e0a74" x="57.6" y="147.9168" style="stroke: #000000; stroke-width: 0.8"/>
      </g>
     </g>
     <g id="text_11">
      <!-- 0.6 -->
      <g transform="translate(34.696875 151.716019) scale(0.1 -0.1)">
       <use xlink:href="#DejaVuSans-30"/>
       <use xlink:href="#DejaVuSans-2e" transform="translate(63.623047 0)"/>
       <use xlink:href="#DejaVuSans-36" transform="translate(95.410156 0)"/>
      </g>
     </g>
    </g>
    <g id="ytick_5">
     <g id="line2d_11">
      <g>
       <use xlink:href="#m11ae5e0a74" x="57.6" y="94.6944" style="stroke: #000000; stroke-width: 0.8"/>
      </g>
     </g>
     <g id="text_12">
      <!-- 0.8 -->
      <g transform="translate(34.696875 98.493619) scale(0.1 -0.1)">
       <use xlink:href="#DejaVuSans-30"/>
       <use xlink:href="#DejaVuSans-2e" transform="translate(63.623047 0)"/>
       <use xlink:href="#DejaVuSans-38" transform="translate(95.410156 0)"/>
      </g>
     </g>
    </g>
    <g id="ytick_6">
     <g id="line2d_12">
      <g>
       <use xlink:href="#m11ae5e0a74" x="57.6" y="41.472" style="stroke: #000000; stroke-width: 0.8"/>
      </g>
     </g>
     <g id="text_13">
      <!-- 1.0 -->
      <g transform="translate(34.696875 45.271219) scale(0.1 -0.1)">
       <use xlink:href="#DejaVuSans-31"/>
       <use xlink:href="#DejaVuSans-2e" transform="translate(63.623047 0)"/>
       <use xlink:href="#DejaVuSans-30" transform="translate(95.410156 0)"/>
      </g>
     </g>
    </g>
    <g id="text_14">
     <!-- $x_i(t)$ -->
     <g transform="translate(27.369375 190.448) rotate(-90) scale(0.16 -0.16)">
      <defs>
       <path id="DejaVuSans-Oblique-78" d="M 3841 3500 
L 2234 1784 
L 3219 0 
L 2559 0 
L 1819 1388 
L 531 0 
L -166 0 
L 1556 1844 
L 641 3500 
L 1300 3500 
L 1972 2234 
L 3144 3500 
L 3841 3500 
z
" transform="scale(0.015625)"/>
       <path id="DejaVuSans-Oblique-69" d="M 1172 4863 
L 1747 4863 
L 1606 4134 
L 1031 4134 
L 1172 4863 
z
M 909 3500 
L 1484 3500 
L 800 0 
L 225 0 
L 909 3500 
z
" transform="scale(0.015625)"/>
       <path id="DejaVuSans-28" d="M 1984 4856 
Q 1566 4138 1362 3434 
Q 1159 2731 1159 2009 
Q 1159 1288 1364 580 
Q 1569 -128 1984 -844 
L 1484 -844 
Q 1016 -109 783 600 
Q 550 1309 550 2009 
Q 550 2706 781 3412 
Q 1013 4119 1484 4856 
L 1984 4856 
z
" transform="scale(0.015625)"/>
       <path id="DejaVuSans-29" d="M 513 4856 
L 1013 4856 
Q 1481 4119 1714 3412 
Q 1947 2706 1947 2009 
Q 1947 1309 1714 600 
Q 1481 -109 1013 -844 
L 513 -844 
Q 928 -128 1133 580 
Q 1338 1288 1338 2009 
Q 1338 2731 1133 3434 
Q 928 4138 513 4856 
z
" transform="scale(0.015625)"/>
      </defs>
      <use xlink:href="#DejaVuSans-Oblique-78" transform="translate(0 0.125)"/>
      <use xlink:href="#DejaVuSans-Oblique-69" transform="translate(59.179688 -16.28125) scale(0.7)"/>
      <use xlink:href="#DejaVuSans-28" transform="translate(81.362305 0.125)"/>
      <use xlink:href="#DejaVuSans-Oblique-74" transform="translate(120.375977 0.125)"/>
      <use xlink:href="#DejaVuSans-29" transform="translate(159.584961 0.125)"/>
     </g>
    </g>
   </g>
   <g id="line2d_13">
    <path d="M 57.6 226.898842 
L 58.31424 211.916736 
L 59.74272 178.386624 
L 60.09984 172.98455 
L 60.45696 170.802432 
L 60.81408 170.962099 
L 61.1712 172.07977 
L 61.88544 181.526746 
L 62.24256 184.187866 
L 64.02816 223.75872 
L 64.38528 228.20279 
L 65.09952 240.470554 
L 65.45664 243.584064 
L 65.81376 244.355789 
L 66.17088 242.147059 
L 66.528 239.166605 
L 67.24224 227.031898 
L 67.95648 206.567885 
L 68.67072 188.578714 
L 69.38496 175.246502 
L 69.74208 171.733824 
L 70.0992 170.376653 
L 70.45632 173.703053 
L 70.81344 178.812403 
L 71.17056 181.925914 
L 71.8848 196.242739 
L 73.31328 223.040218 
L 73.6704 229.480128 
L 74.02752 232.008192 
L 74.38464 231.821914 
L 75.09888 239.166605 
L 75.456 239.645606 
L 75.81312 237.543322 
L 76.88448 219.261427 
L 77.95584 197.387021 
L 79.74144 176.098061 
L 80.09856 177.614899 
L 80.45568 181.367078 
L 80.8128 189.031104 
L 81.16992 192.730061 
L 81.52704 199.542528 
L 81.88416 203.826931 
L 83.31264 231.848525 
L 84.02688 236.239373 
L 84.384 236.718374 
L 84.74112 237.676378 
L 85.09824 235.653926 
L 86.1696 223.173274 
L 86.88384 207.392832 
L 87.9552 184.906368 
L 88.66944 176.417395 
L 89.02656 174.368333 
L 89.38368 175.991616 
L 89.7408 179.85024 
L 90.09792 185.225702 
L 92.24064 227.484288 
L 92.59776 230.571187 
L 92.95488 235.653926 
L 93.312 236.718374 
L 93.66912 236.771597 
L 94.02624 234.376589 
L 94.38336 230.943744 
L 95.0976 219.873485 
L 96.8832 187.194931 
L 97.24032 179.344627 
L 97.95456 175.938394 
L 98.31168 178.546291 
L 98.6688 179.690573 
L 99.02592 181.367078 
L 99.74016 190.70761 
L 100.4544 201.618202 
L 101.16864 216.147917 
L 101.52576 221.496768 
L 101.88288 229.214016 
L 102.59712 236.212762 
L 102.95424 238.261824 
L 103.31136 241.056 
L 103.66848 239.352883 
L 104.0256 239.752051 
L 104.38272 235.334592 
L 104.73984 228.974515 
L 105.45408 209.628173 
L 106.52544 182.671027 
L 106.88256 176.630285 
L 107.5968 171.121766 
L 107.95392 172.345882 
L 108.31104 175.033613 
L 108.66816 179.690573 
L 109.02528 186.529651 
L 109.73952 204.066432 
L 110.45376 217.55831 
L 111.52512 231.263078 
L 112.23936 239.193216 
L 112.59648 241.082611 
L 112.9536 241.242278 
L 113.31072 239.752051 
L 113.66784 236.39904 
L 114.02496 230.092186 
L 115.45344 194.353344 
L 115.81056 187.194931 
L 116.88192 174.022387 
L 117.23904 174.847334 
L 117.95328 182.671027 
L 119.02464 203.268096 
L 120.096 227.138342 
L 120.81024 236.372429 
L 121.8816 245.313792 
L 122.23872 244.59529 
L 122.59584 242.493005 
L 123.31008 230.384909 
L 124.38144 204.4656 
L 125.4528 176.124672 
L 126.16704 164.016576 
L 126.52416 161.621568 
L 126.88128 163.936742 
L 127.59552 173.596608 
L 128.30976 192.011558 
L 128.66688 198.744192 
L 130.09536 236.61193 
L 130.45248 244.302566 
L 131.16672 254.175322 
L 131.52384 257.794445 
L 131.88096 257.368666 
L 132.23808 255.399437 
L 132.5952 250.050586 
L 132.95232 242.067226 
L 133.66656 217.372032 
L 135.09504 165.054413 
L 135.45216 156.671885 
L 135.80928 151.615757 
L 136.1664 149.646528 
L 136.52352 150.923866 
L 136.88064 157.523443 
L 138.66624 214.4448 
L 139.7376 239.06016 
L 140.45184 245.26057 
L 141.16608 251.381146 
L 141.5232 250.875533 
L 142.59456 232.753306 
L 143.3088 209.628173 
L 144.02304 186.636096 
L 144.38016 176.470618 
L 145.0944 164.495578 
L 145.45152 164.947968 
L 145.80864 165.107635 
L 146.52288 176.098061 
L 149.02272 240.656832 
L 149.37984 247.655578 
L 149.73696 251.141645 
L 150.09408 251.354534 
L 150.4512 251.993203 
L 150.80832 250.396531 
L 151.16544 246.298406 
L 151.52256 239.006938 
L 152.2368 216.414029 
L 154.0224 162.659405 
L 154.37952 158.10889 
L 154.73664 155.288102 
L 155.09376 158.454835 
L 155.45088 163.00535 
L 155.808 170.190374 
L 157.95072 233.28553 
L 158.66496 245.473459 
L 159.02208 247.176576 
L 159.3792 250.396531 
L 160.09344 251.061811 
L 160.45056 248.134579 
L 160.80768 242.759117 
L 161.52192 221.736269 
L 163.30752 163.67063 
L 163.66464 158.641114 
L 164.02176 156.991219 
L 164.37888 157.709722 
L 164.736 163.88352 
L 165.45024 181.287245 
L 166.16448 203.933376 
L 166.87872 225.195725 
L 167.95008 245.446848 
L 168.3072 249.518362 
L 169.02144 254.281766 
L 169.37856 252.418982 
L 170.0928 243.823565 
L 170.80704 223.013606 
L 171.8784 186.263539 
L 172.59264 167.369587 
L 172.94976 163.111795 
L 173.30688 162.260237 
L 173.664 161.88768 
L 174.37824 169.365427 
L 175.09248 186.236928 
L 176.52096 226.20695 
L 177.2352 238.288435 
L 177.94944 245.979072 
L 178.30656 245.739571 
L 178.66368 244.462234 
L 179.37792 239.858496 
L 180.8064 208.404058 
L 181.87776 178.892237 
L 182.23488 173.303885 
L 182.592 171.387878 
L 182.94912 167.8752 
L 183.30624 168.567091 
L 183.66336 171.041933 
L 184.02048 175.140058 
L 184.3776 181.39369 
L 185.80608 217.425254 
L 186.87744 238.421491 
L 187.23456 244.435622 
L 187.9488 247.442688 
L 188.30592 248.028134 
L 188.66304 242.333338 
L 189.02016 238.687603 
L 189.7344 225.807782 
L 190.80576 187.647322 
L 191.16288 175.85856 
L 191.87712 164.256077 
L 192.23424 162.233626 
L 192.94848 166.518029 
L 193.66272 178.865626 
L 195.44832 228.522125 
L 196.51968 248.107968 
L 196.8768 251.939981 
L 197.59104 250.556198 
L 197.94816 247.25641 
L 198.6624 235.28137 
L 199.73376 205.822771 
L 200.80512 171.920102 
L 201.51936 161.036122 
L 201.87648 158.428224 
L 202.2336 160.716787 
L 202.94784 171.121766 
L 204.73344 223.146662 
L 205.44768 237.94249 
L 205.8048 244.275955 
L 206.16192 248.480525 
L 206.51904 251.141645 
L 207.5904 244.409011 
L 207.94752 239.139994 
L 208.66176 223.412774 
L 209.73312 194.03401 
L 210.44736 176.869786 
L 211.1616 167.582477 
L 211.51872 166.518029 
L 211.87584 167.342976 
L 212.23296 173.490163 
L 213.30432 200.02153 
L 214.37568 230.19863 
L 214.7328 238.261824 
L 216.16128 253.563264 
L 216.87552 250.077197 
L 217.58976 233.924198 
L 218.304 215.189914 
L 219.73248 168.300979 
L 220.44672 159.519283 
L 220.80384 157.390387 
L 221.16096 162.047347 
L 221.8752 174.102221 
L 223.30368 213.007795 
L 223.6608 220.299264 
L 224.01792 230.517965 
L 225.08928 247.416077 
L 225.4464 247.336243 
L 225.80352 246.431462 
L 226.16064 244.142899 
L 226.51776 238.474714 
L 226.87488 235.041869 
L 228.66048 188.28599 
L 229.37472 174.235277 
L 229.73184 171.999936 
L 230.08896 171.707213 
L 230.44608 174.847334 
L 230.8032 179.371238 
L 231.16032 187.274765 
L 231.51744 191.798669 
L 231.87456 197.759578 
L 232.94592 221.150822 
L 233.66016 234.749146 
L 234.01728 238.767437 
L 234.3744 241.295501 
L 234.73152 240.763277 
L 235.08864 239.911718 
L 235.44576 238.235213 
L 235.80288 235.414426 
L 236.87424 217.292198 
L 238.65984 171.999936 
L 239.01696 168.061478 
L 239.37408 165.719693 
L 239.7312 167.156698 
L 240.08832 172.31927 
L 242.94528 237.410266 
L 243.3024 240.523776 
L 244.01664 243.850176 
L 244.37376 242.785728 
L 244.73088 240.497165 
L 245.088 236.345818 
L 245.80224 222.507994 
L 246.51648 203.374541 
L 248.30208 165.187469 
L 248.6592 163.324685 
L 249.01632 165.639859 
L 249.37344 170.935488 
L 250.80192 206.833997 
L 251.87328 234.749146 
L 253.30176 250.902144 
L 254.016 247.203187 
L 254.37312 244.275955 
L 255.08736 224.078054 
L 255.8016 196.881408 
L 256.51584 172.665216 
L 257.23008 157.922611 
L 257.5872 156.645274 
L 257.94432 159.253171 
L 258.30144 163.537574 
L 258.65856 169.924262 
L 259.3728 189.82944 
L 260.80128 233.445197 
L 261.51552 244.967846 
L 262.22976 249.837696 
L 262.58688 248.081357 
L 262.944 247.549133 
L 263.65824 239.565773 
L 264.01536 232.034803 
L 266.15808 169.046093 
L 266.5152 162.55296 
L 266.87232 160.211174 
L 267.22944 158.800781 
L 267.58656 160.370842 
L 268.3008 171.999936 
L 269.37216 201.405312 
L 270.0864 225.621504 
L 270.80064 241.668058 
L 271.51488 249.70464 
L 271.872 250.449754 
L 272.22912 251.48759 
L 272.58624 250.263475 
L 273.30048 242.067226 
L 274.37184 213.034406 
L 275.80032 164.575411 
L 276.51456 153.425318 
L 276.87168 154.516378 
L 277.2288 159.093504 
L 277.58592 166.198694 
L 279.0144 210.799066 
L 279.72864 232.40736 
L 280.44288 246.458074 
L 280.8 250.343309 
L 281.15712 252.977818 
L 281.51424 254.068877 
L 281.87136 255.931661 
L 282.22848 254.414822 
L 282.5856 249.890918 
L 282.94272 241.668058 
L 284.01408 208.829837 
L 284.72832 180.435686 
L 285.44256 161.089344 
L 285.79968 155.208269 
L 286.1568 153.132595 
L 286.51392 152.201203 
L 286.87104 157.68311 
L 287.58528 173.889331 
L 288.65664 209.521728 
L 289.728 243.850176 
L 290.08512 251.434368 
L 290.44224 255.718771 
L 290.79936 257.368666 
L 291.15648 259.737062 
L 291.5136 257.847667 
L 292.22784 246.564518 
L 292.58496 238.60777 
L 293.65632 200.660198 
L 294.37056 171.494323 
L 295.0848 153.664819 
L 295.79904 146.559629 
L 296.15616 147.783744 
L 296.51328 152.733427 
L 297.22752 168.300979 
L 297.94176 190.04233 
L 299.01312 225.275558 
L 299.72736 242.519616 
L 300.08448 249.678029 
L 300.79872 258.087168 
L 301.15584 260.322509 
L 301.51296 259.68384 
L 301.87008 256.35744 
L 302.94144 231.050189 
L 303.65568 206.301773 
L 304.72704 165.905971 
L 305.44128 147.890189 
L 305.7984 147.810355 
L 306.15552 148.874803 
L 306.51264 152.919706 
L 307.22688 171.41449 
L 309.3696 237.06432 
L 310.08384 252.924595 
L 310.44096 258.007334 
L 310.79808 259.949952 
L 311.1552 260.56201 
L 311.51232 258.965338 
L 311.86944 255.319603 
L 312.58368 238.554547 
L 314.7264 156.192883 
L 315.08352 149.939251 
L 315.44064 147.012019 
L 315.79776 150.338419 
L 316.15488 155.23488 
L 316.86912 171.015322 
L 318.65472 232.354138 
L 319.72608 257.075942 
L 320.0832 261.307123 
L 320.44032 263.88841 
L 320.79744 262.79735 
L 321.15456 259.816896 
L 321.51168 254.388211 
L 322.58304 225.648115 
L 322.94016 211.198234 
L 323.6544 175.033613 
L 324.36864 152.307648 
L 324.72576 146.692685 
L 325.08288 145.202458 
L 325.44 146.878963 
L 325.79712 153.45193 
L 326.86848 185.039424 
L 328.29696 234.536256 
L 329.0112 253.110874 
L 329.36832 259.337894 
L 329.72544 263.169907 
L 330.08256 263.063462 
L 330.43968 264.048077 
L 330.7968 260.668454 
L 331.15392 255.505882 
L 331.86816 237.357043 
L 332.5824 205.849382 
L 333.29664 169.471872 
L 334.01088 147.863578 
L 334.368 140.731776 
L 334.72512 140.784998 
L 335.08224 142.301837 
L 335.43936 147.171686 
L 335.79648 155.181658 
L 336.51072 179.025293 
L 337.22496 208.297613 
L 338.29632 246.085517 
L 339.36768 266.868864 
L 339.7248 268.99776 
L 340.08192 270.035597 
L 340.43904 269.955763 
L 341.15328 263.356186 
L 341.86752 243.158285 
L 342.93888 192.730061 
L 343.296 172.878106 
L 344.01024 147.411187 
L 344.36736 139.693939 
L 344.72448 137.165875 
L 345.0816 138.443213 
L 345.43872 142.674394 
L 345.79584 149.353805 
L 346.15296 159.22656 
L 347.93856 236.585318 
L 349.00992 263.436019 
L 349.36704 268.78487 
L 350.08128 273.947443 
L 350.4384 272.962829 
L 350.79552 270.966989 
L 351.15264 266.363251 
L 351.50976 260.13623 
L 352.224 231.768691 
L 354.0096 142.408282 
L 354.36672 133.706419 
L 354.72384 128.144678 
L 355.08096 126.920563 
L 355.43808 130.859021 
L 356.15232 146.426573 
L 356.50944 157.922611 
L 357.93792 219.953318 
L 359.00928 253.190707 
L 359.72352 266.443085 
L 360.08064 271.366157 
L 360.79488 274.240166 
L 361.50912 266.868864 
L 361.86624 260.375731 
L 362.58048 235.999872 
L 363.65184 187.540877 
L 364.7232 140.412442 
L 365.08032 132.987917 
L 365.43744 130.965466 
L 365.79456 132.455693 
L 366.15168 138.60288 
L 366.5088 148.156301 
L 367.22304 176.364173 
L 368.65152 232.939584 
L 369.36576 253.855987 
L 369.72288 261.786125 
L 370.43712 268.731648 
L 370.79424 269.609818 
L 371.15136 271.924992 
L 371.50848 271.312934 
L 371.8656 267.6672 
L 372.22272 262.34496 
L 372.57984 252.046426 
L 373.29408 219.10176 
L 374.36544 159.998285 
L 375.07968 132.056525 
L 375.4368 125.057779 
L 375.79392 124.046554 
L 376.15104 128.783347 
L 376.50816 135.48937 
L 377.93664 191.639002 
L 378.65088 220.937933 
L 379.36512 244.116288 
L 380.07936 261.653069 
L 380.7936 269.87593 
L 381.15072 271.525824 
L 381.50784 270.754099 
L 381.86496 267.6672 
L 382.22208 262.052237 
L 382.93632 244.621901 
L 383.65056 214.790746 
L 384.3648 178.360013 
L 385.07904 153.185818 
L 385.43616 143.25984 
L 385.79328 137.777933 
L 386.1504 139.800384 
L 386.86464 152.147981 
L 387.22176 161.142566 
L 389.7216 246.325018 
L 390.79296 262.55785 
L 391.15008 263.808576 
L 391.5072 263.622298 
L 391.86432 261.865958 
L 392.57856 249.278861 
L 393.2928 224.63689 
L 394.72128 162.419904 
L 395.43552 148.449024 
L 395.79264 147.331354 
L 396.50688 157.150886 
L 396.864 164.016576 
L 399.72096 249.49175 
L 400.4352 258.486336 
L 401.14944 261.386957 
L 401.50656 260.269286 
L 402.2208 249.119194 
L 402.57792 239.911718 
L 404.72064 159.625728 
L 405.07776 152.041536 
L 405.43488 149.69975 
L 405.792 150.471475 
L 406.14912 151.535923 
L 406.86336 166.491418 
L 409.00608 238.794048 
L 410.43456 265.325414 
L 410.79168 266.735808 
L 411.50592 262.158682 
L 411.86304 256.783219 
L 412.57728 236.878042 
L 413.29152 210.027341 
L 414.36288 156.964608 
L 414.36288 156.964608 
" clip-path="url(#p7f84574f1d)" style="fill: none; stroke: #0000ff; stroke-width: 1.5; stroke-linecap: square"/>
   </g>
   <g id="line2d_14">
    <path d="M 57.6 218.942093 
L 58.31424 233.870976 
L 58.67136 238.18199 
L 59.02848 238.873882 
L 59.3856 240.097997 
L 59.74272 239.27305 
L 60.09984 237.170765 
L 60.81408 229.320461 
L 61.88544 207.312998 
L 62.24256 202.389926 
L 63.31392 179.158349 
L 64.02816 168.646925 
L 64.38528 170.53632 
L 64.7424 168.939648 
L 65.09952 169.099315 
L 65.81376 184.347533 
L 67.24224 225.515059 
L 67.95648 238.341658 
L 68.3136 240.576998 
L 68.67072 241.401946 
L 69.02784 241.162445 
L 69.38496 239.246438 
L 70.0992 229.719629 
L 70.81344 212.794906 
L 71.17056 206.621107 
L 71.8848 189.430272 
L 72.24192 184.533811 
L 72.59904 177.721344 
L 73.6704 174.421555 
L 74.02752 176.949619 
L 75.09888 187.806989 
L 75.456 194.27351 
L 76.17024 211.730458 
L 76.88448 223.97161 
L 77.59872 231.768691 
L 77.95584 232.061414 
L 78.67008 228.62857 
L 79.0272 228.548736 
L 79.38432 227.29801 
L 79.74144 224.131277 
L 80.45568 210.852288 
L 80.8128 201.831091 
L 81.16992 196.828186 
L 81.88416 185.039424 
L 82.5984 175.033613 
L 82.95552 172.399104 
L 83.31264 171.095155 
L 83.66976 174.847334 
L 84.74112 192.064781 
L 85.45536 207.12672 
L 86.88384 230.092186 
L 87.24096 232.19447 
L 87.59808 233.232307 
L 87.9552 232.779917 
L 88.31232 230.890522 
L 88.66944 228.069734 
L 89.38368 216.334195 
L 90.45504 196.242739 
L 91.5264 176.630285 
L 91.88352 176.151283 
L 92.24064 174.528 
L 92.59776 175.672282 
L 93.312 182.404915 
L 94.38336 204.359155 
L 95.0976 220.299264 
L 95.45472 225.169114 
L 95.81184 227.564122 
L 96.16896 231.609024 
L 96.52608 231.821914 
L 96.8832 233.046029 
L 97.24032 232.85975 
L 98.6688 215.216525 
L 99.02592 211.99657 
L 99.74016 198.824026 
L 100.4544 186.662707 
L 100.81152 179.344627 
L 101.16864 175.299725 
L 101.52576 172.851494 
L 101.88288 168.779981 
L 102.95424 178.785792 
L 103.31136 182.458138 
L 105.09696 227.324621 
L 105.8112 236.984486 
L 106.16832 239.618995 
L 106.52544 238.39488 
L 106.88256 236.106317 
L 107.23968 230.464742 
L 107.5968 227.53751 
L 108.66816 205.742938 
L 109.3824 188.871437 
L 110.45376 174.368333 
L 111.168 169.099315 
L 111.52512 168.700147 
L 111.88224 169.525094 
L 112.23936 173.889331 
L 112.9536 186.582874 
L 114.38208 223.97161 
L 115.09632 234.456422 
L 115.45344 236.478874 
L 115.81056 236.505485 
L 116.16768 235.707149 
L 116.88192 229.160794 
L 117.95328 207.871834 
L 118.66752 190.521331 
L 119.38176 175.539226 
L 120.096 166.33175 
L 120.45312 165.42697 
L 121.16736 170.110541 
L 121.52448 174.474778 
L 121.8816 180.595354 
L 122.59584 199.462694 
L 123.31008 219.687206 
L 123.6672 227.53751 
L 124.73856 243.344563 
L 125.09568 242.732506 
L 125.4528 241.588224 
L 126.16704 237.676378 
L 126.52416 233.418586 
L 127.59552 207.446054 
L 128.30976 187.115098 
L 129.73824 157.310554 
L 130.09536 153.398707 
L 130.45248 151.961702 
L 130.8096 155.048602 
L 131.16672 161.967514 
L 131.52384 171.946714 
L 132.95232 226.499674 
L 133.66656 246.670963 
L 134.02368 251.141645 
L 134.3808 254.095488 
L 134.73792 255.851827 
L 135.09504 255.346214 
L 135.45216 252.445594 
L 136.1664 239.086771 
L 136.52352 232.061414 
L 137.952 184.028198 
L 138.66624 163.271462 
L 139.02336 158.534669 
L 139.38048 152.281037 
L 139.7376 153.105984 
L 140.09472 156.405773 
L 140.80896 167.928422 
L 141.16608 175.512614 
L 141.5232 186.423206 
L 142.23744 215.269747 
L 143.3088 238.714214 
L 143.66592 242.493005 
L 144.02304 244.355789 
L 144.38016 244.302566 
L 144.73728 241.242278 
L 145.0944 236.931264 
L 145.80864 222.720883 
L 147.95136 169.578317 
L 148.6656 157.603277 
L 149.02272 156.804941 
L 149.37984 156.618662 
L 149.73696 163.750464 
L 151.16544 207.153331 
L 151.87968 233.391974 
L 152.2368 241.668058 
L 152.59392 246.431462 
L 152.95104 249.70464 
L 153.30816 251.806925 
L 154.0224 246.883853 
L 154.73664 237.117542 
L 155.808 207.233165 
L 157.23648 164.495578 
L 157.5936 158.162112 
L 157.95072 155.500992 
L 158.66496 162.260237 
L 159.02208 167.023642 
L 159.3792 174.235277 
L 161.1648 232.221082 
L 161.52192 241.561613 
L 162.23616 250.715866 
L 162.59328 253.643098 
L 162.9504 251.939981 
L 163.30752 249.119194 
L 164.02176 236.372429 
L 164.37888 229.214016 
L 166.5216 164.33591 
L 166.87872 158.34839 
L 167.23584 155.554214 
L 167.59296 154.436544 
L 167.95008 154.835712 
L 168.66432 167.183309 
L 169.02144 175.911782 
L 170.80704 237.170765 
L 171.16416 244.542067 
L 172.23552 251.48759 
L 172.59264 248.320858 
L 172.94976 243.530842 
L 174.02112 222.747494 
L 174.73536 205.58327 
L 175.80672 176.789952 
L 176.52096 162.712627 
L 176.87808 162.55296 
L 177.2352 163.564186 
L 177.59232 166.677696 
L 177.94944 172.07977 
L 179.73504 220.352486 
L 180.44928 234.802368 
L 181.16352 242.466394 
L 181.52064 244.488845 
L 181.87776 244.009843 
L 182.592 236.771597 
L 182.94912 232.061414 
L 183.66336 217.638144 
L 184.02048 210.612787 
L 185.44896 175.166669 
L 186.1632 164.468966 
L 186.52032 163.351296 
L 186.87744 161.594957 
L 187.23456 163.644019 
L 187.59168 169.631539 
L 188.30592 189.82944 
L 189.02016 210.932122 
L 190.09152 237.463488 
L 190.80576 246.325018 
L 191.16288 246.191962 
L 191.87712 238.820659 
L 192.59136 227.590733 
L 195.0912 166.677696 
L 195.44832 161.967514 
L 195.80544 159.812006 
L 196.16256 158.694336 
L 196.51968 160.477286 
L 196.8768 168.487258 
L 197.94816 202.363315 
L 198.30528 211.810291 
L 198.6624 224.63689 
L 199.37664 238.288435 
L 200.09088 245.686349 
L 200.448 247.442688 
L 200.80512 247.442688 
L 201.16224 244.063066 
L 201.87648 233.578253 
L 202.94784 209.33545 
L 203.66208 184.267699 
L 204.73344 161.115955 
L 205.09056 156.246106 
L 205.44768 155.953382 
L 206.16192 161.461901 
L 206.51904 168.646925 
L 207.94752 215.935027 
L 208.30464 224.397389 
L 209.376 239.51255 
L 209.73312 241.50839 
L 210.09024 242.413171 
L 210.80448 238.075546 
L 211.1616 234.695923 
L 211.51872 229.347072 
L 211.87584 221.949158 
L 213.66144 171.281434 
L 214.37568 157.922611 
L 214.7328 155.979994 
L 215.80416 167.316365 
L 216.87552 201.485146 
L 217.58976 225.648115 
L 217.94688 233.604864 
L 218.66112 243.26473 
L 219.01824 248.054746 
L 219.37536 248.187802 
L 219.73248 247.469299 
L 220.80384 233.099251 
L 221.51808 213.433574 
L 222.23232 193.60823 
L 223.30368 168.646925 
L 223.6608 165.187469 
L 224.01792 160.211174 
L 224.37504 159.918451 
L 224.73216 160.663565 
L 225.08928 165.932582 
L 225.80352 185.757926 
L 226.87488 216.094694 
L 227.94624 235.893427 
L 228.30336 236.212762 
L 228.66048 237.94249 
L 229.0176 238.048934 
L 229.37472 236.425651 
L 230.08896 224.051443 
L 230.44608 215.243136 
L 230.8032 209.495117 
L 231.16032 199.436083 
L 232.94592 167.023642 
L 233.30304 165.985805 
L 233.66016 165.506803 
L 234.3744 176.843174 
L 235.80288 208.00489 
L 236.16 217.55831 
L 237.23136 232.487194 
L 237.9456 240.044774 
L 238.30272 241.588224 
L 238.65984 241.135834 
L 239.01696 235.999872 
L 240.08832 213.726298 
L 240.80256 191.106778 
L 242.23104 165.267302 
L 242.58816 162.393293 
L 242.94528 163.617408 
L 243.65952 174.634445 
L 244.73088 198.105523 
L 245.80224 225.062669 
L 246.15936 232.646861 
L 246.51648 235.307981 
L 246.8736 238.953715 
L 247.23072 238.448102 
L 247.58784 238.527936 
L 247.94496 237.410266 
L 248.30208 235.387814 
L 249.01632 222.960384 
L 249.73056 202.336704 
L 250.4448 182.245248 
L 251.15904 165.453581 
L 251.87328 157.629888 
L 252.2304 160.424064 
L 252.58752 164.708467 
L 252.94464 170.403264 
L 253.30176 178.253568 
L 255.44448 243.105062 
L 255.8016 249.25225 
L 256.15872 251.434368 
L 256.51584 251.48759 
L 257.23008 242.493005 
L 259.01568 196.508851 
L 260.44416 157.922611 
L 260.80128 154.170432 
L 261.1584 154.383322 
L 261.51552 158.082278 
L 262.22976 171.973325 
L 264.01536 225.727949 
L 264.7296 241.189056 
L 265.08672 245.819405 
L 265.44384 248.134579 
L 265.80096 248.347469 
L 266.15808 248.134579 
L 266.5152 244.515456 
L 267.22944 232.593638 
L 267.58656 226.020672 
L 269.01504 187.194931 
L 270.0864 159.386227 
L 270.44352 156.831552 
L 270.80064 155.500992 
L 271.15776 158.987059 
L 271.872 173.969165 
L 272.58624 196.881408 
L 273.6576 231.901747 
L 274.37184 242.652672 
L 274.72896 246.191962 
L 275.08608 251.008589 
L 275.4432 250.981978 
L 275.80032 249.012749 
L 276.51456 242.546227 
L 277.58592 213.140851 
L 279.0144 166.75753 
L 279.37152 158.082278 
L 279.72864 152.600371 
L 280.08576 151.323034 
L 280.8 155.793715 
L 281.51424 173.090995 
L 282.22848 198.105523 
L 283.29984 235.441037 
L 283.65696 243.05184 
L 284.3712 252.073037 
L 284.72832 251.620646 
L 285.08544 250.343309 
L 285.44256 249.757862 
L 285.79968 245.739571 
L 286.51392 233.52503 
L 287.22816 211.943347 
L 288.65664 165.639859 
L 289.37088 147.091853 
L 289.728 145.016179 
L 290.08512 145.894349 
L 290.44224 152.946317 
L 291.5136 185.62487 
L 292.22784 215.456026 
L 292.94208 239.831885 
L 293.65632 252.15287 
L 294.01344 255.292992 
L 294.37056 255.372826 
L 294.72768 253.935821 
L 295.0848 251.966592 
L 295.79904 243.26473 
L 296.51328 225.248947 
L 297.94176 181.260634 
L 298.656 159.652339 
L 299.01312 151.855258 
L 299.72736 144.537178 
L 300.08448 144.936346 
L 300.4416 150.205363 
L 301.15584 169.897651 
L 302.58432 224.716723 
L 302.94144 237.7296 
L 303.29856 246.644352 
L 303.65568 252.36576 
L 304.0128 254.388211 
L 304.36992 255.718771 
L 304.72704 255.638938 
L 305.08416 254.14871 
L 305.44128 249.864307 
L 306.51264 224.716723 
L 308.65536 158.321779 
L 309.01248 150.870643 
L 309.3696 146.852352 
L 309.72672 144.5904 
L 310.08384 145.362125 
L 310.44096 152.600371 
L 311.1552 176.417395 
L 312.22656 224.237722 
L 312.9408 244.754957 
L 313.29792 251.48759 
L 313.65504 255.851827 
L 314.01216 256.224384 
L 314.36928 255.47927 
L 314.7264 253.536653 
L 315.08352 248.640192 
L 315.79776 233.471808 
L 316.86912 201.777869 
L 317.58336 175.060224 
L 318.2976 153.957542 
L 318.65472 147.46441 
L 319.01184 143.233229 
L 319.36896 141.982502 
L 319.72608 146.054016 
L 320.0832 151.748813 
L 320.44032 164.202854 
L 321.8688 227.164954 
L 322.58304 246.484685 
L 322.94016 254.973658 
L 323.29728 259.710451 
L 323.6544 260.721677 
L 324.36864 254.760768 
L 324.72576 249.944141 
L 325.44 233.28553 
L 326.51136 197.573299 
L 327.93984 148.395802 
L 328.29696 142.647782 
L 328.65408 138.868992 
L 329.0112 137.9376 
L 329.36832 142.248614 
L 329.72544 151.269811 
L 330.43968 178.466458 
L 331.15392 215.003635 
L 331.86816 240.656832 
L 332.22528 250.82231 
L 332.93952 262.158682 
L 333.29664 262.478016 
L 333.65376 261.333734 
L 334.01088 258.646003 
L 334.368 254.255155 
L 335.08224 237.170765 
L 336.1536 201.006144 
L 337.58208 147.783744 
L 337.9392 136.899763 
L 338.29632 131.524301 
L 338.65344 130.725965 
L 339.01056 132.695194 
L 339.36768 138.070656 
L 339.7248 149.114304 
L 340.43904 179.743795 
L 341.5104 232.40736 
L 342.22464 255.931661 
L 342.58176 262.238515 
L 342.93888 264.766579 
L 343.296 264.873024 
L 343.65312 263.781965 
L 344.01024 261.626458 
L 344.72448 248.400691 
L 345.43872 230.704243 
L 346.15296 206.142106 
L 347.22432 152.893094 
L 347.93856 131.870246 
L 348.29568 126.255283 
L 348.6528 123.061939 
L 349.00992 125.563392 
L 349.72416 141.370445 
L 350.4384 176.869786 
L 351.50976 233.73792 
L 352.224 259.550784 
L 352.58112 266.017306 
L 352.93824 269.87593 
L 353.29536 271.605658 
L 353.65248 271.499213 
L 354.0096 268.172813 
L 354.72384 257.714611 
L 355.43808 241.694669 
L 356.50944 203.720486 
L 357.5808 156.831552 
L 358.29504 135.994982 
L 358.65216 127.825344 
L 359.00928 123.807053 
L 359.3664 122.875661 
L 359.72352 126.84073 
L 360.08064 136.81993 
L 360.79488 169.125926 
L 361.50912 211.145011 
L 362.22336 242.705894 
L 362.9376 260.34912 
L 363.29472 264.952858 
L 363.65184 266.735808 
L 364.00896 269.583206 
L 364.36608 270.142042 
L 365.08032 259.976563 
L 365.43744 253.084262 
L 366.15168 232.114637 
L 366.86592 203.693875 
L 367.93728 158.667725 
L 368.2944 145.016179 
L 368.65152 135.888538 
L 369.00864 130.965466 
L 369.36576 128.197901 
L 369.72288 127.931789 
L 370.08 134.424922 
L 370.43712 143.552563 
L 371.50848 191.16 
L 372.22272 228.814848 
L 372.57984 246.351629 
L 373.29408 266.203584 
L 373.6512 270.78071 
L 374.00832 272.457216 
L 374.36544 272.98944 
L 374.72256 271.20649 
L 375.07968 268.146202 
L 375.4368 262.850573 
L 375.79392 255.000269 
L 376.50816 232.221082 
L 378.65088 145.415347 
L 379.008 136.340928 
L 379.36512 131.018688 
L 379.72224 127.665677 
L 380.07936 127.851955 
L 380.43648 132.508915 
L 381.15072 156.725107 
L 382.5792 229.852685 
L 383.29344 254.3616 
L 383.65056 261.280512 
L 384.00768 264.527078 
L 384.72192 265.751194 
L 385.43616 258.619392 
L 386.1504 243.078451 
L 389.00736 149.832806 
L 389.36448 142.009114 
L 389.7216 137.804544 
L 390.07872 137.72471 
L 390.43584 140.838221 
L 390.79296 147.970022 
L 391.5072 176.07145 
L 392.93568 236.878042 
L 393.64992 254.760768 
L 394.00704 258.858893 
L 394.36416 260.428954 
L 395.0784 254.494656 
L 395.43552 250.290086 
L 395.79264 243.025229 
L 397.22112 198.371635 
L 397.93536 172.957939 
L 398.6496 154.676045 
L 399.00672 148.528858 
L 399.36384 145.096013 
L 399.72096 142.940506 
L 400.4352 153.052762 
L 401.14944 174.714278 
L 401.86368 208.084723 
L 402.57792 233.551642 
L 403.29216 252.711706 
L 403.64928 256.14455 
L 404.0064 257.47511 
L 404.36352 257.927501 
L 404.72064 255.372826 
L 405.07776 250.981978 
L 406.14912 228.655181 
L 407.5776 180.435686 
L 408.64896 147.863578 
L 409.00608 141.636557 
L 409.72032 139.002048 
L 410.07744 142.674394 
L 410.43456 150.710976 
L 411.1488 181.500134 
L 412.22016 230.145408 
L 412.57728 243.317952 
L 412.9344 251.966592 
L 413.64864 261.999014 
L 414.00576 265.139136 
L 414.36288 264.048077 
L 414.36288 264.048077 
" clip-path="url(#p7f84574f1d)" style="fill: none; stroke: #bf00bf; stroke-width: 1.5; stroke-linecap: square"/>
   </g>
   <g id="line2d_15">
    <path d="M 57.6 210.799066 
L 57.95712 209.441894 
L 58.31424 210.852288 
L 58.67136 215.615693 
L 60.45696 252.285926 
L 60.81408 256.35744 
L 61.1712 263.22313 
L 61.52832 266.496307 
L 61.88544 267.800256 
L 62.24256 270.062208 
L 62.59968 270.647654 
L 63.67104 268.279258 
L 64.02816 264.234355 
L 65.45664 237.303821 
L 66.528 211.490957 
L 66.88512 206.354995 
L 67.24224 204.093043 
L 67.59936 207.33961 
L 67.95648 211.730458 
L 69.02784 233.658086 
L 70.0992 256.543718 
L 70.45632 262.078848 
L 71.17056 268.092979 
L 71.52768 269.955763 
L 71.8848 270.966989 
L 72.59904 266.469696 
L 74.38464 243.956621 
L 75.81312 215.349581 
L 76.17024 213.167462 
L 76.52736 211.863514 
L 76.88448 213.406963 
L 77.2416 216.414029 
L 77.59872 220.725043 
L 78.67008 239.006938 
L 80.45568 264.420634 
L 81.16992 267.081754 
L 81.52704 267.161587 
L 81.88416 267.773645 
L 82.24128 266.230195 
L 82.5984 263.728742 
L 82.95552 259.391117 
L 83.66976 247.762022 
L 84.384 233.791142 
L 85.09824 220.086374 
L 85.45536 217.744589 
L 85.81248 216.387418 
L 86.1696 213.593242 
L 86.52672 214.631078 
L 86.88384 219.154982 
L 87.9552 238.953715 
L 89.38368 264.314189 
L 89.7408 267.826867 
L 90.09792 268.864704 
L 90.45504 268.066368 
L 90.81216 268.226035 
L 91.16928 268.092979 
L 91.5264 265.88425 
L 92.24064 254.627712 
L 92.59776 250.396531 
L 92.95488 242.306726 
L 93.312 237.51671 
L 94.02624 225.75456 
L 94.74048 217.451866 
L 95.0976 216.467251 
L 95.45472 217.797811 
L 95.81184 222.853939 
L 96.16896 224.743334 
L 96.8832 236.39904 
L 97.59744 250.742477 
L 97.95456 256.942886 
L 99.74016 267.108365 
L 100.4544 268.359091 
L 100.81152 267.507533 
L 101.52576 262.291738 
L 101.88288 258.646003 
L 103.66848 225.887616 
L 104.0256 216.041472 
L 104.38272 211.597402 
L 104.73984 209.441894 
L 105.09696 211.411123 
L 105.45408 214.870579 
L 106.16832 226.180339 
L 107.23968 252.285926 
L 107.95392 263.515853 
L 108.31104 266.576141 
L 108.66816 271.20649 
L 109.02528 272.803162 
L 109.3824 271.339546 
L 109.73952 268.571981 
L 110.45376 264.713357 
L 111.52512 256.676774 
L 111.88224 251.221478 
L 113.66784 213.885965 
L 114.02496 210.027341 
L 114.38208 211.836902 
L 115.09632 219.953318 
L 116.16768 238.235213 
L 117.23904 259.630618 
L 117.59616 264.021466 
L 117.95328 266.097139 
L 118.3104 269.343706 
L 118.66752 269.583206 
L 119.02464 270.833933 
L 119.38176 268.971149 
L 120.45312 259.311283 
L 121.8816 230.730854 
L 122.59584 214.684301 
L 123.31008 206.567885 
L 123.6672 206.647718 
L 124.38144 214.285133 
L 124.73856 219.367872 
L 125.80992 246.83063 
L 126.52416 261.599846 
L 127.2384 271.791936 
L 127.59552 275.597338 
L 127.95264 276.874675 
L 128.66688 278.231846 
L 129.024 277.939123 
L 129.38112 276.156173 
L 129.73824 272.483827 
L 130.45248 260.375731 
L 130.8096 252.206093 
L 131.52384 226.898842 
L 132.23808 201.112589 
L 132.5952 192.330893 
L 132.95232 188.073101 
L 133.30944 187.860211 
L 133.66656 192.597005 
L 134.3808 213.220685 
L 135.45216 247.522522 
L 136.1664 267.906701 
L 136.88064 279.615629 
L 137.23776 282.250138 
L 137.59488 283.101696 
L 138.66624 278.923738 
L 139.38048 270.32832 
L 140.09472 257.554944 
L 140.80896 240.576998 
L 141.88032 208.776614 
L 142.23744 202.363315 
L 142.59456 200.181197 
L 142.95168 201.910925 
L 143.3088 208.297613 
L 144.38016 235.866816 
L 145.0944 255.213158 
L 146.16576 272.483827 
L 146.52288 275.703782 
L 146.88 277.300454 
L 147.23712 276.289229 
L 147.95136 271.898381 
L 148.6656 265.165747 
L 149.37984 252.36576 
L 150.80832 211.890125 
L 151.52256 196.429018 
L 151.87968 194.140454 
L 152.2368 198.557914 
L 152.95104 213.061018 
L 154.0224 247.096742 
L 154.73664 264.234355 
L 155.45088 274.692557 
L 155.808 279.216461 
L 156.52224 280.201075 
L 156.87936 280.147853 
L 157.23648 278.018957 
L 157.5936 273.65472 
L 157.95072 267.853478 
L 158.66496 248.906304 
L 159.02208 242.439782 
L 160.80768 192.517171 
L 161.1648 191.000333 
L 161.52192 193.342118 
L 162.23616 208.217779 
L 164.02176 263.276352 
L 164.736 274.719168 
L 165.45024 279.18985 
L 165.80736 280.547021 
L 166.16448 279.349517 
L 166.5216 276.688397 
L 167.23584 268.412314 
L 167.95008 256.35744 
L 170.0928 196.535462 
L 170.44992 195.018624 
L 170.80704 196.455629 
L 171.16416 202.177037 
L 173.30688 257.208998 
L 174.02112 267.88009 
L 174.37824 272.004826 
L 175.09248 275.011891 
L 175.4496 275.703782 
L 175.80672 274.426445 
L 176.52096 267.720422 
L 177.59232 247.788634 
L 179.0208 213.406963 
L 179.37792 207.046886 
L 179.73504 203.80032 
L 180.09216 202.815706 
L 180.44928 203.747098 
L 180.8064 208.936282 
L 181.52064 224.024832 
L 182.23488 242.679283 
L 182.592 248.480525 
L 182.94912 256.703386 
L 183.66336 267.959923 
L 184.3776 273.920832 
L 184.73472 274.373222 
L 185.09184 273.601498 
L 185.80608 269.982374 
L 186.1632 267.028531 
L 186.52032 262.770739 
L 186.87744 256.623552 
L 187.9488 229.932518 
L 188.30592 218.782426 
L 189.02016 207.020275 
L 189.37728 203.560819 
L 189.7344 202.097203 
L 190.09152 204.944602 
L 190.80576 222.667661 
L 191.52 244.568678 
L 192.23424 260.56201 
L 192.59136 264.926246 
L 192.94848 271.44599 
L 193.66272 274.878835 
L 194.01984 275.570726 
L 194.37696 275.730394 
L 195.0912 270.887155 
L 195.80544 261.120845 
L 196.51968 248.054746 
L 197.59104 214.604467 
L 197.94816 207.020275 
L 198.30528 203.028595 
L 198.6624 196.721741 
L 199.37664 201.564979 
L 199.73376 208.24439 
L 201.87648 264.633523 
L 202.2336 270.461376 
L 202.59072 272.856384 
L 202.94784 276.182784 
L 203.30496 277.992346 
L 203.66208 278.364902 
L 204.73344 272.377382 
L 205.09056 269.290483 
L 205.44768 262.744128 
L 207.94752 201.564979 
L 208.30464 201.006144 
L 208.66176 203.214874 
L 209.73312 221.0976 
L 210.80448 246.777408 
L 211.87584 267.347866 
L 212.59008 274.958669 
L 212.9472 276.448896 
L 213.30432 275.810227 
L 213.66144 274.825613 
L 214.01856 272.270938 
L 214.37568 268.518758 
L 215.08992 254.920435 
L 215.80416 238.155379 
L 216.5184 213.99241 
L 216.87552 205.077658 
L 217.23264 198.983693 
L 217.58976 197.067686 
L 217.94688 198.345024 
L 218.304 202.46976 
L 219.01824 218.383258 
L 219.73248 240.869722 
L 220.80384 266.150362 
L 221.16096 272.244326 
L 221.8752 277.752845 
L 222.58944 279.562406 
L 222.94656 278.178624 
L 223.6608 271.153267 
L 224.37504 259.923341 
L 225.08928 243.291341 
L 226.16064 216.493862 
L 226.87488 205.503437 
L 227.58912 209.920896 
L 227.94624 214.019021 
L 230.44608 266.54953 
L 230.8032 267.773645 
L 231.51744 271.898381 
L 231.87456 272.670106 
L 232.23168 271.44599 
L 232.5888 270.860544 
L 232.94592 268.465536 
L 233.66016 256.384051 
L 234.3744 238.501325 
L 235.80288 213.220685 
L 236.16 209.894285 
L 236.51712 210.399898 
L 236.87424 211.810291 
L 237.58848 220.698432 
L 238.65984 243.50423 
L 239.37408 261.865958 
L 240.08832 270.594432 
L 240.80256 276.661786 
L 241.15968 276.076339 
L 241.5168 274.745779 
L 242.23104 268.465536 
L 243.3024 247.149965 
L 244.73088 218.037312 
L 245.088 212.688461 
L 245.44512 211.357901 
L 245.80224 209.069338 
L 246.15936 212.582016 
L 246.8736 222.374938 
L 248.30208 256.064717 
L 248.6592 263.489242 
L 249.37344 272.244326 
L 249.73056 274.98528 
L 250.4448 276.874675 
L 250.80192 275.943283 
L 251.15904 274.506278 
L 251.51616 267.986534 
L 251.87328 264.260966 
L 252.2304 257.608166 
L 252.94464 238.927104 
L 253.65888 218.010701 
L 254.37312 199.675584 
L 254.73024 196.216128 
L 255.08736 195.870182 
L 255.44448 201.458534 
L 256.15872 222.082214 
L 257.94432 271.552435 
L 258.30144 275.357837 
L 258.65856 277.673011 
L 259.01568 281.345357 
L 259.3728 280.068019 
L 259.72992 279.85513 
L 260.44416 273.814387 
L 261.1584 263.436019 
L 262.944 215.855194 
L 263.65824 202.92215 
L 264.01536 198.877248 
L 264.37248 200.952922 
L 265.08672 209.78784 
L 265.80096 228.282624 
L 266.5152 249.571584 
L 267.58656 270.248486 
L 267.94368 274.77239 
L 268.3008 276.848064 
L 268.65792 278.231846 
L 269.01504 278.285069 
L 269.37216 278.125402 
L 269.72928 275.597338 
L 270.0864 271.632269 
L 270.80064 259.47095 
L 271.15776 251.727091 
L 272.94336 201.085978 
L 273.30048 194.007398 
L 273.6576 191.452723 
L 274.37184 200.952922 
L 275.08608 218.303424 
L 276.15744 252.605261 
L 276.87168 268.571981 
L 277.58592 277.300454 
L 277.94304 279.110016 
L 278.30016 279.775296 
L 278.65728 279.695462 
L 279.0144 279.083405 
L 279.37152 276.129562 
L 279.72864 271.632269 
L 280.08576 265.67136 
L 280.44288 256.650163 
L 280.8 250.502976 
L 281.51424 229.480128 
L 282.22848 204.119654 
L 282.5856 195.577459 
L 282.94272 190.49472 
L 283.29984 190.335053 
L 283.65696 191.585779 
L 284.01408 199.702195 
L 285.44256 245.792794 
L 286.1568 263.302963 
L 286.51392 270.913766 
L 287.58528 283.021862 
L 287.9424 284.192755 
L 288.29952 283.208141 
L 288.65664 281.478413 
L 289.01376 279.163238 
L 289.37088 274.32 
L 290.08512 259.311283 
L 292.22784 194.619456 
L 292.58496 188.818214 
L 292.94208 190.308442 
L 293.2992 194.779123 
L 293.65632 203.826931 
L 295.0848 251.008589 
L 296.51328 278.657626 
L 296.8704 282.037248 
L 297.22752 284.219366 
L 297.58464 285.470093 
L 298.29888 285.230592 
L 298.656 282.942029 
L 299.01312 279.509184 
L 300.08448 262.025626 
L 300.79872 239.72544 
L 301.87008 201.032755 
L 302.2272 194.4864 
L 302.58432 190.547942 
L 302.94144 187.860211 
L 303.29856 189.935885 
L 303.65568 197.972467 
L 305.44128 258.885504 
L 306.15552 274.32 
L 306.51264 279.003571 
L 306.86976 281.584858 
L 307.22688 282.888806 
L 307.584 284.911258 
L 307.94112 283.820198 
L 308.29824 283.554086 
L 308.65536 281.132467 
L 309.01248 277.593178 
L 309.72672 266.54953 
L 310.08384 258.35328 
L 311.1552 219.660595 
L 311.86944 192.224448 
L 312.22656 185.358758 
L 312.58368 182.378304 
L 312.9408 187.141709 
L 313.29792 194.93879 
L 315.44064 267.906701 
L 316.512 281.505024 
L 317.22624 285.603149 
L 317.58336 284.804813 
L 317.94048 283.554086 
L 318.2976 280.9728 
L 319.01184 272.191104 
L 319.36896 264.633523 
L 320.44032 228.548736 
L 321.15456 200.500531 
L 321.51168 189.802829 
L 321.8688 184.028198 
L 322.22592 183.362918 
L 322.58304 184.5072 
L 322.94016 190.468109 
L 324.36864 249.571584 
L 325.08288 268.944538 
L 325.44 276.475507 
L 326.15424 284.166144 
L 326.51136 285.17737 
L 326.86848 286.907098 
L 327.2256 287.519155 
L 327.93984 282.915418 
L 328.29696 279.455962 
L 328.65408 273.734554 
L 329.36832 255.053491 
L 330.43968 214.125466 
L 331.15392 186.130483 
L 331.51104 180.435686 
L 331.86816 178.626125 
L 332.22528 183.655642 
L 332.5824 194.220288 
L 334.01088 250.130419 
L 334.72512 269.609818 
L 335.43936 283.793587 
L 335.79648 287.279654 
L 336.51072 290.73911 
L 336.86784 290.020608 
L 337.22496 289.727885 
L 337.58208 287.492544 
L 337.9392 284.51209 
L 338.65344 272.510438 
L 339.01056 263.542464 
L 339.7248 238.527936 
L 341.15328 177.40201 
L 341.5104 169.87104 
L 341.86752 168.54048 
L 342.22464 173.170829 
L 342.93888 199.14336 
L 343.65312 232.673472 
L 344.36736 261.120845 
L 345.0816 278.152013 
L 345.79584 287.944934 
L 346.15296 291.271334 
L 346.51008 293.40023 
L 346.8672 294.2784 
L 347.22432 293.426842 
L 347.93856 288.184435 
L 348.29568 284.112922 
L 348.6528 277.247232 
L 349.00992 267.640589 
L 350.08128 224.87639 
L 351.15264 171.946714 
L 351.50976 162.76585 
L 351.86688 161.861069 
L 352.224 165.320525 
L 352.58112 177.295565 
L 354.36672 259.737062 
L 355.08096 279.030182 
L 356.15232 292.628506 
L 356.50944 294.996902 
L 356.86656 296.167795 
L 357.5808 294.012288 
L 358.29504 289.568218 
L 358.65216 285.496704 
L 359.3664 273.495053 
L 359.72352 263.356186 
L 360.43776 231.28969 
L 361.50912 178.626125 
L 361.86624 167.955034 
L 362.22336 164.5488 
L 362.58048 167.555866 
L 362.9376 174.927168 
L 363.29472 186.636096 
L 365.08032 263.67552 
L 365.79456 280.892966 
L 366.15168 285.922483 
L 366.86592 291.989837 
L 367.22304 293.16073 
L 367.58016 293.240563 
L 367.93728 292.974451 
L 368.2944 291.83017 
L 368.65152 287.811878 
L 369.36576 274.586112 
L 369.72288 266.922086 
L 370.43712 244.355789 
L 372.22272 165.480192 
L 372.57984 158.241946 
L 372.93696 160.876454 
L 373.29408 171.334656 
L 374.36544 223.652275 
L 375.4368 268.731648 
L 376.15104 283.740365 
L 376.50816 288.929549 
L 376.86528 290.472998 
L 377.2224 292.628506 
L 377.57952 293.959066 
L 378.29376 292.681728 
L 378.65088 290.28672 
L 379.008 287.013542 
L 379.72224 275.43767 
L 380.43648 258.007334 
L 381.50784 210.799066 
L 382.22208 182.537971 
L 382.5792 172.824883 
L 382.93632 169.445261 
L 383.29344 171.2016 
L 383.65056 180.568742 
L 385.07904 241.668058 
L 385.79328 267.241421 
L 386.50752 280.014797 
L 387.22176 285.257203 
L 387.57888 287.572378 
L 387.936 287.652211 
L 388.29312 287.066765 
L 389.00736 283.101696 
L 389.36448 278.657626 
L 390.07872 266.842253 
L 390.79296 246.112128 
L 392.22144 191.16 
L 392.57856 183.309696 
L 392.93568 182.005747 
L 393.2928 184.773312 
L 393.64992 193.927565 
L 394.36416 221.337101 
L 394.72128 236.798208 
L 395.79264 266.283418 
L 396.50688 277.619789 
L 396.864 281.052634 
L 397.22112 283.341197 
L 397.57824 284.245978 
L 397.93536 284.219366 
L 398.29248 284.059699 
L 399.36384 271.738714 
L 400.07808 255.106714 
L 400.79232 233.924198 
L 401.86368 193.688064 
L 402.2208 185.039424 
L 402.57792 183.17664 
L 402.93504 185.305536 
L 403.29216 191.931725 
L 404.0064 214.710912 
L 405.07776 253.616486 
L 405.43488 263.569075 
L 406.50624 280.946189 
L 406.86336 283.63392 
L 407.22048 284.858035 
L 407.5776 285.17737 
L 408.29184 282.862195 
L 408.64896 280.360742 
L 409.3632 270.807322 
L 409.72032 263.67552 
L 410.43456 240.60361 
L 411.50592 195.843571 
L 411.86304 182.671027 
L 412.57728 176.444006 
L 412.9344 181.074355 
L 413.29152 189.297216 
L 414.36288 235.627315 
L 414.36288 235.627315 
" clip-path="url(#p7f84574f1d)" style="fill: none; stroke: #bfbf00; stroke-width: 1.5; stroke-linecap: square"/>
   </g>
   <g id="patch_3">
    <path d="M 57.6 307.584 
L 57.6 41.472 
" style="fill: none; stroke: #000000; stroke-width: 0.8; stroke-linejoin: miter; stroke-linecap: square"/>
   </g>
   <g id="patch_4">
    <path d="M 414.72 307.584 
L 414.72 41.472 
" style="fill: none; stroke: #000000; stroke-width: 0.8; stroke-linejoin: miter; stroke-linecap: square"/>
   </g>
   <g id="patch_5">
    <path d="M 57.6 307.584 
L 414.72 307.584 
" style="fill: none; stroke: #000000; stroke-width: 0.8; stroke-linejoin: miter; stroke-linecap: square"/>
   </g>
   <g id="patch_6">
    <path d="M 57.6 41.472 
L 414.72 41.472 
" style="fill: none; stroke: #000000; stroke-width: 0.8; stroke-linejoin: miter; stroke-linecap: square"/>
   </g>
  </g>
 </g>
 <defs>
  <clipPath id="p7f84574f1d">
   <rect x="57.6" y="41.472" width="357.12" height="266.112"/>
  </clipPath>
 </defs>
</svg>
