<?xml version="1.0" encoding="utf-8" standalone="no"?>
<!DOCTYPE svg PUBLIC "-//W3C//DTD SVG 1.1//EN"
  "http://www.w3.org/Graphics/SVG/1.1/DTD/svg11.dtd">
<svg xmlns:xlink="http://www.w3.org/1999/xlink" width="460.8pt" height="345.6pt" viewBox="0 0 460.8 345.6" xmlns="http://www.w3.org/2000/svg" version="1.1">
 <metadata>
  <rdf:RDF xmlns:dc="http://purl.org/dc/elements/1.1/" xmlns:cc="http://creativecommons.org/ns#" xmlns:rdf="http://www.w3.org/1999/02/22-rdf-syntax-ns#">
   <cc:Work>
    <dc:type rdf:resource="http://purl.org/dc/dcmitype/StillImage"/>
    <dc:date>2025-05-29T12:03:43.343208</dc:date>
    <dc:format>image/svg+xml</dc:format>
    <dc:creator>
     <cc:Agent>
      <dc:title>Matplotlib v3.10.0, https://matplotlib.org/</dc:title>
     </cc:Agent>
    </dc:creator>
   </cc:Work>
  </rdf:RDF>
 </metadata>
 <defs>
  <style type="text/css">*{stroke-linejoin: round; stroke-linecap: butt}</style>
 </defs>
 <g id="figure_1">
  <g id="patch_1">
   <path d="M 0 345.6 
L 460.8 345.6 
L 460.8 0 
L 0 0 
z
" style="fill: #ffffff"/>
  </g>
  <g id="axes_1">
   <g id="patch_2">
    <path d="M 57.6 307.584 
L 414.72 307.584 
L 414.72 41.472 
L 57.6 41.472 
z
" style="fill: #ffffff"/>
   </g>
   <g id="matplotlib.axis_1">
    <g id="xtick_1">
     <g id="line2d_1">
      <defs>
       <path id="m97544edee7" d="M 0 0 
L 0 3.5 
" style="stroke: #000000; stroke-width: 0.8"/>
      </defs>
      <g>
       <use xlink:href="#m97544edee7" x="73.832727" y="307.584" style="stroke: #000000; stroke-width: 0.8"/>
      </g>
     </g>
     <g id="text_1">
      <!-- 0 -->
      <g transform="translate(68.106477 328.261187) scale(0.18 -0.18)">
       <defs>
        <path id="DejaVuSans-30" d="M 2034 4250 
Q 1547 4250 1301 3770 
Q 1056 3291 1056 2328 
Q 1056 1369 1301 889 
Q 1547 409 2034 409 
Q 2525 409 2770 889 
Q 3016 1369 3016 2328 
Q 3016 3291 2770 3770 
Q 2525 4250 2034 4250 
z
M 2034 4750 
Q 2819 4750 3233 4129 
Q 3647 3509 3647 2328 
Q 3647 1150 3233 529 
Q 2819 -91 2034 -91 
Q 1250 -91 836 529 
Q 422 1150 422 2328 
Q 422 3509 836 4129 
Q 1250 4750 2034 4750 
z
" transform="scale(0.015625)"/>
       </defs>
       <use xlink:href="#DejaVuSans-30"/>
      </g>
     </g>
    </g>
    <g id="xtick_2">
     <g id="line2d_2">
      <g>
       <use xlink:href="#m97544edee7" x="154.996364" y="307.584" style="stroke: #000000; stroke-width: 0.8"/>
      </g>
     </g>
     <g id="text_2">
      <!-- 500 -->
      <g transform="translate(137.817614 328.261187) scale(0.18 -0.18)">
       <defs>
        <path id="DejaVuSans-35" d="M 691 4666 
L 3169 4666 
L 3169 4134 
L 1269 4134 
L 1269 2991 
Q 1406 3038 1543 3061 
Q 1681 3084 1819 3084 
Q 2600 3084 3056 2656 
Q 3513 2228 3513 1497 
Q 3513 744 3044 326 
Q 2575 -91 1722 -91 
Q 1428 -91 1123 -41 
Q 819 9 494 109 
L 494 744 
Q 775 591 1075 516 
Q 1375 441 1709 441 
Q 2250 441 2565 725 
Q 2881 1009 2881 1497 
Q 2881 1984 2565 2268 
Q 2250 2553 1709 2553 
Q 1456 2553 1204 2497 
Q 953 2441 691 2322 
L 691 4666 
z
" transform="scale(0.015625)"/>
       </defs>
       <use xlink:href="#DejaVuSans-35"/>
       <use xlink:href="#DejaVuSans-30" transform="translate(63.623047 0)"/>
       <use xlink:href="#DejaVuSans-30" transform="translate(127.246094 0)"/>
      </g>
     </g>
    </g>
    <g id="xtick_3">
     <g id="line2d_3">
      <g>
       <use xlink:href="#m97544edee7" x="236.16" y="307.584" style="stroke: #000000; stroke-width: 0.8"/>
      </g>
     </g>
     <g id="text_3">
      <!-- 1000 -->
      <g transform="translate(213.255 328.261187) scale(0.18 -0.18)">
       <defs>
        <path id="DejaVuSans-31" d="M 794 531 
L 1825 531 
L 1825 4091 
L 703 3866 
L 703 4441 
L 1819 4666 
L 2450 4666 
L 2450 531 
L 3481 531 
L 3481 0 
L 794 0 
L 794 531 
z
" transform="scale(0.015625)"/>
       </defs>
       <use xlink:href="#DejaVuSans-31"/>
       <use xlink:href="#DejaVuSans-30" transform="translate(63.623047 0)"/>
       <use xlink:href="#DejaVuSans-30" transform="translate(127.246094 0)"/>
       <use xlink:href="#DejaVuSans-30" transform="translate(190.869141 0)"/>
      </g>
     </g>
    </g>
    <g id="xtick_4">
     <g id="line2d_4">
      <g>
       <use xlink:href="#m97544edee7" x="317.323636" y="307.584" style="stroke: #000000; stroke-width: 0.8"/>
      </g>
     </g>
     <g id="text_4">
      <!-- 1500 -->
      <g transform="translate(294.418636 328.261187) scale(0.18 -0.18)">
       <use xlink:href="#DejaVuSans-31"/>
       <use xlink:href="#DejaVuSans-35" transform="translate(63.623047 0)"/>
       <use xlink:href="#DejaVuSans-30" transform="translate(127.246094 0)"/>
       <use xlink:href="#DejaVuSans-30" transform="translate(190.869141 0)"/>
      </g>
     </g>
    </g>
    <g id="xtick_5">
     <g id="line2d_5">
      <g>
       <use xlink:href="#m97544edee7" x="398.487273" y="307.584" style="stroke: #000000; stroke-width: 0.8"/>
      </g>
     </g>
     <g id="text_5">
      <!-- 2000 -->
      <g transform="translate(375.582273 328.261187) scale(0.18 -0.18)">
       <defs>
        <path id="DejaVuSans-32" d="M 1228 531 
L 3431 531 
L 3431 0 
L 469 0 
L 469 531 
Q 828 903 1448 1529 
Q 2069 2156 2228 2338 
Q 2531 2678 2651 2914 
Q 2772 3150 2772 3378 
Q 2772 3750 2511 3984 
Q 2250 4219 1831 4219 
Q 1534 4219 1204 4116 
Q 875 4013 500 3803 
L 500 4441 
Q 881 4594 1212 4672 
Q 1544 4750 1819 4750 
Q 2544 4750 2975 4387 
Q 3406 4025 3406 3419 
Q 3406 3131 3298 2873 
Q 3191 2616 2906 2266 
Q 2828 2175 2409 1742 
Q 1991 1309 1228 531 
z
" transform="scale(0.015625)"/>
       </defs>
       <use xlink:href="#DejaVuSans-32"/>
       <use xlink:href="#DejaVuSans-30" transform="translate(63.623047 0)"/>
       <use xlink:href="#DejaVuSans-30" transform="translate(127.246094 0)"/>
       <use xlink:href="#DejaVuSans-30" transform="translate(190.869141 0)"/>
      </g>
     </g>
    </g>
    <g id="text_6">
     <!-- $t$ -->
     <g transform="translate(231.16 355.000719) scale(0.25 -0.25)">
      <defs>
       <path id="DejaVuSans-Oblique-74" d="M 2706 3500 
L 2619 3053 
L 1472 3053 
L 1100 1153 
Q 1081 1047 1072 975 
Q 1063 903 1063 863 
Q 1063 663 1183 572 
Q 1303 481 1569 481 
L 2150 481 
L 2053 0 
L 1503 0 
Q 991 0 739 200 
Q 488 400 488 806 
Q 488 878 497 964 
Q 506 1050 525 1153 
L 897 3053 
L 409 3053 
L 500 3500 
L 978 3500 
L 1172 4494 
L 1747 4494 
L 1556 3500 
L 2706 3500 
z
" transform="scale(0.015625)"/>
      </defs>
      <use xlink:href="#DejaVuSans-Oblique-74" transform="translate(0 0.78125)"/>
     </g>
    </g>
   </g>
   <g id="matplotlib.axis_2">
    <g id="ytick_1">
     <g id="line2d_6">
      <defs>
       <path id="m338070eafc" d="M 0 0 
L -3.5 0 
" style="stroke: #000000; stroke-width: 0.8"/>
      </defs>
      <g>
       <use xlink:href="#m338070eafc" x="57.6" y="307.584" style="stroke: #000000; stroke-width: 0.8"/>
      </g>
     </g>
     <g id="text_7">
      <!-- 0.0 -->
      <g transform="translate(21.974375 314.422594) scale(0.18 -0.18)">
       <defs>
        <path id="DejaVuSans-2e" d="M 684 794 
L 1344 794 
L 1344 0 
L 684 0 
L 684 794 
z
" transform="scale(0.015625)"/>
       </defs>
       <use xlink:href="#DejaVuSans-30"/>
       <use xlink:href="#DejaVuSans-2e" transform="translate(63.623047 0)"/>
       <use xlink:href="#DejaVuSans-30" transform="translate(95.410156 0)"/>
      </g>
     </g>
    </g>
    <g id="ytick_2">
     <g id="line2d_7">
      <g>
       <use xlink:href="#m338070eafc" x="57.6" y="174.528" style="stroke: #000000; stroke-width: 0.8"/>
      </g>
     </g>
     <g id="text_8">
      <!-- 0.5 -->
      <g transform="translate(21.974375 181.366594) scale(0.18 -0.18)">
       <use xlink:href="#DejaVuSans-30"/>
       <use xlink:href="#DejaVuSans-2e" transform="translate(63.623047 0)"/>
       <use xlink:href="#DejaVuSans-35" transform="translate(95.410156 0)"/>
      </g>
     </g>
    </g>
    <g id="ytick_3">
     <g id="line2d_8">
      <g>
       <use xlink:href="#m338070eafc" x="57.6" y="41.472" style="stroke: #000000; stroke-width: 0.8"/>
      </g>
     </g>
     <g id="text_9">
      <!-- 1.0 -->
      <g transform="translate(21.974375 48.310594) scale(0.18 -0.18)">
       <use xlink:href="#DejaVuSans-31"/>
       <use xlink:href="#DejaVuSans-2e" transform="translate(63.623047 0)"/>
       <use xlink:href="#DejaVuSans-30" transform="translate(95.410156 0)"/>
      </g>
     </g>
    </g>
    <g id="text_10">
     <!-- $x_i(t)$ -->
     <g transform="translate(12.775156 199.403) rotate(-90) scale(0.25 -0.25)">
      <defs>
       <path id="DejaVuSans-Oblique-78" d="M 3841 3500 
L 2234 1784 
L 3219 0 
L 2559 0 
L 1819 1388 
L 531 0 
L -166 0 
L 1556 1844 
L 641 3500 
L 1300 3500 
L 1972 2234 
L 3144 3500 
L 3841 3500 
z
" transform="scale(0.015625)"/>
       <path id="DejaVuSans-Oblique-69" d="M 1172 4863 
L 1747 4863 
L 1606 4134 
L 1031 4134 
L 1172 4863 
z
M 909 3500 
L 1484 3500 
L 800 0 
L 225 0 
L 909 3500 
z
" transform="scale(0.015625)"/>
       <path id="DejaVuSans-28" d="M 1984 4856 
Q 1566 4138 1362 3434 
Q 1159 2731 1159 2009 
Q 1159 1288 1364 580 
Q 1569 -128 1984 -844 
L 1484 -844 
Q 1016 -109 783 600 
Q 550 1309 550 2009 
Q 550 2706 781 3412 
Q 1013 4119 1484 4856 
L 1984 4856 
z
" transform="scale(0.015625)"/>
       <path id="DejaVuSans-29" d="M 513 4856 
L 1013 4856 
Q 1481 4119 1714 3412 
Q 1947 2706 1947 2009 
Q 1947 1309 1714 600 
Q 1481 -109 1013 -844 
L 513 -844 
Q 928 -128 1133 580 
Q 1338 1288 1338 2009 
Q 1338 2731 1133 3434 
Q 928 4138 513 4856 
z
" transform="scale(0.015625)"/>
      </defs>
      <use xlink:href="#DejaVuSans-Oblique-78" transform="translate(0 0.125)"/>
      <use xlink:href="#DejaVuSans-Oblique-69" transform="translate(59.179688 -16.28125) scale(0.7)"/>
      <use xlink:href="#DejaVuSans-28" transform="translate(81.362305 0.125)"/>
      <use xlink:href="#DejaVuSans-Oblique-74" transform="translate(120.375977 0.125)"/>
      <use xlink:href="#DejaVuSans-29" transform="translate(159.584961 0.125)"/>
     </g>
    </g>
   </g>
   <g id="line2d_9">
    <path d="M 73.832727 222.42816 
L 74.335942 180.318777 
L 74.514502 176.479938 
L 74.530735 176.494033 
L 74.595665 177.136589 
L 74.74176 181.771614 
L 75.017716 199.690983 
L 76.007913 270.675143 
L 76.397498 282.693446 
L 76.722153 287.073825 
L 76.900713 287.696139 
L 76.916945 287.69122 
L 76.998109 287.50714 
L 77.144204 286.461303 
L 77.355229 283.029797 
L 77.614953 274.576759 
L 77.923375 255.866948 
L 78.394124 209.738025 
L 78.799942 178.706598 
L 78.962269 175.658672 
L 78.978502 175.690771 
L 79.059665 176.734873 
L 79.221993 182.854625 
L 79.530415 204.919579 
L 80.374516 267.367901 
L 80.780335 281.60388 
L 81.121222 287.02276 
L 81.34848 288.037386 
L 81.429644 287.914498 
L 81.559505 287.144795 
L 81.754298 284.459146 
L 81.997789 277.696597 
L 82.289978 262.383051 
L 82.663331 228.937175 
L 83.247709 178.101046 
L 83.410036 174.833026 
L 83.442502 174.923494 
L 83.539898 176.612404 
L 83.734691 185.595 
L 84.140509 218.258346 
L 84.773585 264.813278 
L 85.195636 280.913602 
L 85.536524 286.948991 
L 85.780015 288.360565 
L 85.844945 288.355112 
L 85.861178 288.32791 
L 85.974807 287.834978 
L 86.153367 285.871861 
L 86.396858 280.191493 
L 86.672815 267.71824 
L 87.013702 240.38203 
L 87.77664 175.180982 
L 87.874036 173.995612 
L 87.922735 174.245086 
L 88.036364 176.885199 
L 88.247389 188.248241 
L 88.799302 235.017753 
L 89.318749 269.028372 
L 89.724567 282.744993 
L 90.065455 287.851914 
L 90.27648 288.718587 
L 90.357644 288.600235 
L 90.487505 287.847612 
L 90.682298 285.208648 
L 90.925789 278.524467 
L 91.217978 263.24383 
L 91.591331 229.369941 
L 92.191942 176.119092 
L 92.354269 173.154349 
L 92.370502 173.207567 
L 92.451665 174.387106 
L 92.613993 180.897985 
L 92.938647 205.345832 
L 93.734051 266.377466 
L 94.139869 281.604795 
L 94.480756 287.609185 
L 94.724247 289.035465 
L 94.789178 289.041223 
L 94.821644 288.983186 
L 94.951505 288.32192 
L 95.146298 285.859553 
L 95.389789 279.488531 
L 95.665745 265.787953 
L 96.006633 236.428959 
L 96.70464 174.249607 
L 96.834502 172.299125 
L 96.866967 172.453243 
L 96.964364 174.376442 
L 97.159156 183.962128 
L 97.581207 219.430828 
L 98.198051 265.53158 
L 98.620102 281.766989 
L 98.977222 288.031063 
L 99.220713 289.382642 
L 99.285644 289.371874 
L 99.301876 289.344036 
L 99.415505 288.854196 
L 99.594065 286.920094 
L 99.821324 281.813362 
L 100.09728 269.809696 
L 100.421935 244.311638 
L 101.249804 172.110058 
L 101.330967 171.442701 
L 101.363433 171.62756 
L 101.477062 174.198035 
L 101.688087 185.732784 
L 102.223767 232.553492 
L 102.743215 268.31359 
L 103.149033 282.887449 
L 103.48992 288.503801 
L 103.733411 289.731102 
L 103.814575 289.654998 
L 103.944436 288.991159 
L 104.139229 286.542458 
L 104.38272 280.198285 
L 104.658676 266.461032 
L 104.999564 236.694665 
L 105.697571 172.674156 
L 105.827433 170.566495 
L 105.859898 170.698248 
L 105.957295 172.594066 
L 106.152087 182.287958 
L 106.574138 218.464571 
L 107.190982 265.550893 
L 107.613033 282.105629 
L 107.970153 288.545019 
L 108.213644 290.032972 
L 108.278575 290.066921 
L 108.31104 290.025199 
L 108.424669 289.555821 
L 108.603229 287.677023 
L 108.830487 282.678176 
L 109.106444 270.816775 
L 109.431098 245.25693 
L 110.291433 170.004644 
L 110.340131 169.688552 
L 110.388829 169.965595 
L 110.502458 172.794839 
L 110.713484 184.877879 
L 111.297862 237.046826 
L 111.801076 270.485759 
L 112.206895 284.26226 
L 112.547782 289.420674 
L 112.77504 290.408311 
L 112.856204 290.309049 
L 112.986065 289.615517 
L 113.180858 287.131188 
L 113.424349 280.726226 
L 113.700305 266.803547 
L 114.041193 236.421172 
L 114.7392 170.905208 
L 114.869062 168.802239 
L 114.901527 168.951007 
L 114.998924 170.931232 
L 115.193716 180.913539 
L 115.615767 217.935321 
L 116.216378 264.9301 
L 116.638429 282.12522 
L 116.995549 288.918205 
L 117.255273 290.678049 
L 117.336436 290.737168 
L 117.368902 290.693953 
L 117.482531 290.225722 
L 117.661091 288.367272 
L 117.888349 283.417126 
L 118.148073 272.517389 
L 118.456495 249.031664 
L 119.38176 167.970733 
L 119.397993 167.911489 
L 119.446691 168.137493 
L 119.56032 170.908743 
L 119.771345 183.093217 
L 120.323258 233.455251 
L 120.842705 269.717563 
L 121.248524 284.209727 
L 121.589411 289.782426 
L 121.832902 291.064144 
L 121.897833 291.054776 
L 121.914065 291.028638 
L 122.027695 290.565919 
L 122.206255 288.727374 
L 122.433513 283.81981 
L 122.693236 272.972356 
L 123.001658 249.455199 
L 123.943156 167.015402 
L 123.959389 167.009117 
L 123.975622 167.070861 
L 124.056785 168.37126 
L 124.219113 175.465913 
L 124.543767 201.941141 
L 125.322938 266.249952 
L 125.728756 282.651204 
L 126.085876 289.491639 
L 126.3456 291.318597 
L 126.426764 291.410131 
L 126.475462 291.353496 
L 126.605324 290.767768 
L 126.800116 288.516829 
L 127.043607 282.55005 
L 127.319564 269.275738 
L 127.644218 241.064439 
L 128.423389 167.169534 
L 128.520785 166.098811 
L 128.553251 166.297835 
L 128.66688 169.056025 
L 128.877905 181.405843 
L 129.429818 232.792813 
L 129.949265 269.795108 
L 130.355084 284.559266 
L 130.695971 290.287432 
L 130.939462 291.702439 
L 131.004393 291.737841 
L 131.036858 291.70027 
L 131.150487 291.263727 
L 131.329047 289.494597 
L 131.556305 284.727755 
L 131.816029 274.087291 
L 132.124451 250.678481 
L 133.082182 165.174062 
L 133.098415 165.190925 
L 133.163345 165.943668 
L 133.30944 171.349255 
L 133.585396 192.135414 
L 134.543127 270.939452 
L 134.948945 285.266533 
L 135.289833 290.75448 
L 135.533324 292.050353 
L 135.598255 292.058171 
L 135.63072 292.00715 
L 135.760582 291.414289 
L 135.955375 289.17366 
L 136.198865 283.237529 
L 136.474822 269.946991 
L 136.799476 241.397304 
L 137.59488 165.048015 
L 137.676044 164.2458 
L 137.724742 164.614361 
L 137.838371 167.797522 
L 138.065629 182.243932 
L 139.348015 280.126406 
L 139.721367 289.097399 
L 140.029789 292.101455 
L 140.175884 292.39837 
L 140.192116 292.387169 
L 140.289513 292.125276 
L 140.45184 290.873269 
L 140.662865 287.322261 
L 140.922589 278.52871 
L 141.214778 259.509099 
L 141.604364 216.427534 
L 142.091345 167.731105 
L 142.269905 163.306903 
L 142.286138 163.34144 
L 142.367302 164.557033 
L 142.529629 171.724458 
L 142.854284 199.101941 
L 143.633455 266.161046 
L 144.039273 283.216568 
L 144.396393 290.407974 
L 144.672349 292.566412 
L 144.785978 292.723802 
L 144.818444 292.689779 
L 144.932073 292.27788 
L 145.110633 290.587615 
L 145.337891 285.992165 
L 145.597615 275.603841 
L 145.889804 253.864171 
L 146.376785 195.950033 
L 146.750138 164.775522 
L 146.88 162.362489 
L 146.912465 162.492018 
L 147.009862 164.54475 
L 147.204655 175.182032 
L 147.626705 214.952987 
L 148.227316 265.198064 
L 148.633135 282.879786 
L 149.006487 290.63154 
L 149.298676 292.911004 
L 149.396073 293.052025 
L 149.444771 293.005756 
L 149.5584 292.576763 
L 149.73696 290.865067 
L 149.964218 286.240341 
L 150.223942 275.780486 
L 150.516131 253.828486 
L 151.003113 195.225649 
L 151.360233 164.432019 
L 151.506327 161.409231 
L 151.538793 161.553161 
L 151.636189 163.664662 
L 151.830982 174.472868 
L 152.253033 214.696669 
L 152.853644 265.335506 
L 153.259462 283.097993 
L 153.632815 290.887339 
L 153.925004 293.211216 
L 154.038633 293.372766 
L 154.071098 293.342306 
L 154.184727 292.951692 
L 154.363287 291.324751 
L 154.590545 286.867035 
L 154.850269 276.697669 
L 155.142458 255.121991 
L 155.596975 200.249335 
L 155.98656 164.042015 
L 156.148887 160.450244 
L 156.16512 160.504294 
L 156.246284 161.847793 
L 156.408611 169.395383 
L 156.733265 197.795575 
L 157.512436 266.573394 
L 157.918255 283.868508 
L 158.275375 291.172203 
L 158.567564 293.516019 
L 158.681193 293.695528 
L 158.713658 293.671564 
L 158.827287 293.309269 
L 159.005847 291.748154 
L 159.233105 287.423727 
L 159.492829 277.486614 
L 159.785018 256.203133 
L 160.223302 203.16163 
L 160.62912 163.59254 
L 160.791447 159.484753 
L 160.823913 159.57557 
L 160.921309 161.572644 
L 161.116102 172.350341 
L 161.52192 211.505287 
L 162.138764 265.050976 
L 162.544582 283.2475 
L 162.917935 291.267989 
L 163.210124 293.76569 
L 163.339985 294.014998 
L 163.372451 293.995289 
L 163.48608 293.653029 
L 163.66464 292.142244 
L 163.891898 287.92351 
L 164.151622 278.170397 
L 164.443811 257.106698 
L 164.865862 205.946436 
L 165.304145 162.274993 
L 165.466473 158.502465 
L 165.482705 158.547773 
L 165.563869 159.871896 
L 165.726196 167.493792 
L 166.050851 196.389112 
L 166.830022 266.544699 
L 167.23584 284.144283 
L 167.609193 291.812406 
L 167.901382 294.137813 
L 168.031244 294.327324 
L 168.063709 294.29351 
L 168.177338 293.902856 
L 168.355898 292.311692 
L 168.583156 287.955654 
L 168.84288 277.929749 
L 169.135069 256.311723 
L 169.55712 204.239628 
L 169.979171 161.658468 
L 170.141498 157.520799 
L 170.173964 157.624921 
L 170.27136 159.69522 
L 170.466153 170.742392 
L 170.871971 210.723944 
L 171.488815 265.190953 
L 171.894633 283.606937 
L 172.267985 291.73055 
L 172.576407 294.393874 
L 172.722502 294.642228 
L 172.738735 294.630097 
L 172.836131 294.381538 
L 172.998458 293.224734 
L 173.209484 289.932671 
L 173.452975 282.317808 
L 173.728931 265.618689 
L 174.069818 228.795995 
L 174.702895 159.467321 
L 174.848989 156.528809 
L 174.881455 156.733996 
L 174.978851 159.107297 
L 175.173644 170.714252 
L 175.611927 214.921584 
L 176.196305 265.874518 
L 176.602124 284.093394 
L 176.975476 292.093982 
L 177.283898 294.710903 
L 177.429993 294.954251 
L 177.446225 294.942244 
L 177.559855 294.626544 
L 177.738415 293.204437 
L 177.965673 289.191912 
L 178.209164 280.587938 
L 178.48512 262.05467 
L 178.84224 220.484906 
L 179.394153 159.455881 
L 179.55648 155.523742 
L 179.572713 155.566607 
L 179.653876 156.912358 
L 179.816204 164.729886 
L 180.140858 194.455525 
L 180.920029 266.603314 
L 181.325847 284.598802 
L 181.6992 292.463645 
L 182.007622 295.027765 
L 182.153716 295.263482 
L 182.169949 295.251306 
L 182.283578 294.938269 
L 182.462138 293.534344 
L 182.689396 289.570507 
L 182.932887 281.044327 
L 183.208844 262.578627 
L 183.565964 220.80615 
L 184.117876 158.700168 
L 184.280204 154.517037 
L 184.312669 154.640531 
L 184.410065 156.818001 
L 184.604858 168.262 
L 185.010676 209.480485 
L 185.611287 264.322218 
L 186.017105 283.591313 
L 186.390458 292.158845 
L 186.69888 295.133718 
L 186.87744 295.574753 
L 186.893673 295.569986 
L 186.991069 295.376538 
L 187.153396 294.36015 
L 187.364422 291.368281 
L 187.607913 284.313924 
L 187.867636 269.725468 
L 188.176058 238.515261 
L 188.938996 154.70047 
L 189.02016 153.507919 
L 189.068858 153.752213 
L 189.182487 156.949213 
L 189.393513 171.105264 
L 189.961658 231.279752 
L 190.44864 269.985878 
L 190.854458 286.541095 
L 191.211578 293.403248 
L 191.503767 295.654851 
L 191.633629 295.878964 
L 191.666095 295.861188 
L 191.779724 295.552504 
L 191.958284 294.183592 
L 192.185542 290.316011 
L 192.429033 281.946455 
L 192.704989 263.623843 
L 193.045876 223.74798 
L 193.630255 156.352627 
L 193.792582 152.478948 
L 193.808815 152.54016 
L 193.889978 154.006341 
L 194.052305 162.184051 
L 194.37696 192.910053 
L 195.139898 265.863593 
L 195.545716 284.642452 
L 195.919069 292.90978 
L 196.227491 295.762809 
L 196.406051 296.180415 
L 196.422284 296.175187 
L 196.51968 295.984908 
L 196.682007 294.997168 
L 196.893033 292.089348 
L 197.136524 285.197274 
L 197.396247 270.806084 
L 197.704669 239.552229 
L 198.48384 152.485637 
L 198.565004 151.44533 
L 198.613702 151.795243 
L 198.727331 155.268019 
L 198.954589 171.471954 
L 200.236975 281.800138 
L 200.610327 291.735363 
L 200.951215 295.707568 
L 201.178473 296.476822 
L 201.275869 296.380822 
L 201.421964 295.706731 
L 201.616756 293.58006 
L 201.844015 288.488465 
L 202.103738 276.903716 
L 202.395927 251.931757 
L 202.915375 180.879881 
L 203.240029 152.688156 
L 203.353658 150.413962 
L 203.402356 150.678207 
L 203.515985 153.990763 
L 203.727011 168.573376 
L 204.295156 230.470445 
L 204.782138 270.138171 
L 205.187956 287.014775 
L 205.545076 294.030323 
L 205.853498 296.500576 
L 206.015825 296.770643 
L 206.032058 296.7594 
L 206.145687 296.473477 
L 206.324247 295.189666 
L 206.551505 291.532469 
L 206.794996 283.526635 
L 207.05472 267.066792 
L 207.379375 230.231575 
L 208.044916 151.957199 
L 208.174778 149.362723 
L 208.207244 149.548154 
L 208.30464 151.984158 
L 208.499433 164.205496 
L 208.921484 209.447457 
L 209.505862 264.644923 
L 209.91168 284.433929 
L 210.285033 293.214142 
L 210.609687 296.48721 
L 210.820713 297.067307 
L 210.918109 296.9455 
L 211.064204 296.246935 
L 211.275229 293.850617 
L 211.51872 287.95799 
L 211.778444 275.273658 
L 212.070633 248.253289 
L 212.995898 148.317234 
L 213.028364 148.411463 
L 213.109527 150.048651 
L 213.288087 159.927276 
L 213.628975 194.541836 
L 214.343215 265.089184 
L 214.749033 284.787924 
L 215.122385 293.503336 
L 215.44704 296.760245 
L 215.658065 297.356063 
L 215.755462 297.250531 
L 215.901556 296.5901 
L 216.096349 294.535017 
L 216.323607 289.603644 
L 216.583331 278.260241 
L 216.859287 255.153344 
L 217.281338 196.470879 
L 217.687156 151.649351 
L 217.849484 147.251104 
L 217.865716 147.282017 
L 217.930647 148.221676 
L 218.076742 154.73652 
L 218.352698 179.577468 
L 219.277964 270.453445 
L 219.683782 287.552442 
L 220.057135 294.869239 
L 220.365556 297.324637 
L 220.544116 297.638987 
L 220.560349 297.628508 
L 220.673978 297.360736 
L 220.852538 296.154503 
L 221.079796 292.698076 
L 221.323287 285.051056 
L 221.583011 269.059582 
L 221.891433 234.551127 
L 222.605673 148.286787 
L 222.719302 146.18439 
L 222.751767 146.353026 
L 222.849164 148.789112 
L 223.043956 161.219225 
L 223.466007 207.609269 
L 224.050385 264.401857 
L 224.456204 284.702616 
L 224.829556 293.711404 
L 225.154211 297.159159 
L 225.381469 297.91758 
L 225.478865 297.86161 
L 225.608727 297.398875 
L 225.80352 295.685415 
L 226.030778 291.419407 
L 226.274269 282.239139 
L 226.550225 261.907296 
L 226.907345 215.219683 
L 227.443025 149.508032 
L 227.605353 145.111784 
L 227.621585 145.150601 
L 227.702749 146.580484 
L 227.865076 155.038395 
L 228.173498 185.574275 
L 228.968902 266.484662 
L 229.37472 285.864424 
L 229.748073 294.364408 
L 230.072727 297.561967 
L 230.299985 298.204254 
L 230.397382 298.105512 
L 230.543476 297.48732 
L 230.738269 295.557113 
L 230.965527 290.891494 
L 231.209018 280.940579 
L 231.484975 259.11678 
L 231.858327 207.886463 
L 232.345309 148.702664 
L 232.507636 144.036526 
L 232.540102 144.154593 
L 232.637498 146.478207 
L 232.832291 158.861211 
L 233.238109 203.904273 
L 233.83872 263.941694 
L 234.244538 284.725698 
L 234.617891 293.95873 
L 234.958778 297.656926 
L 235.202269 298.473445 
L 235.299665 298.418258 
L 235.429527 297.973798 
L 235.62432 296.329271 
L 235.851578 292.219828 
L 236.095069 283.309135 
L 236.354793 264.880867 
L 236.69568 221.487737 
L 237.280058 147.210266 
L 237.442385 142.948536 
L 237.458618 143.007661 
L 237.539782 144.553393 
L 237.702109 153.299346 
L 238.026764 186.442903 
L 238.789702 265.557417 
L 239.19552 285.653457 
L 239.568873 294.502384 
L 239.90976 298.011309 
L 240.153251 298.750416 
L 240.250647 298.672677 
L 240.396742 298.111345 
L 240.591535 296.317854 
L 240.818793 291.935958 
L 241.062284 282.488471 
L 241.322007 263.049307 
L 241.662895 218.054403 
L 242.214807 146.862586 
L 242.393367 141.862705 
L 242.4096 141.941613 
L 242.490764 143.590933 
L 242.653091 152.557045 
L 242.977745 186.129375 
L 243.740684 265.747055 
L 244.146502 285.868741 
L 244.519855 294.714793 
L 244.860742 298.238593 
L 245.104233 299.014444 
L 245.201629 298.961466 
L 245.331491 298.537498 
L 245.526284 296.966812 
L 245.753542 293.025443 
L 245.997033 284.412873 
L 246.256756 266.37833 
L 246.581411 225.528043 
L 247.214487 144.121425 
L 247.360582 140.762612 
L 247.393047 140.994949 
L 247.490444 143.68315 
L 247.685236 156.842884 
L 248.107287 205.397615 
L 248.691665 264.466523 
L 249.097484 285.355395 
L 249.470836 294.588164 
L 249.811724 298.330159 
L 250.071447 299.268505 
L 250.185076 299.226347 
L 250.314938 298.810503 
L 250.509731 297.272636 
L 250.736989 293.408216 
L 250.98048 284.933407 
L 251.240204 267.08143 
L 251.564858 226.251004 
L 252.197935 143.364441 
L 252.344029 139.654069 
L 252.376495 139.818642 
L 252.473891 142.329533 
L 252.668684 155.265843 
L 253.074502 201.940911 
L 253.675113 263.917971 
L 254.080931 285.202533 
L 254.454284 294.624949 
L 254.795171 298.478405 
L 255.054895 299.507531 
L 255.152291 299.532595 
L 255.184756 299.496053 
L 255.314618 299.106053 
L 255.509411 297.636647 
L 255.736669 293.918391 
L 255.98016 285.718822 
L 256.239884 268.306258 
L 256.548305 230.377362 
L 257.23008 141.3174 
L 257.359942 138.546187 
L 257.392407 138.754561 
L 257.489804 141.401829 
L 257.684596 154.617035 
L 258.090415 201.800537 
L 258.691025 264.108273 
L 259.096844 285.415023 
L 259.470196 294.82932 
L 259.811084 298.690466 
L 260.070807 299.7507 
L 260.184436 299.785462 
L 260.200669 299.768653 
L 260.330531 299.42197 
L 260.509091 298.216779 
L 260.736349 294.896364 
L 260.97984 287.473503 
L 261.239564 271.457045 
L 261.531753 237.784674 
L 262.310924 138.544061 
L 262.392087 137.429979 
L 262.440785 137.837827 
L 262.554415 141.712663 
L 262.781673 159.696226 
L 264.080291 283.552665 
L 264.453644 294.05808 
L 264.810764 298.613523 
L 265.08672 299.946252 
L 265.216582 300.050274 
L 265.249047 300.023825 
L 265.378909 299.690182 
L 265.557469 298.523175 
L 265.784727 295.297217 
L 266.028218 288.05643 
L 266.287942 272.333536 
L 266.580131 238.929845 
L 267.375535 137.239073 
L 267.456698 136.320384 
L 267.489164 136.583982 
L 267.602793 140.163797 
L 267.813818 156.148215 
L 268.333265 219.496163 
L 268.83648 267.663608 
L 269.242298 287.384983 
L 269.615651 295.945067 
L 269.956538 299.39465 
L 270.216262 300.281476 
L 270.329891 300.263943 
L 270.459753 299.916982 
L 270.654545 298.584311 
L 270.881804 295.176202 
L 271.125295 287.564738 
L 271.385018 271.074414 
L 271.677207 236.359279 
L 272.440145 136.58756 
L 272.537542 135.194972 
L 272.570007 135.458687 
L 272.683636 139.054147 
L 272.894662 155.128194 
L 273.397876 216.964851 
L 273.917324 267.566018 
L 274.323142 287.447773 
L 274.696495 296.073872 
L 275.037382 299.570012 
L 275.297105 300.509727 
L 275.410735 300.526886 
L 275.426967 300.509244 
L 275.556829 300.171294 
L 275.751622 298.873553 
L 275.97888 295.54912 
L 276.222371 288.098126 
L 276.482095 271.858539 
L 276.774284 237.33933 
L 277.553455 135.214362 
L 277.634618 134.0547 
L 277.683316 134.454744 
L 277.796945 138.363645 
L 278.007971 154.951617 
L 278.559884 223.415979 
L 279.046865 269.120191 
L 279.436451 287.782261 
L 279.809804 296.325094 
L 280.150691 299.791644 
L 280.410415 300.741424 
L 280.524044 300.774278 
L 280.540276 300.759571 
L 280.670138 300.452568 
L 280.848698 299.377751 
L 281.075956 296.391291 
L 281.319447 289.618679 
L 281.562938 275.923531 
L 281.838895 246.530056 
L 282.747927 132.966941 
L 282.76416 132.920019 
L 282.796625 133.098596 
L 282.894022 135.72023 
L 283.088815 149.166743 
L 283.494633 197.983591 
L 284.095244 263.257825 
L 284.501062 285.561272 
L 284.874415 295.391079 
L 285.231535 299.627661 
L 285.523724 300.928011 
L 285.669818 301.010892 
L 285.686051 300.996704 
L 285.815913 300.699509 
L 285.994473 299.657051 
L 286.221731 296.754425 
L 286.465222 290.148905 
L 286.708713 276.717152 
L 286.984669 247.626306 
L 287.926167 131.789717 
L 287.991098 132.666041 
L 288.137193 139.497255 
L 288.396916 164.613975 
L 289.403345 273.496907 
L 289.792931 290.122266 
L 290.166284 297.579138 
L 290.507171 300.528529 
L 290.766895 301.247185 
L 290.880524 301.201599 
L 291.026618 300.786154 
L 291.221411 299.430556 
L 291.448669 296.034763 
L 291.69216 288.411212 
L 291.935651 273.073946 
L 292.22784 238.350661 
L 293.023244 131.667395 
L 293.104407 130.641986 
L 293.153105 131.13479 
L 293.282967 136.19969 
L 293.526458 157.713295 
L 294.695215 279.508688 
L 295.0848 293.073608 
L 295.44192 298.814937 
L 295.766575 301.046284 
L 295.993833 301.484091 
L 296.107462 301.38248 
L 296.269789 300.809717 
L 296.480815 299.045556 
L 296.708073 295.009942 
L 296.951564 286.05483 
L 297.211287 266.682537 
L 297.519709 224.30115 
L 298.152785 133.733914 
L 298.29888 129.498873 
L 298.331345 129.603029 
L 298.412509 131.423488 
L 298.591069 142.440383 
L 298.931956 181.702501 
L 299.646196 263.495835 
L 300.052015 285.998537 
L 300.425367 295.865323 
L 300.782487 300.140337 
L 301.074676 301.534577 
L 301.253236 301.699323 
L 301.383098 301.489235 
L 301.561658 300.647285 
L 301.772684 298.457714 
L 301.999942 293.591894 
L 302.243433 282.911573 
L 302.503156 260.302714 
L 302.860276 204.929403 
L 303.347258 135.0748 
L 303.542051 128.340545 
L 303.590749 128.800048 
L 303.704378 132.906048 
L 303.931636 151.807698 
L 305.246487 284.489355 
L 305.61984 295.244025 
L 305.97696 299.966944 
L 306.285382 301.654956 
L 306.496407 301.921173 
L 306.626269 301.735663 
L 306.804829 300.95215 
L 307.015855 298.88894 
L 307.243113 294.27746 
L 307.486604 284.090577 
L 307.746327 262.279803 
L 308.087215 210.489386 
L 308.622895 132.926684 
L 308.801455 127.184993 
L 308.817687 127.24004 
L 308.898851 128.8656 
L 309.061178 138.247928 
L 309.3696 172.390836 
L 310.181236 266.226406 
L 310.587055 287.526762 
L 310.960407 296.744703 
L 311.317527 300.70795 
L 311.609716 301.988255 
L 311.788276 302.129231 
L 311.918138 301.922189 
L 312.096698 301.114916 
L 312.307724 299.022822 
L 312.534982 294.356619 
L 312.778473 284.029432 
L 313.038196 261.876512 
L 313.379084 209.360933 
L 313.898531 132.683128 
L 314.093324 126.030732 
L 314.142022 126.525466 
L 314.255651 130.728938 
L 314.482909 149.895254 
L 315.79776 284.554285 
L 316.171113 295.440474 
L 316.528233 300.231887 
L 316.852887 302.043212 
L 317.063913 302.34785 
L 317.193775 302.212631 
L 317.356102 301.634772 
L 317.567127 299.931077 
L 317.794385 296.046773 
L 318.037876 287.329215 
L 318.281367 269.73375 
L 318.573556 230.614411 
L 319.287796 127.413094 
L 319.401425 124.869493 
L 319.450124 125.210536 
L 319.563753 129.093665 
L 319.774778 146.085239 
L 320.26176 209.895231 
L 320.781207 265.427784 
L 321.187025 287.3354 
L 321.560378 296.817696 
L 321.917498 300.921383 
L 322.22592 302.353573 
L 322.420713 302.548136 
L 322.550575 302.377235 
L 322.729135 301.663294 
L 322.94016 299.78043 
L 323.167418 295.542107 
L 323.410909 286.056057 
L 323.670633 265.295456 
L 323.995287 216.973743 
L 324.579665 129.217062 
L 324.758225 123.708811 
L 324.774458 123.789712 
L 324.855622 125.55101 
L 325.017949 135.234173 
L 325.326371 170.108219 
L 326.138007 266.009293 
L 326.543825 287.70889 
L 326.917178 297.068075 
L 327.274298 301.115574 
L 327.58272 302.539731 
L 327.793745 302.745283 
L 327.923607 302.566548 
L 328.102167 301.852732 
L 328.313193 299.985885 
L 328.540451 295.783731 
L 328.783942 286.349558 
L 329.043665 265.607295 
L 329.352087 220.01014 
L 329.968931 127.255172 
L 330.131258 122.537919 
L 330.147491 122.600483 
L 330.228655 124.277354 
L 330.390982 133.833731 
L 330.699404 168.688214 
L 331.527273 266.776065 
L 331.916858 287.587185 
L 332.290211 297.087508 
L 332.647331 301.20682 
L 332.955753 302.686795 
L 333.166778 302.946781 
L 333.29664 302.816787 
L 333.4752 302.203742 
L 333.686225 300.544669 
L 333.913484 296.769383 
L 334.140742 289.011662 
L 334.384233 272.299885 
L 334.676422 233.993541 
L 335.43936 123.055292 
L 335.536756 121.368921 
L 335.585455 121.813654 
L 335.699084 125.942342 
L 335.910109 143.412214 
L 336.397091 208.57182 
L 336.916538 265.253051 
L 337.322356 287.529077 
L 337.695709 297.134353 
L 338.052829 301.306738 
L 338.377484 302.874001 
L 338.588509 303.137595 
L 338.718371 303.0214 
L 338.896931 302.446654 
L 339.107956 300.876428 
L 339.335215 297.287719 
L 339.562473 289.878892 
L 339.805964 273.790624 
L 340.08192 238.981289 
L 340.909789 120.92961 
L 340.97472 120.199041 
L 341.023418 120.646692 
L 341.137047 124.787228 
L 341.348073 142.308843 
L 341.835055 207.848798 
L 342.354502 265.032871 
L 342.76032 287.512635 
L 343.133673 297.198526 
L 343.490793 301.41125 
L 343.815447 303.017152 
L 344.042705 303.323341 
L 344.172567 303.218571 
L 344.351127 302.677721 
L 344.562153 301.187968 
L 344.789411 297.769729 
L 345.016669 290.681816 
L 345.26016 275.174461 
L 345.536116 241.141113 
L 346.396451 119.416402 
L 346.445149 119.0281 
L 346.493847 119.490215 
L 346.607476 123.666351 
L 346.818502 141.271391 
L 347.305484 207.203407 
L 347.824931 264.853495 
L 348.214516 286.898768 
L 348.587869 296.984531 
L 348.944989 301.389272 
L 349.269644 303.10774 
L 349.513135 303.501808 
L 349.642996 303.43301 
L 349.805324 303.031376 
L 350.016349 301.781129 
L 350.243607 298.85788 
L 350.470865 292.742517 
L 350.714356 279.158714 
L 350.97408 250.627466 
L 351.428596 167.746207 
L 351.785716 122.578995 
L 351.948044 117.856118 
L 351.964276 117.922143 
L 352.04544 119.623729 
L 352.207767 129.276716 
L 352.516189 164.682537 
L 353.360291 267.148213 
L 353.749876 288.109174 
L 354.123229 297.6113 
L 354.480349 301.738143 
L 354.805004 303.333436 
L 355.048495 303.680004 
L 355.194589 303.571166 
L 355.373149 303.04993 
L 355.584175 301.629515 
L 355.811433 298.366238 
L 356.038691 291.557193 
L 356.282182 276.505853 
L 356.558138 242.935239 
L 357.450938 116.833911 
L 357.483404 116.682478 
L 357.515869 116.909431 
L 357.613265 119.751569 
L 357.808058 134.026198 
L 358.181411 182.253902 
L 358.83072 261.76154 
L 359.236538 286.197758 
L 359.609891 296.794396 
L 359.967011 301.440505 
L 360.307898 303.358439 
L 360.567622 303.840325 
L 360.713716 303.797649 
L 360.876044 303.448995 
L 361.087069 302.337294 
L 361.314327 299.714305 
L 361.541585 294.183328 
L 361.785076 281.733633 
L 362.0448 254.918481 
L 362.434385 184.715964 
L 362.856436 122.493625 
L 363.051229 115.506763 
L 363.099927 115.964367 
L 363.213556 120.137784 
L 363.424582 137.812459 
L 363.879098 200.11116 
L 364.431011 264.023112 
L 364.820596 286.736172 
L 365.193949 297.1085 
L 365.551069 301.646193 
L 365.891956 303.522366 
L 366.15168 304.003762 
L 366.314007 303.956611 
L 366.476335 303.6034 
L 366.68736 302.498656 
L 366.914618 299.899561 
L 367.141876 294.408144 
L 367.369135 283.140889 
L 367.628858 257.367414 
L 367.985978 194.309057 
L 368.456727 121.573428 
L 368.65152 114.331399 
L 368.667753 114.371421 
L 368.748916 115.949671 
L 368.911244 125.405258 
L 369.203433 158.595436 
L 370.112465 269.65319 
L 370.502051 289.555375 
L 370.875404 298.465903 
L 371.232524 302.315479 
L 371.557178 303.81709 
L 371.800669 304.175641 
L 371.946764 304.113803 
L 372.125324 303.707512 
L 372.336349 302.552342 
L 372.563607 299.858068 
L 372.790865 294.162673 
L 373.018124 282.463775 
L 373.277847 255.77951 
L 373.6512 188.14579 
L 374.089484 120.874098 
L 374.284276 113.166226 
L 374.300509 113.170132 
L 374.36544 114.1138 
L 374.511535 121.274961 
L 374.771258 147.960711 
L 375.875084 277.41972 
L 376.248436 292.848446 
L 376.621789 300.016352 
L 376.978909 303.056781 
L 377.303564 304.17098 
L 377.514589 304.335634 
L 377.660684 304.200612 
L 377.839244 303.690629 
L 378.050269 302.350198 
L 378.277527 299.274037 
L 378.504785 292.783756 
L 378.748276 278.185103 
L 379.008 247.397194 
L 379.965731 111.981825 
L 380.014429 112.385546 
L 380.128058 116.439473 
L 380.339084 133.976788 
L 380.777367 194.587112 
L 381.345513 262.832655 
L 381.735098 286.382338 
L 382.108451 297.12872 
L 382.465571 301.834154 
L 382.806458 303.823496 
L 383.098647 304.451 
L 383.277207 304.457401 
L 383.439535 304.191462 
L 383.65056 303.307698 
L 383.877818 301.190047 
L 384.105076 296.662414 
L 384.332335 287.201111 
L 384.575825 266.627991 
L 384.884247 217.719458 
L 385.501091 116.714593 
L 385.679651 110.807899 
L 385.695884 110.861637 
L 385.777047 112.501793 
L 385.939375 122.061221 
L 386.231564 155.563939 
L 387.156829 270.211529 
L 387.546415 290.036525 
L 387.919767 298.859925 
L 388.276887 302.668328 
L 388.617775 304.230298 
L 388.877498 304.626739 
L 389.039825 304.583278 
L 389.218385 304.235174 
L 389.429411 303.235752 
L 389.656669 300.888438 
L 389.883927 295.878069 
L 390.111185 285.420124 
L 390.354676 262.909119 
L 390.679331 207.84052 
L 391.231244 116.911025 
L 391.426036 109.635212 
L 391.442269 109.671652 
L 391.5072 110.737236 
L 391.653295 118.130981 
L 391.913018 145.208775 
L 393.016844 277.179334 
L 393.390196 292.922517 
L 393.747316 300.0074 
L 394.104436 303.231701 
L 394.429091 304.481068 
L 394.688815 304.780143 
L 394.851142 304.686669 
L 395.029702 304.279775 
L 395.240727 303.181317 
L 395.467985 300.631888 
L 395.695244 295.190189 
L 395.922502 283.840961 
L 396.182225 257.429912 
L 396.539345 191.974582 
L 397.010095 116.413542 
L 397.22112 108.468318 
L 397.286051 109.333405 
L 397.432145 116.313847 
L 397.691869 142.873798 
L 398.487273 251.758137 
L 398.487273 251.758137 
" clip-path="url(#p613d5a8257)" style="fill: none; stroke: #bf00bf; stroke-width: 1.5; stroke-linecap: square"/>
   </g>
   <g id="line2d_10">
    <path d="M 73.832727 251.70048 
L 73.897658 251.900202 
L 73.946356 251.746014 
L 74.059985 250.357884 
L 74.254778 244.5556 
L 74.546967 227.718159 
L 75.033949 183.447558 
L 75.63456 134.773443 
L 75.926749 125.076022 
L 76.040378 124.232267 
L 76.089076 124.364354 
L 76.202705 125.797174 
L 76.397498 131.761725 
L 76.70592 149.28442 
L 77.290298 198.880052 
L 77.874676 241.105242 
L 78.199331 251.474717 
L 78.329193 252.49316 
L 78.361658 252.459535 
L 78.442822 251.863134 
L 78.605149 248.433697 
L 78.84864 237.572169 
L 79.20576 210.086148 
L 80.179724 129.612221 
L 80.439447 123.68102 
L 80.488145 123.525476 
L 80.536844 123.666044 
L 80.650473 125.123275 
L 80.845265 131.144301 
L 81.153687 148.798536 
L 81.721833 197.336983 
L 82.322444 241.448016 
L 82.647098 252.00166 
L 82.793193 253.091736 
L 82.825658 253.015713 
L 82.923055 252.080619 
L 83.101615 247.553197 
L 83.361338 234.339367 
L 83.767156 199.946085 
L 84.546327 132.991108 
L 84.838516 123.535103 
L 84.952145 122.816922 
L 84.984611 122.910451 
L 85.082007 123.970769 
L 85.260567 128.846121 
L 85.552756 144.265761 
L 86.039738 184.463933 
L 86.770211 241.304207 
L 87.094865 252.369446 
L 87.257193 253.690459 
L 87.273425 253.66331 
L 87.354589 253.085872 
L 87.516916 249.681176 
L 87.760407 238.798588 
L 88.117527 211.036644 
L 89.107724 128.003634 
L 89.367447 122.218632 
L 89.416145 122.099341 
L 89.464844 122.27829 
L 89.578473 123.832562 
L 89.789498 130.752681 
L 90.114153 150.454402 
L 90.779695 209.053717 
L 91.299142 244.613348 
L 91.607564 253.572992 
L 91.721193 254.29584 
L 91.769891 254.168842 
L 91.88352 252.833972 
L 92.078313 247.074258 
L 92.354269 231.273293 
L 92.808785 189.513134 
L 93.458095 133.260197 
L 93.766516 122.304195 
L 93.880145 121.379826 
L 93.928844 121.486745 
L 94.042473 122.881611 
L 94.237265 128.850261 
L 94.545687 146.596909 
L 95.0976 194.586995 
L 95.714444 241.944634 
L 96.039098 253.401531 
L 96.201425 254.900792 
L 96.233891 254.852024 
L 96.331287 253.994892 
L 96.509847 249.588506 
L 96.769571 236.441202 
L 97.159156 203.21836 
L 97.987025 130.325754 
L 98.279215 121.216332 
L 98.376611 120.651821 
L 98.425309 120.822473 
L 98.538938 122.366803 
L 98.733731 128.591481 
L 99.042153 146.732795 
L 99.610298 196.78695 
L 100.210909 242.729087 
L 100.535564 254.078318 
L 100.697891 255.508943 
L 100.714124 255.491993 
L 100.795287 254.963365 
L 100.941382 252.11192 
L 101.16864 242.661167 
L 101.509527 217.291438 
L 102.629585 123.663674 
L 102.856844 119.931619 
L 102.889309 119.944709 
L 102.905542 120.001428 
L 103.002938 121.034335 
L 103.181498 125.910864 
L 103.457455 140.414977 
L 103.911971 178.077074 
L 104.707375 242.963289 
L 105.032029 254.566106 
L 105.194356 256.117618 
L 105.226822 256.07834 
L 105.324218 255.247597 
L 105.486545 251.429749 
L 105.730036 239.802828 
L 106.087156 210.638885 
L 107.044887 126.407354 
L 107.304611 119.525992 
L 107.385775 119.190383 
L 107.41824 119.292436 
L 107.531869 120.690308 
L 107.726662 126.706473 
L 108.035084 144.666669 
L 108.570764 192.086732 
L 109.220073 243.479603 
L 109.544727 255.152101 
L 109.707055 256.729242 
L 109.73952 256.694728 
L 109.820684 256.088704 
L 109.983011 252.597729 
L 110.226502 241.451471 
L 110.583622 212.756598 
L 111.590051 124.571352 
L 111.849775 118.582663 
L 111.898473 118.446875 
L 111.947171 118.61509 
L 112.0608 120.165791 
L 112.255593 126.441928 
L 112.564015 144.800745 
L 113.115927 194.325128 
L 113.732771 243.400772 
L 114.073658 255.834288 
L 114.235985 257.346005 
L 114.268451 257.297806 
L 114.365847 256.43805 
L 114.544407 252.000333 
L 114.804131 238.674947 
L 115.177484 206.276634 
L 116.054051 126.801071 
L 116.330007 118.293894 
L 116.427404 117.7028 
L 116.476102 117.86671 
L 116.589731 119.411164 
L 116.784524 125.689593 
L 117.092945 144.097956 
L 117.644858 193.929898 
L 118.277935 244.458194 
L 118.618822 256.602115 
L 118.781149 257.961588 
L 118.797382 257.936661 
L 118.878545 257.365489 
L 119.040873 253.938976 
L 119.284364 242.848274 
L 119.625251 215.576902 
L 120.680378 122.361155 
L 120.923869 117.073299 
L 120.972567 116.956583 
L 121.021265 117.145462 
L 121.134895 118.750053 
L 121.34592 125.86798 
L 121.670575 146.223594 
L 122.287418 203.367065 
L 122.839331 245.754588 
L 123.163985 257.165758 
L 123.326313 258.581826 
L 123.342545 258.562561 
L 123.423709 258.019735 
L 123.569804 255.12618 
L 123.797062 245.518262 
L 124.121716 220.979745 
L 125.306705 119.191026 
L 125.517731 116.202189 
L 125.566429 116.342341 
L 125.680058 117.83916 
L 125.874851 124.063114 
L 126.183273 142.485145 
L 126.718953 191.261934 
L 127.368262 244.669557 
L 127.709149 257.507601 
L 127.887709 259.202153 
L 127.903942 259.180763 
L 127.985105 258.627012 
L 128.1312 255.711296 
L 128.358458 246.05229 
L 128.683113 221.361745 
L 129.884335 118.098629 
L 130.079127 115.447436 
L 130.09536 115.452465 
L 130.160291 115.811885 
L 130.306385 118.559244 
L 130.533644 127.889291 
L 130.890764 153.345321 
L 132.173149 255.396089 
L 132.41664 259.736525 
L 132.465338 259.82106 
L 132.497804 259.729782 
L 132.5952 258.736957 
L 132.77376 254.028488 
L 133.033484 240.179441 
L 133.406836 206.601665 
L 134.283404 124.288618 
L 134.575593 115.177554 
L 134.656756 114.686621 
L 134.705455 114.80517 
L 134.819084 116.258319 
L 135.013876 122.43104 
L 135.322298 140.863221 
L 135.841745 188.511308 
L 136.52352 245.770459 
L 136.864407 258.711995 
L 137.042967 260.44945 
L 137.0592 260.43205 
L 137.140364 259.898482 
L 137.286458 257.018071 
L 137.513716 247.390292 
L 137.838371 222.578145 
L 139.055825 116.482469 
L 139.250618 113.920147 
L 139.266851 113.933517 
L 139.348015 114.510088 
L 139.510342 118.142763 
L 139.770065 130.407361 
L 140.159651 161.250926 
L 141.231011 251.919332 
L 141.5232 260.32665 
L 141.636829 261.07494 
L 141.685527 260.955365 
L 141.799156 259.626484 
L 141.993949 253.795633 
L 142.269905 237.435674 
L 142.691956 196.118704 
L 143.422429 125.796352 
L 143.730851 114.176639 
L 143.860713 113.1532 
L 143.893178 113.244057 
L 143.990575 114.327849 
L 144.169135 119.370616 
L 144.445091 134.380407 
L 144.883375 172.351283 
L 145.743709 247.65474 
L 146.084596 260.18439 
L 146.246924 261.701826 
L 146.279389 261.654691 
L 146.376785 260.797243 
L 146.539113 256.906751 
L 146.782604 244.971318 
L 147.139724 214.343849 
L 148.146153 119.505023 
L 148.405876 112.664183 
L 148.470807 112.379102 
L 148.519505 112.527856 
L 148.633135 114.0561 
L 148.827927 120.374126 
L 149.136349 139.113884 
L 149.655796 187.678281 
L 150.337571 246.559645 
L 150.678458 260.208468 
L 150.873251 262.330781 
L 150.889484 262.318307 
L 150.970647 261.81056 
L 151.116742 258.978734 
L 151.344 249.400286 
L 151.668655 224.424478 
L 152.918575 113.83256 
L 153.097135 111.604294 
L 153.113367 111.612281 
L 153.178298 111.986504 
L 153.324393 114.78387 
L 153.551651 124.250444 
L 153.908771 150.198317 
L 155.223622 258.371094 
L 155.467113 262.845957 
L 155.515811 262.959873 
L 155.564509 262.809061 
L 155.678138 261.407897 
L 155.872931 255.440669 
L 156.148887 238.781801 
L 156.554705 198.411533 
L 157.317644 123.239813 
L 157.626065 111.76413 
L 157.739695 110.82544 
L 157.788393 110.945684 
L 157.902022 112.41199 
L 158.096815 118.640794 
L 158.405236 137.318527 
L 158.908451 184.572872 
L 159.622691 247.543226 
L 159.963578 261.367198 
L 160.158371 263.589019 
L 160.174604 263.585506 
L 160.239535 263.27617 
L 160.369396 261.209386 
L 160.580422 253.515691 
L 160.872611 233.463051 
L 161.359593 180.855689 
L 161.943971 124.405849 
L 162.252393 111.550678 
L 162.398487 110.041813 
L 162.430953 110.091848 
L 162.528349 111.059631 
L 162.706909 115.916645 
L 162.982865 130.75079 
L 163.404916 167.413213 
L 164.346415 251.389719 
L 164.671069 262.815642 
L 164.833396 264.222373 
L 164.849629 264.203278 
L 164.930793 263.663994 
L 165.076887 260.778124 
L 165.304145 251.089267 
L 165.6288 225.743918 
L 166.894953 111.428447 
L 167.073513 109.254399 
L 167.089745 109.267976 
L 167.170909 109.849402 
L 167.333236 113.510844 
L 167.59296 125.907946 
L 167.982545 157.413109 
L 169.102604 255.697694 
L 169.394793 264.098678 
L 169.508422 264.854327 
L 169.55712 264.741887 
L 169.670749 263.437511 
L 169.865542 257.649446 
L 170.141498 241.178148 
L 170.547316 200.458448 
L 171.326487 121.453513 
L 171.634909 109.546843 
L 171.764771 108.465075 
L 171.797236 108.544236 
L 171.894633 109.598506 
L 172.073193 114.61139 
L 172.349149 129.695673 
L 172.7712 166.840734 
L 173.712698 252.110832 
L 174.037353 263.890662 
L 174.215913 265.484659 
L 174.232145 265.456047 
L 174.313309 264.870478 
L 174.475636 261.41684 
L 174.719127 250.118845 
L 175.043782 223.109754 
L 176.228771 111.420218 
L 176.456029 107.677077 
L 176.504727 107.777096 
L 176.602124 108.896229 
L 176.780684 114.023925 
L 177.05664 129.283267 
L 177.478691 166.719821 
L 178.420189 252.553756 
L 178.744844 264.453708 
L 178.923404 266.12067 
L 178.939636 266.099282 
L 179.0208 265.551523 
L 179.166895 262.659442 
L 179.394153 252.950442 
L 179.702575 228.969465 
L 180.335651 155.974247 
L 180.790167 117.393275 
L 181.082356 107.543086 
L 181.179753 106.877153 
L 181.228451 107.014775 
L 181.34208 108.522964 
L 181.536873 114.832924 
L 181.829062 132.49722 
L 182.299811 176.920891 
L 183.095215 250.239183 
L 183.436102 264.341289 
L 183.647127 266.755263 
L 183.695825 266.622486 
L 183.809455 265.277164 
L 184.004247 259.425806 
L 184.280204 242.792269 
L 184.669789 203.303803 
L 185.481425 119.044998 
L 185.789847 107.1419 
L 185.919709 106.079192 
L 185.952175 106.163163 
L 186.049571 107.231319 
L 186.228131 112.269255 
L 186.504087 127.422987 
L 186.926138 164.950162 
L 187.883869 253.514005 
L 188.208524 265.601801 
L 188.387084 267.388782 
L 188.403316 267.379594 
L 188.468247 267.051874 
L 188.598109 264.96514 
L 188.809135 257.242626 
L 189.101324 236.912389 
L 189.55584 186.317328 
L 190.188916 120.957399 
L 190.513571 106.831628 
L 190.659665 105.280184 
L 190.692131 105.321819 
L 190.773295 106.023629 
L 190.935622 109.916426 
L 191.195345 122.6901 
L 191.584931 154.983691 
L 192.737455 258.851467 
L 193.029644 267.241887 
L 193.143273 268.021008 
L 193.191971 267.925636 
L 193.3056 266.676803 
L 193.48416 261.666238 
L 193.743884 247.103812 
L 194.101004 212.786861 
L 195.058735 114.02411 
L 195.334691 105.110538 
L 195.432087 104.47405 
L 195.480785 104.625477 
L 195.594415 106.162851 
L 195.789207 112.516922 
L 196.081396 130.280332 
L 196.552145 175.230031 
L 197.363782 251.606166 
L 197.720902 266.38815 
L 197.931927 268.655467 
L 197.996858 268.384671 
L 198.12672 266.425693 
L 198.337745 258.941043 
L 198.629935 238.902616 
L 199.068218 190.119531 
L 199.73376 119.712875 
L 200.058415 105.328578 
L 200.220742 103.669651 
L 200.236975 103.696688 
L 200.318138 104.343137 
L 200.480465 108.124564 
L 200.740189 120.733835 
L 201.113542 151.348681 
L 202.330996 261.187174 
L 202.623185 268.786958 
L 202.720582 269.290836 
L 202.76928 269.158837 
L 202.882909 267.830139 
L 203.077702 262.038855 
L 203.337425 246.700332 
L 203.710778 209.284221 
L 204.603578 114.576508 
L 204.895767 103.836147 
L 205.009396 102.864072 
L 205.058095 102.970413 
L 205.171724 104.402204 
L 205.366516 110.575923 
L 205.658705 128.107331 
L 206.113222 171.310369 
L 206.973556 253.269138 
L 207.314444 267.417015 
L 207.525469 269.922235 
L 207.574167 269.824767 
L 207.687796 268.58356 
L 207.866356 263.610723 
L 208.12608 249.087615 
L 208.4832 214.484209 
L 209.457164 111.829881 
L 209.73312 102.745453 
L 209.830516 102.051987 
L 209.879215 102.17394 
L 209.992844 103.639206 
L 210.187636 109.862436 
L 210.479825 127.465694 
L 210.934342 170.85665 
L 211.794676 253.469614 
L 212.151796 268.243583 
L 212.362822 270.556424 
L 212.41152 270.417197 
L 212.525149 269.080429 
L 212.719942 263.294959 
L 212.979665 247.94902 
L 213.353018 210.268724 
L 214.262051 112.765176 
L 214.55424 102.162503 
L 214.667869 101.239751 
L 214.716567 101.36503 
L 214.830196 102.835508 
L 215.024989 109.060911 
L 215.317178 126.668759 
L 215.771695 170.174802 
L 216.632029 253.53631 
L 216.989149 268.65446 
L 217.200175 271.185023 
L 217.248873 271.100566 
L 217.346269 270.159768 
L 217.524829 265.6226 
L 217.76832 252.942405 
L 218.109207 221.637201 
L 219.229265 106.440701 
L 219.472756 100.623217 
L 219.521455 100.427423 
L 219.570153 100.54123 
L 219.683782 101.982938 
L 219.878575 108.153669 
L 220.170764 125.684991 
L 220.609047 167.428526 
L 221.51808 255.427967 
L 221.858967 269.375154 
L 222.069993 271.818243 
L 222.118691 271.71714 
L 222.23232 270.482778 
L 222.41088 265.55457 
L 222.670604 251.098726 
L 223.027724 216.268807 
L 224.034153 108.812227 
L 224.310109 100.165887 
L 224.407505 99.611582 
L 224.439971 99.702344 
L 224.537367 100.780164 
L 224.715927 105.800463 
L 224.991884 120.933924 
L 225.397702 157.364988 
L 226.469062 259.771988 
L 226.793716 270.996529 
L 226.956044 272.448234 
L 226.988509 272.408123 
L 227.085905 271.611473 
L 227.248233 267.923837 
L 227.491724 256.256304 
L 227.816378 228.009098 
L 229.066298 102.307969 
L 229.293556 98.793585 
L 229.342255 98.93169 
L 229.455884 100.42224 
L 229.650676 106.655128 
L 229.942865 124.264434 
L 230.381149 166.271929 
L 231.290182 255.701413 
L 231.647302 270.600239 
L 231.858327 273.074812 
L 231.907025 272.989488 
L 232.004422 272.060569 
L 232.182982 267.585046 
L 232.426473 255.016557 
L 232.76736 223.637504 
L 233.919884 103.598898 
L 234.163375 98.113958 
L 234.212073 97.97599 
L 234.260771 98.14414 
L 234.3744 99.699285 
L 234.569193 106.027863 
L 234.861382 123.763596 
L 235.299665 165.990633 
L 236.224931 256.980035 
L 236.565818 271.083884 
L 236.793076 273.704875 
L 236.841775 273.573226 
L 236.955404 272.283742 
L 237.150196 266.657504 
L 237.40992 251.545346 
L 237.76704 215.572926 
L 238.757236 107.256781 
L 239.049425 97.73294 
L 239.146822 97.157647 
L 239.19552 97.330288 
L 239.309149 98.891583 
L 239.503942 105.218637 
L 239.796131 122.94273 
L 240.234415 165.239421 
L 241.15968 257.018448 
L 241.5168 271.839743 
L 241.727825 274.325579 
L 241.776524 274.252161 
L 241.87392 273.358105 
L 242.05248 268.981775 
L 242.295971 256.588564 
L 242.620625 227.162754 
L 243.83808 100.827418 
L 244.065338 96.406824 
L 244.097804 96.33747 
L 244.146502 96.486511 
L 244.260131 97.989732 
L 244.454924 104.208258 
L 244.747113 121.767381 
L 245.185396 163.962284 
L 246.126895 257.754505 
L 246.484015 272.484577 
L 246.69504 274.949428 
L 246.743738 274.876064 
L 246.841135 273.987692 
L 247.019695 269.639015 
L 247.263185 257.302109 
L 247.58784 227.896596 
L 248.821527 99.732159 
L 249.048785 95.55835 
L 249.081251 95.520676 
L 249.113716 95.617325 
L 249.211113 96.69845 
L 249.389673 101.674246 
L 249.665629 116.677876 
L 250.071447 153.206356 
L 251.191505 262.75794 
L 251.51616 273.997053 
L 251.69472 275.57585 
L 251.710953 275.560155 
L 251.792116 275.075602 
L 251.938211 272.430258 
L 252.165469 263.29141 
L 252.457658 241.136337 
L 252.912175 185.664031 
L 253.545251 113.649061 
L 253.869905 97.35782 
L 254.064698 94.699981 
L 254.080931 94.702323 
L 254.145862 95.043868 
L 254.275724 97.285831 
L 254.502982 106.039321 
L 254.827636 128.678866 
L 255.347084 183.972489 
L 256.061324 255.102386 
L 256.434676 272.577942 
L 256.678167 276.162306 
L 256.710633 276.193243 
L 256.743098 276.117944 
L 256.840495 275.24211 
L 257.019055 270.95377 
L 257.262545 258.743365 
L 257.5872 229.408444 
L 258.853353 97.58598 
L 259.080611 93.883616 
L 259.113076 93.905657 
L 259.129309 93.966431 
L 259.226705 95.016176 
L 259.405265 99.909856 
L 259.681222 114.750913 
L 260.070807 149.419688 
L 261.272029 266.006987 
L 261.580451 275.601955 
L 261.742778 276.811062 
L 261.759011 276.788411 
L 261.840175 276.275381 
L 261.986269 273.602325 
L 262.213527 264.457167 
L 262.505716 242.259553 
L 262.944 188.528198 
L 263.609542 111.743559 
L 263.934196 95.639025 
L 264.128989 93.05693 
L 264.145222 93.06344 
L 264.210153 93.418193 
L 264.356247 96.093845 
L 264.583505 105.251191 
L 264.90816 128.401925 
L 265.427607 184.434121 
L 266.125615 254.951344 
L 266.498967 273.187391 
L 266.742458 277.302252 
L 266.791156 277.427339 
L 266.839855 277.3182 
L 266.953484 276.128831 
L 267.132044 271.426595 
L 267.391767 257.434235 
L 267.732655 224.416116 
L 268.868945 99.423967 
L 269.128669 92.552617 
L 269.1936 92.237043 
L 269.242298 92.348763 
L 269.355927 93.739813 
L 269.55072 99.691739 
L 269.842909 116.77002 
L 270.26496 156.894603 
L 271.303855 262.003353 
L 271.644742 275.525478 
L 271.872 278.039503 
L 271.920698 277.924765 
L 272.034327 276.730586 
L 272.212887 272.040966 
L 272.472611 258.088663 
L 272.813498 225.060991 
L 273.966022 98.229116 
L 274.225745 91.66498 
L 274.290676 91.414846 
L 274.339375 91.572649 
L 274.453004 93.061903 
L 274.647796 99.156877 
L 274.939985 116.413511 
L 275.362036 156.782053 
L 276.400931 262.381799 
L 276.741818 276.018416 
L 276.969076 278.646448 
L 277.017775 278.563055 
L 277.131404 277.453827 
L 277.309964 272.934434 
L 277.553455 260.426391 
L 277.878109 230.470446 
L 279.144262 94.883332 
L 279.37152 90.654302 
L 279.403985 90.595212 
L 279.452684 90.750781 
L 279.566313 92.228069 
L 279.761105 98.282523 
L 280.053295 115.450819 
L 280.475345 155.754355 
L 281.530473 263.22576 
L 281.87136 276.687306 
L 282.098618 279.253432 
L 282.147316 279.163461 
L 282.260945 278.047708 
L 282.439505 273.53994 
L 282.682996 261.072472 
L 283.007651 231.130756 
L 284.290036 93.790605 
L 284.517295 89.809959 
L 284.54976 89.781382 
L 284.582225 89.882106 
L 284.695855 91.232015 
L 284.890647 97.053239 
L 285.182836 113.850228 
L 285.588655 151.935362 
L 286.708713 265.388331 
L 287.0496 277.840643 
L 287.260625 279.856784 
L 287.325556 279.631758 
L 287.455418 277.936252 
L 287.650211 271.972583 
L 287.909935 256.427034 
L 288.250822 221.047422 
L 289.322182 98.441433 
L 289.598138 89.656777 
L 289.711767 88.96203 
L 289.744233 89.056002 
L 289.857862 90.37599 
L 290.052655 96.12444 
L 290.344844 112.779387 
L 290.750662 150.720005 
L 291.886953 266.112909 
L 292.22784 278.455957 
L 292.438865 280.45627 
L 292.503796 280.236066 
L 292.633658 278.564196 
L 292.828451 272.668455 
L 293.088175 257.250253 
L 293.429062 221.968441 
L 294.500422 98.147005 
L 294.792611 88.77016 
L 294.890007 88.14282 
L 294.938705 88.264859 
L 295.052335 89.643173 
L 295.247127 95.464304 
L 295.539316 112.187144 
L 295.945135 150.222923 
L 297.097658 267.174686 
L 297.438545 279.187141 
L 297.633338 281.050435 
L 297.649571 281.048439 
L 297.714502 280.794716 
L 297.844364 279.065896 
L 298.055389 272.400209 
L 298.331345 254.955216 
L 298.688465 215.76552 
L 299.662429 100.302952 
L 299.970851 88.507647 
L 300.116945 87.330446 
L 300.133178 87.360997 
L 300.214342 87.982068 
L 300.376669 91.508363 
L 300.636393 103.321507 
L 300.993513 131.602965 
L 301.610356 203.020883 
L 302.194735 259.87934 
L 302.568087 277.449544 
L 302.827811 281.557112 
L 302.876509 281.643381 
L 302.925207 281.512651 
L 303.038836 280.338335 
L 303.233629 275.239876 
L 303.493353 261.179595 
L 303.818007 229.638055 
L 305.051695 92.183563 
L 305.295185 86.709432 
L 305.360116 86.51745 
L 305.392582 86.610791 
L 305.506211 87.906218 
L 305.701004 93.537752 
L 305.993193 109.897521 
L 306.399011 147.518924 
L 307.600233 269.291004 
L 307.924887 280.340983 
L 308.135913 282.231023 
L 308.200844 282.007253 
L 308.330705 280.370594 
L 308.525498 274.623711 
L 308.785222 259.512445 
L 309.126109 224.453623 
L 310.246167 94.659885 
L 310.522124 86.308993 
L 310.61952 85.702805 
L 310.668218 85.825351 
L 310.781847 87.178926 
L 310.97664 92.879795 
L 311.268829 109.296198 
L 311.674647 146.987789 
L 312.875869 269.468379 
L 313.216756 281.042252 
L 313.411549 282.814688 
L 313.427782 282.811074 
L 313.492713 282.560154 
L 313.622575 280.880947 
L 313.817367 275.091146 
L 314.077091 259.932055 
L 314.417978 224.747153 
L 315.538036 94.11286 
L 315.813993 85.577698 
L 315.927622 84.895555 
L 315.960087 84.982187 
L 316.057484 85.969236 
L 316.236044 90.539043 
L 316.512 104.501834 
L 316.885353 136.404693 
L 318.330065 276.243861 
L 318.622255 282.866912 
L 318.735884 283.394906 
L 318.768349 283.338584 
L 318.865745 282.602129 
L 319.028073 279.354442 
L 319.255331 269.841483 
L 319.54752 246.999026 
L 319.969571 192.842401 
L 320.667578 105.969059 
L 321.008465 87.574917 
L 321.235724 84.095409 
L 321.268189 84.109035 
L 321.284422 84.16164 
L 321.381818 85.107181 
L 321.560378 89.578225 
L 321.836335 103.34073 
L 322.209687 134.965685 
L 323.686865 277.354343 
L 323.979055 283.560098 
L 324.076451 283.970227 
L 324.125149 283.868594 
L 324.238778 282.809824 
L 324.417338 278.616101 
L 324.660829 266.904167 
L 324.969251 239.696165 
L 325.472465 170.279101 
L 326.024378 105.00169 
L 326.365265 86.736931 
L 326.592524 83.290898 
L 326.624989 83.304789 
L 326.641222 83.357095 
L 326.738618 84.294865 
L 326.917178 88.726396 
L 327.193135 102.376883 
L 327.566487 133.829901 
L 328.313193 222.655739 
L 328.816407 266.622157 
L 329.173527 281.273628 
L 329.417018 284.491551 
L 329.449484 284.540207 
L 329.498182 284.444672 
L 329.611811 283.412584 
L 329.790371 279.296597 
L 330.033862 267.753646 
L 330.342284 240.785734 
L 330.829265 173.688877 
L 331.397411 105.130308 
L 331.738298 86.316336 
L 331.965556 82.51982 
L 331.998022 82.482668 
L 332.030487 82.565713 
L 332.127884 83.521654 
L 332.306444 87.959133 
L 332.5824 101.565463 
L 332.955753 132.929252 
L 333.669993 218.302273 
L 334.18944 265.514089 
L 334.54656 281.106024 
L 334.806284 285.004579 
L 334.854982 285.105432 
L 334.90368 285.007384 
L 335.017309 283.981235 
L 335.195869 279.906678 
L 335.43936 268.472282 
L 335.747782 241.657343 
L 336.234764 174.435646 
L 336.802909 105.123839 
L 337.143796 85.856832 
L 337.387287 81.709247 
L 337.419753 81.68841 
L 337.452218 81.786333 
L 337.565847 83.044423 
L 337.76064 88.432446 
L 338.052829 104.115312 
L 338.442415 139.056606 
L 339.789731 275.034605 
L 340.114385 284.387114 
L 340.292945 285.665343 
L 340.309178 285.65187 
L 340.390342 285.253527 
L 340.536436 283.073578 
L 340.747462 276.100983 
L 341.023418 258.315888 
L 341.380538 218.039161 
L 342.370735 95.510653 
L 342.679156 82.730627 
L 342.857716 80.887041 
L 342.873949 80.90141 
L 342.955113 81.409252 
L 343.11744 84.551086 
L 343.360931 94.487305 
L 343.701818 119.027221 
L 344.1888 173.048066 
L 344.984204 259.915021 
L 345.373789 280.165391 
L 345.665978 285.876452 
L 345.763375 286.219246 
L 345.79584 286.162946 
L 345.893236 285.467957 
L 346.055564 282.425911 
L 346.282822 273.459229 
L 346.575011 251.523101 
L 346.964596 202.421566 
L 347.76 100.96862 
L 348.100887 83.360987 
L 348.328145 80.10168 
L 348.376844 80.175848 
L 348.47424 81.095874 
L 348.6528 85.384751 
L 348.928756 98.588381 
L 349.285876 127.670886 
L 349.886487 199.236082 
L 350.487098 261.05645 
L 350.876684 280.914349 
L 351.15264 286.329671 
L 351.266269 286.766909 
L 351.298735 286.703211 
L 351.396131 285.993968 
L 351.574691 282.508541 
L 351.818182 272.227137 
L 352.110371 248.915165 
L 352.516189 195.759289 
L 353.246662 102.089567 
L 353.587549 83.328972 
L 353.814807 79.384411 
L 353.847273 79.309121 
L 353.895971 79.412556 
L 354.0096 80.639181 
L 354.204393 85.870204 
L 354.480349 100.041847 
L 354.853702 131.999738 
L 355.567942 218.586798 
L 356.087389 266.519341 
L 356.460742 283.027657 
L 356.720465 287.120623 
L 356.785396 287.31223 
L 356.834095 287.23954 
L 356.947724 286.325669 
L 357.126284 282.583193 
L 357.369775 271.893851 
L 357.661964 247.960603 
L 358.084015 191.543983 
L 358.765789 103.365728 
L 359.122909 82.863202 
L 359.3664 78.581665 
L 359.398865 78.524162 
L 359.447564 78.651269 
L 359.561193 79.919843 
L 359.755985 85.184718 
L 360.048175 100.426025 
L 360.43776 134.676781 
L 361.882473 278.947845 
L 362.190895 286.792216 
L 362.353222 287.850667 
L 362.385687 287.820331 
L 362.483084 287.232417 
L 362.645411 284.47367 
L 362.872669 276.136962 
L 363.148625 256.809397 
L 363.521978 211.906721 
L 364.414778 97.017907 
L 364.739433 80.973024 
L 364.966691 77.753988 
L 364.999156 77.764624 
L 365.015389 77.811927 
L 365.112785 78.672919 
L 365.291345 82.764527 
L 365.551069 94.503005 
L 365.908189 122.180106 
L 366.443869 184.733111 
L 367.141876 260.50499 
L 367.531462 281.370148 
L 367.823651 287.702259 
L 367.953513 288.382424 
L 367.985978 288.354546 
L 368.083375 287.783359 
L 368.245702 285.084784 
L 368.47296 276.901179 
L 368.748916 257.840552 
L 369.106036 215.536994 
L 370.063767 93.718541 
L 370.388422 79.32059 
L 370.599447 76.9706 
L 370.664378 77.21721 
L 370.79424 79.002656 
L 371.005265 85.505874 
L 371.313687 103.178079 
L 371.719505 141.432088 
L 373.001891 275.193001 
L 373.342778 286.563793 
L 373.570036 288.886766 
L 373.602502 288.906966 
L 373.634967 288.848907 
L 373.732364 288.193219 
L 373.910924 284.951405 
L 374.138182 276.163997 
L 374.414138 256.148795 
L 374.787491 210.190285 
L 375.664058 96.354896 
L 376.004945 79.388637 
L 376.232204 76.210773 
L 376.264669 76.216118 
L 376.280902 76.259721 
L 376.378298 77.083852 
L 376.556858 81.044599 
L 376.816582 92.463863 
L 377.173702 119.56843 
L 377.693149 179.665624 
L 378.423622 260.428954 
L 378.813207 281.762285 
L 379.121629 288.667226 
L 379.267724 289.428834 
L 379.300189 289.388616 
L 379.397585 288.79766 
L 379.559913 286.120992 
L 379.787171 278.070809 
L 380.063127 259.273097 
L 380.420247 217.167001 
L 381.394211 92.361609 
L 381.718865 77.918697 
L 381.929891 75.43541 
L 381.978589 75.533997 
L 382.092218 76.687725 
L 382.287011 81.603973 
L 382.562967 94.988761 
L 382.93632 125.639306 
L 383.520698 196.315257 
L 384.137542 261.78752 
L 384.527127 282.593003 
L 384.835549 289.245781 
L 384.981644 289.940902 
L 385.014109 289.89002 
L 385.111505 289.27529 
L 385.273833 286.583691 
L 385.501091 278.554207 
L 385.777047 259.814845 
L 386.134167 217.718404 
L 387.108131 92.117593 
L 387.432785 77.38068 
L 387.643811 74.686063 
L 387.676276 74.689371 
L 387.692509 74.730839 
L 387.789905 75.526704 
L 387.968465 79.369175 
L 388.228189 90.480349 
L 388.569076 115.512908 
L 389.056058 170.388578 
L 389.883927 262.767957 
L 390.273513 283.243032 
L 390.581935 289.766119 
L 390.728029 290.447594 
L 390.760495 290.397969 
L 390.857891 289.796595 
L 391.020218 287.160222 
L 391.247476 279.279343 
L 391.523433 260.811978 
L 391.880553 219.015514 
L 392.886982 90.060427 
L 393.211636 76.206639 
L 393.422662 73.919792 
L 393.47136 74.043044 
L 393.584989 75.226247 
L 393.779782 80.10968 
L 394.055738 93.302448 
L 394.429091 123.564756 
L 394.997236 192.062284 
L 395.646545 262.125119 
L 396.036131 283.142989 
L 396.344553 290.053341 
L 396.50688 290.948608 
L 396.523113 290.93991 
L 396.604276 290.623 
L 396.750371 288.836615 
L 396.961396 283.002537 
L 397.22112 268.771588 
L 397.545775 236.426375 
L 398.195084 139.649253 
L 398.487273 105.084499 
L 398.487273 105.084499 
" clip-path="url(#p613d5a8257)" style="fill: none; stroke: #0000ff; stroke-width: 1.5; stroke-linecap: square"/>
   </g>
   <g id="line2d_11">
    <path d="M 73.832727 182.51136 
L 74.757993 263.911963 
L 75.082647 273.00993 
L 75.309905 274.687788 
L 75.374836 274.593872 
L 75.504698 273.706742 
L 75.715724 270.339209 
L 76.007913 261.657055 
L 76.381265 243.183102 
L 76.900713 204.560483 
L 77.566255 158.235798 
L 77.761047 154.610707 
L 77.77728 154.640331 
L 77.858444 155.619011 
L 78.004538 160.961795 
L 78.264262 180.99095 
L 79.221993 265.206624 
L 79.530415 273.515419 
L 79.74144 275.124967 
L 79.790138 275.112013 
L 79.806371 275.077817 
L 79.92 274.432351 
L 80.114793 271.718747 
L 80.390749 264.366745 
L 80.747869 248.234684 
L 81.218618 215.356627 
L 82.046487 156.51489 
L 82.208815 153.818271 
L 82.24128 153.905771 
L 82.338676 155.520465 
L 82.517236 163.855064 
L 82.825658 192.051833 
L 83.539898 259.10615 
L 83.880785 272.07663 
L 84.140509 275.423692 
L 84.221673 275.582375 
L 84.270371 275.496451 
L 84.400233 274.632819 
L 84.611258 271.31838 
L 84.903447 262.728952 
L 85.2768 244.339448 
L 85.780015 206.817475 
L 86.478022 156.776167 
L 86.672815 153.016555 
L 86.689047 153.04137 
L 86.753978 153.704544 
L 86.900073 158.595526 
L 87.143564 176.696888 
L 88.182458 267.819363 
L 88.49088 274.985478 
L 88.685673 276.03055 
L 88.766836 275.812719 
L 88.912931 274.525095 
L 89.140189 270.281086 
L 89.448611 259.949012 
L 89.838196 238.589616 
L 90.422575 191.835891 
L 90.942022 156.289601 
L 91.153047 152.2154 
L 91.217978 152.780415 
L 91.34784 156.723617 
L 91.575098 172.417743 
L 92.760087 271.586544 
L 93.036044 276.092571 
L 93.149673 276.481067 
L 93.198371 276.41996 
L 93.312 275.774526 
L 93.506793 273.083153 
L 93.782749 265.793551 
L 94.139869 249.71811 
L 94.594385 217.894159 
L 95.487185 153.386132 
L 95.63328 151.398482 
L 95.665745 151.558455 
L 95.763142 153.443766 
L 95.941702 162.470207 
L 96.250124 192.185676 
L 96.931898 258.849586 
L 97.272785 272.797947 
L 97.548742 276.715671 
L 97.646138 276.927441 
L 97.678604 276.878397 
L 97.792233 276.257088 
L 97.987025 273.614309 
L 98.262982 266.408731 
L 98.620102 250.447286 
L 99.074618 218.654513 
L 99.983651 152.460189 
L 100.113513 150.574811 
L 100.145978 150.652944 
L 100.227142 151.874756 
L 100.389469 158.846023 
L 100.665425 183.175092 
L 101.493295 263.077439 
L 101.817949 274.40132 
L 102.06144 277.249499 
L 102.142604 277.375915 
L 102.175069 277.322933 
L 102.288698 276.690824 
L 102.483491 274.038641 
L 102.759447 266.8314 
L 103.116567 250.860669 
L 103.571084 218.9569 
L 104.480116 151.823191 
L 104.626211 149.745578 
L 104.658676 149.896849 
L 104.756073 151.785694 
L 104.934633 160.953144 
L 105.243055 191.328657 
L 105.924829 259.440413 
L 106.265716 273.585063 
L 106.541673 277.587409 
L 106.639069 277.830529 
L 106.687767 277.752228 
L 106.817629 276.92493 
L 107.028655 273.71643 
L 107.320844 265.338032 
L 107.677964 248.142197 
L 108.148713 213.316533 
L 108.976582 151.528562 
L 109.138909 148.908839 
L 109.155142 148.952817 
L 109.236305 150.070744 
L 109.3824 155.970642 
L 109.642124 177.951454 
L 110.567389 266.64702 
L 110.892044 276.296931 
L 111.119302 278.255617 
L 111.168 278.272892 
L 111.200465 278.212078 
L 111.314095 277.558869 
L 111.508887 274.889845 
L 111.784844 267.684319 
L 112.141964 251.705628 
L 112.580247 220.948581 
L 113.537978 149.644965 
L 113.651607 148.070877 
L 113.700305 148.252024 
L 113.797702 150.261002 
L 113.976262 159.782846 
L 114.284684 191.066124 
L 114.966458 260.344462 
L 115.307345 274.497872 
L 115.583302 278.485646 
L 115.680698 278.732269 
L 115.729396 278.657932 
L 115.843025 277.997446 
L 116.037818 275.326066 
L 116.313775 268.131607 
L 116.670895 252.165771 
L 117.109178 221.336804 
L 118.083142 148.583651 
L 118.196771 147.214387 
L 118.229236 147.34359 
L 118.326633 149.209296 
L 118.505193 158.536584 
L 118.813615 189.857044 
L 119.495389 260.25065 
L 119.836276 274.73218 
L 120.112233 278.884736 
L 120.225862 279.180557 
L 120.258327 279.133745 
L 120.371956 278.533825 
L 120.566749 275.974451 
L 120.842705 268.964996 
L 121.183593 254.165053 
L 121.621876 224.036631 
L 122.660771 147.108893 
L 122.741935 146.357641 
L 122.790633 146.616688 
L 122.904262 149.413808 
L 123.099055 161.458826 
L 123.456175 201.380336 
L 124.02432 259.392717 
L 124.365207 274.64978 
L 124.641164 279.199793 
L 124.771025 279.633552 
L 124.803491 279.595816 
L 124.91712 279.029691 
L 125.111913 276.537711 
L 125.387869 269.646963 
L 125.728756 255.018126 
L 126.150807 226.365381 
L 127.2384 145.959833 
L 127.303331 145.493953 
L 127.352029 145.775759 
L 127.465658 148.650695 
L 127.660451 160.911259 
L 128.017571 201.384344 
L 128.585716 259.843128 
L 128.926604 275.105694 
L 129.20256 279.647539 
L 129.332422 280.084443 
L 129.364887 280.048413 
L 129.478516 279.491291 
L 129.673309 277.025617 
L 129.949265 270.192509 
L 130.290153 255.649372 
L 130.712204 227.041349 
L 131.816029 145.01364 
L 131.88096 144.628277 
L 131.929658 144.979671 
L 132.043287 148.046419 
L 132.23808 160.712608 
L 132.611433 204.00841 
L 133.147113 259.48296 
L 133.488 275.224338 
L 133.763956 280.003161 
L 133.910051 280.533837 
L 133.942516 280.492768 
L 134.056145 279.92199 
L 134.250938 277.445094 
L 134.526895 270.613574 
L 134.867782 256.076595 
L 135.289833 227.412661 
L 136.409891 144.023231 
L 136.458589 143.746582 
L 136.507287 144.023496 
L 136.620916 146.930968 
L 136.815709 159.417576 
L 137.172829 200.813589 
L 137.724742 259.355455 
L 138.065629 275.438087 
L 138.341585 280.380549 
L 138.48768 280.985338 
L 138.520145 280.960701 
L 138.617542 280.561685 
L 138.796102 278.60673 
L 139.055825 272.90715 
L 139.38048 260.465468 
L 139.786298 235.20635 
L 140.435607 177.121335 
L 140.890124 145.926443 
L 141.052451 142.8644 
L 141.084916 142.96213 
L 141.182313 144.803975 
L 141.360873 154.422407 
L 141.653062 185.296704 
L 142.367302 262.67095 
L 142.708189 277.063131 
L 142.984145 281.134655 
L 143.097775 281.433165 
L 143.13024 281.391673 
L 143.243869 280.826548 
L 143.438662 278.383637 
L 143.714618 271.643496 
L 144.055505 257.250957 
L 144.477556 228.65679 
L 145.63008 142.126095 
L 145.662545 141.974235 
L 145.711244 142.21712 
L 145.824873 145.085241 
L 146.019665 157.676582 
L 146.376785 199.892724 
L 146.928698 259.770858 
L 147.269585 276.144223 
L 147.561775 281.345375 
L 147.707869 281.883201 
L 147.740335 281.847154 
L 147.853964 281.30412 
L 148.048756 278.911144 
L 148.324713 272.268449 
L 148.6656 258.026795 
L 149.071418 230.89681 
L 150.288873 141.075993 
L 150.337571 141.354083 
L 150.4512 144.330125 
L 150.645993 157.188811 
L 151.003113 200.017288 
L 151.555025 260.284923 
L 151.895913 276.624189 
L 152.188102 281.795893 
L 152.334196 282.331518 
L 152.366662 282.296278 
L 152.480291 281.759798 
L 152.675084 279.391098 
L 152.95104 272.807576 
L 153.291927 258.662431 
L 153.697745 231.609718 
L 154.931433 140.175119 
L 154.980131 140.519764 
L 155.09376 143.680349 
L 155.288553 156.935367 
L 155.645673 200.493672 
L 156.197585 260.976015 
L 156.538473 277.175921 
L 156.830662 282.264493 
L 156.976756 282.778264 
L 157.009222 282.739826 
L 157.122851 282.196494 
L 157.317644 279.829967 
L 157.5936 273.272534 
L 157.934487 259.176352 
L 158.340305 232.140955 
L 159.573993 139.265419 
L 159.590225 139.280828 
L 159.655156 140.001321 
L 159.785018 144.741509 
L 160.012276 163.548063 
L 161.132335 275.757241 
L 161.424524 282.150352 
L 161.619316 283.225409 
L 161.635549 283.222731 
L 161.716713 283.013085 
L 161.862807 281.840522 
L 162.090065 278.004194 
L 162.398487 268.52084 
L 162.77184 249.122392 
L 163.242589 211.025312 
L 164.086691 141.219988 
L 164.249018 138.350813 
L 164.265251 138.404431 
L 164.346415 139.680698 
L 164.492509 146.388803 
L 164.736 169.625084 
L 165.661265 270.408402 
L 165.98592 281.034525 
L 166.229411 283.567725 
L 166.294342 283.671356 
L 166.34304 283.609497 
L 166.456669 283.020919 
L 166.651462 280.606546 
L 166.927418 274.022402 
L 167.268305 259.908939 
L 167.674124 232.758861 
L 168.437062 161.252856 
L 168.810415 138.965035 
L 168.924044 137.425553 
L 168.956509 137.557729 
L 169.053905 139.593433 
L 169.232465 149.969671 
L 169.524655 183.172189 
L 170.206429 262.752414 
L 170.547316 278.694978 
L 170.823273 283.501941 
L 170.9856 284.113674 
L 171.001833 284.100118 
L 171.099229 283.752597 
L 171.277789 281.968982 
L 171.537513 276.684691 
L 171.862167 264.96447 
L 172.251753 241.730664 
L 172.7712 195.218085 
L 173.420509 141.084721 
L 173.615302 136.499526 
L 173.631535 136.516543 
L 173.696465 137.260348 
L 173.826327 142.139992 
L 174.053585 161.545423 
L 175.157411 276.343575 
L 175.465833 283.400683 
L 175.676858 284.558437 
L 175.741789 284.452395 
L 175.871651 283.648013 
L 176.082676 280.693029 
L 176.374865 273.001109 
L 176.731985 256.780192 
L 177.154036 226.063597 
L 178.290327 135.757383 
L 178.322793 135.569829 
L 178.371491 135.785587 
L 178.468887 138.096909 
L 178.647447 149.119058 
L 178.955869 185.84622 
L 179.605178 262.889343 
L 179.946065 279.272897 
L 180.238255 284.414541 
L 180.400582 284.997132 
L 180.416815 284.98236 
L 180.514211 284.63369 
L 180.692771 282.873673 
L 180.952495 277.675684 
L 181.277149 266.126424 
L 181.666735 243.098716 
L 182.169949 198.063985 
L 182.851724 139.52974 
L 183.062749 134.629651 
L 183.12768 135.289973 
L 183.257542 140.052161 
L 183.468567 157.689608 
L 183.971782 226.64633 
L 184.393833 267.353747 
L 184.718487 280.904067 
L 184.994444 285.046995 
L 185.124305 285.439346 
L 185.156771 285.407411 
L 185.2704 284.911939 
L 185.465193 282.715939 
L 185.741149 276.575636 
L 186.082036 263.197801 
L 186.471622 238.198862 
L 187.039767 184.503632 
L 187.59168 138.725755 
L 187.802705 133.680897 
L 187.851404 134.044974 
L 187.965033 137.398958 
L 188.159825 151.574189 
L 188.516945 198.610623 
L 189.052625 261.954216 
L 189.393513 279.404685 
L 189.685702 285.058907 
L 189.864262 285.877934 
L 189.880495 285.873107 
L 189.961658 285.665705 
L 190.123985 284.367588 
L 190.367476 280.209883 
L 190.675898 270.664578 
L 191.033018 252.199756 
L 191.471302 216.927234 
L 192.445265 134.27165 
L 192.558895 132.727794 
L 192.59136 132.881107 
L 192.688756 135.050266 
L 192.867316 145.997391 
L 193.159505 181.098618 
L 193.84128 264.441426 
L 194.182167 280.675362 
L 194.474356 285.726652 
L 194.636684 286.312956 
L 194.652916 286.300866 
L 194.750313 285.977172 
L 194.928873 284.302285 
L 195.188596 279.316408 
L 195.513251 268.160028 
L 195.886604 246.826873 
L 196.357353 205.667657 
L 197.152756 135.683231 
L 197.331316 131.770933 
L 197.347549 131.800403 
L 197.41248 132.621849 
L 197.542342 137.809228 
L 197.7696 158.332571 
L 198.857193 277.694777 
L 199.165615 285.261816 
L 199.392873 286.743194 
L 199.457804 286.693118 
L 199.571433 286.153886 
L 199.766225 283.933654 
L 200.042182 277.840997 
L 200.383069 264.594856 
L 200.772655 239.693558 
L 201.308335 188.76812 
L 201.925178 135.639704 
L 202.119971 130.812283 
L 202.136204 130.824987 
L 202.201135 131.581767 
L 202.330996 136.659762 
L 202.542022 155.211438 
L 203.061469 229.406414 
L 203.467287 268.923461 
L 203.791942 282.543959 
L 204.067898 286.729984 
L 204.213993 287.179534 
L 204.230225 287.167205 
L 204.327622 286.848701 
L 204.506182 285.211557 
L 204.765905 280.340853 
L 205.09056 269.413396 
L 205.463913 248.391338 
L 205.934662 207.347023 
L 206.762531 133.512868 
L 206.941091 129.846145 
L 206.957324 129.90594 
L 207.038487 131.286296 
L 207.184582 138.547918 
L 207.428073 163.978703 
L 208.337105 272.726011 
L 208.66176 284.273787 
L 208.921484 287.385919 
L 209.01888 287.611374 
L 209.067578 287.560921 
L 209.181207 287.044612 
L 209.376 284.897899 
L 209.651956 278.981482 
L 209.976611 266.835014 
L 210.366196 242.807059 
L 210.869411 195.777237 
L 211.567418 133.576396 
L 211.762211 128.869741 
L 211.778444 128.899443 
L 211.843375 129.736184 
L 211.973236 135.037056 
L 212.200495 156.109676 
L 213.288087 278.764124 
L 213.596509 286.437452 
L 213.823767 288.020508 
L 213.872465 288.030587 
L 213.904931 287.979305 
L 214.034793 287.328414 
L 214.245818 284.779819 
L 214.538007 277.968812 
L 214.878895 264.080173 
L 215.26848 238.200491 
L 215.820393 184.034347 
L 216.404771 133.057233 
L 216.615796 127.897001 
L 216.664495 128.295404 
L 216.778124 131.846514 
L 216.972916 146.844511 
L 217.330036 196.950505 
L 217.849484 262.478749 
L 218.190371 281.133946 
L 218.48256 287.30386 
L 218.693585 288.462322 
L 218.758516 288.40003 
L 218.888378 287.745755 
L 219.099404 285.212967 
L 219.391593 278.460664 
L 219.73248 264.68011 
L 220.122065 238.924111 
L 220.673978 184.646628 
L 221.258356 132.681933 
L 221.469382 126.915137 
L 221.485615 126.925075 
L 221.550545 127.688537 
L 221.680407 132.884456 
L 221.891433 152.034579 
L 222.394647 227.036753 
L 222.800465 269.059484 
L 223.12512 283.578741 
L 223.417309 288.329355 
L 223.579636 288.886745 
L 223.595869 288.877122 
L 223.693265 288.588179 
L 223.871825 287.063703 
L 224.131549 282.489281 
L 224.456204 272.138871 
L 224.829556 251.951491 
L 225.26784 214.780118 
L 226.241804 127.711474 
L 226.355433 125.926568 
L 226.404131 126.193718 
L 226.51776 129.452186 
L 226.712553 144.09121 
L 227.05344 192.008687 
L 227.605353 263.491459 
L 227.94624 282.041735 
L 228.238429 288.140598 
L 228.449455 289.303395 
L 228.530618 289.212925 
L 228.66048 288.51332 
L 228.871505 285.949655 
L 229.163695 279.215512 
L 229.504582 265.502697 
L 229.894167 239.790948 
L 230.429847 186.907467 
L 231.046691 130.77421 
L 231.257716 124.938231 
L 231.273949 124.947209 
L 231.33888 125.714893 
L 231.468742 130.967832 
L 231.679767 150.408136 
L 232.166749 224.556775 
L 232.572567 268.510425 
L 232.897222 283.832467 
L 233.189411 288.976539 
L 233.367971 289.724323 
L 233.384204 289.721935 
L 233.465367 289.548415 
L 233.627695 288.423922 
L 233.871185 284.781743 
L 234.179607 276.299723 
L 234.536727 259.467869 
L 234.942545 228.756437 
L 236.176233 123.956741 
L 236.192465 123.940836 
L 236.208698 123.996879 
L 236.289862 125.397444 
L 236.435956 132.906816 
L 236.679447 159.603334 
L 237.58848 274.568975 
L 237.913135 286.45531 
L 238.189091 289.866921 
L 238.30272 290.139011 
L 238.351418 290.08929 
L 238.465047 289.610164 
L 238.65984 287.637341 
L 238.935796 282.192687 
L 239.260451 270.904205 
L 239.633804 249.292351 
L 240.08832 208.480372 
L 240.98112 125.892376 
L 241.127215 122.942913 
L 241.15968 123.039455 
L 241.240844 124.595614 
L 241.403171 133.718937 
L 241.662895 164.541334 
L 242.474531 271.312697 
L 242.799185 285.430127 
L 243.091375 289.99777 
L 243.253702 290.550118 
L 243.269935 290.543718 
L 243.367331 290.288124 
L 243.545891 288.88657 
L 243.805615 284.633968 
L 244.114036 275.545849 
L 244.471156 257.794619 
L 244.893207 224.230029 
L 246.045731 122.307745 
L 246.094429 121.937834 
L 246.143127 122.215278 
L 246.256756 125.559349 
L 246.451549 140.633088 
L 246.776204 187.665151 
L 247.344349 264.502612 
L 247.685236 283.415189 
L 247.977425 289.637301 
L 248.204684 290.951196 
L 248.285847 290.881297 
L 248.415709 290.249423 
L 248.626735 287.887126 
L 248.918924 281.622132 
L 249.259811 268.726316 
L 249.633164 245.388229 
L 250.120145 198.854373 
L 250.883084 126.122821 
L 251.077876 120.936803 
L 251.094109 120.939266 
L 251.15904 121.694198 
L 251.288902 127.006574 
L 251.499927 146.924036 
L 251.954444 218.924163 
L 252.376495 268.289229 
L 252.717382 285.155653 
L 253.009571 290.463305 
L 253.220596 291.362235 
L 253.30176 291.221967 
L 253.447855 290.35779 
L 253.675113 287.454066 
L 253.967302 280.565198 
L 254.308189 266.711986 
L 254.697775 240.680613 
L 255.217222 188.386528 
L 255.882764 125.600849 
L 256.093789 119.918654 
L 256.142487 120.242571 
L 256.256116 123.729522 
L 256.450909 139.190995 
L 256.791796 190.030548 
L 257.327476 263.850321 
L 257.668364 283.620567 
L 257.976785 290.39421 
L 258.204044 291.749709 
L 258.268975 291.736182 
L 258.285207 291.707916 
L 258.415069 291.137454 
L 258.626095 288.922689 
L 258.902051 283.403488 
L 259.226705 272.105002 
L 259.600058 250.451131 
L 260.054575 209.210492 
L 260.97984 121.697889 
L 261.125935 118.904945 
L 261.1584 119.052799 
L 261.255796 121.351891 
L 261.418124 131.80921 
L 261.69408 167.736733 
L 262.424553 269.344977 
L 262.749207 285.551817 
L 263.041396 291.102345 
L 263.252422 292.156316 
L 263.333585 292.082359 
L 263.463447 291.472635 
L 263.674473 289.216859 
L 263.966662 283.238381 
L 264.291316 271.620929 
L 264.664669 249.472592 
L 265.119185 207.543809 
L 266.028218 120.916118 
L 266.174313 117.893213 
L 266.206778 117.986664 
L 266.287942 119.563848 
L 266.450269 128.910172 
L 266.709993 160.896745 
L 267.521629 272.61561 
L 267.846284 287.084584 
L 268.138473 291.835657 
L 268.333265 292.554491 
L 268.414429 292.422531 
L 268.560524 291.607118 
L 268.787782 288.863303 
L 269.079971 282.332191 
L 269.420858 269.109201 
L 269.794211 245.247047 
L 270.281193 197.616927 
L 271.060364 121.899558 
L 271.255156 116.869792 
L 271.271389 116.893381 
L 271.33632 117.747924 
L 271.466182 123.348806 
L 271.677207 144.088702 
L 272.147956 221.556924 
L 272.553775 269.593231 
L 272.878429 286.094853 
L 273.170618 291.77299 
L 273.397876 292.940492 
L 273.47904 292.867045 
L 273.608902 292.277338 
L 273.819927 290.1022 
L 274.095884 284.749709 
L 274.420538 273.79371 
L 274.793891 252.655931 
L 275.232175 213.53091 
L 276.238604 117.804789 
L 276.352233 115.854322 
L 276.400931 116.086749 
L 276.498327 118.669153 
L 276.676887 131.328042 
L 276.969076 172.626241 
L 277.618385 266.852179 
L 277.959273 285.736248 
L 278.251462 291.887168 
L 278.47872 293.297967 
L 278.543651 293.32166 
L 278.576116 293.277828 
L 278.705978 292.748085 
L 278.917004 290.695982 
L 279.19296 285.56993 
L 279.517615 275.002205 
L 279.874735 255.588656 
L 280.296785 219.410283 
L 281.400611 115.810189 
L 281.481775 114.824063 
L 281.530473 115.104061 
L 281.627869 117.795552 
L 281.806429 130.710364 
L 282.098618 172.554882 
L 282.747927 267.32996 
L 283.088815 286.146744 
L 283.381004 292.260014 
L 283.608262 293.675169 
L 283.673193 293.70595 
L 283.705658 293.666663 
L 283.83552 293.161952 
L 284.046545 291.175315 
L 284.322502 286.187057 
L 284.647156 275.868447 
L 285.004276 256.831994 
L 285.426327 221.096706 
L 286.578851 114.261962 
L 286.643782 113.8008 
L 286.676247 114.012715 
L 286.773644 116.549084 
L 286.952204 129.197633 
L 287.22816 168.124226 
L 287.909935 268.417655 
L 288.234589 286.261861 
L 288.543011 292.711175 
L 288.770269 294.05952 
L 288.8352 294.080766 
L 288.867665 294.038047 
L 288.997527 293.527674 
L 289.208553 291.556153 
L 289.484509 286.628074 
L 289.809164 276.435473 
L 290.166284 257.592977 
L 290.588335 222.065667 
L 291.757091 113.210131 
L 291.822022 112.775056 
L 291.854487 113.001618 
L 291.951884 115.589901 
L 292.130444 128.378489 
L 292.4064 167.679172 
L 293.088175 268.730297 
L 293.412829 286.6005 
L 293.721251 293.053005 
L 293.948509 294.424947 
L 294.01344 294.45783 
L 294.045905 294.421847 
L 294.175767 293.944992 
L 294.386793 292.053137 
L 294.662749 287.285806 
L 294.987404 277.382204 
L 295.344524 258.985925 
L 295.766575 224.020555 
L 296.984029 111.884035 
L 297.016495 111.735086 
L 297.065193 112.072901 
L 297.178822 115.672301 
L 297.357382 129.961094 
L 297.665804 177.099632 
L 298.266415 266.817118 
L 298.607302 286.597941 
L 298.915724 293.277505 
L 299.159215 294.795513 
L 299.224145 294.826277 
L 299.256611 294.79043 
L 299.386473 294.321703 
L 299.597498 292.467838 
L 299.873455 287.796876 
L 300.198109 278.079812 
L 300.555229 259.976506 
L 300.961047 226.984055 
L 302.243433 110.704064 
L 302.275898 110.828673 
L 302.373295 113.097283 
L 302.535622 123.753559 
L 302.795345 158.69699 
L 303.574516 273.284579 
L 303.899171 288.837746 
L 304.19136 294.078373 
L 304.418618 295.186329 
L 304.499782 295.145048 
L 304.516015 295.112306 
L 304.662109 294.464729 
L 304.889367 292.188729 
L 305.181556 286.664504 
L 305.506211 275.95064 
L 305.863331 256.31662 
L 306.285382 219.566105 
L 307.421673 110.574275 
L 307.502836 109.669587 
L 307.551535 110.008984 
L 307.665164 113.62357 
L 307.843724 128.014743 
L 308.152145 175.796191 
L 308.752756 267.127792 
L 309.077411 286.564016 
L 309.385833 293.699145 
L 309.629324 295.458317 
L 309.72672 295.54938 
L 309.759185 295.513926 
L 309.889047 295.061948 
L 310.100073 293.285 
L 310.376029 288.808942 
L 310.700684 279.471447 
L 311.057804 261.973221 
L 311.463622 229.737095 
L 312.129164 153.959786 
L 312.58368 114.030149 
L 312.794705 108.642314 
L 312.859636 109.390024 
L 312.989498 114.853726 
L 313.200524 135.964186 
L 313.606342 207.015109 
L 314.044625 267.910263 
L 314.36928 287.086534 
L 314.677702 294.089596 
L 314.921193 295.813922 
L 315.018589 295.904516 
L 315.051055 295.870447 
L 315.180916 295.431419 
L 315.391942 293.700495 
L 315.667898 289.334043 
L 315.992553 280.207664 
L 316.349673 263.050102 
L 316.755491 231.259077 
L 317.372335 161.112638 
L 317.875549 114.113416 
L 318.102807 107.600792 
L 318.151505 107.972704 
L 318.265135 111.677596 
L 318.443695 126.290553 
L 318.735884 171.801395 
L 319.352727 267.599738 
L 319.677382 287.159299 
L 319.985804 294.320507 
L 320.245527 296.173752 
L 320.342924 296.252476 
L 320.375389 296.216213 
L 320.505251 295.77635 
L 320.716276 294.068695 
L 320.992233 289.776273 
L 321.316887 280.80346 
L 321.674007 263.898331 
L 322.079825 232.435581 
L 322.680436 164.203689 
L 323.216116 113.162199 
L 323.443375 106.564703 
L 323.492073 106.914056 
L 323.605702 110.563891 
L 323.784262 125.11296 
L 324.076451 170.771769 
L 324.693295 267.576576 
L 325.017949 287.34706 
L 325.326371 294.587258 
L 325.586095 296.497072 
L 325.683491 296.602293 
L 325.715956 296.575867 
L 325.829585 296.255491 
L 326.024378 294.900427 
L 326.300335 291.090663 
L 326.608756 283.469186 
L 326.949644 269.150127 
L 327.339229 242.149602 
L 327.842444 188.75923 
L 328.572916 112.975608 
L 328.800175 105.558761 
L 328.816407 105.529375 
L 328.848873 105.696162 
L 328.946269 108.109121 
L 329.108596 119.130048 
L 329.36832 155.336313 
L 330.147491 274.494077 
L 330.472145 290.293988 
L 330.764335 295.628075 
L 331.007825 296.917137 
L 331.088989 296.924552 
L 331.121455 296.876528 
L 331.267549 296.316799 
L 331.494807 294.325344 
L 331.786996 289.454644 
L 332.111651 279.90833 
L 332.468771 262.107221 
L 332.874589 229.309395 
L 333.523898 153.973995 
L 334.01088 109.979013 
L 334.221905 104.496898 
L 334.270604 104.909751 
L 334.384233 108.723685 
L 334.562793 123.609054 
L 334.854982 170.115875 
L 335.471825 268.19611 
L 335.79648 287.98522 
L 336.104902 295.201803 
L 336.364625 297.143826 
L 336.478255 297.27523 
L 336.51072 297.246976 
L 336.640582 296.860671 
L 336.851607 295.315136 
L 337.127564 291.390725 
L 337.452218 283.124581 
L 337.793105 268.293468 
L 338.182691 240.480975 
L 338.685905 186.011849 
L 339.400145 111.364717 
L 339.643636 103.464041 
L 339.676102 103.55461 
L 339.757265 105.152467 
L 339.90336 113.446991 
L 340.130618 141.204109 
L 341.104582 282.581144 
L 341.413004 293.384282 
L 341.705193 297.036026 
L 341.916218 297.606096 
L 342.013615 297.45313 
L 342.175942 296.674167 
L 342.419433 294.241572 
L 342.711622 288.90539 
L 343.036276 278.66414 
L 343.393396 259.771268 
L 343.799215 225.393276 
L 345.097833 102.464475 
L 345.114065 102.423705 
L 345.146531 102.566168 
L 345.243927 104.897347 
L 345.406255 115.80071 
L 345.665978 152.24113 
L 346.445149 274.720849 
L 346.769804 290.938107 
L 347.061993 296.431163 
L 347.305484 297.861836 
L 347.40288 297.924039 
L 347.435345 297.890202 
L 347.565207 297.497439 
L 347.776233 295.989867 
L 348.052189 292.200092 
L 348.376844 284.224464 
L 348.717731 269.866393 
L 349.107316 242.740529 
L 349.594298 190.754152 
L 350.373469 108.601423 
L 350.600727 101.408036 
L 350.61696 101.393325 
L 350.633193 101.453163 
L 350.714356 102.925536 
L 350.860451 110.972593 
L 351.087709 138.490626 
L 352.094138 284.384726 
L 352.40256 294.422222 
L 352.678516 297.668454 
L 352.889542 298.25008 
L 352.986938 298.122048 
L 353.149265 297.412665 
L 353.392756 295.156611 
L 353.684945 290.170958 
L 354.0096 280.544871 
L 354.36672 262.636784 
L 354.772538 229.561454 
L 355.405615 155.008183 
L 355.908829 107.256154 
L 356.136087 100.362931 
L 356.168553 100.455643 
L 356.249716 102.053156 
L 356.395811 110.35307 
L 356.623069 138.341318 
L 357.613265 283.993506 
L 357.921687 294.444615 
L 358.213876 297.972573 
L 358.424902 298.563348 
L 358.522298 298.448942 
L 358.684625 297.77602 
L 358.928116 295.61073 
L 359.220305 290.804653 
L 359.54496 281.495611 
L 359.90208 264.103224 
L 360.291665 233.318335 
L 360.859811 167.470339 
L 361.444189 107.881547 
L 361.68768 99.37406 
L 361.703913 99.327448 
L 361.736378 99.456216 
L 361.833775 101.733278 
L 361.996102 112.547407 
L 362.239593 146.301546 
L 363.083695 278.515438 
L 363.408349 292.912951 
L 363.700538 297.665758 
L 363.944029 298.835654 
L 364.041425 298.848556 
L 364.057658 298.829106 
L 364.18752 298.462248 
L 364.398545 297.069409 
L 364.674502 293.572388 
L 364.999156 286.188051 
L 365.340044 272.795521 
L 365.713396 248.473706 
L 366.167913 202.39588 
L 367.109411 103.163638 
L 367.304204 98.297735 
L 367.320436 98.333515 
L 367.385367 99.242884 
L 367.515229 105.071147 
L 367.726255 127.290107 
L 368.099607 197.288862 
L 368.554124 268.055601 
L 368.878778 289.025764 
L 369.1872 296.645004 
L 369.463156 298.92356 
L 369.625484 299.168209 
L 369.641716 299.158111 
L 369.755345 298.925834 
L 369.950138 297.885234 
L 370.209862 295.132902 
L 370.518284 289.248356 
L 370.859171 277.902686 
L 371.216291 257.914802 
L 371.638342 220.132214 
L 372.872029 97.856607 
L 372.93696 97.270963 
L 372.985658 97.593771 
L 373.099287 101.150488 
L 373.277847 115.684616 
L 373.553804 159.901186 
L 374.219345 271.059582 
L 374.544 290.387591 
L 374.852422 297.296784 
L 375.112145 299.245191 
L 375.25824 299.467687 
L 375.290705 299.450141 
L 375.420567 299.156671 
L 375.631593 297.932434 
L 375.907549 294.777243 
L 376.215971 288.474997 
L 376.556858 276.449768 
L 376.930211 254.228659 
L 377.368495 212.565345 
L 378.47232 98.619199 
L 378.602182 96.249993 
L 378.634647 96.350981 
L 378.715811 97.955227 
L 378.861905 106.250361 
L 379.089164 134.470728 
L 380.095593 285.501394 
L 380.404015 295.664511 
L 380.696204 299.105848 
L 380.907229 299.753144 
L 381.004625 299.699455 
L 381.15072 299.256009 
L 381.377978 297.702599 
L 381.670167 293.894913 
L 381.994822 286.331784 
L 382.335709 272.694178 
L 382.709062 247.972114 
L 383.163578 201.218873 
L 384.105076 100.668751 
L 384.316102 95.225695 
L 384.3648 95.59795 
L 384.478429 99.265294 
L 384.656989 113.998853 
L 384.932945 158.780117 
L 385.598487 271.441518 
L 385.923142 290.870364 
L 386.231564 297.789624 
L 386.50752 299.829808 
L 386.669847 300.03743 
L 386.68608 300.026919 
L 386.815942 299.755028 
L 387.026967 298.612723 
L 387.302924 295.660337 
L 387.611345 289.744898 
L 387.952233 278.402205 
L 388.309353 258.415794 
L 388.731404 220.524467 
L 389.981324 94.959287 
L 390.062487 94.210453 
L 390.111185 94.621914 
L 390.224815 98.380726 
L 390.403375 113.275729 
L 390.679331 158.415122 
L 391.344873 271.713849 
L 391.669527 291.138548 
L 391.977949 298.039851 
L 392.253905 300.089849 
L 392.416233 300.319231 
L 392.432465 300.31164 
L 392.562327 300.068507 
L 392.75712 299.109237 
L 393.033076 296.407081 
L 393.341498 290.924368 
L 393.682385 280.331696 
L 394.039505 261.499245 
L 394.445324 226.919154 
L 395.127098 144.08434 
L 395.597847 100.278287 
L 395.825105 93.214496 
L 395.841338 93.191803 
L 395.857571 93.241204 
L 395.938735 94.627441 
L 396.084829 102.437908 
L 396.312087 129.98161 
L 397.367215 287.870091 
L 397.675636 297.001389 
L 397.967825 300.042795 
L 398.178851 300.591952 
L 398.29248 300.501645 
L 398.454807 299.962501 
L 398.487273 299.797364 
L 398.487273 299.797364 
" clip-path="url(#p613d5a8257)" style="fill: none; stroke: #bfbf00; stroke-width: 1.5; stroke-linecap: square"/>
   </g>
   <g id="patch_3">
    <path d="M 57.6 307.584 
L 57.6 41.472 
" style="fill: none; stroke: #000000; stroke-width: 0.8; stroke-linejoin: miter; stroke-linecap: square"/>
   </g>
   <g id="patch_4">
    <path d="M 414.72 307.584 
L 414.72 41.472 
" style="fill: none; stroke: #000000; stroke-width: 0.8; stroke-linejoin: miter; stroke-linecap: square"/>
   </g>
   <g id="patch_5">
    <path d="M 57.6 307.584 
L 414.72 307.584 
" style="fill: none; stroke: #000000; stroke-width: 0.8; stroke-linejoin: miter; stroke-linecap: square"/>
   </g>
   <g id="patch_6">
    <path d="M 57.6 41.472 
L 414.72 41.472 
" style="fill: none; stroke: #000000; stroke-width: 0.8; stroke-linejoin: miter; stroke-linecap: square"/>
   </g>
  </g>
 </g>
 <defs>
  <clipPath id="p613d5a8257">
   <rect x="57.6" y="41.472" width="357.12" height="266.112"/>
  </clipPath>
 </defs>
</svg>
