<?xml version="1.0" encoding="utf-8" standalone="no"?>
<!DOCTYPE svg PUBLIC "-//W3C//DTD SVG 1.1//EN"
  "http://www.w3.org/Graphics/SVG/1.1/DTD/svg11.dtd">
<svg xmlns:xlink="http://www.w3.org/1999/xlink" width="460.8pt" height="345.6pt" viewBox="0 0 460.8 345.6" xmlns="http://www.w3.org/2000/svg" version="1.1">
 <metadata>
  <rdf:RDF xmlns:dc="http://purl.org/dc/elements/1.1/" xmlns:cc="http://creativecommons.org/ns#" xmlns:rdf="http://www.w3.org/1999/02/22-rdf-syntax-ns#">
   <cc:Work>
    <dc:type rdf:resource="http://purl.org/dc/dcmitype/StillImage"/>
    <dc:date>2025-05-29T12:03:39.292293</dc:date>
    <dc:format>image/svg+xml</dc:format>
    <dc:creator>
     <cc:Agent>
      <dc:title>Matplotlib v3.10.0, https://matplotlib.org/</dc:title>
     </cc:Agent>
    </dc:creator>
   </cc:Work>
  </rdf:RDF>
 </metadata>
 <defs>
  <style type="text/css">*{stroke-linejoin: round; stroke-linecap: butt}</style>
 </defs>
 <g id="figure_1">
  <g id="patch_1">
   <path d="M 0 345.6 
L 460.8 345.6 
L 460.8 0 
L 0 0 
z
" style="fill: #ffffff"/>
  </g>
  <g id="axes_1">
   <g id="patch_2">
    <path d="M 57.6 307.584 
L 414.72 307.584 
L 414.72 41.472 
L 57.6 41.472 
z
" style="fill: #ffffff"/>
   </g>
   <g id="matplotlib.axis_1">
    <g id="xtick_1">
     <g id="line2d_1">
      <defs>
       <path id="m01ca2d2ffe" d="M 0 0 
L 0 3.5 
" style="stroke: #000000; stroke-width: 0.8"/>
      </defs>
      <g>
       <use xlink:href="#m01ca2d2ffe" x="73.832727" y="307.584" style="stroke: #000000; stroke-width: 0.8"/>
      </g>
     </g>
     <g id="text_1">
      <!-- 0 -->
      <g transform="translate(68.106477 328.261187) scale(0.18 -0.18)">
       <defs>
        <path id="DejaVuSans-30" d="M 2034 4250 
Q 1547 4250 1301 3770 
Q 1056 3291 1056 2328 
Q 1056 1369 1301 889 
Q 1547 409 2034 409 
Q 2525 409 2770 889 
Q 3016 1369 3016 2328 
Q 3016 3291 2770 3770 
Q 2525 4250 2034 4250 
z
M 2034 4750 
Q 2819 4750 3233 4129 
Q 3647 3509 3647 2328 
Q 3647 1150 3233 529 
Q 2819 -91 2034 -91 
Q 1250 -91 836 529 
Q 422 1150 422 2328 
Q 422 3509 836 4129 
Q 1250 4750 2034 4750 
z
" transform="scale(0.015625)"/>
       </defs>
       <use xlink:href="#DejaVuSans-30"/>
      </g>
     </g>
    </g>
    <g id="xtick_2">
     <g id="line2d_2">
      <g>
       <use xlink:href="#m01ca2d2ffe" x="154.996364" y="307.584" style="stroke: #000000; stroke-width: 0.8"/>
      </g>
     </g>
     <g id="text_2">
      <!-- 500 -->
      <g transform="translate(137.817614 328.261187) scale(0.18 -0.18)">
       <defs>
        <path id="DejaVuSans-35" d="M 691 4666 
L 3169 4666 
L 3169 4134 
L 1269 4134 
L 1269 2991 
Q 1406 3038 1543 3061 
Q 1681 3084 1819 3084 
Q 2600 3084 3056 2656 
Q 3513 2228 3513 1497 
Q 3513 744 3044 326 
Q 2575 -91 1722 -91 
Q 1428 -91 1123 -41 
Q 819 9 494 109 
L 494 744 
Q 775 591 1075 516 
Q 1375 441 1709 441 
Q 2250 441 2565 725 
Q 2881 1009 2881 1497 
Q 2881 1984 2565 2268 
Q 2250 2553 1709 2553 
Q 1456 2553 1204 2497 
Q 953 2441 691 2322 
L 691 4666 
z
" transform="scale(0.015625)"/>
       </defs>
       <use xlink:href="#DejaVuSans-35"/>
       <use xlink:href="#DejaVuSans-30" transform="translate(63.623047 0)"/>
       <use xlink:href="#DejaVuSans-30" transform="translate(127.246094 0)"/>
      </g>
     </g>
    </g>
    <g id="xtick_3">
     <g id="line2d_3">
      <g>
       <use xlink:href="#m01ca2d2ffe" x="236.16" y="307.584" style="stroke: #000000; stroke-width: 0.8"/>
      </g>
     </g>
     <g id="text_3">
      <!-- 1000 -->
      <g transform="translate(213.255 328.261187) scale(0.18 -0.18)">
       <defs>
        <path id="DejaVuSans-31" d="M 794 531 
L 1825 531 
L 1825 4091 
L 703 3866 
L 703 4441 
L 1819 4666 
L 2450 4666 
L 2450 531 
L 3481 531 
L 3481 0 
L 794 0 
L 794 531 
z
" transform="scale(0.015625)"/>
       </defs>
       <use xlink:href="#DejaVuSans-31"/>
       <use xlink:href="#DejaVuSans-30" transform="translate(63.623047 0)"/>
       <use xlink:href="#DejaVuSans-30" transform="translate(127.246094 0)"/>
       <use xlink:href="#DejaVuSans-30" transform="translate(190.869141 0)"/>
      </g>
     </g>
    </g>
    <g id="xtick_4">
     <g id="line2d_4">
      <g>
       <use xlink:href="#m01ca2d2ffe" x="317.323636" y="307.584" style="stroke: #000000; stroke-width: 0.8"/>
      </g>
     </g>
     <g id="text_4">
      <!-- 1500 -->
      <g transform="translate(294.418636 328.261187) scale(0.18 -0.18)">
       <use xlink:href="#DejaVuSans-31"/>
       <use xlink:href="#DejaVuSans-35" transform="translate(63.623047 0)"/>
       <use xlink:href="#DejaVuSans-30" transform="translate(127.246094 0)"/>
       <use xlink:href="#DejaVuSans-30" transform="translate(190.869141 0)"/>
      </g>
     </g>
    </g>
    <g id="xtick_5">
     <g id="line2d_5">
      <g>
       <use xlink:href="#m01ca2d2ffe" x="398.487273" y="307.584" style="stroke: #000000; stroke-width: 0.8"/>
      </g>
     </g>
     <g id="text_5">
      <!-- 2000 -->
      <g transform="translate(375.582273 328.261187) scale(0.18 -0.18)">
       <defs>
        <path id="DejaVuSans-32" d="M 1228 531 
L 3431 531 
L 3431 0 
L 469 0 
L 469 531 
Q 828 903 1448 1529 
Q 2069 2156 2228 2338 
Q 2531 2678 2651 2914 
Q 2772 3150 2772 3378 
Q 2772 3750 2511 3984 
Q 2250 4219 1831 4219 
Q 1534 4219 1204 4116 
Q 875 4013 500 3803 
L 500 4441 
Q 881 4594 1212 4672 
Q 1544 4750 1819 4750 
Q 2544 4750 2975 4387 
Q 3406 4025 3406 3419 
Q 3406 3131 3298 2873 
Q 3191 2616 2906 2266 
Q 2828 2175 2409 1742 
Q 1991 1309 1228 531 
z
" transform="scale(0.015625)"/>
       </defs>
       <use xlink:href="#DejaVuSans-32"/>
       <use xlink:href="#DejaVuSans-30" transform="translate(63.623047 0)"/>
       <use xlink:href="#DejaVuSans-30" transform="translate(127.246094 0)"/>
       <use xlink:href="#DejaVuSans-30" transform="translate(190.869141 0)"/>
      </g>
     </g>
    </g>
    <g id="text_6">
     <!-- $t$ -->
     <g transform="translate(231.16 355.000719) scale(0.25 -0.25)">
      <defs>
       <path id="DejaVuSans-Oblique-74" d="M 2706 3500 
L 2619 3053 
L 1472 3053 
L 1100 1153 
Q 1081 1047 1072 975 
Q 1063 903 1063 863 
Q 1063 663 1183 572 
Q 1303 481 1569 481 
L 2150 481 
L 2053 0 
L 1503 0 
Q 991 0 739 200 
Q 488 400 488 806 
Q 488 878 497 964 
Q 506 1050 525 1153 
L 897 3053 
L 409 3053 
L 500 3500 
L 978 3500 
L 1172 4494 
L 1747 4494 
L 1556 3500 
L 2706 3500 
z
" transform="scale(0.015625)"/>
      </defs>
      <use xlink:href="#DejaVuSans-Oblique-74" transform="translate(0 0.78125)"/>
     </g>
    </g>
   </g>
   <g id="matplotlib.axis_2">
    <g id="ytick_1">
     <g id="line2d_6">
      <defs>
       <path id="m32bd03b5a3" d="M 0 0 
L -3.5 0 
" style="stroke: #000000; stroke-width: 0.8"/>
      </defs>
      <g>
       <use xlink:href="#m32bd03b5a3" x="57.6" y="307.584" style="stroke: #000000; stroke-width: 0.8"/>
      </g>
     </g>
     <g id="text_7">
      <!-- 0.0 -->
      <g transform="translate(21.974375 314.422594) scale(0.18 -0.18)">
       <defs>
        <path id="DejaVuSans-2e" d="M 684 794 
L 1344 794 
L 1344 0 
L 684 0 
L 684 794 
z
" transform="scale(0.015625)"/>
       </defs>
       <use xlink:href="#DejaVuSans-30"/>
       <use xlink:href="#DejaVuSans-2e" transform="translate(63.623047 0)"/>
       <use xlink:href="#DejaVuSans-30" transform="translate(95.410156 0)"/>
      </g>
     </g>
    </g>
    <g id="ytick_2">
     <g id="line2d_7">
      <g>
       <use xlink:href="#m32bd03b5a3" x="57.6" y="174.528" style="stroke: #000000; stroke-width: 0.8"/>
      </g>
     </g>
     <g id="text_8">
      <!-- 0.5 -->
      <g transform="translate(21.974375 181.366594) scale(0.18 -0.18)">
       <use xlink:href="#DejaVuSans-30"/>
       <use xlink:href="#DejaVuSans-2e" transform="translate(63.623047 0)"/>
       <use xlink:href="#DejaVuSans-35" transform="translate(95.410156 0)"/>
      </g>
     </g>
    </g>
    <g id="ytick_3">
     <g id="line2d_8">
      <g>
       <use xlink:href="#m32bd03b5a3" x="57.6" y="41.472" style="stroke: #000000; stroke-width: 0.8"/>
      </g>
     </g>
     <g id="text_9">
      <!-- 1.0 -->
      <g transform="translate(21.974375 48.310594) scale(0.18 -0.18)">
       <use xlink:href="#DejaVuSans-31"/>
       <use xlink:href="#DejaVuSans-2e" transform="translate(63.623047 0)"/>
       <use xlink:href="#DejaVuSans-30" transform="translate(95.410156 0)"/>
      </g>
     </g>
    </g>
    <g id="text_10">
     <!-- $x_i(t)$ -->
     <g transform="translate(12.775156 199.403) rotate(-90) scale(0.25 -0.25)">
      <defs>
       <path id="DejaVuSans-Oblique-78" d="M 3841 3500 
L 2234 1784 
L 3219 0 
L 2559 0 
L 1819 1388 
L 531 0 
L -166 0 
L 1556 1844 
L 641 3500 
L 1300 3500 
L 1972 2234 
L 3144 3500 
L 3841 3500 
z
" transform="scale(0.015625)"/>
       <path id="DejaVuSans-Oblique-69" d="M 1172 4863 
L 1747 4863 
L 1606 4134 
L 1031 4134 
L 1172 4863 
z
M 909 3500 
L 1484 3500 
L 800 0 
L 225 0 
L 909 3500 
z
" transform="scale(0.015625)"/>
       <path id="DejaVuSans-28" d="M 1984 4856 
Q 1566 4138 1362 3434 
Q 1159 2731 1159 2009 
Q 1159 1288 1364 580 
Q 1569 -128 1984 -844 
L 1484 -844 
Q 1016 -109 783 600 
Q 550 1309 550 2009 
Q 550 2706 781 3412 
Q 1013 4119 1484 4856 
L 1984 4856 
z
" transform="scale(0.015625)"/>
       <path id="DejaVuSans-29" d="M 513 4856 
L 1013 4856 
Q 1481 4119 1714 3412 
Q 1947 2706 1947 2009 
Q 1947 1309 1714 600 
Q 1481 -109 1013 -844 
L 513 -844 
Q 928 -128 1133 580 
Q 1338 1288 1338 2009 
Q 1338 2731 1133 3434 
Q 928 4138 513 4856 
z
" transform="scale(0.015625)"/>
      </defs>
      <use xlink:href="#DejaVuSans-Oblique-78" transform="translate(0 0.125)"/>
      <use xlink:href="#DejaVuSans-Oblique-69" transform="translate(59.179688 -16.28125) scale(0.7)"/>
      <use xlink:href="#DejaVuSans-28" transform="translate(81.362305 0.125)"/>
      <use xlink:href="#DejaVuSans-Oblique-74" transform="translate(120.375977 0.125)"/>
      <use xlink:href="#DejaVuSans-29" transform="translate(159.584961 0.125)"/>
     </g>
    </g>
   </g>
   <g id="line2d_9">
    <path d="M 73.832727 222.42816 
L 74.725527 144.232586 
L 74.904087 141.411991 
L 74.92032 141.436028 
L 75.001484 142.226516 
L 75.163811 146.942631 
L 75.439767 162.855546 
L 76.88448 259.635162 
L 77.127971 262.789173 
L 77.160436 262.84087 
L 77.209135 262.750173 
L 77.322764 261.729226 
L 77.501324 257.681768 
L 77.761047 245.840928 
L 78.118167 217.574589 
L 78.929804 149.834738 
L 79.140829 145.975063 
L 79.189527 146.144605 
L 79.303156 147.995325 
L 79.514182 156.272028 
L 79.887535 181.86291 
L 80.8128 247.225367 
L 81.16992 258.065706 
L 81.364713 259.690568 
L 81.380945 259.684134 
L 81.445876 259.433092 
L 81.575738 257.814158 
L 81.786764 251.776693 
L 82.078953 235.822966 
L 82.549702 194.825171 
L 83.069149 155.968418 
L 83.31264 150.323205 
L 83.345105 150.282902 
L 83.377571 150.405506 
L 83.4912 152.072457 
L 83.702225 159.772522 
L 84.075578 183.832868 
L 85.000844 245.473963 
L 85.341731 255.191484 
L 85.536524 256.645185 
L 85.601455 256.434648 
L 85.731316 254.919728 
L 85.942342 249.15709 
L 86.234531 233.983336 
L 86.721513 194.147383 
L 87.224727 159.530989 
L 87.468218 154.356998 
L 87.500684 154.33446 
L 87.533149 154.464895 
L 87.646778 156.084747 
L 87.857804 163.421983 
L 88.231156 186.18031 
L 89.140189 243.348572 
L 89.481076 252.493133 
L 89.659636 253.718035 
L 89.675869 253.702215 
L 89.757033 253.295622 
L 89.903127 251.146527 
L 90.130385 243.982942 
L 90.45504 225.543533 
L 91.493935 158.999406 
L 91.607564 158.12193 
L 91.640029 158.198304 
L 91.737425 159.267978 
L 91.915985 164.252817 
L 92.24064 181.067851 
L 93.360698 245.114847 
L 93.652887 250.546187 
L 93.750284 250.914029 
L 93.798982 250.816257 
L 93.912611 249.837786 
L 94.107404 245.624157 
L 94.38336 233.97939 
L 94.821644 204.104281 
L 95.422255 166.455753 
L 95.665745 161.726742 
L 95.698211 161.677998 
L 95.730676 161.763768 
L 95.828073 162.806348 
L 96.022865 168.139147 
L 96.363753 185.337818 
L 97.402647 241.907449 
L 97.711069 247.818514 
L 97.824698 248.234631 
L 97.857164 248.171693 
L 97.970793 247.299223 
L 98.165585 243.37311 
L 98.441542 232.44961 
L 98.879825 204.594055 
L 99.480436 169.54446 
L 99.723927 165.056086 
L 99.756393 164.998993 
L 99.805091 165.148399 
L 99.91872 166.55799 
L 100.129745 172.729842 
L 100.503098 191.663663 
L 101.395898 238.076199 
L 101.720553 244.991095 
L 101.866647 245.689346 
L 101.899113 245.630844 
L 101.996509 244.977904 
L 102.175069 241.879136 
L 102.434793 232.924898 
L 102.840611 209.952809 
L 103.522385 172.226011 
L 103.765876 168.141817 
L 103.798342 168.100153 
L 103.830807 168.17535 
L 103.928204 169.084748 
L 104.122996 173.742476 
L 104.463884 188.804534 
L 105.502778 238.340429 
L 105.794967 243.012473 
L 105.876131 243.275687 
L 105.924829 243.208879 
L 106.038458 242.385141 
L 106.233251 238.755832 
L 106.52544 228.122474 
L 107.028655 199.463249 
L 107.548102 174.644971 
L 107.791593 171.012033 
L 107.824058 170.994271 
L 107.856524 171.084939 
L 107.970153 172.232329 
L 108.181178 177.483251 
L 108.554531 193.901559 
L 109.463564 235.124389 
L 109.771985 240.547735 
L 109.885615 240.991413 
L 109.934313 240.913158 
L 110.047942 240.092167 
L 110.242735 236.577337 
L 110.534924 226.445686 
L 111.070604 197.851832 
L 111.557585 176.901425 
L 111.801076 173.688468 
L 111.833542 173.692654 
L 111.849775 173.732504 
L 111.947171 174.489025 
L 112.125731 178.028443 
L 112.434153 189.328532 
L 113.586676 236.162498 
L 113.8464 238.803906 
L 113.895098 238.822733 
L 113.927564 238.749267 
L 114.041193 237.9444 
L 114.235985 234.567842 
L 114.528175 224.960733 
L 115.09632 196.650278 
L 115.550836 179.05803 
L 115.778095 176.210756 
L 115.81056 176.181403 
L 115.843025 176.245649 
L 115.940422 176.987686 
L 116.135215 180.764635 
L 116.459869 192.312566 
L 117.531229 233.663437 
L 117.807185 236.732671 
L 117.855884 236.800246 
L 117.904582 236.720917 
L 118.018211 235.958522 
L 118.213004 232.764342 
L 118.505193 223.728094 
L 119.105804 195.8963 
L 119.544087 180.82475 
L 119.771345 178.508774 
L 119.820044 178.569092 
L 119.933673 179.452472 
L 120.128465 183.194112 
L 120.469353 194.852546 
L 121.475782 231.505964 
L 121.751738 234.750155 
L 121.832902 234.882544 
L 121.865367 234.82723 
L 121.978996 234.141482 
L 122.173789 231.185214 
L 122.465978 222.777401 
L 123.066589 196.945029 
L 123.504873 182.897668 
L 123.732131 180.672895 
L 123.780829 180.711305 
L 123.797062 180.764094 
L 123.910691 181.67892 
L 124.121716 185.702321 
L 124.495069 198.181927 
L 125.387869 229.02893 
L 125.680058 232.83109 
L 125.777455 233.090052 
L 125.826153 233.022341 
L 125.939782 232.347626 
L 126.134575 229.514846 
L 126.442996 221.013227 
L 127.644218 182.79142 
L 127.709149 182.672661 
L 127.757847 182.779161 
L 127.887709 183.857374 
L 128.114967 188.251326 
L 128.520785 201.511596 
L 129.316189 227.170943 
L 129.624611 231.139217 
L 129.722007 231.403591 
L 129.770705 231.3496 
L 129.884335 230.736254 
L 130.079127 228.108277 
L 130.387549 220.19633 
L 131.588771 184.659088 
L 131.653702 184.532773 
L 131.7024 184.619224 
L 131.816029 185.409243 
L 132.027055 188.880367 
L 132.400407 199.681782 
L 133.293207 226.48068 
L 133.585396 229.660841 
L 133.66656 229.823671 
L 133.715258 229.765057 
L 133.828887 229.169209 
L 134.02368 226.668413 
L 134.332102 219.223653 
L 135.517091 186.432049 
L 135.598255 186.260581 
L 135.646953 186.349358 
L 135.776815 187.268332 
L 136.004073 191.040357 
L 136.409891 202.499621 
L 137.205295 224.803819 
L 137.513716 228.163617 
L 137.611113 228.342323 
L 137.643578 228.303798 
L 137.757207 227.78035 
L 137.952 225.494028 
L 138.260422 218.614568 
L 139.461644 187.985597 
L 139.526575 187.861537 
L 139.575273 187.923745 
L 139.688902 188.574548 
L 139.899927 191.515193 
L 140.257047 200.323581 
L 141.198545 224.587573 
L 141.474502 226.888256 
L 141.539433 226.959314 
L 141.588131 226.891319 
L 141.717993 226.200496 
L 141.929018 223.533166 
L 142.269905 215.718215 
L 143.292567 190.064839 
L 143.454895 189.347445 
L 143.48736 189.368413 
L 143.584756 189.754771 
L 143.763316 191.655162 
L 144.071738 197.900426 
L 145.256727 224.847183 
L 145.467753 225.665093 
L 145.548916 225.495052 
L 145.695011 224.506781 
L 145.938502 220.998011 
L 146.328087 211.566501 
L 147.107258 192.565969 
L 147.350749 190.752568 
L 147.399447 190.729693 
L 147.431913 190.777552 
L 147.545542 191.334461 
L 147.756567 193.858766 
L 148.113687 201.453596 
L 149.055185 222.481746 
L 149.331142 224.414783 
L 149.396073 224.453874 
L 149.428538 224.412356 
L 149.542167 223.946265 
L 149.73696 222.010902 
L 150.045382 216.34137 
L 151.197905 192.268131 
L 151.311535 192.002139 
L 151.344 192.0316 
L 151.457629 192.496635 
L 151.652422 194.520473 
L 151.993309 200.970286 
L 153.015971 221.924788 
L 153.259462 223.305669 
L 153.324393 223.318931 
L 153.356858 223.268312 
L 153.48672 222.685052 
L 153.697745 220.478277 
L 154.038633 214.120163 
L 155.028829 193.987872 
L 155.223622 193.185901 
L 155.239855 193.189432 
L 155.321018 193.368155 
L 155.483345 194.501448 
L 155.759302 198.475861 
L 156.359913 211.534391 
L 156.87936 220.44106 
L 157.155316 222.223785 
L 157.23648 222.270939 
L 157.268945 222.227318 
L 157.398807 221.696597 
L 157.609833 219.657883 
L 157.95072 213.763535 
L 158.957149 194.938245 
L 159.151942 194.284925 
L 159.233105 194.437366 
L 159.395433 195.462446 
L 159.655156 198.844899 
L 160.190836 209.558067 
L 160.758982 219.225954 
L 161.051171 221.210768 
L 161.148567 221.291598 
L 161.181033 221.251783 
L 161.310895 220.759561 
L 161.52192 218.862191 
L 161.862807 213.381547 
L 162.853004 196.029285 
L 163.064029 195.301739 
L 163.145193 195.437682 
L 163.291287 196.244947 
L 163.551011 199.256228 
L 164.054225 208.490679 
L 164.671069 218.458575 
L 164.963258 220.305143 
L 165.060655 220.377386 
L 165.09312 220.33906 
L 165.222982 219.874822 
L 165.434007 218.097777 
L 165.774895 212.989024 
L 166.765091 196.915893 
L 166.976116 196.244905 
L 167.05728 196.371458 
L 167.203375 197.120215 
L 167.463098 199.91338 
L 167.966313 208.49277 
L 168.583156 217.76184 
L 168.875345 219.464902 
L 168.972742 219.524411 
L 169.005207 219.485943 
L 169.135069 219.041955 
L 169.346095 217.368756 
L 169.686982 212.5968 
L 170.677178 197.727153 
L 170.888204 197.119687 
L 170.9856 197.289742 
L 171.147927 198.179932 
L 171.423884 201.192835 
L 172.05696 211.493178 
L 172.543942 217.527403 
L 172.803665 218.708874 
L 172.884829 218.728724 
L 172.917295 218.689014 
L 173.047156 218.259716 
L 173.274415 216.513518 
L 173.631535 211.698827 
L 174.540567 198.769551 
L 174.767825 197.93382 
L 174.865222 198.013809 
L 175.011316 198.615666 
L 175.254807 200.769262 
L 175.709324 207.281294 
L 176.391098 216.409322 
L 176.683287 217.932262 
L 176.780684 217.997786 
L 176.813149 217.968845 
L 176.943011 217.600476 
L 177.154036 216.174309 
L 177.494924 212.07782 
L 178.48512 199.240888 
L 178.696145 198.680144 
L 178.793542 198.807139 
L 178.955869 199.541458 
L 179.231825 202.091952 
L 179.816204 210.282321 
L 180.335651 216.123935 
L 180.611607 217.283805 
L 180.709004 217.294089 
L 180.725236 217.275072 
L 180.855098 216.911432 
L 181.082356 215.411561 
L 181.439476 211.26661 
L 182.348509 200.125885 
L 182.592 199.377353 
L 182.689396 199.471792 
L 182.851724 200.115592 
L 183.111447 202.25895 
L 183.630895 208.919286 
L 184.215273 215.397945 
L 184.491229 216.613021 
L 184.604858 216.663065 
L 184.621091 216.648135 
L 184.750953 216.331332 
L 184.961978 215.099181 
L 185.302865 211.563789 
L 186.293062 200.515788 
L 186.504087 200.022363 
L 186.601484 200.125176 
L 186.763811 200.745745 
L 187.039767 202.925277 
L 187.607913 209.78419 
L 188.143593 215.049392 
L 188.419549 216.054467 
L 188.533178 216.045503 
L 188.549411 216.023652 
L 188.695505 215.598796 
L 188.938996 214.034107 
L 189.344815 209.659051 
L 190.107753 201.537 
L 190.367476 200.63851 
L 190.481105 200.67439 
L 190.6272 201.100304 
L 190.870691 202.66623 
L 191.308975 207.290311 
L 192.023215 214.431294 
L 192.299171 215.47639 
L 192.4128 215.515314 
L 192.445265 215.483309 
L 192.59136 215.104959 
L 192.834851 213.674719 
L 193.240669 209.63559 
L 194.003607 202.065553 
L 194.263331 201.19862 
L 194.37696 201.215957 
L 194.393193 201.238295 
L 194.55552 201.725908 
L 194.815244 203.402237 
L 195.318458 208.534294 
L 195.919069 213.957478 
L 196.211258 214.977661 
L 196.34112 214.978822 
L 196.487215 214.641193 
L 196.714473 213.446079 
L 197.104058 209.944839 
L 197.931927 202.384728 
L 198.191651 201.695444 
L 198.30528 201.762585 
L 198.467607 202.239883 
L 198.727331 203.827592 
L 199.246778 208.781163 
L 199.831156 213.608559 
L 200.107113 214.495907 
L 200.236975 214.508242 
L 200.253207 214.491095 
L 200.415535 214.095059 
L 200.659025 212.788713 
L 201.081076 209.077778 
L 201.795316 202.994644 
L 202.071273 202.184809 
L 202.201135 202.225802 
L 202.363462 202.652699 
L 202.623185 204.104696 
L 203.1264 208.535915 
L 203.727011 213.203199 
L 204.0192 214.064691 
L 204.165295 214.03624 
L 204.327622 213.641905 
L 204.587345 212.285632 
L 205.041862 208.463301 
L 205.691171 203.402939 
L 205.967127 202.630254 
L 206.096989 202.657144 
L 206.259316 203.039575 
L 206.51904 204.368568 
L 207.006022 208.3265 
L 207.622865 212.829901 
L 207.915055 213.649224 
L 208.061149 213.632017 
L 208.223476 213.275154 
L 208.4832 212.028028 
L 208.937716 208.490688 
L 209.587025 203.778229 
L 209.862982 203.043144 
L 210.009076 203.076915 
L 210.171404 203.45486 
L 210.431127 204.718257 
L 210.934342 208.547796 
L 211.534953 212.555237 
L 211.810909 213.263386 
L 211.957004 213.255379 
L 212.119331 212.932078 
L 212.379055 211.784713 
L 212.833571 208.510568 
L 213.499113 204.056997 
L 213.775069 203.414668 
L 213.921164 203.467266 
L 214.099724 203.894465 
L 214.391913 205.334286 
L 215.706764 212.905115 
L 215.852858 212.904615 
L 216.015185 212.611451 
L 216.274909 211.555395 
L 216.729425 208.524428 
L 217.394967 204.378885 
L 217.670924 203.769269 
L 217.817018 203.810039 
L 217.995578 204.196888 
L 218.271535 205.428508 
L 218.872145 209.460344 
L 219.37536 212.105831 
L 219.635084 212.593997 
L 219.781178 212.547523 
L 219.959738 212.178419 
L 220.235695 211.006408 
L 220.787607 207.418023 
L 221.307055 204.619612 
L 221.583011 204.089768 
L 221.729105 204.146792 
L 221.907665 204.527501 
L 222.199855 205.783575 
L 223.498473 212.263668 
L 223.6608 212.261925 
L 223.83936 211.9534 
L 224.115316 210.908776 
L 224.634764 207.81125 
L 225.202909 204.896577 
L 225.478865 204.394483 
L 225.62496 204.441268 
L 225.80352 204.787277 
L 226.095709 205.9435 
L 227.41056 211.98862 
L 227.572887 211.96722 
L 227.751447 211.659566 
L 228.027404 210.662306 
L 228.579316 207.57993 
L 229.114996 205.105275 
L 229.390953 204.671259 
L 229.55328 204.750868 
L 229.764305 205.21234 
L 230.08896 206.565838 
L 231.176553 211.567863 
L 231.403811 211.740935 
L 231.566138 211.58701 
L 231.809629 210.948569 
L 232.199215 209.159401 
L 233.027084 205.302309 
L 233.286807 204.933208 
L 233.449135 205.001787 
L 233.66016 205.423504 
L 233.984815 206.672444 
L 235.08864 211.35381 
L 235.315898 211.490466 
L 235.494458 211.302697 
L 235.754182 210.601915 
L 236.192465 208.621098 
L 236.890473 205.605867 
L 237.166429 205.182135 
L 237.328756 205.219627 
L 237.523549 205.540083 
L 237.831971 206.566818 
L 239.049425 211.2077 
L 239.244218 211.249116 
L 239.422778 211.035657 
L 239.698735 210.279293 
L 240.201949 208.071912 
L 240.786327 205.807079 
L 241.062284 205.407496 
L 241.240844 205.452073 
L 241.451869 205.804691 
L 241.776524 206.868667 
L 242.896582 210.943851 
L 243.12384 211.045388 
L 243.3024 210.870517 
L 243.562124 210.249903 
L 244.01664 208.458074 
L 244.682182 205.992991 
L 244.974371 205.610615 
L 245.152931 205.668137 
L 245.380189 206.050622 
L 245.737309 207.205996 
L 246.727505 210.661026 
L 246.987229 210.855669 
L 247.165789 210.733787 
L 247.40928 210.25217 
L 247.815098 208.852205 
L 248.610502 206.098984 
L 248.886458 205.800463 
L 249.065018 205.868899 
L 249.292276 206.241037 
L 249.649396 207.331327 
L 250.62336 210.486944 
L 250.883084 210.672102 
L 251.077876 210.542382 
L 251.3376 210.036173 
L 251.775884 208.578615 
L 252.490124 206.292151 
L 252.782313 205.980318 
L 252.977105 206.055371 
L 253.220596 206.452577 
L 253.610182 207.613469 
L 254.470516 210.251649 
L 254.746473 210.500347 
L 254.941265 210.41822 
L 255.184756 210.029045 
L 255.574342 208.9038 
L 256.434676 206.360595 
L 256.710633 206.143529 
L 256.905425 206.244854 
L 257.165149 206.684644 
L 257.603433 207.97421 
L 258.333905 210.054286 
L 258.626095 210.338682 
L 258.83712 210.267975 
L 259.080611 209.909545 
L 259.470196 208.867894 
L 260.330531 206.503489 
L 260.606487 206.298098 
L 260.817513 206.405402 
L 261.093469 206.864174 
L 261.564218 208.190506 
L 262.22976 209.923473 
L 262.521949 210.191237 
L 262.732975 210.128234 
L 262.992698 209.767295 
L 263.398516 208.738438 
L 264.210153 206.658075 
L 264.502342 206.441542 
L 264.713367 206.538217 
L 264.989324 206.960688 
L 265.460073 208.189292 
L 266.125615 209.802349 
L 266.434036 210.057219 
L 266.661295 209.971958 
L 266.937251 209.574866 
L 267.391767 208.442225 
L 268.089775 206.801005 
L 268.381964 206.576152 
L 268.609222 206.661732 
L 268.885178 207.050808 
L 269.355927 208.188889 
L 270.037702 209.712193 
L 270.346124 209.931827 
L 270.573382 209.839676 
L 270.865571 209.427043 
L 271.368785 208.225851 
L 271.985629 206.911548 
L 272.294051 206.698197 
L 272.521309 206.790039 
L 272.813498 207.193393 
L 273.332945 208.3923 
L 273.933556 209.606909 
L 274.241978 209.813838 
L 274.485469 209.716968 
L 274.777658 209.320874 
L 275.313338 208.118903 
L 275.897716 206.994659 
L 276.206138 206.812229 
L 276.449629 206.923172 
L 276.758051 207.35351 
L 277.40736 208.781188 
L 277.894342 209.577813 
L 278.186531 209.703861 
L 278.430022 209.573953 
L 278.754676 209.108177 
L 280.037062 206.927051 
L 280.296785 206.982674 
L 280.588975 207.311315 
L 281.092189 208.296429 
L 281.741498 209.436286 
L 282.04992 209.60346 
L 282.309644 209.497784 
L 282.634298 209.081057 
L 283.965382 207.019641 
L 284.225105 207.096467 
L 284.533527 207.449606 
L 285.134138 208.579578 
L 285.669818 209.381487 
L 285.97824 209.508509 
L 286.254196 209.372388 
L 286.611316 208.896057 
L 287.76384 207.138437 
L 288.039796 207.137047 
L 288.331985 207.378459 
L 288.786502 208.104743 
L 289.54944 209.287358 
L 289.874095 209.421145 
L 290.150051 209.296649 
L 290.507171 208.856255 
L 291.675927 207.216029 
L 291.968116 207.232618 
L 292.276538 207.497601 
L 292.795985 208.309299 
L 293.445295 209.213688 
L 293.769949 209.340011 
L 294.062138 209.213442 
L 294.435491 208.771212 
L 295.539316 207.306421 
L 295.847738 207.300846 
L 296.172393 207.551538 
L 296.69184 208.303679 
L 297.341149 209.145435 
L 297.682036 209.26374 
L 297.990458 209.123668 
L 298.396276 208.647897 
L 299.386473 207.400313 
L 299.711127 207.360796 
L 300.035782 207.569149 
L 300.522764 208.20219 
L 301.253236 209.093399 
L 301.594124 209.192547 
L 301.902545 209.05313 
L 302.324596 208.581333 
L 303.266095 207.473525 
L 303.606982 207.426873 
L 303.931636 207.61854 
L 304.434851 208.227265 
L 305.149091 209.034091 
L 305.506211 209.126129 
L 305.830865 208.975662 
L 306.285382 208.479783 
L 307.129484 207.550144 
L 307.486604 207.484866 
L 307.827491 207.664568 
L 308.346938 208.24922 
L 309.061178 208.988458 
L 309.418298 209.064198 
L 309.759185 208.903891 
L 310.2624 208.369656 
L 311.009105 207.613101 
L 311.366225 207.539656 
L 311.723345 207.707459 
L 312.242793 208.249038 
L 312.957033 208.936941 
L 313.330385 209.006481 
L 313.687505 208.837558 
L 314.239418 208.273392 
L 314.921193 207.654894 
L 315.294545 207.598245 
L 315.667898 207.783653 
L 316.284742 208.409562 
L 316.885353 208.904266 
L 317.258705 208.949687 
L 317.632058 208.764191 
L 318.281367 208.12346 
L 318.865745 207.681484 
L 319.239098 207.657577 
L 319.628684 207.867117 
L 321.105862 208.909664 
L 321.495447 208.753995 
L 322.096058 208.216257 
L 322.745367 207.731876 
L 323.134953 207.702365 
L 323.540771 207.907559 
L 324.985484 208.866624 
L 325.375069 208.731911 
L 325.97568 208.238453 
L 326.641222 207.772756 
L 327.04704 207.74752 
L 327.469091 207.956097 
L 328.848873 208.826517 
L 329.254691 208.710234 
L 329.855302 208.257881 
L 330.553309 207.805469 
L 330.97536 207.793368 
L 331.429876 208.023083 
L 332.679796 208.785943 
L 333.101847 208.70402 
L 333.669993 208.326177 
L 334.465396 207.836365 
L 334.90368 207.836485 
L 335.390662 208.084546 
L 336.526953 208.745224 
L 336.965236 208.687957 
L 337.517149 208.360829 
L 338.377484 207.865522 
L 338.815767 207.872504 
L 339.318982 208.118763 
L 340.406575 208.710015 
L 340.861091 208.660109 
L 341.445469 208.335271 
L 342.289571 207.893017 
L 342.744087 207.910197 
L 343.296 208.180135 
L 344.269964 208.674606 
L 344.740713 208.639289 
L 345.325091 208.343642 
L 346.201658 207.918927 
L 346.672407 207.945432 
L 347.256785 208.225233 
L 348.165818 208.646507 
L 348.6528 208.610082 
L 349.285876 208.303061 
L 350.113745 207.943324 
L 350.61696 207.983029 
L 351.282502 208.301599 
L 352.077905 208.622708 
L 352.58112 208.578383 
L 353.262895 208.25916 
L 354.025833 207.966282 
L 354.54528 208.013611 
L 355.275753 208.349938 
L 356.006225 208.60203 
L 356.525673 208.544056 
L 357.337309 208.175242 
L 358.002851 207.982501 
L 358.538531 208.062473 
L 360.307898 208.554516 
L 360.989673 208.295913 
L 361.86624 208.006785 
L 362.418153 208.072994 
L 364.268684 208.521999 
L 365.064087 208.219611 
L 365.810793 208.02439 
L 366.395171 208.111976 
L 368.050909 208.526507 
L 368.748916 208.309955 
L 369.690415 208.044194 
L 370.291025 208.123939 
L 371.962996 208.507446 
L 372.709702 208.284954 
L 373.618735 208.060619 
L 374.251811 208.153485 
L 375.79392 208.499643 
L 376.524393 208.314293 
L 377.547055 208.076441 
L 378.212596 208.180863 
L 379.641076 208.488533 
L 380.371549 208.328806 
L 381.475375 208.091627 
L 382.173382 208.205973 
L 383.504465 208.476017 
L 384.251171 208.331399 
L 385.403695 208.106153 
L 386.1504 208.233248 
L 387.384087 208.463241 
L 388.163258 208.324541 
L 389.315782 208.11955 
L 390.094953 208.249234 
L 391.296175 208.450225 
L 392.107811 208.310119 
L 393.227869 208.13204 
L 394.055738 208.267401 
L 395.192029 208.438687 
L 396.052364 208.297491 
L 397.156189 208.144238 
L 398.048989 208.290825 
L 398.487273 208.382472 
L 398.487273 208.382472 
" clip-path="url(#p21ac6cef2f)" style="fill: none; stroke: #bf00bf; stroke-width: 1.5; stroke-linecap: square"/>
   </g>
   <g id="line2d_10">
    <path d="M 73.832727 251.70048 
L 74.141149 260.952803 
L 74.287244 261.996929 
L 74.319709 261.964585 
L 74.417105 261.313175 
L 74.595665 258.017726 
L 74.855389 248.478993 
L 75.228742 225.372255 
L 76.462429 139.874628 
L 76.559825 139.232438 
L 76.592291 139.365971 
L 76.689687 140.839865 
L 76.868247 147.754262 
L 77.160436 169.625657 
L 78.1344 250.883379 
L 78.426589 258.112168 
L 78.540218 258.684961 
L 78.572684 258.635176 
L 78.67008 257.934519 
L 78.84864 254.562369 
L 79.124596 244.209744 
L 79.514182 219.851822 
L 80.601775 145.639584 
L 80.764102 143.647431 
L 80.780335 143.670901 
L 80.861498 144.419153 
L 81.007593 148.446779 
L 81.251084 162.444119 
L 81.770531 209.639102 
L 82.257513 244.569565 
L 82.565935 254.147554 
L 82.744495 255.476759 
L 82.760727 255.455788 
L 82.841891 255.00907 
L 83.004218 252.450846 
L 83.263942 243.921923 
L 83.637295 222.917418 
L 84.822284 148.681959 
L 84.935913 147.820052 
L 84.968378 147.922886 
L 85.065775 149.187476 
L 85.244335 155.226109 
L 85.536524 174.281968 
L 86.52672 246.240868 
L 86.802676 252.018055 
L 86.900073 252.39009 
L 86.932538 252.331116 
L 87.029935 251.619822 
L 87.208495 248.297889 
L 87.484451 238.288773 
L 87.890269 214.31332 
L 88.848 154.811675 
L 89.059025 151.742506 
L 89.107724 151.894499 
L 89.221353 153.559551 
L 89.416145 160.623505 
L 89.7408 182.186444 
L 90.584902 241.180915 
L 90.893324 248.781316 
L 91.023185 249.429192 
L 91.055651 249.367497 
L 91.153047 248.661345 
L 91.331607 245.401587 
L 91.607564 235.656818 
L 92.029615 211.550008 
L 92.922415 158.960123 
L 93.149673 155.430643 
L 93.198371 155.526971 
L 93.295767 156.664798 
L 93.474327 161.99597 
L 93.766516 178.601332 
L 94.772945 241.873701 
L 95.032669 246.37338 
L 95.113833 246.602108 
L 95.162531 246.481108 
L 95.27616 245.465329 
L 95.487185 240.964474 
L 95.795607 228.784011 
L 96.315055 197.657844 
L 96.931898 164.02673 
L 97.191622 158.959425 
L 97.224087 158.875573 
L 97.272785 158.992547 
L 97.386415 160.410838 
L 97.581207 166.497073 
L 97.905862 185.070813 
L 98.766196 237.196465 
L 99.058385 243.400304 
L 99.172015 243.912541 
L 99.20448 243.870746 
L 99.301876 243.256215 
L 99.480436 240.288519 
L 99.756393 231.354641 
L 100.194676 208.591266 
L 101.006313 166.065318 
L 101.249804 162.134958 
L 101.282269 162.102042 
L 101.314735 162.190242 
L 101.412131 163.1872 
L 101.590691 167.823555 
L 101.899113 183.149986 
L 102.889309 237.280881 
L 103.149033 241.201237 
L 103.213964 241.358343 
L 103.262662 241.266704 
L 103.376291 240.370771 
L 103.571084 236.705106 
L 103.879505 225.926423 
L 104.415185 197.463796 
L 105.015796 169.246769 
L 105.27552 165.141884 
L 105.307985 165.112731 
L 105.340451 165.196453 
L 105.437847 166.129219 
L 105.616407 170.446351 
L 105.924829 184.671004 
L 106.915025 235.144822 
L 107.174749 238.807928 
L 107.23968 238.939677 
L 107.288378 238.838217 
L 107.402007 237.948981 
L 107.613033 233.983384 
L 107.937687 222.668267 
L 108.570764 190.325405 
L 109.057745 170.917212 
L 109.285004 167.94195 
L 109.317469 167.921239 
L 109.349935 168.005599 
L 109.463564 169.13206 
L 109.658356 173.986222 
L 109.983011 188.766536 
L 110.875811 231.978335 
L 111.151767 236.386337 
L 111.249164 236.653726 
L 111.281629 236.596862 
L 111.395258 235.836118 
L 111.590051 232.583028 
L 111.898473 222.93809 
L 112.450385 196.973 
L 113.018531 174.047985 
L 113.262022 170.596868 
L 113.31072 170.536359 
L 113.343185 170.617959 
L 113.456815 171.675094 
L 113.651607 176.193776 
L 113.976262 189.901659 
L 114.885295 230.526764 
L 115.161251 234.347101 
L 115.226182 234.50335 
L 115.27488 234.438418 
L 115.388509 233.692471 
L 115.583302 230.562635 
L 115.891724 221.369279 
L 116.476102 195.450419 
L 116.995549 176.28036 
L 117.255273 172.987706 
L 117.287738 172.967224 
L 117.320204 173.037384 
L 117.433833 173.998527 
L 117.628625 178.153897 
L 117.95328 190.807208 
L 118.862313 228.70256 
L 119.138269 232.326748 
L 119.219433 232.47383 
L 119.251898 232.417614 
L 119.365527 231.71371 
L 119.56032 228.750629 
L 119.868742 220.060435 
L 120.469353 195.076656 
L 120.972567 178.113828 
L 121.216058 175.263206 
L 121.248524 175.226396 
L 121.297222 175.328787 
L 121.410851 176.304198 
L 121.605644 180.28648 
L 121.946531 192.857259 
L 122.823098 226.886336 
L 123.099055 230.405733 
L 123.180218 230.573708 
L 123.228916 230.487809 
L 123.342545 229.754536 
L 123.553571 226.511197 
L 123.878225 217.400877 
L 125.128145 177.542836 
L 125.209309 177.329625 
L 125.258007 177.434846 
L 125.371636 178.362373 
L 125.582662 182.509012 
L 125.939782 195.095447 
L 126.767651 225.055787 
L 127.043607 228.570088 
L 127.141004 228.786382 
L 127.173469 228.740753 
L 127.287098 228.126715 
L 127.481891 225.501781 
L 127.790313 217.798064 
L 128.455855 193.594633 
L 128.910371 181.260281 
L 129.137629 179.290912 
L 129.186327 179.317519 
L 129.20256 179.362551 
L 129.316189 180.182856 
L 129.510982 183.567006 
L 129.851869 194.294562 
L 130.744669 224.114834 
L 131.020625 227.017867 
L 131.085556 227.11435 
L 131.134255 227.041325 
L 131.247884 226.395597 
L 131.458909 223.51974 
L 131.783564 215.45969 
L 133.001018 181.381341 
L 133.098415 181.095161 
L 133.147113 181.176936 
L 133.260742 181.952325 
L 133.455535 185.108179 
L 133.796422 195.059799 
L 134.705455 223.027941 
L 134.965178 225.462957 
L 135.030109 225.546703 
L 135.078807 225.472697 
L 135.208669 224.713917 
L 135.419695 221.835109 
L 135.760582 213.589109 
L 136.896873 183.312607 
L 137.026735 182.779042 
L 137.0592 182.799136 
L 137.156596 183.231265 
L 137.335156 185.435899 
L 137.627345 192.431325 
L 138.763636 223.179696 
L 138.958429 224.08188 
L 138.974662 224.07693 
L 139.055825 223.869754 
L 139.218153 222.568571 
L 139.477876 218.244542 
L 139.91616 206.431004 
L 140.662865 186.712808 
L 140.922589 184.384642 
L 140.971287 184.341621 
L 141.019985 184.427634 
L 141.149847 185.28492 
L 141.360873 188.520861 
L 141.734225 198.447101 
L 142.529629 219.856222 
L 142.805585 222.551465 
L 142.902982 222.708935 
L 142.935447 222.669272 
L 143.049076 222.174059 
L 143.243869 220.094053 
L 143.568524 213.674653 
L 144.802211 185.979186 
L 144.899607 185.791375 
L 144.932073 185.834682 
L 145.045702 186.403257 
L 145.240495 188.82725 
L 145.565149 196.171648 
L 146.539113 219.836627 
L 146.782604 221.407023 
L 146.847535 221.414546 
L 146.88 221.353782 
L 147.009862 220.689214 
L 147.23712 218.000677 
L 147.59424 210.608888 
L 148.600669 188.152146 
L 148.811695 187.132704 
L 148.876625 187.231352 
L 149.006487 188.01432 
L 149.233745 191.144264 
L 149.623331 200.294687 
L 150.370036 217.611233 
L 150.662225 220.119784 
L 150.743389 220.238243 
L 150.792087 220.187903 
L 150.905716 219.722429 
L 151.116742 217.632296 
L 151.457629 211.450594 
L 152.577687 188.87766 
L 152.740015 188.381164 
L 152.756247 188.393578 
L 152.853644 188.706584 
L 153.032204 190.313387 
L 153.324393 195.4214 
L 154.493149 218.621163 
L 154.671709 219.122093 
L 154.687942 219.110695 
L 154.785338 218.845735 
L 154.963898 217.515386 
L 155.256087 213.263836 
L 155.824233 200.798342 
L 156.359913 191.130227 
L 156.619636 189.549335 
L 156.684567 189.564357 
L 156.7008 189.594437 
L 156.830662 190.210849 
L 157.041687 192.560837 
L 157.41504 199.816271 
L 158.242909 216.218934 
L 158.518865 218.02917 
L 158.600029 218.076908 
L 158.632495 218.034119 
L 158.762356 217.516042 
L 158.973382 215.556756 
L 159.330502 209.686779 
L 160.353164 191.384308 
L 160.564189 190.607417 
L 160.645353 190.742646 
L 160.791447 191.591115 
L 161.034938 194.585031 
L 161.489455 203.592557 
L 162.122531 215.001877 
L 162.41472 217.026233 
L 162.512116 217.111066 
L 162.544582 217.073183 
L 162.674444 216.59708 
L 162.885469 214.777655 
L 163.242589 209.311579 
L 164.265251 192.315036 
L 164.476276 191.601495 
L 164.55744 191.729029 
L 164.703535 192.518222 
L 164.947025 195.293755 
L 165.401542 203.6399 
L 166.034618 214.242805 
L 166.326807 216.13078 
L 166.424204 216.209857 
L 166.456669 216.17442 
L 166.586531 215.729406 
L 166.797556 214.029361 
L 167.154676 208.928228 
L 168.177338 193.166892 
L 168.388364 192.523679 
L 168.469527 192.648684 
L 168.615622 193.391086 
L 168.859113 195.976257 
L 169.313629 203.719799 
L 169.946705 213.5551 
L 170.238895 215.30078 
L 170.336291 215.369513 
L 170.368756 215.33475 
L 170.498618 214.912668 
L 170.709644 213.315704 
L 171.066764 208.546372 
L 172.073193 194.045253 
L 172.284218 193.377456 
L 172.365382 193.464816 
L 172.511476 194.1024 
L 172.754967 196.424026 
L 173.193251 203.256338 
L 173.858793 212.928892 
L 174.150982 214.530734 
L 174.248378 214.586145 
L 174.280844 214.550826 
L 174.410705 214.145675 
L 174.637964 212.483043 
L 175.011316 207.682933 
L 175.952815 194.94982 
L 176.180073 194.172464 
L 176.277469 194.263041 
L 176.423564 194.874966 
L 176.667055 197.054684 
L 177.121571 203.670434 
L 177.77088 212.355896 
L 178.046836 213.786849 
L 178.160465 213.855935 
L 178.176698 213.840709 
L 178.30656 213.496917 
L 178.517585 212.141648 
L 178.858473 208.261389 
L 179.897367 195.413476 
L 180.108393 194.905321 
L 180.205789 195.045564 
L 180.368116 195.796722 
L 180.644073 198.386378 
L 181.260916 207.123112 
L 181.731665 212.175191 
L 181.991389 213.169498 
L 182.088785 213.158877 
L 182.105018 213.136705 
L 182.251113 212.680804 
L 182.494604 210.969642 
L 182.900422 206.166959 
L 183.712058 196.556023 
L 183.971782 195.597751 
L 184.069178 195.635172 
L 184.215273 196.10097 
L 184.458764 197.884461 
L 184.880815 203.041325 
L 185.578822 211.228023 
L 185.871011 212.511634 
L 185.98464 212.540667 
L 186.000873 212.523046 
L 186.146967 212.124759 
L 186.374225 210.704063 
L 186.763811 206.544418 
L 187.624145 197.064734 
L 187.883869 196.223386 
L 187.981265 196.276347 
L 188.12736 196.734337 
L 188.370851 198.424023 
L 188.809135 203.442911 
L 189.490909 210.787869 
L 189.766865 211.917778 
L 189.880495 211.962888 
L 189.91296 211.930143 
L 190.059055 211.537368 
L 190.302545 210.056252 
L 190.708364 205.89905 
L 191.503767 197.718162 
L 191.763491 196.824844 
L 191.87712 196.848317 
L 192.023215 197.25326 
L 192.266705 198.790246 
L 192.688756 203.223792 
L 193.386764 210.279456 
L 193.678953 211.388722 
L 193.792582 211.412864 
L 193.808815 211.397429 
L 193.954909 211.050514 
L 194.182167 209.816012 
L 194.571753 206.210557 
L 195.432087 198.057508 
L 195.675578 197.358789 
L 195.789207 197.401748 
L 195.935302 197.803268 
L 196.178793 199.264748 
L 196.617076 203.585048 
L 197.298851 209.907515 
L 197.574807 210.877183 
L 197.704669 210.900057 
L 197.720902 210.883153 
L 197.866996 210.537947 
L 198.110487 209.246964 
L 198.516305 205.641652 
L 199.311709 198.613732 
L 199.571433 197.865449 
L 199.701295 197.916541 
L 199.863622 198.379802 
L 200.123345 199.949295 
L 200.62656 204.737051 
L 201.210938 209.559995 
L 201.486895 210.420844 
L 201.616756 210.421957 
L 201.632989 210.403724 
L 201.795316 210.003049 
L 202.05504 208.6079 
L 202.509556 204.663526 
L 203.191331 199.126343 
L 203.467287 198.335193 
L 203.597149 198.372001 
L 203.759476 198.788488 
L 204.0192 200.225472 
L 204.506182 204.498338 
L 205.106793 209.157513 
L 205.382749 209.980078 
L 205.528844 209.97625 
L 205.691171 209.616244 
L 205.950895 208.335476 
L 206.405411 204.682782 
L 207.087185 199.522142 
L 207.363142 198.770664 
L 207.493004 198.795778 
L 207.655331 199.170807 
L 207.915055 200.487577 
L 208.402036 204.43832 
L 209.002647 208.787168 
L 209.294836 209.585813 
L 209.440931 209.560806 
L 209.603258 209.203025 
L 209.862982 207.980466 
L 210.333731 204.423326 
L 210.98304 199.886519 
L 211.258996 199.174338 
L 211.405091 199.207954 
L 211.567418 199.580635 
L 211.827142 200.834388 
L 212.330356 204.653919 
L 212.914735 208.514614 
L 213.190691 209.205907 
L 213.336785 209.191644 
L 213.499113 208.868376 
L 213.758836 207.744103 
L 214.229585 204.448433 
L 214.878895 200.222203 
L 215.154851 199.548531 
L 215.300945 199.572176 
L 215.463273 199.909513 
L 215.722996 201.060618 
L 216.226211 204.594707 
L 216.810589 208.196393 
L 217.086545 208.853171 
L 217.23264 208.847729 
L 217.394967 208.55539 
L 217.654691 207.521079 
L 218.109207 204.584458 
L 218.790982 200.471556 
L 219.066938 199.884771 
L 219.213033 199.927869 
L 219.391593 200.312432 
L 219.667549 201.537582 
L 220.284393 205.656178 
L 220.771375 208.119501 
L 221.031098 208.551977 
L 221.177193 208.477029 
L 221.371985 208.03085 
L 221.680407 206.634315 
L 222.914095 200.246436 
L 223.076422 200.213114 
L 223.238749 200.462681 
L 223.498473 201.397212 
L 223.952989 204.077301 
L 224.602298 207.632175 
L 224.894487 208.233204 
L 225.056815 208.202037 
L 225.235375 207.869242 
L 225.527564 206.73462 
L 226.128175 203.197211 
L 226.631389 200.883561 
L 226.891113 200.492126 
L 227.037207 200.566396 
L 227.232 200.988203 
L 227.540422 202.2932 
L 228.709178 207.870124 
L 228.903971 207.960479 
L 229.066298 207.767238 
L 229.309789 207.056412 
L 229.73184 204.964454 
L 230.494778 201.227137 
L 230.770735 200.773762 
L 230.933062 200.83307 
L 231.127855 201.218558 
L 231.436276 202.421782 
L 232.605033 207.611125 
L 232.799825 207.701327 
L 232.962153 207.526757 
L 233.205644 206.872632 
L 233.611462 205.02073 
L 234.406865 201.415777 
L 234.682822 201.025174 
L 234.845149 201.098448 
L 235.056175 201.521023 
L 235.380829 202.765318 
L 236.452189 207.301232 
L 236.679447 207.464618 
L 236.841775 207.327641 
L 237.085265 206.752955 
L 237.474851 205.142929 
L 238.318953 201.594223 
L 238.578676 201.263148 
L 238.741004 201.327181 
L 238.952029 201.714273 
L 239.276684 202.862826 
L 240.364276 207.106276 
L 240.591535 207.236353 
L 240.770095 207.069049 
L 241.029818 206.438385 
L 241.468102 204.654852 
L 242.182342 201.86846 
L 242.458298 201.489084 
L 242.636858 201.53978 
L 242.847884 201.894474 
L 243.172538 202.954827 
L 244.260131 206.902135 
L 244.487389 207.028137 
L 244.665949 206.87663 
L 244.925673 206.295541 
L 245.363956 204.64304 
L 246.078196 202.050834 
L 246.370385 201.688712 
L 246.548945 201.75211 
L 246.776204 202.136742 
L 247.133324 203.287433 
L 248.107287 206.644158 
L 248.367011 206.837007 
L 248.561804 206.69742 
L 248.821527 206.161963 
L 249.259811 204.630873 
L 249.990284 202.187257 
L 250.26624 201.878702 
L 250.461033 201.949395 
L 250.688291 202.323677 
L 251.061644 203.468416 
L 251.986909 206.448273 
L 252.246633 206.657043 
L 252.441425 206.549519 
L 252.701149 206.077585 
L 253.1232 204.737444 
L 253.886138 202.345402 
L 254.178327 202.051592 
L 254.37312 202.132618 
L 254.616611 202.531883 
L 255.006196 203.6867 
L 255.850298 206.240856 
L 256.126255 206.487813 
L 256.321047 206.408543 
L 256.564538 206.029368 
L 256.954124 204.933901 
L 257.814458 202.4392 
L 258.090415 202.213203 
L 258.285207 202.302706 
L 258.544931 202.724242 
L 258.966982 203.934284 
L 259.72992 206.073 
L 260.022109 206.33184 
L 260.233135 206.246533 
L 260.492858 205.8461 
L 260.914909 204.696208 
L 261.69408 202.602019 
L 261.986269 202.364842 
L 262.197295 202.460527 
L 262.457018 202.866918 
L 262.895302 204.05258 
L 263.625775 205.94273 
L 263.917964 206.18701 
L 264.128989 206.110648 
L 264.388713 205.741781 
L 264.810764 204.676657 
L 265.589935 202.729015 
L 265.882124 202.505559 
L 266.093149 202.591776 
L 266.369105 202.997989 
L 266.823622 204.156394 
L 267.521629 205.822137 
L 267.813818 206.052536 
L 268.041076 205.970911 
L 268.317033 205.584558 
L 268.771549 204.480972 
L 269.469556 202.868564 
L 269.777978 202.636138 
L 270.005236 202.727643 
L 270.281193 203.118323 
L 270.768175 204.290182 
L 271.417484 205.710496 
L 271.725905 205.929531 
L 271.953164 205.841216 
L 272.245353 205.439806 
L 272.748567 204.268749 
L 273.381644 202.955437 
L 273.690065 202.756295 
L 273.917324 202.853603 
L 274.209513 203.258247 
L 274.745193 204.485198 
L 275.329571 205.626652 
L 275.637993 205.814524 
L 275.881484 205.70687 
L 276.189905 205.277434 
L 276.790516 203.937378 
L 277.309964 203.020475 
L 277.602153 202.868559 
L 277.845644 202.984741 
L 278.154065 203.415686 
L 278.868305 204.959103 
L 279.322822 205.621218 
L 279.598778 205.70142 
L 279.858502 205.532055 
L 280.215622 204.975318 
L 281.33568 203.016478 
L 281.611636 202.996849 
L 281.887593 203.234269 
L 282.293411 203.936985 
L 283.153745 205.471729 
L 283.462167 205.606654 
L 283.721891 205.47828 
L 284.062778 205.018689 
L 285.296465 203.084312 
L 285.556189 203.112739 
L 285.848378 203.391173 
L 286.319127 204.211876 
L 287.017135 205.356771 
L 287.341789 205.514814 
L 287.617745 205.397101 
L 287.958633 204.972354 
L 289.19232 203.173679 
L 289.468276 203.206327 
L 289.776698 203.496006 
L 290.296145 204.363276 
L 290.929222 205.294042 
L 291.253876 205.428487 
L 291.529833 205.308817 
L 291.886953 204.880178 
L 293.055709 203.267168 
L 293.347898 203.277504 
L 293.65632 203.532573 
L 294.159535 204.300379 
L 294.825076 205.221813 
L 295.165964 205.347874 
L 295.458153 205.214218 
L 295.847738 204.748777 
L 296.902865 203.363571 
L 297.211287 203.339539 
L 297.519709 203.551867 
L 297.990458 204.19518 
L 298.737164 205.166812 
L 299.078051 205.272635 
L 299.386473 205.126157 
L 299.808524 204.629432 
L 300.750022 203.457579 
L 301.074676 203.400895 
L 301.399331 203.589342 
L 301.87008 204.176588 
L 302.649251 205.114667 
L 302.990138 205.202448 
L 303.314793 205.044373 
L 303.769309 204.522209 
L 304.613411 203.538627 
L 304.954298 203.463429 
L 305.278953 203.625997 
L 305.749702 204.161418 
L 306.545105 205.055871 
L 306.902225 205.137006 
L 307.243113 204.968596 
L 307.730095 204.426984 
L 308.509265 203.59589 
L 308.866385 203.526994 
L 309.207273 203.699209 
L 309.710487 204.250822 
L 310.44096 205.001397 
L 310.79808 205.078473 
L 311.138967 204.923663 
L 311.642182 204.402424 
L 312.40512 203.648946 
L 312.76224 203.583387 
L 313.11936 203.754078 
L 313.65504 204.309608 
L 314.353047 204.959165 
L 314.7264 205.019213 
L 315.099753 204.833951 
L 315.700364 204.216922 
L 316.317207 203.690493 
L 316.69056 203.641285 
L 317.063913 203.82899 
L 317.696989 204.464435 
L 318.281367 204.926058 
L 318.65472 204.96302 
L 319.044305 204.762025 
L 319.791011 204.034036 
L 320.310458 203.70237 
L 320.683811 203.714594 
L 321.105862 203.978191 
L 322.355782 204.925811 
L 322.729135 204.857811 
L 323.199884 204.515234 
L 324.173847 203.756288 
L 324.563433 203.752315 
L 324.985484 203.987684 
L 326.284102 204.88447 
L 326.673687 204.797798 
L 327.193135 204.417962 
L 328.037236 203.807281 
L 328.443055 203.788194 
L 328.881338 204.00954 
L 330.196189 204.844309 
L 330.602007 204.749192 
L 331.170153 204.34525 
L 331.933091 203.844637 
L 332.355142 203.829362 
L 332.809658 204.05219 
L 334.075811 204.805598 
L 334.497862 204.719236 
L 335.08224 204.332486 
L 335.845178 203.874698 
L 336.283462 203.871577 
L 336.770444 204.112667 
L 337.906735 204.76431 
L 338.345018 204.710329 
L 338.913164 204.379701 
L 339.773498 203.899376 
L 340.228015 203.915718 
L 340.763695 204.189166 
L 341.753891 204.724523 
L 342.208407 204.693338 
L 342.76032 204.408878 
L 343.701818 203.923706 
L 344.172567 203.957862 
L 344.756945 204.258265 
L 345.633513 204.691993 
L 346.104262 204.666982 
L 346.68864 204.383914 
L 347.597673 203.952338 
L 348.084655 203.987698 
L 348.701498 204.29002 
L 349.5456 204.667285 
L 350.032582 204.63359 
L 350.665658 204.333965 
L 351.493527 203.978887 
L 351.996742 204.015247 
L 352.662284 204.326606 
L 353.457687 204.644029 
L 353.960902 204.602506 
L 354.658909 204.282086 
L 355.421847 203.99926 
L 355.941295 204.050047 
L 356.704233 204.398685 
L 357.418473 204.62672 
L 357.954153 204.553616 
L 359.788451 204.055818 
L 360.502691 204.346087 
L 361.298095 204.603035 
L 361.850007 204.537338 
L 363.700538 204.077763 
L 364.479709 204.378277 
L 365.242647 204.585279 
L 365.827025 204.49775 
L 367.482764 204.073484 
L 368.180771 204.293276 
L 369.122269 204.565099 
L 369.72288 204.485464 
L 371.394851 204.09293 
L 372.125324 204.312632 
L 373.050589 204.548477 
L 373.683665 204.455402 
L 375.225775 204.101068 
L 375.940015 204.283327 
L 376.978909 204.532456 
L 377.644451 204.427522 
L 379.072931 204.112526 
L 379.803404 204.274366 
L 380.907229 204.517072 
L 381.605236 204.401927 
L 382.93632 204.125374 
L 383.683025 204.27181 
L 384.835549 204.502349 
L 385.566022 204.378673 
L 386.832175 204.139023 
L 387.611345 204.2834 
L 388.747636 204.488736 
L 389.526807 204.357774 
L 390.711796 204.151181 
L 391.5072 204.285157 
L 392.675956 204.475548 
L 393.503825 204.335113 
L 394.623884 204.163475 
L 395.467985 204.302582 
L 396.588044 204.463667 
L 397.464611 204.319093 
L 398.487273 204.173671 
L 398.487273 204.173671 
" clip-path="url(#p21ac6cef2f)" style="fill: none; stroke: #0000ff; stroke-width: 1.5; stroke-linecap: square"/>
   </g>
   <g id="line2d_11">
    <path d="M 73.832727 182.51136 
L 74.092451 201.569957 
L 74.985251 273.019082 
L 75.342371 283.885138 
L 75.618327 287.066173 
L 75.731956 287.34443 
L 75.780655 287.291193 
L 75.894284 286.761746 
L 76.089076 284.451987 
L 76.3488 278.088899 
L 76.657222 264.081024 
L 77.046807 234.580963 
L 77.712349 184.022092 
L 77.858444 181.649394 
L 77.890909 181.760909 
L 77.988305 183.485563 
L 78.166865 191.662156 
L 78.540218 222.241165 
L 79.140829 267.253177 
L 79.514182 280.51615 
L 79.806371 284.711078 
L 79.952465 285.229312 
L 79.984931 285.212295 
L 80.082327 284.873567 
L 80.244655 283.3172 
L 80.488145 278.361923 
L 80.780335 267.221 
L 81.153687 243.01697 
L 81.965324 187.261896 
L 82.06272 186.333439 
L 82.111418 186.594761 
L 82.225047 189.053436 
L 82.436073 199.718497 
L 83.020451 246.340504 
L 83.474967 271.716676 
L 83.832087 280.897207 
L 84.091811 283.082552 
L 84.156742 283.122954 
L 84.189207 283.069419 
L 84.302836 282.491607 
L 84.497629 280.019984 
L 84.757353 273.387945 
L 85.082007 258.508791 
L 85.552756 224.416469 
L 86.039738 193.702912 
L 86.218298 190.688327 
L 86.234531 190.707011 
L 86.299462 191.274715 
L 86.445556 195.328465 
L 86.70528 210.266147 
L 87.663011 271.263538 
L 88.003898 279.233554 
L 88.247389 281.041273 
L 88.296087 281.057948 
L 88.328553 281.006503 
L 88.442182 280.429524 
L 88.636975 277.9449 
L 88.896698 271.327677 
L 89.221353 256.771802 
L 89.7408 221.032528 
L 90.179084 197.02832 
L 90.341411 194.729966 
L 90.373876 194.808914 
L 90.471273 196.122286 
L 90.649833 202.42373 
L 91.006953 225.183011 
L 91.672495 265.628201 
L 92.045847 276.189884 
L 92.321804 278.942358 
L 92.386735 279.042961 
L 92.435433 278.985785 
L 92.549062 278.408306 
L 92.743855 275.920762 
L 93.003578 269.354789 
L 93.344465 254.303 
L 94.432058 198.475763 
L 94.448291 198.487679 
L 94.513222 198.948894 
L 94.659316 202.319218 
L 94.91904 214.866408 
L 95.941702 270.185029 
L 96.266356 276.120656 
L 96.461149 277.075623 
L 96.477382 277.072435 
L 96.558545 276.866961 
L 96.70464 275.691853 
L 96.931898 271.698526 
L 97.24032 261.598632 
L 97.662371 239.00824 
L 98.327913 204.062622 
L 98.506473 201.943626 
L 98.522705 201.976246 
L 98.603869 202.704319 
L 98.766196 206.842238 
L 99.074618 222.179874 
L 99.902487 265.635246 
L 100.259607 273.55439 
L 100.503098 275.166392 
L 100.568029 275.114487 
L 100.681658 274.539455 
L 100.876451 272.085109 
L 101.152407 265.210807 
L 101.509527 250.058453 
L 102.467258 205.519206 
L 102.548422 205.148533 
L 102.59712 205.341555 
L 102.710749 206.980005 
L 102.921775 213.968246 
L 103.392524 239.453636 
L 103.944436 264.321199 
L 104.301556 271.864471 
L 104.528815 273.326411 
L 104.577513 273.321085 
L 104.609978 273.255684 
L 104.73984 272.497254 
L 104.950865 269.530082 
L 105.243055 261.672323 
L 105.648873 243.6771 
L 106.395578 209.806217 
L 106.557905 208.110412 
L 106.590371 208.147481 
L 106.671535 208.790392 
L 106.833862 212.312982 
L 107.126051 224.482482 
L 108.035084 264.938502 
L 108.375971 270.755543 
L 108.570764 271.576152 
L 108.651927 271.400577 
L 108.798022 270.316767 
L 109.02528 266.622377 
L 109.333702 257.556929 
L 109.820684 235.266621 
L 110.372596 212.938418 
L 110.567389 210.842551 
L 110.583622 210.853255 
L 110.664785 211.33829 
L 110.827113 214.37099 
L 111.119302 225.313826 
L 112.077033 264.504259 
L 112.401687 269.314244 
L 112.564015 269.892928 
L 112.580247 269.88548 
L 112.661411 269.670751 
L 112.823738 268.350251 
L 113.067229 264.101794 
L 113.408116 253.559742 
L 114.544407 213.37802 
L 114.576873 213.381483 
L 114.593105 213.422807 
L 114.690502 214.218406 
L 114.869062 217.959862 
L 115.209949 231.012111 
L 116.005353 261.804792 
L 116.34624 267.41554 
L 116.541033 268.286701 
L 116.557265 268.284273 
L 116.638429 268.099829 
L 116.784524 267.043156 
L 117.011782 263.5317 
L 117.336436 254.599763 
L 117.920815 230.670362 
L 118.359098 217.127262 
L 118.537658 215.695786 
L 118.553891 215.708952 
L 118.635055 216.134569 
L 118.797382 218.706918 
L 119.089571 227.957605 
L 120.096 262.97452 
L 120.404422 266.489107 
L 120.518051 266.760074 
L 120.566749 266.709319 
L 120.680378 266.202381 
L 120.875171 264.066556 
L 121.16736 257.878785 
L 121.605644 242.796662 
L 122.287418 219.762256 
L 122.498444 217.84579 
L 122.547142 217.925167 
L 122.660771 218.87022 
L 122.871796 223.200054 
L 123.277615 237.526894 
L 123.943156 259.427003 
L 124.284044 264.533661 
L 124.478836 265.311345 
L 124.495069 265.306385 
L 124.576233 265.121186 
L 124.73856 263.950287 
L 124.982051 260.205222 
L 125.339171 250.65743 
L 126.378065 220.085049 
L 126.459229 219.827442 
L 126.507927 219.914335 
L 126.621556 220.810857 
L 126.832582 224.826521 
L 127.2384 238.065307 
L 127.903942 258.479325 
L 128.244829 263.252402 
L 128.439622 263.938903 
L 128.520785 263.787723 
L 128.66688 262.870867 
L 128.894138 259.814596 
L 129.235025 251.736367 
L 130.355084 221.758066 
L 130.420015 221.660661 
L 130.45248 221.722435 
L 130.566109 222.509806 
L 130.777135 226.136188 
L 131.16672 237.741217 
L 131.864727 257.73646 
L 132.205615 262.090038 
L 132.384175 262.643375 
L 132.400407 262.63459 
L 132.497804 262.375758 
L 132.676364 260.989306 
L 132.936087 256.920228 
L 133.341905 246.362592 
L 134.153542 224.573406 
L 134.348335 223.344038 
L 134.364567 223.349915 
L 134.445731 223.630948 
L 134.608058 225.403308 
L 134.884015 231.482392 
L 136.020305 259.856648 
L 136.280029 261.397991 
L 136.34496 261.407638 
L 136.377425 261.356178 
L 136.507287 260.776829 
L 136.718313 258.579647 
L 137.042967 252.36389 
L 137.692276 234.073481 
L 138.098095 225.929714 
L 138.292887 224.901959 
L 138.357818 225.049189 
L 138.48768 226.065556 
L 138.731171 230.262456 
L 139.250618 244.4537 
L 139.802531 256.89335 
L 140.110953 259.943048 
L 140.257047 260.269927 
L 140.289513 260.244207 
L 140.403142 259.873746 
L 140.597935 258.237615 
L 140.890124 253.543788 
L 141.377105 241.34527 
L 141.961484 228.055072 
L 142.204975 226.341448 
L 142.269905 226.412226 
L 142.383535 227.071973 
L 142.59456 229.955285 
L 142.984145 239.114255 
L 143.714618 255.752585 
L 144.039273 258.876455 
L 144.185367 259.187338 
L 144.217833 259.163002 
L 144.331462 258.811529 
L 144.526255 257.260654 
L 144.818444 252.830413 
L 145.321658 241.022433 
L 145.889804 229.211633 
L 146.133295 227.665928 
L 146.198225 227.737957 
L 146.328087 228.492569 
L 146.555345 231.583316 
L 146.993629 241.500793 
L 147.642938 254.977908 
L 147.967593 257.892746 
L 148.113687 258.169219 
L 148.146153 258.142109 
L 148.259782 257.794959 
L 148.454575 256.303826 
L 148.746764 252.097338 
L 149.266211 240.672041 
L 149.818124 230.241772 
L 150.045382 228.896626 
L 150.110313 228.933083 
L 150.126545 228.971805 
L 150.256407 229.69842 
L 150.483665 232.588035 
L 150.921949 241.784981 
L 151.571258 254.299745 
L 151.895913 256.982461 
L 152.025775 257.216672 
L 152.05824 257.199045 
L 152.171869 256.898515 
L 152.366662 255.535822 
L 152.658851 251.637121 
L 153.178298 241.030571 
L 153.730211 231.329024 
L 153.973702 230.020115 
L 154.054865 230.120653 
L 154.184727 230.836161 
L 154.411985 233.563178 
L 154.866502 242.461373 
L 155.499578 253.69888 
L 155.808 256.081392 
L 155.954095 256.319705 
L 155.970327 256.310204 
L 156.083956 256.043174 
L 156.278749 254.785348 
L 156.570938 251.156102 
L 157.090385 241.297815 
L 157.642298 232.302974 
L 157.885789 231.065539 
L 157.966953 231.145727 
L 158.096815 231.784223 
L 158.324073 234.26469 
L 158.762356 242.142882 
L 159.427898 253.159364 
L 159.73632 255.300717 
L 159.866182 255.482771 
L 159.898647 255.46041 
L 160.012276 255.169606 
L 160.207069 253.920426 
L 160.515491 250.186531 
L 161.132335 239.09916 
L 161.586851 232.91294 
L 161.814109 232.025636 
L 161.895273 232.140907 
L 162.041367 232.911612 
L 162.301091 235.847923 
L 162.869236 245.761315 
L 163.388684 252.97136 
L 163.680873 254.607318 
L 163.794502 254.691645 
L 163.826967 254.658212 
L 163.956829 254.271122 
L 164.167855 252.806162 
L 164.508742 248.536504 
L 165.612567 233.119781 
L 165.742429 232.921069 
L 165.774895 232.955745 
L 165.904756 233.426582 
L 166.115782 235.238329 
L 166.505367 240.962651 
L 167.268305 252.070813 
L 167.576727 253.847497 
L 167.706589 253.957856 
L 167.722822 253.944583 
L 167.852684 253.623601 
L 168.063709 252.313265 
L 168.388364 248.627419 
L 169.540887 233.869813 
L 169.654516 233.745173 
L 169.686982 233.779421 
L 169.816844 234.221706 
L 170.044102 236.075594 
L 170.44992 241.712363 
L 171.180393 251.52849 
L 171.488815 253.176122 
L 171.618676 253.270979 
L 171.634909 253.2574 
L 171.764771 252.947062 
L 171.975796 251.703782 
L 172.300451 248.23862 
L 173.436742 234.653272 
L 173.550371 234.501111 
L 173.582836 234.521913 
L 173.696465 234.817321 
L 173.891258 236.081836 
L 174.232145 240.063992 
L 175.157411 251.503724 
L 175.433367 252.602476 
L 175.546996 252.614033 
L 175.563229 252.594479 
L 175.709324 252.183108 
L 175.936582 250.739628 
L 176.309935 246.628765 
L 177.2352 235.772477 
L 177.446225 235.203939 
L 177.543622 235.313703 
L 177.705949 236.006471 
L 177.981905 238.443733 
L 179.280524 251.905375 
L 179.426618 252.037359 
L 179.442851 252.027136 
L 179.572713 251.767652 
L 179.783738 250.696094 
L 180.108393 247.693164 
L 181.244684 235.994528 
L 181.374545 235.858573 
L 181.407011 235.885135 
L 181.536873 236.229818 
L 181.764131 237.680166 
L 182.169949 242.13272 
L 182.916655 250.162619 
L 183.208844 251.401298 
L 183.338705 251.476509 
L 183.354938 251.464919 
L 183.4848 251.205905 
L 183.695825 250.178577 
L 184.036713 247.172409 
L 185.108073 236.698659 
L 185.2704 236.4571 
L 185.286633 236.463577 
L 185.400262 236.66395 
L 185.595055 237.606868 
L 185.919709 240.515308 
L 186.926138 250.299946 
L 187.185862 250.960505 
L 187.299491 250.900202 
L 187.461818 250.448628 
L 187.721542 248.898164 
L 188.159825 244.597339 
L 188.874065 237.814982 
L 189.133789 237.020992 
L 189.247418 237.081368 
L 189.409745 237.594497 
L 189.669469 239.331994 
L 190.221382 245.004698 
L 190.757062 249.506871 
L 191.049251 250.448174 
L 191.195345 250.429331 
L 191.357673 250.025097 
L 191.617396 248.601975 
L 192.039447 244.788424 
L 192.786153 238.222513 
L 193.029644 237.539506 
L 193.143273 237.580802 
L 193.289367 237.969173 
L 193.532858 239.367586 
L 194.003607 243.720344 
L 194.636684 248.999907 
L 194.928873 249.972898 
L 195.074967 250.004019 
L 195.221062 249.727933 
L 195.44832 248.722506 
L 195.821673 245.852126 
L 196.730705 238.468925 
L 196.957964 238.004926 
L 197.071593 238.092087 
L 197.250153 238.647995 
L 197.542342 240.495537 
L 198.776029 249.469942 
L 198.954589 249.598918 
L 199.100684 249.384454 
L 199.327942 248.507326 
L 199.685062 246.037502 
L 200.659025 238.784622 
L 200.870051 238.44513 
L 200.98368 238.543572 
L 201.16224 239.083291 
L 201.454429 240.823797 
L 202.671884 249.076477 
L 202.866676 249.20182 
L 203.012771 248.982295 
L 203.240029 248.136304 
L 203.613382 245.678893 
L 204.538647 239.233619 
L 204.765905 238.853729 
L 204.895767 238.962558 
L 205.09056 239.5541 
L 205.398982 241.354952 
L 206.51904 248.60957 
L 206.730065 248.849935 
L 206.87616 248.709116 
L 207.087185 248.079155 
L 207.41184 246.277602 
L 208.531898 239.360292 
L 208.710458 239.241197 
L 208.856553 239.451744 
L 209.083811 240.288436 
L 209.473396 242.763175 
L 210.2688 247.833663 
L 210.560989 248.490011 
L 210.707084 248.470484 
L 210.885644 248.13207 
L 211.1616 246.992667 
L 211.648582 243.790749 
L 212.265425 240.142013 
L 212.525149 239.595508 
L 212.671244 239.640365 
L 212.849804 240.036006 
L 213.141993 241.375313 
L 214.408145 248.127137 
L 214.586705 248.172763 
L 214.749033 247.932232 
L 214.992524 247.105181 
L 215.398342 244.802747 
L 216.177513 240.385415 
L 216.437236 239.91324 
L 216.583331 239.974098 
L 216.778124 240.413407 
L 217.086545 241.807716 
L 218.255302 247.766178 
L 218.466327 247.890496 
L 218.628655 247.697264 
L 218.872145 246.967805 
L 219.261731 244.964587 
L 220.0896 240.614594 
L 220.349324 240.209403 
L 220.495418 240.283964 
L 220.690211 240.712827 
L 220.998633 242.02965 
L 222.134924 247.469631 
L 222.345949 247.623429 
L 222.508276 247.472077 
L 222.735535 246.887941 
L 223.108887 245.183851 
L 224.034153 240.753547 
L 224.277644 240.485014 
L 224.423738 240.593565 
L 224.634764 241.090012 
L 224.991884 242.64396 
L 225.933382 247.028267 
L 226.193105 247.367854 
L 226.355433 247.297019 
L 226.566458 246.888147 
L 226.891113 245.667559 
L 228.043636 240.81542 
L 228.238429 240.762305 
L 228.416989 241.003832 
L 228.692945 241.859191 
L 229.244858 244.53544 
L 229.780538 246.691073 
L 230.072727 247.125291 
L 230.251287 247.068869 
L 230.462313 246.693503 
L 230.786967 245.564076 
L 231.939491 241.052615 
L 232.134284 240.997987 
L 232.312844 241.216648 
L 232.5888 242.002485 
L 233.12448 244.404891 
L 233.676393 246.49323 
L 233.968582 246.904433 
L 234.147142 246.856274 
L 234.358167 246.511612 
L 234.682822 245.466512 
L 235.835345 241.272123 
L 236.030138 241.216705 
L 236.208698 241.414787 
L 236.484655 242.13703 
L 237.020335 244.361882 
L 237.58848 246.345966 
L 237.880669 246.704305 
L 238.059229 246.643971 
L 238.286487 246.269022 
L 238.627375 245.191431 
L 239.682502 241.530286 
L 239.90976 241.414167 
L 240.08832 241.574102 
L 240.348044 242.164188 
L 240.818793 243.924217 
L 241.468102 246.140909 
L 241.760291 246.508397 
L 241.955084 246.460863 
L 242.182342 246.116047 
L 242.523229 245.118448 
L 243.578356 241.715239 
L 243.805615 241.603239 
L 244.000407 241.770798 
L 244.276364 242.381474 
L 244.795811 244.228436 
L 245.380189 246.015705 
L 245.672378 246.336191 
L 245.867171 246.277078 
L 246.110662 245.906152 
L 246.484015 244.830408 
L 247.425513 241.94886 
L 247.685236 241.776099 
L 247.880029 241.909452 
L 248.139753 242.40796 
L 248.610502 243.915266 
L 249.276044 245.86876 
L 249.568233 246.171423 
L 249.779258 246.106044 
L 250.022749 245.745293 
L 250.412335 244.676901 
L 251.305135 242.125673 
L 251.564858 241.938651 
L 251.759651 242.041895 
L 252.019375 242.480747 
L 252.457658 243.752947 
L 253.171898 245.732728 
L 253.464087 246.018333 
L 253.675113 245.960572 
L 253.918604 245.628231 
L 254.308189 244.638579 
L 255.200989 242.267246 
L 255.476945 242.09065 
L 255.687971 242.216978 
L 255.963927 242.692683 
L 256.483375 244.15998 
L 257.083985 245.631592 
L 257.376175 245.879598 
L 257.603433 245.799082 
L 257.879389 245.397476 
L 258.317673 244.276425 
L 259.048145 242.463612 
L 259.340335 242.232106 
L 259.55136 242.31442 
L 259.827316 242.717082 
L 260.298065 243.912276 
L 260.97984 245.513423 
L 261.288262 245.749724 
L 261.51552 245.661688 
L 261.791476 245.274505 
L 262.262225 244.133331 
L 262.944 242.580564 
L 263.236189 242.362671 
L 263.463447 242.450036 
L 263.739404 242.836924 
L 264.226385 243.998662 
L 264.875695 245.403988 
L 265.184116 245.626969 
L 265.427607 245.53411 
L 265.719796 245.131966 
L 266.223011 243.967878 
L 266.839855 242.688758 
L 267.148276 242.482404 
L 267.375535 242.575709 
L 267.667724 242.97616 
L 268.203404 244.191728 
L 268.787782 245.322129 
L 269.096204 245.514241 
L 269.339695 245.415712 
L 269.648116 245.001031 
L 270.216262 243.751197 
L 270.768175 242.752386 
L 271.060364 242.594222 
L 271.303855 242.706291 
L 271.612276 243.132685 
L 272.342749 244.692835 
L 272.781033 245.31893 
L 273.073222 245.401341 
L 273.332945 245.227871 
L 273.690065 244.672287 
L 274.793891 242.745117 
L 275.069847 242.720369 
L 275.345804 242.953594 
L 275.751622 243.649607 
L 276.611956 245.170794 
L 276.920378 245.310249 
L 277.180102 245.190485 
L 277.520989 244.74426 
L 278.787142 242.802363 
L 279.046865 242.853571 
L 279.355287 243.176874 
L 279.9072 244.175186 
L 280.491578 245.072595 
L 280.816233 245.219121 
L 281.092189 245.09653 
L 281.449309 244.645521 
L 282.634298 242.905867 
L 282.910255 242.92065 
L 283.218676 243.193029 
L 283.721891 244.013518 
L 284.387433 244.996022 
L 284.712087 245.134457 
L 285.004276 245.009584 
L 285.377629 244.555947 
L 286.51392 242.994049 
L 286.806109 242.99988 
L 287.114531 243.250558 
L 287.617745 244.010457 
L 288.283287 244.92508 
L 288.624175 245.055197 
L 288.916364 244.92917 
L 289.305949 244.474937 
L 290.377309 243.083178 
L 290.685731 243.067527 
L 291.010385 243.3042 
L 291.529833 244.033355 
L 292.195375 244.871307 
L 292.536262 244.981171 
L 292.844684 244.842229 
L 293.250502 244.379188 
L 294.240698 243.167676 
L 294.565353 243.131621 
L 294.890007 243.338324 
L 295.393222 243.982506 
L 296.091229 244.809649 
L 296.448349 244.912071 
L 296.773004 244.761396 
L 297.211287 244.271352 
L 298.104087 243.247498 
L 298.444975 243.192266 
L 298.769629 243.371929 
L 299.272844 243.960874 
L 300.003316 244.762491 
L 300.360436 244.847603 
L 300.701324 244.686421 
L 301.188305 244.154275 
L 301.967476 243.322643 
L 302.324596 243.249571 
L 302.665484 243.417603 
L 303.168698 243.962916 
L 303.915404 244.717788 
L 304.272524 244.787488 
L 304.629644 244.617045 
L 305.149091 244.070703 
L 305.863331 243.375199 
L 306.236684 243.308378 
L 306.593804 243.484789 
L 307.145716 244.059125 
L 307.811258 244.667579 
L 308.184611 244.731462 
L 308.557964 244.553004 
L 309.142342 243.962203 
L 309.791651 243.408803 
L 310.165004 243.366388 
L 310.538356 243.559211 
L 311.203898 244.225654 
L 311.772044 244.648056 
L 312.145396 244.66877 
L 312.534982 244.456493 
L 314.01216 243.406387 
L 314.401745 243.568692 
L 315.018589 244.131045 
L 315.651665 244.597488 
L 316.041251 244.623902 
L 316.447069 244.415898 
L 317.891782 243.449866 
L 318.281367 243.590482 
L 318.898211 244.106967 
L 319.54752 244.55629 
L 319.953338 244.578543 
L 320.375389 244.367103 
L 321.755171 243.490243 
L 322.160989 243.611926 
L 322.7616 244.071904 
L 323.459607 244.523159 
L 323.881658 244.532385 
L 324.336175 244.299643 
L 325.586095 243.530889 
L 326.008145 243.617495 
L 326.576291 244.00247 
L 327.355462 244.487438 
L 327.793745 244.493282 
L 328.264495 244.260276 
L 329.449484 243.570038 
L 329.887767 243.639728 
L 330.455913 243.99091 
L 331.267549 244.458483 
L 331.722065 244.452772 
L 332.22528 244.203333 
L 333.312873 243.607532 
L 333.767389 243.661254 
L 334.351767 243.99234 
L 335.179636 244.431159 
L 335.634153 244.419233 
L 336.169833 244.162222 
L 337.192495 243.640805 
L 337.663244 243.687305 
L 338.263855 244.004143 
L 339.091724 244.405392 
L 339.562473 244.383867 
L 340.146851 244.105929 
L 341.072116 243.671832 
L 341.559098 243.711546 
L 342.192175 244.024104 
L 343.003811 244.381112 
L 343.507025 244.346229 
L 344.156335 244.037581 
L 344.967971 243.69829 
L 345.471185 243.738775 
L 346.15296 244.059173 
L 346.932131 244.360379 
L 347.451578 244.310606 
L 348.182051 243.970394 
L 348.912524 243.71721 
L 349.431971 243.77846 
L 350.25984 244.159685 
L 350.925382 244.344403 
L 351.461062 244.25563 
L 353.181731 243.76052 
L 353.83104 243.999679 
L 354.756305 244.31801 
L 355.308218 244.255653 
L 357.191215 243.804251 
L 358.035316 244.133877 
L 358.749556 244.30225 
L 359.333935 244.200736 
L 360.892276 243.786437 
L 361.557818 243.976355 
L 362.612945 244.282173 
L 363.213556 244.194559 
L 364.836829 243.809809 
L 365.551069 244.016196 
L 366.5088 244.264336 
L 367.141876 244.174442 
L 368.716451 243.823785 
L 369.463156 244.022375 
L 370.43712 244.2486 
L 371.102662 244.146794 
L 372.547375 243.833058 
L 373.277847 243.996125 
L 374.36544 244.233476 
L 375.063447 244.12138 
L 376.410764 243.845591 
L 377.157469 243.993338 
L 378.29376 244.21899 
L 379.024233 244.098259 
L 380.290385 243.858444 
L 381.069556 244.00013 
L 382.22208 244.20516 
L 383.001251 244.07316 
L 384.18624 243.871046 
L 384.997876 244.01037 
L 386.134167 244.192548 
L 386.962036 244.054885 
L 388.098327 243.883275 
L 388.958662 244.027217 
L 390.046255 244.180797 
L 390.922822 244.038882 
L 392.026647 243.895327 
L 392.951913 244.049069 
L 393.990807 244.168499 
L 394.948538 244.011161 
L 395.9712 243.907599 
L 396.993862 244.077086 
L 397.967825 244.154461 
L 398.487273 244.083856 
L 398.487273 244.083856 
" clip-path="url(#p21ac6cef2f)" style="fill: none; stroke: #bfbf00; stroke-width: 1.5; stroke-linecap: square"/>
   </g>
   <g id="patch_3">
    <path d="M 57.6 307.584 
L 57.6 41.472 
" style="fill: none; stroke: #000000; stroke-width: 0.8; stroke-linejoin: miter; stroke-linecap: square"/>
   </g>
   <g id="patch_4">
    <path d="M 414.72 307.584 
L 414.72 41.472 
" style="fill: none; stroke: #000000; stroke-width: 0.8; stroke-linejoin: miter; stroke-linecap: square"/>
   </g>
   <g id="patch_5">
    <path d="M 57.6 307.584 
L 414.72 307.584 
" style="fill: none; stroke: #000000; stroke-width: 0.8; stroke-linejoin: miter; stroke-linecap: square"/>
   </g>
   <g id="patch_6">
    <path d="M 57.6 41.472 
L 414.72 41.472 
" style="fill: none; stroke: #000000; stroke-width: 0.8; stroke-linejoin: miter; stroke-linecap: square"/>
   </g>
  </g>
 </g>
 <defs>
  <clipPath id="p21ac6cef2f">
   <rect x="57.6" y="41.472" width="357.12" height="266.112"/>
  </clipPath>
 </defs>
</svg>
