<?xml version="1.0" encoding="utf-8" standalone="no"?>
<!DOCTYPE svg PUBLIC "-//W3C//DTD SVG 1.1//EN"
  "http://www.w3.org/Graphics/SVG/1.1/DTD/svg11.dtd">
<svg xmlns:xlink="http://www.w3.org/1999/xlink" width="460.8pt" height="345.6pt" viewBox="0 0 460.8 345.6" xmlns="http://www.w3.org/2000/svg" version="1.1">
 <metadata>
  <rdf:RDF xmlns:dc="http://purl.org/dc/elements/1.1/" xmlns:cc="http://creativecommons.org/ns#" xmlns:rdf="http://www.w3.org/1999/02/22-rdf-syntax-ns#">
   <cc:Work>
    <dc:type rdf:resource="http://purl.org/dc/dcmitype/StillImage"/>
    <dc:date>2025-05-29T12:03:43.229335</dc:date>
    <dc:format>image/svg+xml</dc:format>
    <dc:creator>
     <cc:Agent>
      <dc:title>Matplotlib v3.10.0, https://matplotlib.org/</dc:title>
     </cc:Agent>
    </dc:creator>
   </cc:Work>
  </rdf:RDF>
 </metadata>
 <defs>
  <style type="text/css">*{stroke-linejoin: round; stroke-linecap: butt}</style>
 </defs>
 <g id="figure_1">
  <g id="patch_1">
   <path d="M 0 345.6 
L 460.8 345.6 
L 460.8 0 
L 0 0 
z
" style="fill: #ffffff"/>
  </g>
  <g id="axes_1">
   <g id="patch_2">
    <path d="M 57.6 307.584 
L 414.72 307.584 
L 414.72 41.472 
L 57.6 41.472 
z
" style="fill: #ffffff"/>
   </g>
   <g id="matplotlib.axis_1">
    <g id="xtick_1">
     <g id="line2d_1">
      <defs>
       <path id="me2b585568d" d="M 0 0 
L 0 3.5 
" style="stroke: #000000; stroke-width: 0.8"/>
      </defs>
      <g>
       <use xlink:href="#me2b585568d" x="73.832727" y="307.584" style="stroke: #000000; stroke-width: 0.8"/>
      </g>
     </g>
     <g id="text_1">
      <!-- 0 -->
      <g transform="translate(68.106477 328.261187) scale(0.18 -0.18)">
       <defs>
        <path id="DejaVuSans-30" d="M 2034 4250 
Q 1547 4250 1301 3770 
Q 1056 3291 1056 2328 
Q 1056 1369 1301 889 
Q 1547 409 2034 409 
Q 2525 409 2770 889 
Q 3016 1369 3016 2328 
Q 3016 3291 2770 3770 
Q 2525 4250 2034 4250 
z
M 2034 4750 
Q 2819 4750 3233 4129 
Q 3647 3509 3647 2328 
Q 3647 1150 3233 529 
Q 2819 -91 2034 -91 
Q 1250 -91 836 529 
Q 422 1150 422 2328 
Q 422 3509 836 4129 
Q 1250 4750 2034 4750 
z
" transform="scale(0.015625)"/>
       </defs>
       <use xlink:href="#DejaVuSans-30"/>
      </g>
     </g>
    </g>
    <g id="xtick_2">
     <g id="line2d_2">
      <g>
       <use xlink:href="#me2b585568d" x="154.996364" y="307.584" style="stroke: #000000; stroke-width: 0.8"/>
      </g>
     </g>
     <g id="text_2">
      <!-- 500 -->
      <g transform="translate(137.817614 328.261187) scale(0.18 -0.18)">
       <defs>
        <path id="DejaVuSans-35" d="M 691 4666 
L 3169 4666 
L 3169 4134 
L 1269 4134 
L 1269 2991 
Q 1406 3038 1543 3061 
Q 1681 3084 1819 3084 
Q 2600 3084 3056 2656 
Q 3513 2228 3513 1497 
Q 3513 744 3044 326 
Q 2575 -91 1722 -91 
Q 1428 -91 1123 -41 
Q 819 9 494 109 
L 494 744 
Q 775 591 1075 516 
Q 1375 441 1709 441 
Q 2250 441 2565 725 
Q 2881 1009 2881 1497 
Q 2881 1984 2565 2268 
Q 2250 2553 1709 2553 
Q 1456 2553 1204 2497 
Q 953 2441 691 2322 
L 691 4666 
z
" transform="scale(0.015625)"/>
       </defs>
       <use xlink:href="#DejaVuSans-35"/>
       <use xlink:href="#DejaVuSans-30" transform="translate(63.623047 0)"/>
       <use xlink:href="#DejaVuSans-30" transform="translate(127.246094 0)"/>
      </g>
     </g>
    </g>
    <g id="xtick_3">
     <g id="line2d_3">
      <g>
       <use xlink:href="#me2b585568d" x="236.16" y="307.584" style="stroke: #000000; stroke-width: 0.8"/>
      </g>
     </g>
     <g id="text_3">
      <!-- 1000 -->
      <g transform="translate(213.255 328.261187) scale(0.18 -0.18)">
       <defs>
        <path id="DejaVuSans-31" d="M 794 531 
L 1825 531 
L 1825 4091 
L 703 3866 
L 703 4441 
L 1819 4666 
L 2450 4666 
L 2450 531 
L 3481 531 
L 3481 0 
L 794 0 
L 794 531 
z
" transform="scale(0.015625)"/>
       </defs>
       <use xlink:href="#DejaVuSans-31"/>
       <use xlink:href="#DejaVuSans-30" transform="translate(63.623047 0)"/>
       <use xlink:href="#DejaVuSans-30" transform="translate(127.246094 0)"/>
       <use xlink:href="#DejaVuSans-30" transform="translate(190.869141 0)"/>
      </g>
     </g>
    </g>
    <g id="xtick_4">
     <g id="line2d_4">
      <g>
       <use xlink:href="#me2b585568d" x="317.323636" y="307.584" style="stroke: #000000; stroke-width: 0.8"/>
      </g>
     </g>
     <g id="text_4">
      <!-- 1500 -->
      <g transform="translate(294.418636 328.261187) scale(0.18 -0.18)">
       <use xlink:href="#DejaVuSans-31"/>
       <use xlink:href="#DejaVuSans-35" transform="translate(63.623047 0)"/>
       <use xlink:href="#DejaVuSans-30" transform="translate(127.246094 0)"/>
       <use xlink:href="#DejaVuSans-30" transform="translate(190.869141 0)"/>
      </g>
     </g>
    </g>
    <g id="xtick_5">
     <g id="line2d_5">
      <g>
       <use xlink:href="#me2b585568d" x="398.487273" y="307.584" style="stroke: #000000; stroke-width: 0.8"/>
      </g>
     </g>
     <g id="text_5">
      <!-- 2000 -->
      <g transform="translate(375.582273 328.261187) scale(0.18 -0.18)">
       <defs>
        <path id="DejaVuSans-32" d="M 1228 531 
L 3431 531 
L 3431 0 
L 469 0 
L 469 531 
Q 828 903 1448 1529 
Q 2069 2156 2228 2338 
Q 2531 2678 2651 2914 
Q 2772 3150 2772 3378 
Q 2772 3750 2511 3984 
Q 2250 4219 1831 4219 
Q 1534 4219 1204 4116 
Q 875 4013 500 3803 
L 500 4441 
Q 881 4594 1212 4672 
Q 1544 4750 1819 4750 
Q 2544 4750 2975 4387 
Q 3406 4025 3406 3419 
Q 3406 3131 3298 2873 
Q 3191 2616 2906 2266 
Q 2828 2175 2409 1742 
Q 1991 1309 1228 531 
z
" transform="scale(0.015625)"/>
       </defs>
       <use xlink:href="#DejaVuSans-32"/>
       <use xlink:href="#DejaVuSans-30" transform="translate(63.623047 0)"/>
       <use xlink:href="#DejaVuSans-30" transform="translate(127.246094 0)"/>
       <use xlink:href="#DejaVuSans-30" transform="translate(190.869141 0)"/>
      </g>
     </g>
    </g>
    <g id="text_6">
     <!-- $t$ -->
     <g transform="translate(231.16 355.000719) scale(0.25 -0.25)">
      <defs>
       <path id="DejaVuSans-Oblique-74" d="M 2706 3500 
L 2619 3053 
L 1472 3053 
L 1100 1153 
Q 1081 1047 1072 975 
Q 1063 903 1063 863 
Q 1063 663 1183 572 
Q 1303 481 1569 481 
L 2150 481 
L 2053 0 
L 1503 0 
Q 991 0 739 200 
Q 488 400 488 806 
Q 488 878 497 964 
Q 506 1050 525 1153 
L 897 3053 
L 409 3053 
L 500 3500 
L 978 3500 
L 1172 4494 
L 1747 4494 
L 1556 3500 
L 2706 3500 
z
" transform="scale(0.015625)"/>
      </defs>
      <use xlink:href="#DejaVuSans-Oblique-74" transform="translate(0 0.78125)"/>
     </g>
    </g>
   </g>
   <g id="matplotlib.axis_2">
    <g id="ytick_1">
     <g id="line2d_6">
      <defs>
       <path id="m5d48074c65" d="M 0 0 
L -3.5 0 
" style="stroke: #000000; stroke-width: 0.8"/>
      </defs>
      <g>
       <use xlink:href="#m5d48074c65" x="57.6" y="307.584" style="stroke: #000000; stroke-width: 0.8"/>
      </g>
     </g>
     <g id="text_7">
      <!-- 0.0 -->
      <g transform="translate(21.974375 314.422594) scale(0.18 -0.18)">
       <defs>
        <path id="DejaVuSans-2e" d="M 684 794 
L 1344 794 
L 1344 0 
L 684 0 
L 684 794 
z
" transform="scale(0.015625)"/>
       </defs>
       <use xlink:href="#DejaVuSans-30"/>
       <use xlink:href="#DejaVuSans-2e" transform="translate(63.623047 0)"/>
       <use xlink:href="#DejaVuSans-30" transform="translate(95.410156 0)"/>
      </g>
     </g>
    </g>
    <g id="ytick_2">
     <g id="line2d_7">
      <g>
       <use xlink:href="#m5d48074c65" x="57.6" y="174.528" style="stroke: #000000; stroke-width: 0.8"/>
      </g>
     </g>
     <g id="text_8">
      <!-- 0.5 -->
      <g transform="translate(21.974375 181.366594) scale(0.18 -0.18)">
       <use xlink:href="#DejaVuSans-30"/>
       <use xlink:href="#DejaVuSans-2e" transform="translate(63.623047 0)"/>
       <use xlink:href="#DejaVuSans-35" transform="translate(95.410156 0)"/>
      </g>
     </g>
    </g>
    <g id="ytick_3">
     <g id="line2d_8">
      <g>
       <use xlink:href="#m5d48074c65" x="57.6" y="41.472" style="stroke: #000000; stroke-width: 0.8"/>
      </g>
     </g>
     <g id="text_9">
      <!-- 1.0 -->
      <g transform="translate(21.974375 48.310594) scale(0.18 -0.18)">
       <use xlink:href="#DejaVuSans-31"/>
       <use xlink:href="#DejaVuSans-2e" transform="translate(63.623047 0)"/>
       <use xlink:href="#DejaVuSans-30" transform="translate(95.410156 0)"/>
      </g>
     </g>
    </g>
    <g id="text_10">
     <!-- $x_i(t)$ -->
     <g transform="translate(12.775156 199.403) rotate(-90) scale(0.25 -0.25)">
      <defs>
       <path id="DejaVuSans-Oblique-78" d="M 3841 3500 
L 2234 1784 
L 3219 0 
L 2559 0 
L 1819 1388 
L 531 0 
L -166 0 
L 1556 1844 
L 641 3500 
L 1300 3500 
L 1972 2234 
L 3144 3500 
L 3841 3500 
z
" transform="scale(0.015625)"/>
       <path id="DejaVuSans-Oblique-69" d="M 1172 4863 
L 1747 4863 
L 1606 4134 
L 1031 4134 
L 1172 4863 
z
M 909 3500 
L 1484 3500 
L 800 0 
L 225 0 
L 909 3500 
z
" transform="scale(0.015625)"/>
       <path id="DejaVuSans-28" d="M 1984 4856 
Q 1566 4138 1362 3434 
Q 1159 2731 1159 2009 
Q 1159 1288 1364 580 
Q 1569 -128 1984 -844 
L 1484 -844 
Q 1016 -109 783 600 
Q 550 1309 550 2009 
Q 550 2706 781 3412 
Q 1013 4119 1484 4856 
L 1984 4856 
z
" transform="scale(0.015625)"/>
       <path id="DejaVuSans-29" d="M 513 4856 
L 1013 4856 
Q 1481 4119 1714 3412 
Q 1947 2706 1947 2009 
Q 1947 1309 1714 600 
Q 1481 -109 1013 -844 
L 513 -844 
Q 928 -128 1133 580 
Q 1338 1288 1338 2009 
Q 1338 2731 1133 3434 
Q 928 4138 513 4856 
z
" transform="scale(0.015625)"/>
      </defs>
      <use xlink:href="#DejaVuSans-Oblique-78" transform="translate(0 0.125)"/>
      <use xlink:href="#DejaVuSans-Oblique-69" transform="translate(59.179688 -16.28125) scale(0.7)"/>
      <use xlink:href="#DejaVuSans-28" transform="translate(81.362305 0.125)"/>
      <use xlink:href="#DejaVuSans-Oblique-74" transform="translate(120.375977 0.125)"/>
      <use xlink:href="#DejaVuSans-29" transform="translate(159.584961 0.125)"/>
     </g>
    </g>
   </g>
   <g id="line2d_9">
    <path d="M 73.832727 222.42816 
L 74.790458 142.657428 
L 74.969018 140.212867 
L 74.985251 140.248499 
L 75.066415 141.04386 
L 75.228742 145.532261 
L 75.504698 160.566572 
L 76.121542 210.576493 
L 76.70592 249.605021 
L 77.079273 262.346926 
L 77.322764 265.196785 
L 77.371462 265.237214 
L 77.403927 265.162655 
L 77.517556 264.241399 
L 77.696116 260.57561 
L 77.95584 249.752054 
L 78.296727 224.599166 
L 79.303156 141.994338 
L 79.449251 140.210549 
L 79.481716 140.285561 
L 79.579113 141.492445 
L 79.757673 147.2407 
L 80.066095 165.801616 
L 81.429644 258.839352 
L 81.738065 264.806331 
L 81.851695 265.242763 
L 81.88416 265.18679 
L 81.981556 264.519224 
L 82.160116 261.225382 
L 82.403607 251.871081 
L 82.728262 229.558425 
L 83.864553 140.653754 
L 83.945716 140.214389 
L 83.994415 140.457362 
L 84.124276 142.868303 
L 84.351535 152.567577 
L 84.757353 181.927393 
L 85.666385 248.894164 
L 86.055971 262.377503 
L 86.299462 265.200699 
L 86.331927 265.244129 
L 86.380625 265.157265 
L 86.494255 264.222321 
L 86.672815 260.532868 
L 86.932538 249.669509 
L 87.273425 224.463636 
L 88.279855 141.958312 
L 88.425949 140.210317 
L 88.458415 140.293002 
L 88.555811 141.521989 
L 88.734371 147.306219 
L 89.042793 165.911305 
L 90.390109 258.38134 
L 90.698531 264.678934 
L 90.828393 265.24198 
L 90.860858 265.182259 
L 90.958255 264.503065 
L 91.136815 261.185942 
L 91.380305 251.79499 
L 91.70496 229.430528 
L 92.825018 140.849259 
L 92.906182 140.214943 
L 92.95488 140.344492 
L 93.068509 142.068673 
L 93.279535 150.042273 
L 93.636655 174.088104 
L 94.724247 252.675968 
L 95.081367 263.314275 
L 95.308625 265.24419 
L 95.373556 265.079708 
L 95.503418 263.736484 
L 95.698211 258.967625 
L 95.974167 245.738837 
L 96.34752 215.068209 
L 97.159156 145.03741 
L 97.386415 140.228299 
L 97.402647 140.210439 
L 97.435113 140.300792 
L 97.532509 141.551859 
L 97.711069 147.372009 
L 98.019491 166.021143 
L 99.366807 258.428304 
L 99.675229 264.692527 
L 99.805091 265.241026 
L 99.837556 265.177554 
L 99.934953 264.486723 
L 100.113513 261.146296 
L 100.357004 251.718658 
L 100.681658 229.302419 
L 101.801716 140.827886 
L 101.88288 140.213306 
L 101.931578 140.354351 
L 102.045207 142.103974 
L 102.256233 150.118149 
L 102.613353 174.206969 
L 103.700945 252.739544 
L 104.058065 263.339273 
L 104.285324 265.24408 
L 104.350255 265.072064 
L 104.480116 263.712939 
L 104.674909 258.917456 
L 104.950865 245.645154 
L 105.324218 214.921431 
L 106.135855 144.977869 
L 106.363113 140.224897 
L 106.379345 140.210916 
L 106.411811 140.308931 
L 106.509207 141.582055 
L 106.704 148.175784 
L 107.028655 168.565481 
L 108.278575 256.284271 
L 108.603229 264.182098 
L 108.765556 265.242959 
L 108.798022 265.216523 
L 108.895418 264.640521 
L 109.057745 261.928899 
L 109.301236 253.257694 
L 109.609658 233.259102 
L 110.161571 178.973933 
L 110.599855 145.965198 
L 110.843345 140.245243 
L 110.859578 140.212025 
L 110.908276 140.364556 
L 111.021905 142.139595 
L 111.232931 150.194277 
L 111.590051 174.325938 
L 112.677644 252.802959 
L 113.034764 263.364111 
L 113.262022 265.2438 
L 113.326953 265.064244 
L 113.456815 263.689204 
L 113.651607 258.86707 
L 113.927564 245.551226 
L 114.300916 214.774514 
L 115.112553 144.918696 
L 115.339811 140.221852 
L 115.356044 140.211748 
L 115.388509 140.317417 
L 115.485905 141.612576 
L 115.680698 148.245028 
L 116.005353 168.6787 
L 117.255273 256.337936 
L 117.579927 264.200691 
L 117.742255 265.243521 
L 117.77472 265.213357 
L 117.872116 264.625801 
L 118.034444 261.893305 
L 118.277935 253.18608 
L 118.586356 233.137723 
L 119.154502 177.222863 
L 119.592785 145.215305 
L 119.820044 140.240427 
L 119.836276 140.2111 
L 119.868742 140.278803 
L 119.966138 141.46463 
L 120.144698 147.178599 
L 120.45312 165.697366 
L 121.816669 258.796023 
L 122.125091 264.794787 
L 122.23872 265.24335 
L 122.271185 265.190942 
L 122.368582 264.534433 
L 122.547142 261.262724 
L 122.790633 251.943275 
L 123.115287 229.679945 
L 124.251578 140.670982 
L 124.332742 140.212933 
L 124.38144 140.445047 
L 124.495069 142.395989 
L 124.706095 150.730364 
L 125.079447 176.466688 
L 126.102109 251.118147 
L 126.475462 262.978587 
L 126.70272 265.230483 
L 126.735185 265.237139 
L 126.767651 265.162399 
L 126.88128 264.240482 
L 127.05984 260.57355 
L 127.319564 249.748072 
L 127.660451 224.592623 
L 128.66688 141.992589 
L 128.812975 140.21053 
L 128.84544 140.285912 
L 128.942836 141.493865 
L 129.121396 147.243859 
L 129.429818 165.806911 
L 130.793367 258.841548 
L 131.101789 264.806913 
L 131.215418 265.242729 
L 131.247884 265.186575 
L 131.34528 264.518447 
L 131.52384 261.223481 
L 131.767331 251.867411 
L 132.091985 229.552251 
L 133.228276 140.652889 
L 133.30944 140.214472 
L 133.341905 140.335433 
L 133.455535 142.035373 
L 133.650327 149.162011 
L 133.991215 171.412162 
L 135.159971 254.616315 
L 135.500858 263.802263 
L 135.695651 265.244136 
L 135.711884 265.235501 
L 135.793047 264.88375 
L 135.939142 262.895016 
L 136.1664 255.968211 
L 136.458589 239.199737 
L 136.896873 198.609863 
L 137.497484 147.255501 
L 137.740975 140.402801 
L 137.789673 140.210315 
L 137.838371 140.397247 
L 137.952 142.248364 
L 138.163025 150.424155 
L 138.520145 174.683453 
L 139.591505 252.297372 
L 139.948625 263.163419 
L 140.175884 265.241373 
L 140.224582 265.182035 
L 140.321978 264.50228 
L 140.500538 261.184031 
L 140.744029 251.791307 
L 141.068684 229.424344 
L 142.188742 140.848218 
L 142.269905 140.214856 
L 142.318604 140.344961 
L 142.432233 142.070371 
L 142.643258 150.045933 
L 143.000378 174.093845 
L 144.087971 252.679043 
L 144.445091 263.315486 
L 144.672349 265.244188 
L 144.73728 265.079343 
L 144.867142 263.735351 
L 145.061935 258.965206 
L 145.337891 245.734316 
L 145.711244 215.06112 
L 146.52288 145.034525 
L 146.750138 140.228127 
L 146.766371 140.210454 
L 146.798836 140.301178 
L 146.896233 141.553311 
L 147.074793 147.375195 
L 147.383215 166.026454 
L 148.730531 258.430569 
L 149.038953 264.69318 
L 149.168815 265.240975 
L 149.20128 265.177322 
L 149.314909 264.295739 
L 149.493469 260.698518 
L 149.753193 249.99034 
L 150.09408 224.991571 
L 151.116742 141.716519 
L 151.246604 140.213236 
L 151.279069 140.265934 
L 151.376465 141.408516 
L 151.555025 147.052016 
L 151.863447 165.484004 
L 153.226996 258.706711 
L 153.535418 264.770647 
L 153.649047 265.24407 
L 153.681513 265.198966 
L 153.778909 264.565105 
L 153.941236 261.748903 
L 154.184727 252.897254 
L 154.509382 231.302287 
L 155.694371 140.379978 
L 155.743069 140.210949 
L 155.791767 140.420767 
L 155.905396 142.322462 
L 156.116422 150.57865 
L 156.489775 176.23122 
L 157.528669 251.715767 
L 157.902022 263.215155 
L 158.12928 265.24299 
L 158.177978 265.172436 
L 158.291607 264.277199 
L 158.470167 260.656384 
L 158.729891 249.908498 
L 159.070778 224.856599 
L 160.077207 142.063934 
L 160.223302 140.211972 
L 160.255767 140.272362 
L 160.353164 141.437112 
L 160.531724 147.116745 
L 160.840145 165.593254 
L 162.203695 258.752549 
L 162.512116 264.783094 
L 162.625745 265.243782 
L 162.658211 265.194937 
L 162.755607 264.549476 
L 162.934167 261.299879 
L 163.177658 252.015251 
L 163.502313 229.801271 
L 164.638604 140.688541 
L 164.719767 140.211797 
L 164.768465 140.433044 
L 164.882095 142.359986 
L 165.09312 150.656268 
L 165.466473 176.351826 
L 166.489135 251.053854 
L 166.862487 262.952679 
L 167.089745 265.228356 
L 167.122211 265.238539 
L 167.154676 265.167376 
L 167.268305 264.258474 
L 167.446865 260.614041 
L 167.706589 249.826414 
L 168.047476 224.721434 
L 169.053905 142.027202 
L 169.2 140.211064 
L 169.232465 140.279139 
L 169.329862 141.466036 
L 169.508422 147.181746 
L 169.816844 165.702656 
L 171.180393 258.798227 
L 171.488815 264.795376 
L 171.602444 265.243324 
L 171.634909 265.190735 
L 171.732305 264.533664 
L 171.910865 261.260832 
L 172.154356 251.939614 
L 172.479011 229.673779 
L 173.615302 140.6701 
L 173.696465 140.213 
L 173.745164 140.445665 
L 173.858793 142.397825 
L 174.069818 150.734132 
L 174.443171 176.472523 
L 175.465833 251.121407 
L 175.839185 262.979899 
L 176.066444 265.230587 
L 176.098909 265.237064 
L 176.131375 265.162142 
L 176.245004 264.239563 
L 176.423564 260.571489 
L 176.683287 249.744088 
L 177.024175 224.586077 
L 178.030604 141.990841 
L 178.176698 140.210511 
L 178.209164 140.286265 
L 178.30656 141.495286 
L 178.48512 147.24702 
L 178.793542 165.81221 
L 180.157091 258.843744 
L 180.465513 264.807495 
L 180.579142 265.242695 
L 180.611607 265.18636 
L 180.709004 264.51767 
L 180.887564 261.221579 
L 181.131055 251.863738 
L 181.455709 229.546074 
L 182.592 140.652024 
L 182.673164 140.214556 
L 182.705629 140.335885 
L 182.819258 142.037057 
L 183.014051 149.165527 
L 183.354938 171.417783 
L 184.523695 254.619144 
L 184.864582 263.803312 
L 185.059375 265.244142 
L 185.075607 265.235418 
L 185.156771 264.883206 
L 185.302865 262.893586 
L 185.530124 255.965212 
L 185.822313 239.194457 
L 186.260596 198.602338 
L 186.861207 147.252021 
L 187.104698 140.402232 
L 187.153396 140.210313 
L 187.202095 140.397799 
L 187.315724 142.25014 
L 187.526749 150.427877 
L 187.883869 174.68922 
L 188.955229 252.300494 
L 189.312349 263.164676 
L 189.539607 265.24142 
L 189.588305 265.181811 
L 189.685702 264.501493 
L 189.864262 261.182119 
L 190.107753 251.787622 
L 190.432407 229.418156 
L 191.552465 140.847178 
L 191.633629 140.21477 
L 191.682327 140.345431 
L 191.795956 142.072071 
L 192.006982 150.049595 
L 192.364102 174.099588 
L 193.451695 252.682119 
L 193.808815 263.316697 
L 194.036073 265.244186 
L 194.101004 265.078977 
L 194.230865 263.734216 
L 194.425658 258.962786 
L 194.701615 245.729793 
L 195.074967 215.054028 
L 195.886604 145.031639 
L 196.113862 140.227955 
L 196.130095 140.21047 
L 196.16256 140.301564 
L 196.259956 141.554764 
L 196.438516 147.378383 
L 196.746938 166.031767 
L 198.094255 258.432834 
L 198.402676 264.693832 
L 198.532538 265.240925 
L 198.565004 265.17709 
L 198.678633 264.294847 
L 198.857193 260.696486 
L 199.116916 249.986389 
L 199.457804 224.985051 
L 200.480465 141.714913 
L 200.610327 140.213167 
L 200.642793 140.266237 
L 200.740189 141.409891 
L 200.918749 147.055139 
L 201.227171 165.489282 
L 202.59072 258.70893 
L 202.899142 264.771252 
L 203.012771 265.24406 
L 203.045236 265.198775 
L 203.142633 264.564353 
L 203.30496 261.747138 
L 203.548451 252.893741 
L 203.873105 231.296254 
L 205.058095 140.379445 
L 205.106793 140.210982 
L 205.155491 140.421353 
L 205.26912 142.324269 
L 205.480145 150.582396 
L 205.853498 176.237048 
L 206.892393 251.718959 
L 207.265745 263.216398 
L 207.493004 265.243021 
L 207.541702 265.172195 
L 207.655331 264.276298 
L 207.833891 260.654342 
L 208.093615 249.904536 
L 208.434502 224.85007 
L 209.440931 142.06215 
L 209.587025 140.211921 
L 209.619491 140.272681 
L 209.716887 141.438503 
L 209.895447 147.119881 
L 210.203869 165.59854 
L 211.567418 258.754761 
L 211.87584 264.783691 
L 211.989469 265.243764 
L 212.021935 265.194738 
L 212.119331 264.548715 
L 212.297891 261.297996 
L 212.541382 252.0116 
L 212.866036 229.795113 
L 214.002327 140.687641 
L 214.083491 140.211847 
L 214.132189 140.433646 
L 214.245818 142.361808 
L 214.456844 150.660027 
L 214.830196 176.357659 
L 215.852858 251.057124 
L 216.226211 262.953999 
L 216.453469 265.228468 
L 216.485935 265.238471 
L 216.5184 265.167126 
L 216.632029 264.257564 
L 216.810589 260.611989 
L 217.070313 249.82244 
L 217.4112 224.714895 
L 218.417629 142.025436 
L 218.563724 140.21103 
L 218.596189 140.279475 
L 218.693585 141.467443 
L 218.872145 147.184896 
L 219.180567 165.707949 
L 220.544116 258.800431 
L 220.852538 264.795966 
L 220.966167 265.243297 
L 220.998633 265.190527 
L 221.096029 264.532895 
L 221.274589 261.258939 
L 221.51808 251.935951 
L 221.842735 229.66761 
L 222.979025 140.669218 
L 223.060189 140.213067 
L 223.108887 140.446285 
L 223.222516 142.399663 
L 223.433542 150.737903 
L 223.806895 176.478361 
L 224.829556 251.124669 
L 225.202909 262.98121 
L 225.430167 265.23069 
L 225.462633 265.236988 
L 225.495098 265.161884 
L 225.608727 264.238644 
L 225.787287 260.569426 
L 226.047011 249.740101 
L 226.387898 224.579528 
L 227.394327 141.989092 
L 227.540422 140.210494 
L 227.572887 140.286619 
L 227.670284 141.496708 
L 227.848844 147.250183 
L 228.157265 165.81751 
L 229.520815 258.84594 
L 229.829236 264.808076 
L 229.942865 265.24266 
L 229.975331 265.186144 
L 230.072727 264.516892 
L 230.251287 261.219676 
L 230.494778 251.860063 
L 230.819433 229.539894 
L 231.955724 140.65116 
L 232.036887 140.21464 
L 232.069353 140.336339 
L 232.182982 142.038743 
L 232.377775 149.169045 
L 232.718662 171.423406 
L 233.887418 254.621974 
L 234.228305 263.804361 
L 234.423098 265.244148 
L 234.439331 265.235334 
L 234.520495 264.882661 
L 234.666589 262.892155 
L 234.893847 255.962212 
L 235.186036 239.189174 
L 235.62432 198.594809 
L 236.224931 147.24854 
L 236.468422 140.401665 
L 236.51712 140.210313 
L 236.565818 140.398352 
L 236.679447 142.251917 
L 236.890473 150.431602 
L 237.247593 174.69499 
L 238.318953 252.303618 
L 238.676073 263.165934 
L 238.903331 265.241467 
L 238.952029 265.181587 
L 239.049425 264.500706 
L 239.227985 261.180206 
L 239.471476 251.783936 
L 239.796131 229.411965 
L 240.916189 140.846138 
L 240.997353 140.214684 
L 241.046051 140.345901 
L 241.15968 142.073772 
L 241.370705 150.05326 
L 241.727825 174.105334 
L 242.815418 252.685196 
L 243.172538 263.317909 
L 243.399796 265.244184 
L 243.464727 265.07861 
L 243.594589 263.733081 
L 243.789382 258.960364 
L 244.065338 245.725267 
L 244.438691 215.046933 
L 245.250327 145.028754 
L 245.477585 140.227785 
L 245.493818 140.210487 
L 245.526284 140.301952 
L 245.62368 141.556218 
L 245.80224 147.381573 
L 246.110662 166.037083 
L 247.457978 258.4351 
L 247.7664 264.694484 
L 247.896262 265.240873 
L 247.928727 265.176857 
L 248.042356 264.293954 
L 248.220916 260.694452 
L 248.48064 249.982436 
L 248.821527 224.978528 
L 249.844189 141.713307 
L 249.974051 140.213099 
L 250.006516 140.266541 
L 250.103913 141.411267 
L 250.282473 147.058263 
L 250.590895 165.494562 
L 251.954444 258.71115 
L 252.262865 264.771858 
L 252.376495 265.24405 
L 252.40896 265.198584 
L 252.506356 264.563601 
L 252.668684 261.745372 
L 252.912175 252.890225 
L 253.236829 231.290218 
L 254.421818 140.378912 
L 254.470516 140.211016 
L 254.519215 140.421939 
L 254.632844 142.326077 
L 254.843869 150.586145 
L 255.217222 176.242878 
L 256.256116 251.722152 
L 256.629469 263.21764 
L 256.856727 265.243051 
L 256.905425 265.171954 
L 257.019055 264.275396 
L 257.197615 260.652299 
L 257.457338 249.900571 
L 257.798225 224.843537 
L 258.804655 142.060366 
L 258.950749 140.21187 
L 258.983215 140.273002 
L 259.080611 141.439896 
L 259.259171 147.123019 
L 259.567593 165.603827 
L 260.931142 258.756973 
L 261.239564 264.784288 
L 261.353193 265.243745 
L 261.385658 265.194538 
L 261.483055 264.547954 
L 261.661615 261.296111 
L 261.905105 252.007947 
L 262.22976 229.788951 
L 263.366051 140.686742 
L 263.447215 140.211898 
L 263.495913 140.43425 
L 263.609542 142.363632 
L 263.820567 150.663787 
L 264.19392 176.363494 
L 265.216582 251.060394 
L 265.589935 262.955318 
L 265.817193 265.228579 
L 265.849658 265.238403 
L 265.882124 265.166877 
L 265.995753 264.256653 
L 266.174313 260.609935 
L 266.434036 249.818463 
L 266.774924 224.708352 
L 267.781353 142.023669 
L 267.927447 140.210996 
L 267.959913 140.279813 
L 268.057309 141.468851 
L 268.235869 147.188047 
L 268.544291 165.713245 
L 269.90784 258.802635 
L 270.216262 264.796555 
L 270.329891 265.24327 
L 270.362356 265.190319 
L 270.459753 264.532125 
L 270.638313 261.257044 
L 270.881804 251.932286 
L 271.206458 229.661438 
L 272.342749 140.668336 
L 272.423913 140.213135 
L 272.472611 140.446905 
L 272.58624 142.401502 
L 272.797265 150.741676 
L 273.170618 176.484201 
L 274.19328 251.127932 
L 274.566633 262.982522 
L 274.793891 265.230793 
L 274.826356 265.236912 
L 274.858822 265.161626 
L 274.972451 264.237724 
L 275.151011 260.567362 
L 275.410735 249.736113 
L 275.751622 224.572975 
L 276.758051 141.987344 
L 276.904145 140.210477 
L 276.936611 140.286973 
L 277.034007 141.498133 
L 277.212567 147.253348 
L 277.520989 165.822814 
L 278.884538 258.848137 
L 279.19296 264.808658 
L 279.306589 265.242624 
L 279.339055 265.185927 
L 279.436451 264.516113 
L 279.615011 261.217771 
L 279.858502 251.856386 
L 280.183156 229.533711 
L 281.319447 140.650296 
L 281.400611 140.214725 
L 281.433076 140.336794 
L 281.546705 142.04043 
L 281.741498 149.172565 
L 282.082385 171.429032 
L 283.251142 254.624804 
L 283.592029 263.805411 
L 283.786822 265.244154 
L 283.803055 265.235249 
L 283.884218 264.882116 
L 284.030313 262.890724 
L 284.257571 255.95921 
L 284.54976 239.183888 
L 284.988044 198.587277 
L 285.588655 147.245058 
L 285.832145 140.401097 
L 285.880844 140.210314 
L 285.929542 140.398907 
L 286.043171 142.253696 
L 286.254196 150.435328 
L 286.611316 174.700763 
L 287.682676 252.306742 
L 288.039796 263.167192 
L 288.267055 265.241513 
L 288.315753 265.181362 
L 288.413149 264.499919 
L 288.591709 261.178291 
L 288.8352 251.780247 
L 289.159855 229.405771 
L 290.279913 140.845098 
L 290.361076 140.214599 
L 290.409775 140.346373 
L 290.523404 142.075475 
L 290.734429 150.056927 
L 291.091549 174.111082 
L 292.179142 252.688274 
L 292.536262 263.319121 
L 292.76352 265.244181 
L 292.828451 265.078243 
L 292.958313 263.731945 
L 293.153105 258.95794 
L 293.429062 245.720739 
L 293.802415 215.039835 
L 294.614051 145.025868 
L 294.841309 140.227615 
L 294.857542 140.210505 
L 294.890007 140.30234 
L 294.987404 141.557674 
L 295.165964 147.384764 
L 295.474385 166.042402 
L 296.821702 258.437367 
L 297.130124 264.695136 
L 297.259985 265.240821 
L 297.292451 265.176624 
L 297.40608 264.293061 
L 297.58464 260.692418 
L 297.844364 249.978481 
L 298.185251 224.972002 
L 299.207913 141.711701 
L 299.337775 140.213031 
L 299.37024 140.266845 
L 299.467636 141.412645 
L 299.646196 147.06139 
L 299.954618 165.499844 
L 301.318167 258.71337 
L 301.626589 264.772463 
L 301.740218 265.244039 
L 301.772684 265.198392 
L 301.87008 264.562848 
L 302.032407 261.743605 
L 302.275898 252.886707 
L 302.600553 231.284178 
L 303.785542 140.37838 
L 303.83424 140.21105 
L 303.882938 140.422527 
L 303.996567 142.327887 
L 304.207593 150.589896 
L 304.580945 176.248712 
L 305.61984 251.725346 
L 305.993193 263.218883 
L 306.220451 265.243081 
L 306.269149 265.171712 
L 306.382778 264.274494 
L 306.561338 260.650254 
L 306.821062 249.896604 
L 307.161949 224.837001 
L 308.168378 142.058582 
L 308.314473 140.211819 
L 308.346938 140.273324 
L 308.444335 141.441289 
L 308.622895 147.126159 
L 308.931316 165.609118 
L 310.294865 258.759186 
L 310.603287 264.784885 
L 310.716916 265.243726 
L 310.749382 265.194338 
L 310.846778 264.547192 
L 311.025338 261.294226 
L 311.268829 252.004291 
L 311.593484 229.782786 
L 312.729775 140.685843 
L 312.810938 140.21195 
L 312.859636 140.434854 
L 312.973265 142.365457 
L 313.184291 150.66755 
L 313.557644 176.369332 
L 314.580305 251.063665 
L 314.953658 262.956638 
L 315.180916 265.22869 
L 315.213382 265.238335 
L 315.245847 265.166627 
L 315.359476 264.255741 
L 315.538036 260.60788 
L 315.79776 249.814484 
L 316.138647 224.701807 
L 317.145076 142.021904 
L 317.291171 140.210963 
L 317.323636 140.280152 
L 317.421033 141.47026 
L 317.599593 147.191201 
L 317.908015 165.718543 
L 319.271564 258.804841 
L 319.579985 264.797144 
L 319.693615 265.243242 
L 319.72608 265.19011 
L 319.823476 264.531354 
L 320.002036 261.255149 
L 320.245527 251.928619 
L 320.570182 229.655262 
L 321.706473 140.667455 
L 321.787636 140.213204 
L 321.836335 140.447526 
L 321.949964 142.403343 
L 322.160989 150.745452 
L 322.534342 176.490044 
L 323.557004 251.131196 
L 323.930356 262.983835 
L 324.157615 265.230896 
L 324.19008 265.236835 
L 324.222545 265.161368 
L 324.336175 264.236804 
L 324.514735 260.565296 
L 324.774458 249.732121 
L 325.115345 224.56642 
L 326.121775 141.985596 
L 326.267869 140.210461 
L 326.300335 140.287329 
L 326.397731 141.499558 
L 326.576291 147.256515 
L 326.884713 165.828119 
L 328.248262 258.850335 
L 328.556684 264.809239 
L 328.670313 265.242589 
L 328.702778 265.18571 
L 328.800175 264.515334 
L 328.978735 261.215865 
L 329.222225 251.852707 
L 329.54688 229.527525 
L 330.683171 140.649432 
L 330.764335 140.214811 
L 330.7968 140.33725 
L 330.910429 142.042119 
L 331.105222 149.176087 
L 331.446109 171.43466 
L 332.614865 254.627635 
L 332.955753 263.80646 
L 333.150545 265.244159 
L 333.166778 265.235164 
L 333.247942 264.88157 
L 333.394036 262.889291 
L 333.621295 255.956206 
L 333.913484 239.178599 
L 334.351767 198.579741 
L 334.952378 147.241576 
L 335.195869 140.400531 
L 335.244567 140.210315 
L 335.293265 140.399462 
L 335.406895 142.255477 
L 335.61792 150.439056 
L 335.97504 174.706538 
L 337.0464 252.309867 
L 337.40352 263.168451 
L 337.630778 265.241559 
L 337.679476 265.181137 
L 337.776873 264.49913 
L 337.955433 261.176375 
L 338.198924 251.776556 
L 338.523578 229.399574 
L 339.643636 140.844059 
L 339.7248 140.214516 
L 339.773498 140.346845 
L 339.887127 142.077179 
L 340.098153 150.060595 
L 340.455273 174.116833 
L 341.542865 252.691353 
L 341.899985 263.320333 
L 342.127244 265.244178 
L 342.192175 265.077875 
L 342.322036 263.730808 
L 342.516829 258.955515 
L 342.792785 245.716208 
L 343.166138 215.032733 
L 343.977775 145.022981 
L 344.205033 140.227445 
L 344.221265 140.210523 
L 344.253731 140.302729 
L 344.351127 141.559131 
L 344.529687 147.387958 
L 344.838109 166.047723 
L 346.185425 258.439634 
L 346.493847 264.695788 
L 346.623709 265.240769 
L 346.656175 265.17639 
L 346.769804 264.292166 
L 346.948364 260.690382 
L 347.208087 249.974524 
L 347.548975 224.965473 
L 348.571636 141.710095 
L 348.701498 140.212965 
L 348.733964 140.267151 
L 348.83136 141.414024 
L 349.00992 147.064518 
L 349.318342 165.50513 
L 350.681891 258.715591 
L 350.990313 264.773067 
L 351.103942 265.244027 
L 351.136407 265.1982 
L 351.233804 264.562095 
L 351.396131 261.741836 
L 351.639622 252.883187 
L 351.964276 231.278136 
L 353.133033 140.519119 
L 353.197964 140.211086 
L 353.246662 140.423116 
L 353.360291 142.329698 
L 353.571316 150.593649 
L 353.944669 176.254548 
L 354.983564 251.728541 
L 355.356916 263.220126 
L 355.584175 265.24311 
L 355.632873 265.17147 
L 355.746502 264.27359 
L 355.925062 260.648207 
L 356.184785 249.892635 
L 356.525673 224.830462 
L 357.532102 142.056799 
L 357.678196 140.21177 
L 357.710662 140.273646 
L 357.808058 141.442684 
L 357.986618 147.129301 
L 358.29504 165.614411 
L 359.658589 258.761399 
L 359.967011 264.785482 
L 360.08064 265.243706 
L 360.113105 265.194137 
L 360.210502 264.54643 
L 360.389062 261.292339 
L 360.632553 252.000634 
L 360.957207 229.776619 
L 362.093498 140.684945 
L 362.174662 140.212003 
L 362.22336 140.43546 
L 362.336989 142.367284 
L 362.548015 150.671316 
L 362.921367 176.375173 
L 363.944029 251.066938 
L 364.317382 262.957958 
L 364.54464 265.2288 
L 364.577105 265.238266 
L 364.609571 265.166376 
L 364.7232 264.254829 
L 364.90176 260.605823 
L 365.161484 249.810503 
L 365.502371 224.695258 
L 366.5088 142.020138 
L 366.654895 140.21093 
L 366.68736 140.280491 
L 366.784756 141.471671 
L 366.963316 147.194356 
L 367.271738 165.723844 
L 368.635287 258.807046 
L 368.943709 264.797733 
L 369.057338 265.243215 
L 369.089804 265.189901 
L 369.1872 264.530583 
L 369.36576 261.253252 
L 369.609251 251.92495 
L 369.933905 229.649084 
L 371.070196 140.666574 
L 371.15136 140.213274 
L 371.200058 140.448148 
L 371.313687 142.405185 
L 371.524713 150.749229 
L 371.898065 176.49589 
L 372.920727 251.134461 
L 373.29408 262.985147 
L 373.521338 265.230998 
L 373.553804 265.236758 
L 373.586269 265.161108 
L 373.699898 264.235882 
L 373.878458 260.563229 
L 374.138182 249.728128 
L 374.479069 224.559861 
L 375.485498 141.983848 
L 375.631593 140.210446 
L 375.664058 140.287685 
L 375.761455 141.500985 
L 375.940015 147.259684 
L 376.248436 165.833428 
L 377.611985 258.852533 
L 377.920407 264.80982 
L 378.034036 265.242553 
L 378.066502 265.185492 
L 378.163898 264.514553 
L 378.342458 261.213958 
L 378.585949 251.849026 
L 378.910604 229.521336 
L 380.046895 140.648569 
L 380.128058 140.214898 
L 380.160524 140.337706 
L 380.274153 142.043809 
L 380.468945 149.179612 
L 380.809833 171.440292 
L 381.978589 254.630467 
L 382.319476 263.80751 
L 382.514269 265.244164 
L 382.530502 265.235079 
L 382.611665 264.881024 
L 382.75776 262.887857 
L 382.985018 255.9532 
L 383.277207 239.173308 
L 383.715491 198.572203 
L 384.316102 147.238093 
L 384.559593 140.399965 
L 384.608291 140.210317 
L 384.656989 140.400019 
L 384.770618 142.257258 
L 384.981644 150.442787 
L 385.338764 174.712316 
L 386.410124 252.312993 
L 386.767244 263.169709 
L 386.994502 265.241604 
L 387.0432 265.180911 
L 387.140596 264.498341 
L 387.319156 261.174458 
L 387.562647 251.772863 
L 387.887302 229.393374 
L 389.00736 140.84302 
L 389.088524 140.214432 
L 389.137222 140.347319 
L 389.250851 142.078885 
L 389.461876 150.064266 
L 389.818996 174.122587 
L 390.906589 252.694433 
L 391.263709 263.321545 
L 391.490967 265.244175 
L 391.555898 265.077507 
L 391.68576 263.72967 
L 391.880553 258.953088 
L 392.156509 245.711675 
L 392.529862 215.025628 
L 393.341498 145.020095 
L 393.568756 140.227277 
L 393.584989 140.210543 
L 393.617455 140.303119 
L 393.714851 141.56059 
L 393.893411 147.391153 
L 394.201833 166.053047 
L 395.549149 258.441902 
L 395.857571 264.69644 
L 395.987433 265.240716 
L 396.019898 265.176155 
L 396.133527 264.291271 
L 396.312087 260.688345 
L 396.571811 249.970565 
L 396.912698 224.95894 
L 397.93536 141.70849 
L 398.065222 140.212899 
L 398.097687 140.267458 
L 398.195084 141.415404 
L 398.373644 147.067649 
L 398.487273 152.759259 
L 398.487273 152.759259 
" clip-path="url(#p14f973b8db)" style="fill: none; stroke: #bf00bf; stroke-width: 1.5; stroke-linecap: square"/>
   </g>
   <g id="line2d_10">
    <path d="M 73.832727 251.70048 
L 74.141149 260.982895 
L 74.319709 262.368901 
L 74.335942 262.363016 
L 74.417105 262.01643 
L 74.5632 260.090404 
L 74.806691 253.243736 
L 75.147578 236.165255 
L 75.650793 197.779661 
L 76.397498 143.410846 
L 76.657222 136.640479 
L 76.70592 136.448227 
L 76.754618 136.622155 
L 76.868247 138.489634 
L 77.06304 146.506688 
L 77.371462 170.322004 
L 78.345425 252.812613 
L 78.653847 261.342874 
L 78.816175 262.368337 
L 78.832407 262.350807 
L 78.913571 261.946955 
L 79.075898 259.593868 
L 79.319389 252.281851 
L 79.660276 234.577499 
L 80.195956 192.847565 
L 80.877731 143.732514 
L 81.153687 136.578636 
L 81.202385 136.45238 
L 81.234851 136.571992 
L 81.332247 137.931302 
L 81.510807 144.379243 
L 81.802996 165.169255 
L 82.923055 256.263213 
L 83.199011 261.961062 
L 83.296407 262.369252 
L 83.345105 262.281966 
L 83.458735 261.346032 
L 83.653527 257.416406 
L 83.945716 246.107184 
L 84.351535 220.220135 
L 85.520291 138.423313 
L 85.682618 136.448076 
L 85.698851 136.468711 
L 85.780015 137.192318 
L 85.926109 141.152882 
L 86.1696 155.182755 
L 86.607884 196.736557 
L 87.192262 246.411513 
L 87.533149 259.661763 
L 87.760407 262.342388 
L 87.792873 262.367617 
L 87.825338 262.307427 
L 87.938967 261.437413 
L 88.13376 257.617956 
L 88.425949 246.471588 
L 88.831767 220.781415 
L 90.016756 138.216679 
L 90.162851 136.452171 
L 90.195316 136.497265 
L 90.27648 137.334666 
L 90.438807 142.178662 
L 90.698531 158.399018 
L 91.234211 210.860257 
L 91.737425 249.501513 
L 92.06208 260.488136 
L 92.273105 262.369423 
L 92.338036 262.203019 
L 92.467898 260.870797 
L 92.678924 255.934309 
L 92.987345 242.643089 
L 93.425629 212.441803 
L 94.415825 140.76347 
L 94.643084 136.464638 
L 94.659316 136.448267 
L 94.691782 136.538088 
L 94.789178 137.806121 
L 94.967738 144.085893 
L 95.243695 163.220246 
L 96.428684 257.616588 
L 96.688407 262.150914 
L 96.769571 262.366718 
L 96.802036 262.302636 
L 96.915665 261.419298 
L 97.110458 257.577586 
L 97.402647 246.398322 
L 97.808465 220.668289 
L 98.993455 138.18304 
L 99.139549 136.450669 
L 99.172015 136.503265 
L 99.253178 137.359818 
L 99.415505 142.242677 
L 99.675229 158.518856 
L 100.210909 211.007388 
L 100.714124 249.576659 
L 101.038778 260.514993 
L 101.249804 262.369414 
L 101.314735 262.195249 
L 101.444596 260.847921 
L 101.655622 255.887416 
L 101.964044 242.561739 
L 102.402327 212.321465 
L 103.392524 140.711989 
L 103.619782 136.461447 
L 103.636015 136.448802 
L 103.66848 136.546154 
L 103.765876 137.837272 
L 103.944436 144.159616 
L 104.220393 163.349849 
L 105.389149 257.170997 
L 105.665105 262.159787 
L 105.746269 262.365639 
L 105.778735 262.297667 
L 105.892364 261.401012 
L 106.087156 257.537048 
L 106.379345 246.324891 
L 106.785164 220.555049 
L 107.970153 138.149713 
L 108.116247 136.449508 
L 108.148713 136.509612 
L 108.246109 137.68651 
L 108.424669 143.797956 
L 108.700625 162.710412 
L 109.901847 257.916669 
L 110.161571 262.208751 
L 110.226502 262.369225 
L 110.2752 262.264428 
L 110.388829 261.288618 
L 110.583622 257.292282 
L 110.875811 245.884446 
L 111.281629 219.878732 
L 112.450385 138.317784 
L 112.612713 136.449679 
L 112.628945 136.481573 
L 112.710109 137.262499 
L 112.872436 141.991768 
L 113.13216 158.046866 
L 113.651607 208.809288 
L 114.154822 248.435641 
L 114.495709 260.407689 
L 114.706735 262.368399 
L 114.755433 262.292521 
L 114.869062 261.382553 
L 115.063855 257.49634 
L 115.356044 246.251295 
L 115.761862 220.441694 
L 116.946851 138.116698 
L 117.092945 136.448689 
L 117.125411 136.516306 
L 117.222807 137.716252 
L 117.401367 143.870308 
L 117.677324 162.839078 
L 118.862313 257.486012 
L 119.122036 262.123641 
L 119.2032 262.368855 
L 119.251898 262.258228 
L 119.365527 261.269136 
L 119.56032 257.250569 
L 119.852509 245.809871 
L 120.258327 219.764707 
L 121.427084 138.283228 
L 121.589411 136.4509 
L 121.605644 136.486552 
L 121.686807 137.286602 
L 121.849135 142.054741 
L 122.108858 158.165907 
L 122.644538 210.572742 
L 123.147753 249.35416 
L 123.472407 260.43514 
L 123.683433 262.368922 
L 123.732131 262.287197 
L 123.84576 261.363923 
L 124.040553 257.455464 
L 124.332742 246.177534 
L 124.73856 220.328226 
L 125.907316 138.457372 
L 126.069644 136.448212 
L 126.102109 136.523347 
L 126.199505 137.746351 
L 126.378065 143.943007 
L 126.654022 162.967982 
L 127.839011 257.530461 
L 128.098735 262.133063 
L 128.179898 262.368306 
L 128.228596 262.251852 
L 128.342225 261.249482 
L 128.537018 257.208688 
L 128.829207 245.735132 
L 129.235025 219.65057 
L 130.387549 138.639085 
L 130.566109 136.452464 
L 130.582342 136.491876 
L 130.663505 137.31106 
L 130.825833 142.118068 
L 131.085556 158.285219 
L 131.621236 210.720117 
L 132.124451 249.429775 
L 132.449105 260.462389 
L 132.660131 262.369265 
L 132.708829 262.281696 
L 132.822458 261.34512 
L 133.017251 257.414419 
L 133.30944 246.103609 
L 133.715258 220.214645 
L 134.884015 138.421592 
L 135.046342 136.448077 
L 135.062575 136.468894 
L 135.143738 137.193423 
L 135.289833 141.155678 
L 135.533324 155.188163 
L 135.971607 196.744017 
L 136.555985 246.415599 
L 136.896873 259.663338 
L 137.124131 262.342539 
L 137.156596 262.367578 
L 137.189062 262.3072 
L 137.302691 261.436541 
L 137.497484 257.616009 
L 137.789673 246.468052 
L 138.195491 220.775952 
L 139.38048 138.215047 
L 139.526575 136.452091 
L 139.55904 136.497547 
L 139.640204 137.335874 
L 139.802531 142.181747 
L 140.062255 158.404801 
L 140.597935 210.867368 
L 141.101149 249.505149 
L 141.425804 260.489438 
L 141.636829 262.369427 
L 141.70176 262.202648 
L 141.831622 260.869696 
L 142.042647 255.932047 
L 142.351069 242.639162 
L 142.789353 212.435991 
L 143.779549 140.760976 
L 144.006807 136.464477 
L 144.02304 136.448285 
L 144.055505 136.53847 
L 144.152902 137.807618 
L 144.331462 144.089447 
L 144.607418 163.226503 
L 145.792407 257.61871 
L 146.052131 262.151347 
L 146.133295 262.36667 
L 146.16576 262.3024 
L 146.279389 261.418419 
L 146.474182 257.575631 
L 146.766371 246.394778 
L 147.172189 220.66282 
L 148.357178 138.181423 
L 148.503273 136.450605 
L 148.535738 136.503564 
L 148.616902 137.361042 
L 148.779229 142.245779 
L 149.038953 158.524653 
L 149.574633 211.014494 
L 150.077847 249.580284 
L 150.402502 260.516285 
L 150.613527 262.369409 
L 150.678458 262.194869 
L 150.80832 260.846811 
L 151.019345 255.885146 
L 151.327767 242.557805 
L 151.766051 212.315649 
L 152.756247 140.709509 
L 152.983505 136.461302 
L 152.999738 136.448836 
L 153.032204 136.546553 
L 153.1296 137.838787 
L 153.30816 144.163187 
L 153.584116 163.356117 
L 154.752873 257.173223 
L 155.028829 262.16021 
L 155.109993 262.365582 
L 155.142458 262.297422 
L 155.256087 261.400124 
L 155.45088 257.535084 
L 155.743069 246.321338 
L 156.148887 220.549574 
L 157.333876 138.14811 
L 157.479971 136.44946 
L 157.512436 136.509928 
L 157.609833 137.687939 
L 157.788393 143.801444 
L 158.064349 162.716624 
L 159.265571 257.918718 
L 159.525295 262.209122 
L 159.590225 262.369211 
L 159.638924 262.264132 
L 159.752553 261.28768 
L 159.947345 257.29027 
L 160.239535 245.880846 
L 160.645353 219.873225 
L 161.814109 138.316107 
L 161.976436 136.44973 
L 161.992669 136.481806 
L 162.073833 137.263656 
L 162.23616 141.994803 
L 162.495884 158.052612 
L 163.015331 208.81648 
L 163.518545 248.439439 
L 163.859433 260.40902 
L 164.070458 262.368429 
L 164.119156 262.292267 
L 164.232785 261.381657 
L 164.427578 257.494369 
L 164.719767 246.247734 
L 165.125585 220.436214 
L 166.310575 138.11511 
L 166.456669 136.448658 
L 166.489135 136.516639 
L 166.586531 137.717698 
L 166.765091 143.873813 
L 167.041047 162.845301 
L 168.226036 257.488165 
L 168.48576 262.1241 
L 168.566924 262.368833 
L 168.615622 262.257924 
L 168.729251 261.26819 
L 168.924044 257.248549 
L 169.216233 245.806263 
L 169.622051 219.759194 
L 170.790807 138.281566 
L 170.953135 136.450968 
L 170.969367 136.486801 
L 171.050531 137.287776 
L 171.212858 142.057794 
L 171.472582 158.171667 
L 172.008262 210.579867 
L 172.511476 249.35782 
L 172.836131 260.436461 
L 173.047156 262.368943 
L 173.095855 262.286935 
L 173.209484 261.363018 
L 173.404276 257.453484 
L 173.696465 246.173965 
L 174.102284 220.32274 
L 175.27104 138.455636 
L 175.433367 136.448198 
L 175.465833 136.523696 
L 175.563229 137.747815 
L 175.741789 143.946529 
L 176.017745 162.974218 
L 177.202735 257.532604 
L 177.462458 262.133513 
L 177.543622 262.368275 
L 177.59232 262.251539 
L 177.705949 261.248528 
L 177.900742 257.20666 
L 178.192931 245.731516 
L 178.598749 219.645052 
L 179.751273 138.637276 
L 179.929833 136.452549 
L 179.946065 136.492143 
L 180.027229 137.312252 
L 180.189556 142.121138 
L 180.44928 158.290992 
L 180.98496 210.727237 
L 181.488175 249.433423 
L 181.812829 260.463701 
L 182.023855 262.369276 
L 182.072553 262.281426 
L 182.186182 261.344207 
L 182.380975 257.412431 
L 182.673164 246.100032 
L 183.078982 220.209153 
L 184.247738 138.41987 
L 184.410065 136.44808 
L 184.426298 136.469077 
L 184.507462 137.194529 
L 184.653556 141.158477 
L 184.897047 155.193574 
L 185.335331 196.751481 
L 185.919709 246.419687 
L 186.260596 259.664913 
L 186.487855 262.34269 
L 186.52032 262.367538 
L 186.552785 262.306972 
L 186.666415 261.435669 
L 186.861207 257.614061 
L 187.153396 246.464515 
L 187.559215 220.770487 
L 188.744204 138.213414 
L 188.890298 136.452012 
L 188.922764 136.49783 
L 189.003927 137.337082 
L 189.166255 142.184834 
L 189.425978 158.410588 
L 189.961658 210.874482 
L 190.464873 249.508786 
L 190.789527 260.49074 
L 191.000553 262.36943 
L 191.065484 262.202275 
L 191.195345 260.868593 
L 191.406371 255.929784 
L 191.714793 242.635233 
L 192.153076 212.430176 
L 193.143273 140.758482 
L 193.370531 136.464316 
L 193.386764 136.448304 
L 193.419229 136.538853 
L 193.516625 137.809117 
L 193.695185 144.093003 
L 193.971142 163.232762 
L 195.156131 257.620832 
L 195.415855 262.15178 
L 195.497018 262.366621 
L 195.529484 262.302163 
L 195.643113 261.417538 
L 195.837905 257.573675 
L 196.130095 246.391232 
L 196.535913 220.657349 
L 197.720902 138.179806 
L 197.866996 136.450542 
L 197.899462 136.503864 
L 197.980625 137.362268 
L 198.142953 142.248883 
L 198.402676 158.530453 
L 198.938356 211.021602 
L 199.441571 249.58391 
L 199.766225 260.517577 
L 199.977251 262.369403 
L 200.042182 262.194488 
L 200.172044 260.8457 
L 200.383069 255.882874 
L 200.691491 242.553868 
L 201.129775 212.309829 
L 202.119971 140.707029 
L 202.347229 136.461158 
L 202.363462 136.448872 
L 202.395927 136.546953 
L 202.493324 137.840303 
L 202.671884 144.166761 
L 202.94784 163.362389 
L 204.116596 257.175449 
L 204.392553 262.160634 
L 204.473716 262.365524 
L 204.506182 262.297177 
L 204.619811 261.399235 
L 204.814604 257.53312 
L 205.106793 246.317784 
L 205.512611 220.544097 
L 206.6976 138.146508 
L 206.843695 136.449414 
L 206.87616 136.510245 
L 206.973556 137.689369 
L 207.152116 143.804934 
L 207.428073 162.722839 
L 208.629295 257.920768 
L 208.889018 262.209492 
L 208.953949 262.369196 
L 209.002647 262.263836 
L 209.116276 261.286742 
L 209.311069 257.288257 
L 209.603258 245.877244 
L 210.009076 219.867715 
L 211.177833 138.314431 
L 211.34016 136.449782 
L 211.356393 136.48204 
L 211.437556 137.264814 
L 211.599884 141.99784 
L 211.859607 158.058362 
L 212.379055 208.823675 
L 212.882269 248.443237 
L 213.223156 260.410351 
L 213.434182 262.368457 
L 213.48288 262.292013 
L 213.596509 261.38076 
L 213.791302 257.492396 
L 214.083491 246.244172 
L 214.489309 220.430731 
L 215.674298 138.113523 
L 215.820393 136.448628 
L 215.852858 136.516972 
L 215.950255 137.719146 
L 216.128815 143.87732 
L 216.404771 162.851528 
L 217.58976 257.490318 
L 217.849484 262.12456 
L 217.930647 262.36881 
L 217.979345 262.257619 
L 218.092975 261.267243 
L 218.287767 257.246528 
L 218.579956 245.802653 
L 218.985775 219.753678 
L 220.138298 138.673048 
L 220.316858 136.451036 
L 220.333091 136.487052 
L 220.414255 137.288952 
L 220.576582 142.060848 
L 220.836305 158.17743 
L 221.371985 210.586995 
L 221.8752 249.36148 
L 222.199855 260.437783 
L 222.41088 262.368963 
L 222.459578 262.286673 
L 222.573207 261.362112 
L 222.768 257.451503 
L 223.060189 246.170395 
L 223.466007 220.317251 
L 224.634764 138.4539 
L 224.797091 136.448184 
L 224.829556 136.524046 
L 224.926953 137.74928 
L 225.105513 143.950054 
L 225.381469 162.980457 
L 226.566458 257.534747 
L 226.826182 262.133963 
L 226.907345 262.368244 
L 226.956044 262.251226 
L 227.069673 261.247573 
L 227.264465 257.20463 
L 227.556655 245.727898 
L 227.962473 219.63953 
L 229.114996 138.635466 
L 229.293556 136.452634 
L 229.309789 136.49241 
L 229.390953 137.313444 
L 229.55328 142.124209 
L 229.813004 158.296769 
L 230.348684 210.734359 
L 230.851898 249.437072 
L 231.176553 260.465013 
L 231.387578 262.369288 
L 231.436276 262.281155 
L 231.549905 261.343293 
L 231.744698 257.410441 
L 232.036887 246.096453 
L 232.442705 220.203658 
L 233.611462 138.418149 
L 233.773789 136.448083 
L 233.790022 136.469262 
L 233.871185 137.195637 
L 234.01728 141.161277 
L 234.260771 155.198988 
L 234.699055 196.758947 
L 235.283433 246.423777 
L 235.62432 259.666488 
L 235.851578 262.34284 
L 235.884044 262.367498 
L 235.916509 262.306743 
L 236.030138 261.434796 
L 236.224931 257.612112 
L 236.51712 246.460975 
L 236.922938 220.765019 
L 238.107927 138.211782 
L 238.254022 136.451933 
L 238.286487 136.498114 
L 238.367651 137.338292 
L 238.529978 142.187923 
L 238.789702 158.416378 
L 239.325382 210.881598 
L 239.828596 249.512424 
L 240.153251 260.492042 
L 240.364276 262.369433 
L 240.429207 262.201903 
L 240.559069 260.86749 
L 240.770095 255.92752 
L 241.078516 242.631303 
L 241.5168 212.424359 
L 242.506996 140.755988 
L 242.734255 136.464155 
L 242.750487 136.448324 
L 242.782953 136.539237 
L 242.880349 137.810617 
L 243.058909 144.096562 
L 243.334865 163.239025 
L 244.519855 257.622954 
L 244.779578 262.152212 
L 244.860742 262.366572 
L 244.893207 262.301926 
L 245.006836 261.416657 
L 245.201629 257.571718 
L 245.493818 246.387684 
L 245.899636 220.651875 
L 247.084625 138.178188 
L 247.23072 136.45048 
L 247.263185 136.504165 
L 247.344349 137.363495 
L 247.506676 142.25199 
L 247.7664 158.536256 
L 248.318313 212.624368 
L 248.805295 249.587536 
L 249.129949 260.51887 
L 249.340975 262.369397 
L 249.405905 262.194107 
L 249.535767 260.844589 
L 249.746793 255.880601 
L 250.055215 242.549929 
L 250.493498 212.304007 
L 251.483695 140.704548 
L 251.710953 136.461014 
L 251.727185 136.448908 
L 251.759651 136.547353 
L 251.857047 137.84182 
L 252.035607 144.170336 
L 252.311564 163.368663 
L 253.48032 257.177676 
L 253.756276 262.161057 
L 253.83744 262.365467 
L 253.869905 262.296931 
L 253.983535 261.398345 
L 254.178327 257.531154 
L 254.470516 246.314228 
L 254.876335 220.538617 
L 256.061324 138.144906 
L 256.207418 136.449368 
L 256.239884 136.510562 
L 256.33728 137.690801 
L 256.51584 143.808427 
L 256.791796 162.729057 
L 257.993018 257.922817 
L 258.252742 262.209862 
L 258.317673 262.369182 
L 258.366371 262.26354 
L 258.48 261.285803 
L 258.674793 257.286242 
L 258.966982 245.873641 
L 259.3728 219.862203 
L 260.541556 138.312754 
L 260.703884 136.449835 
L 260.720116 136.482274 
L 260.80128 137.265973 
L 260.963607 142.00088 
L 261.223331 158.064114 
L 261.742778 208.830872 
L 262.245993 248.447037 
L 262.58688 260.411682 
L 262.797905 262.368486 
L 262.846604 262.291759 
L 262.960233 261.379862 
L 263.155025 257.490422 
L 263.447215 246.240607 
L 263.853033 220.425245 
L 265.038022 138.111936 
L 265.184116 136.448599 
L 265.216582 136.517306 
L 265.313978 137.720596 
L 265.492538 143.88083 
L 265.768495 162.857758 
L 266.953484 257.492471 
L 267.213207 262.125018 
L 267.294371 262.368787 
L 267.343069 262.257314 
L 267.456698 261.266296 
L 267.651491 257.244505 
L 267.94368 245.799041 
L 268.349498 219.74816 
L 269.502022 138.671224 
L 269.680582 136.451106 
L 269.696815 136.487303 
L 269.777978 137.290128 
L 269.940305 142.063905 
L 270.200029 158.183196 
L 270.735709 210.594125 
L 271.238924 249.365142 
L 271.563578 260.439104 
L 271.774604 262.368982 
L 271.823302 262.28641 
L 271.936931 261.361206 
L 272.131724 257.449521 
L 272.423913 246.166822 
L 272.829731 220.311759 
L 273.998487 138.452164 
L 274.160815 136.448172 
L 274.19328 136.524398 
L 274.290676 137.750747 
L 274.469236 143.953581 
L 274.745193 162.986699 
L 275.930182 257.53689 
L 276.189905 262.134413 
L 276.271069 262.368211 
L 276.319767 262.250912 
L 276.433396 261.246617 
L 276.628189 257.202599 
L 276.920378 245.724277 
L 277.326196 219.634006 
L 278.47872 138.633656 
L 278.65728 136.45272 
L 278.673513 136.492678 
L 278.754676 137.314638 
L 278.917004 142.127283 
L 279.176727 158.302548 
L 279.712407 210.741483 
L 280.215622 249.440722 
L 280.540276 260.466325 
L 280.751302 262.369299 
L 280.8 262.280883 
L 280.913629 261.342378 
L 281.108422 257.408451 
L 281.400611 246.092872 
L 281.806429 220.19816 
L 282.975185 138.416428 
L 283.137513 136.448087 
L 283.153745 136.469447 
L 283.234909 137.196746 
L 283.381004 141.16408 
L 283.624495 155.204405 
L 284.062778 196.766417 
L 284.647156 246.427867 
L 284.988044 259.668064 
L 285.215302 262.34299 
L 285.247767 262.367457 
L 285.280233 262.306514 
L 285.393862 261.433923 
L 285.588655 257.610162 
L 285.880844 246.457433 
L 286.286662 220.759549 
L 287.471651 138.21015 
L 287.617745 136.451855 
L 287.650211 136.498399 
L 287.731375 137.339503 
L 287.893702 142.191014 
L 288.153425 158.422171 
L 288.689105 210.888718 
L 289.19232 249.516063 
L 289.516975 260.493344 
L 289.728 262.369435 
L 289.792931 262.20153 
L 289.922793 260.866386 
L 290.133818 255.925254 
L 290.44224 242.62737 
L 290.880524 212.418539 
L 291.87072 140.753493 
L 292.097978 136.463996 
L 292.114211 136.448345 
L 292.146676 136.539622 
L 292.244073 137.812118 
L 292.422633 144.100123 
L 292.698589 163.245291 
L 293.883578 257.625077 
L 294.143302 262.152644 
L 294.224465 262.366522 
L 294.256931 262.301688 
L 294.37056 261.415775 
L 294.565353 257.569759 
L 294.857542 246.384134 
L 295.26336 220.646399 
L 296.448349 138.176571 
L 296.594444 136.450418 
L 296.626909 136.504467 
L 296.708073 137.364723 
L 296.8704 142.255098 
L 297.130124 158.542063 
L 297.682036 212.631413 
L 298.169018 249.591164 
L 298.493673 260.520163 
L 298.704698 262.369391 
L 298.769629 262.193725 
L 298.899491 260.843476 
L 299.110516 255.878327 
L 299.418938 242.545988 
L 299.857222 212.298183 
L 300.847418 140.702067 
L 301.074676 136.460871 
L 301.090909 136.448945 
L 301.123375 136.547755 
L 301.220771 137.843339 
L 301.399331 144.173914 
L 301.675287 163.374941 
L 302.844044 257.179903 
L 303.12 262.16148 
L 303.201164 262.365409 
L 303.233629 262.296685 
L 303.347258 261.397455 
L 303.542051 257.529188 
L 303.83424 246.31067 
L 304.240058 220.533135 
L 305.425047 138.143304 
L 305.571142 136.449323 
L 305.603607 136.510881 
L 305.701004 137.692235 
L 305.879564 143.811922 
L 306.15552 162.735278 
L 307.356742 257.924868 
L 307.616465 262.210232 
L 307.681396 262.369167 
L 307.730095 262.263242 
L 307.843724 261.284863 
L 308.038516 257.284227 
L 308.330705 245.870035 
L 308.736524 219.856688 
L 309.90528 138.311077 
L 310.067607 136.449889 
L 310.08384 136.48251 
L 310.165004 137.267134 
L 310.327331 142.003921 
L 310.587055 158.069869 
L 311.106502 208.838072 
L 311.609716 248.450838 
L 311.950604 260.413014 
L 312.161629 262.368514 
L 312.210327 262.291504 
L 312.323956 261.378963 
L 312.518749 257.488447 
L 312.810938 246.237041 
L 313.216756 220.419757 
L 314.401745 138.110349 
L 314.54784 136.448571 
L 314.580305 136.517642 
L 314.677702 137.722047 
L 314.856262 143.884342 
L 315.132218 162.863992 
L 316.317207 257.494625 
L 316.576931 262.125477 
L 316.658095 262.368763 
L 316.706793 262.257008 
L 316.820422 261.265347 
L 317.015215 257.242481 
L 317.307404 245.795427 
L 317.713222 219.742639 
L 318.865745 138.669399 
L 319.044305 136.451176 
L 319.060538 136.487556 
L 319.141702 137.291306 
L 319.304029 142.066964 
L 319.563753 158.188964 
L 320.099433 210.601258 
L 320.602647 249.368804 
L 320.927302 260.440426 
L 321.138327 262.369002 
L 321.187025 262.286146 
L 321.300655 261.360299 
L 321.495447 257.447537 
L 321.787636 246.163247 
L 322.193455 220.306265 
L 323.362211 138.450428 
L 323.524538 136.44816 
L 323.557004 136.52475 
L 323.6544 137.752215 
L 323.83296 143.95711 
L 324.108916 162.992944 
L 325.293905 257.539034 
L 325.553629 262.134863 
L 325.634793 262.368179 
L 325.683491 262.250597 
L 325.79712 261.24566 
L 325.991913 257.200567 
L 326.284102 245.720655 
L 326.68992 219.628479 
L 327.842444 138.631846 
L 328.021004 136.452807 
L 328.037236 136.492947 
L 328.1184 137.315833 
L 328.280727 142.130359 
L 328.540451 158.308331 
L 329.076131 210.748611 
L 329.579345 249.444373 
L 329.904 260.467637 
L 330.115025 262.369309 
L 330.163724 262.280611 
L 330.277353 261.341462 
L 330.472145 257.406459 
L 330.764335 246.089289 
L 331.170153 220.19266 
L 332.338909 138.414707 
L 332.501236 136.448092 
L 332.517469 136.469633 
L 332.598633 137.197856 
L 332.744727 141.166884 
L 332.988218 155.209825 
L 333.426502 196.773889 
L 334.01088 246.431958 
L 334.351767 259.669639 
L 334.579025 262.343139 
L 334.611491 262.367415 
L 334.643956 262.306285 
L 334.757585 261.433048 
L 334.952378 257.608211 
L 335.244567 246.45389 
L 335.650385 220.754076 
L 336.835375 138.208518 
L 336.981469 136.451778 
L 337.013935 136.498685 
L 337.095098 137.340716 
L 337.257425 142.194108 
L 337.517149 158.427967 
L 338.052829 210.89584 
L 338.556044 249.519702 
L 338.880698 260.494646 
L 339.091724 262.369437 
L 339.156655 262.201156 
L 339.286516 260.865281 
L 339.497542 255.922987 
L 339.805964 242.623435 
L 340.244247 212.412716 
L 341.234444 140.750998 
L 341.461702 136.463837 
L 341.477935 136.448366 
L 341.5104 136.540008 
L 341.607796 137.813621 
L 341.786356 144.103686 
L 342.062313 163.25156 
L 343.247302 257.6272 
L 343.507025 262.153076 
L 343.588189 262.366472 
L 343.620655 262.30145 
L 343.734284 261.414892 
L 343.929076 257.5678 
L 344.221265 246.380582 
L 344.627084 220.64092 
L 345.812073 138.174954 
L 345.958167 136.450358 
L 345.990633 136.504769 
L 346.071796 137.365953 
L 346.234124 142.258209 
L 346.493847 158.547872 
L 347.04576 212.63846 
L 347.532742 249.594792 
L 347.857396 260.521455 
L 348.068422 262.369384 
L 348.133353 262.193343 
L 348.263215 260.842363 
L 348.47424 255.876052 
L 348.782662 242.542045 
L 349.220945 212.292356 
L 350.211142 140.699586 
L 350.4384 136.460728 
L 350.454633 136.448983 
L 350.487098 136.548158 
L 350.584495 137.844859 
L 350.763055 144.177495 
L 351.039011 163.381222 
L 352.207767 257.18213 
L 352.483724 262.161903 
L 352.564887 262.36535 
L 352.597353 262.296438 
L 352.710982 261.396564 
L 352.905775 257.527219 
L 353.197964 246.30711 
L 353.603782 220.52765 
L 354.788771 138.141702 
L 354.934865 136.449279 
L 354.967331 136.5112 
L 355.064727 137.69367 
L 355.243287 143.81542 
L 355.519244 162.741502 
L 356.720465 257.926918 
L 356.980189 262.210601 
L 357.04512 262.369151 
L 357.093818 262.262944 
L 357.207447 261.283922 
L 357.40224 257.28221 
L 357.694429 245.866428 
L 358.100247 219.85117 
L 359.269004 138.3094 
L 359.431331 136.449944 
L 359.447564 136.482746 
L 359.528727 137.268296 
L 359.691055 142.006964 
L 359.950778 158.075627 
L 360.470225 208.845275 
L 360.97344 248.454639 
L 361.314327 260.414345 
L 361.525353 262.368542 
L 361.574051 262.291249 
L 361.68768 261.378063 
L 361.882473 257.48647 
L 362.174662 246.233473 
L 362.58048 220.414266 
L 363.765469 138.108762 
L 363.911564 136.448543 
L 363.944029 136.517978 
L 364.041425 137.723499 
L 364.219985 143.887857 
L 364.495942 162.870228 
L 365.680931 257.49678 
L 365.940655 262.125936 
L 366.021818 262.368738 
L 366.070516 262.256702 
L 366.184145 261.264398 
L 366.378938 257.240456 
L 366.671127 245.791812 
L 367.076945 219.737116 
L 368.229469 138.667575 
L 368.408029 136.451248 
L 368.424262 136.487809 
L 368.505425 137.292485 
L 368.667753 142.070024 
L 368.927476 158.194736 
L 369.463156 210.608393 
L 369.966371 249.372468 
L 370.291025 260.441747 
L 370.502051 262.369021 
L 370.550749 262.285882 
L 370.664378 261.359391 
L 370.859171 257.445553 
L 371.15136 246.159671 
L 371.557178 220.300768 
L 372.725935 138.448691 
L 372.888262 136.448149 
L 372.920727 136.525103 
L 373.018124 137.753684 
L 373.196684 143.960642 
L 373.47264 162.999192 
L 374.657629 257.541178 
L 374.917353 262.135312 
L 374.998516 262.368146 
L 375.047215 262.250282 
L 375.160844 261.244703 
L 375.355636 257.198533 
L 375.647825 245.717032 
L 376.053644 219.62295 
L 377.206167 138.630036 
L 377.384727 136.452895 
L 377.40096 136.493217 
L 377.482124 137.31703 
L 377.644451 142.133437 
L 377.904175 158.314116 
L 378.439855 210.755741 
L 378.943069 249.448025 
L 379.267724 260.468949 
L 379.478749 262.369319 
L 379.527447 262.280339 
L 379.641076 261.340546 
L 379.835869 257.404466 
L 380.128058 246.085705 
L 380.533876 220.187158 
L 381.702633 138.412985 
L 381.86496 136.448097 
L 381.881193 136.46982 
L 381.962356 137.198968 
L 382.108451 141.169691 
L 382.351942 155.215248 
L 382.790225 196.781365 
L 383.374604 246.436051 
L 383.715491 259.671215 
L 383.942749 262.343289 
L 383.975215 262.367374 
L 384.00768 262.306054 
L 384.121309 261.432173 
L 384.316102 257.606258 
L 384.608291 246.450345 
L 385.014109 220.7486 
L 386.199098 138.206887 
L 386.345193 136.451701 
L 386.377658 136.498972 
L 386.458822 137.341929 
L 386.621149 142.197203 
L 386.880873 158.433766 
L 387.416553 210.902964 
L 387.919767 249.523343 
L 388.244422 260.495949 
L 388.455447 262.369438 
L 388.520378 262.200781 
L 388.65024 260.864175 
L 388.861265 255.920718 
L 389.169687 242.619498 
L 389.607971 212.406891 
L 390.598167 140.748502 
L 390.825425 136.463679 
L 390.841658 136.448388 
L 390.874124 136.540394 
L 390.97152 137.815125 
L 391.15008 144.107252 
L 391.426036 163.257832 
L 392.611025 257.629323 
L 392.870749 262.153507 
L 392.951913 262.366422 
L 392.984378 262.301211 
L 393.098007 261.414008 
L 393.2928 257.565839 
L 393.584989 246.377029 
L 393.990807 220.635438 
L 395.175796 138.173337 
L 395.321891 136.450298 
L 395.354356 136.505073 
L 395.43552 137.367184 
L 395.597847 142.261322 
L 395.857571 158.553684 
L 396.409484 212.64551 
L 396.896465 249.598421 
L 397.22112 260.522748 
L 397.432145 262.369377 
L 397.497076 262.19296 
L 397.626938 260.841249 
L 397.837964 255.873775 
L 398.146385 242.5381 
L 398.487273 219.959598 
L 398.487273 219.959598 
" clip-path="url(#p14f973b8db)" style="fill: none; stroke: #0000ff; stroke-width: 1.5; stroke-linecap: square"/>
   </g>
   <g id="line2d_11">
    <path d="M 73.832727 182.51136 
L 74.092451 200.213816 
L 75.066415 274.59421 
L 75.423535 284.75061 
L 75.715724 287.964529 
L 75.845585 288.253191 
L 75.878051 288.223198 
L 75.99168 287.795054 
L 76.17024 286.055889 
L 76.413731 281.239238 
L 76.70592 270.586752 
L 77.06304 248.130188 
L 78.069469 177.057125 
L 78.101935 177.008406 
L 78.1344 177.1885 
L 78.248029 179.597633 
L 78.459055 190.754335 
L 78.913571 230.997767 
L 79.433018 269.072789 
L 79.806371 282.59249 
L 80.131025 287.514346 
L 80.325818 288.254331 
L 80.342051 288.249045 
L 80.439447 288.002918 
L 80.601775 286.749794 
L 80.829033 283.002079 
L 81.104989 274.474406 
L 81.429644 256.98591 
L 81.900393 217.223411 
L 82.403607 180.329312 
L 82.582167 176.999389 
L 82.5984 177.034863 
L 82.679564 178.06709 
L 82.841891 184.224401 
L 83.13408 206.032878 
L 83.961949 271.095565 
L 84.335302 283.515776 
L 84.643724 287.694685 
L 84.822284 288.252706 
L 84.838516 288.241866 
L 84.935913 287.962131 
L 85.09824 286.649467 
L 85.325498 282.802217 
L 85.617687 273.435298 
L 85.958575 254.101793 
L 86.494255 207.455424 
L 86.916305 179.4604 
L 87.0624 177.002175 
L 87.094865 177.078368 
L 87.192262 178.67102 
L 87.370822 186.586189 
L 87.711709 214.343106 
L 88.393484 268.315474 
L 88.783069 282.62745 
L 89.091491 287.396217 
L 89.302516 288.25427 
L 89.38368 288.121245 
L 89.529775 287.227045 
L 89.7408 284.307971 
L 90.016756 276.890361 
L 90.341411 261.12082 
L 90.763462 227.65678 
L 91.380305 180.274263 
L 91.558865 177.000259 
L 91.575098 177.040982 
L 91.656262 178.099213 
L 91.818589 184.304311 
L 92.110778 206.167008 
L 92.938647 271.165725 
L 93.312 283.547243 
L 93.620422 287.704571 
L 93.798982 288.252136 
L 93.815215 288.240363 
L 93.912611 287.954974 
L 94.074938 286.632271 
L 94.302196 282.768204 
L 94.594385 273.372117 
L 94.935273 253.995123 
L 95.470953 207.321718 
L 95.893004 179.412819 
L 96.039098 177.000661 
L 96.071564 177.087349 
L 96.16896 178.711005 
L 96.34752 186.676695 
L 96.688407 214.483056 
L 97.370182 268.392806 
L 97.759767 282.662281 
L 98.068189 287.408557 
L 98.279215 288.254123 
L 98.360378 288.116418 
L 98.506473 287.213446 
L 98.717498 284.279773 
L 98.993455 276.837033 
L 99.318109 261.027876 
L 99.74016 227.519626 
L 100.357004 180.219652 
L 100.535564 177.00161 
L 100.551796 177.047581 
L 100.63296 178.131806 
L 100.795287 184.384616 
L 101.087476 206.301278 
L 101.899113 270.46265 
L 102.272465 283.230176 
L 102.580887 287.602656 
L 102.759447 288.254012 
L 102.77568 288.25148 
L 102.856844 288.085894 
L 103.002938 287.130572 
L 103.230196 283.787048 
L 103.506153 275.914151 
L 103.830807 259.431698 
L 104.269091 223.690855 
L 104.837236 180.494346 
L 105.015796 176.999629 
L 105.032029 177.019611 
L 105.09696 177.670543 
L 105.243055 182.374694 
L 105.502778 199.967673 
L 106.492975 275.129874 
L 106.850095 284.983208 
L 107.142284 288.024552 
L 107.255913 288.253891 
L 107.288378 288.227542 
L 107.402007 287.812353 
L 107.580567 286.095342 
L 107.824058 281.316025 
L 108.116247 270.724321 
L 108.473367 248.357148 
L 109.479796 177.072632 
L 109.512262 177.003443 
L 109.544727 177.163069 
L 109.642124 179.001725 
L 109.836916 188.353352 
L 110.226502 221.598707 
L 110.827113 268.086081 
L 111.216698 282.523887 
L 111.541353 287.491783 
L 111.736145 288.254204 
L 111.752378 288.250738 
L 111.833542 288.080464 
L 111.979636 287.116321 
L 112.206895 283.756769 
L 112.482851 275.857956 
L 112.807505 259.335242 
L 113.245789 223.5523 
L 113.813935 180.438009 
L 113.992495 176.999078 
L 114.008727 177.024309 
L 114.089891 178.00575 
L 114.252218 184.069585 
L 114.544407 205.771503 
L 115.372276 270.958096 
L 115.745629 283.454008 
L 116.054051 287.675127 
L 116.232611 288.253573 
L 116.248844 288.244554 
L 116.34624 287.975848 
L 116.508567 286.682747 
L 116.735825 282.868241 
L 117.028015 273.55811 
L 117.368902 254.30943 
L 117.888349 209.184387 
L 118.326633 179.554554 
L 118.48896 177.005757 
L 118.505193 177.062224 
L 118.586356 178.198399 
L 118.748684 184.546407 
L 119.057105 208.045659 
L 119.836276 269.814793 
L 120.209629 282.934683 
L 120.518051 287.503388 
L 120.712844 288.25431 
L 120.729076 288.249911 
L 120.81024 288.074947 
L 120.956335 287.101976 
L 121.183593 283.726372 
L 121.459549 275.801599 
L 121.784204 259.23859 
L 122.222487 223.413714 
L 122.790633 180.382108 
L 122.969193 176.999008 
L 122.985425 177.029488 
L 123.066589 178.036955 
L 123.228916 184.14872 
L 123.521105 205.905358 
L 124.348975 271.028621 
L 124.722327 283.485715 
L 125.030749 287.685191 
L 125.209309 288.25317 
L 125.225542 288.243218 
L 125.322938 287.968861 
L 125.485265 286.665741 
L 125.712524 282.834471 
L 126.004713 273.495266 
L 126.3456 254.203133 
L 126.88128 207.582782 
L 127.303331 179.506099 
L 127.449425 177.004062 
L 127.481891 177.070267 
L 127.563055 178.232399 
L 127.725382 184.627892 
L 128.033804 208.181715 
L 128.812975 269.888308 
L 129.186327 282.96837 
L 129.494749 287.5149 
L 129.689542 288.25433 
L 129.705775 288.248999 
L 129.803171 288.002599 
L 129.965498 286.748994 
L 130.192756 283.000474 
L 130.468713 274.471497 
L 130.793367 256.98102 
L 131.264116 217.216706 
L 131.767331 180.326643 
L 131.945891 176.99942 
L 131.962124 177.035148 
L 132.043287 178.068631 
L 132.205615 184.228253 
L 132.497804 206.039354 
L 133.325673 271.098959 
L 133.699025 283.517299 
L 134.007447 287.695164 
L 134.186007 288.252681 
L 134.20224 288.241796 
L 134.299636 287.961787 
L 134.461964 286.648638 
L 134.689222 282.800577 
L 134.981411 273.432249 
L 135.322298 254.096644 
L 135.857978 207.448962 
L 136.280029 179.458092 
L 136.426124 177.002091 
L 136.458589 177.078791 
L 136.555985 178.672941 
L 136.734545 186.590553 
L 137.075433 214.349866 
L 137.757207 268.319215 
L 138.146793 282.629136 
L 138.455215 287.396815 
L 138.66624 288.254265 
L 138.747404 288.121014 
L 138.893498 287.22639 
L 139.104524 284.306611 
L 139.38048 276.887789 
L 139.705135 261.116334 
L 140.127185 227.650155 
L 140.744029 180.271615 
L 140.922589 177.000313 
L 140.938822 177.04129 
L 141.019985 178.100777 
L 141.182313 184.308182 
L 141.474502 206.173492 
L 142.302371 271.16911 
L 142.675724 283.54876 
L 142.984145 287.705047 
L 143.162705 288.252106 
L 143.178938 288.240288 
L 143.276335 287.954626 
L 143.438662 286.631438 
L 143.66592 282.766558 
L 143.958109 273.36906 
L 144.298996 253.989964 
L 144.834676 207.315261 
L 145.256727 179.410532 
L 145.402822 177.0006 
L 145.435287 177.087795 
L 145.532684 178.712949 
L 145.711244 186.681078 
L 146.052131 214.489819 
L 146.733905 268.396538 
L 147.123491 282.66396 
L 147.431913 287.409151 
L 147.642938 288.254114 
L 147.724102 288.116182 
L 147.870196 287.212786 
L 148.081222 284.278407 
L 148.357178 276.834453 
L 148.681833 261.02338 
L 149.103884 227.512997 
L 149.720727 180.217025 
L 149.899287 177.001688 
L 149.91552 177.047913 
L 149.996684 178.133393 
L 150.159011 184.388506 
L 150.4512 206.307769 
L 151.262836 270.466125 
L 151.636189 283.231752 
L 151.944611 287.603175 
L 152.123171 288.254023 
L 152.139404 288.251446 
L 152.220567 288.085633 
L 152.366662 287.129885 
L 152.59392 283.785588 
L 152.869876 275.911439 
L 153.194531 259.427042 
L 153.632815 223.684161 
L 154.20096 180.491614 
L 154.37952 176.999591 
L 154.395753 177.019827 
L 154.460684 177.671768 
L 154.606778 182.378058 
L 154.866502 199.973757 
L 155.856698 275.132728 
L 156.213818 284.984439 
L 156.506007 288.024857 
L 156.619636 288.253877 
L 156.652102 288.227438 
L 156.765731 287.811929 
L 156.944291 286.09437 
L 157.187782 281.31413 
L 157.479971 270.720923 
L 157.837091 248.351537 
L 158.84352 177.072226 
L 158.875985 177.003544 
L 158.908451 177.163677 
L 159.005847 179.003823 
L 159.20064 188.358042 
L 159.590225 221.605516 
L 160.190836 268.08985 
L 160.580422 282.525592 
L 160.905076 287.492346 
L 161.099869 288.254211 
L 161.116102 288.2507 
L 161.197265 288.080199 
L 161.34336 287.11563 
L 161.570618 283.755303 
L 161.846575 275.855237 
L 162.171229 259.330576 
L 162.609513 223.545604 
L 163.177658 180.435298 
L 163.356218 176.999064 
L 163.372451 177.024548 
L 163.453615 178.007247 
L 163.615942 184.0734 
L 163.908131 205.777968 
L 164.736 270.961508 
L 165.109353 283.455543 
L 165.417775 287.675616 
L 165.596335 288.253555 
L 165.612567 288.244492 
L 165.709964 287.975512 
L 165.872291 286.681927 
L 166.099549 282.866612 
L 166.391738 273.555077 
L 166.732625 254.304298 
L 167.268305 207.710246 
L 167.690356 179.552203 
L 167.852684 177.005881 
L 167.868916 177.062602 
L 167.95008 178.200032 
L 168.112407 184.550336 
L 168.420829 208.052231 
L 169.2 269.81835 
L 169.573353 282.936314 
L 169.881775 287.503946 
L 170.076567 288.254312 
L 170.0928 288.249869 
L 170.173964 288.074678 
L 170.320058 287.10128 
L 170.547316 283.724899 
L 170.823273 275.798872 
L 171.147927 259.233914 
L 171.586211 223.407016 
L 172.154356 180.379417 
L 172.332916 176.999017 
L 172.349149 177.02975 
L 172.430313 178.038475 
L 172.59264 184.152555 
L 172.884829 205.91183 
L 173.712698 271.032024 
L 174.086051 283.487244 
L 174.394473 287.685675 
L 174.573033 288.253148 
L 174.589265 288.243151 
L 174.686662 287.968521 
L 174.848989 286.664917 
L 175.076247 282.832836 
L 175.368436 273.492225 
L 175.709324 254.197991 
L 176.245004 207.576312 
L 176.667055 179.503769 
L 176.813149 177.003956 
L 176.845615 177.070668 
L 176.926778 178.234054 
L 177.089105 184.631841 
L 177.397527 208.188293 
L 178.176698 269.891856 
L 178.550051 282.969995 
L 178.858473 287.515454 
L 179.053265 288.254329 
L 179.069498 288.248952 
L 179.166895 288.00228 
L 179.329222 286.748192 
L 179.55648 282.998869 
L 179.832436 274.468586 
L 180.157091 256.976128 
L 180.62784 217.209998 
L 181.131055 180.323973 
L 181.309615 176.999452 
L 181.325847 177.035434 
L 181.407011 178.070174 
L 181.569338 184.232107 
L 181.861527 206.045834 
L 182.689396 271.102353 
L 183.062749 283.518822 
L 183.371171 287.695644 
L 183.549731 288.252655 
L 183.565964 288.241725 
L 183.66336 287.961443 
L 183.825687 286.647809 
L 184.052945 282.798936 
L 184.345135 273.429199 
L 184.686022 254.091492 
L 185.221702 207.442497 
L 185.643753 179.455783 
L 185.789847 177.002008 
L 185.822313 177.079215 
L 185.919709 178.674865 
L 186.098269 186.59492 
L 186.439156 214.356629 
L 187.120931 268.322956 
L 187.510516 282.630822 
L 187.818938 287.397413 
L 188.029964 288.254259 
L 188.111127 288.120782 
L 188.257222 287.225734 
L 188.468247 284.30525 
L 188.744204 276.885214 
L 189.068858 261.111846 
L 189.490909 227.643527 
L 190.107753 180.268967 
L 190.286313 177.000369 
L 190.302545 177.041599 
L 190.383709 178.102343 
L 190.546036 184.312055 
L 190.838225 206.179979 
L 191.666095 271.172496 
L 192.039447 283.550277 
L 192.347869 287.705522 
L 192.526429 288.252076 
L 192.542662 288.240213 
L 192.640058 287.954277 
L 192.802385 286.630604 
L 193.029644 282.76491 
L 193.321833 273.366001 
L 193.66272 253.984803 
L 194.1984 207.308801 
L 194.620451 179.408245 
L 194.766545 177.000541 
L 194.799011 177.088243 
L 194.896407 178.714894 
L 195.074967 186.685463 
L 195.415855 214.496585 
L 196.097629 268.40027 
L 196.487215 282.66564 
L 196.795636 287.409745 
L 197.006662 288.254104 
L 197.087825 288.115946 
L 197.23392 287.212126 
L 197.444945 284.277041 
L 197.720902 276.831871 
L 198.045556 261.018882 
L 198.467607 227.506366 
L 199.084451 180.214398 
L 199.263011 177.001767 
L 199.279244 177.048245 
L 199.360407 178.134982 
L 199.522735 184.392399 
L 199.814924 206.314263 
L 200.62656 270.469601 
L 200.999913 283.233329 
L 201.308335 287.603694 
L 201.486895 288.254034 
L 201.503127 288.251412 
L 201.584291 288.085372 
L 201.730385 287.129198 
L 201.957644 283.784127 
L 202.2336 275.908726 
L 202.558255 259.422383 
L 202.996538 223.677464 
L 203.564684 180.488882 
L 203.743244 176.999555 
L 203.759476 177.020044 
L 203.824407 177.672995 
L 203.970502 182.381425 
L 204.230225 199.979845 
L 205.220422 275.135583 
L 205.577542 284.98567 
L 205.869731 288.025162 
L 205.98336 288.253864 
L 206.015825 288.227335 
L 206.129455 287.811504 
L 206.308015 286.093397 
L 206.551505 281.312234 
L 206.843695 270.717524 
L 207.200815 248.345923 
L 208.207244 177.071822 
L 208.239709 177.003646 
L 208.272175 177.164286 
L 208.369571 179.005924 
L 208.564364 188.362735 
L 208.953949 221.612327 
L 209.55456 268.09362 
L 209.944145 282.527297 
L 210.2688 287.492909 
L 210.463593 288.254217 
L 210.479825 288.250662 
L 210.560989 288.079934 
L 210.707084 287.114938 
L 210.934342 283.753836 
L 211.210298 275.852516 
L 211.534953 259.325908 
L 211.973236 223.538906 
L 212.541382 180.432587 
L 212.719942 176.999051 
L 212.736175 177.024789 
L 212.817338 178.008746 
L 212.979665 184.077218 
L 213.271855 205.784436 
L 214.099724 270.964921 
L 214.473076 283.457078 
L 214.781498 287.676104 
L 214.960058 288.253538 
L 214.976291 288.244429 
L 215.073687 287.975176 
L 215.236015 286.681107 
L 215.463273 282.864982 
L 215.755462 273.552043 
L 216.096349 254.299163 
L 216.632029 207.703769 
L 217.05408 179.549851 
L 217.216407 177.006006 
L 217.23264 177.062981 
L 217.313804 178.201666 
L 217.476131 184.554268 
L 217.784553 208.058807 
L 218.563724 269.821908 
L 218.937076 282.937945 
L 219.245498 287.504505 
L 219.440291 288.254315 
L 219.456524 288.249827 
L 219.537687 288.074409 
L 219.683782 287.100584 
L 219.91104 283.723426 
L 220.186996 275.796142 
L 220.511651 259.229236 
L 220.949935 223.400315 
L 221.51808 180.376727 
L 221.69664 176.999028 
L 221.712873 177.030014 
L 221.794036 178.039997 
L 221.956364 184.156392 
L 222.248553 205.918306 
L 223.076422 271.035428 
L 223.449775 283.488773 
L 223.758196 287.686159 
L 223.936756 288.253126 
L 223.952989 288.243084 
L 224.050385 287.968181 
L 224.212713 286.664092 
L 224.439971 282.8312 
L 224.73216 273.489181 
L 225.073047 254.192846 
L 225.608727 207.56984 
L 226.030778 179.501439 
L 226.176873 177.003851 
L 226.209338 177.07107 
L 226.290502 178.235711 
L 226.452829 184.635791 
L 226.761251 208.194875 
L 227.540422 269.895405 
L 227.913775 282.97162 
L 228.222196 287.516008 
L 228.416989 288.254327 
L 228.433222 288.248906 
L 228.530618 288.001961 
L 228.692945 286.747391 
L 228.920204 282.997262 
L 229.19616 274.465673 
L 229.520815 256.971233 
L 229.991564 217.203287 
L 230.494778 180.321304 
L 230.673338 176.999486 
L 230.689571 177.035721 
L 230.770735 178.071719 
L 230.933062 184.235963 
L 231.225251 206.052317 
L 232.05312 271.105749 
L 232.426473 283.520345 
L 232.734895 287.696123 
L 232.913455 288.252629 
L 232.929687 288.241653 
L 233.027084 287.961098 
L 233.189411 286.646979 
L 233.416669 282.797293 
L 233.708858 273.426147 
L 234.049745 254.086338 
L 234.585425 207.43603 
L 235.007476 179.453474 
L 235.153571 177.001926 
L 235.186036 177.079641 
L 235.283433 178.67679 
L 235.461993 186.59929 
L 235.80288 214.363395 
L 236.484655 268.326699 
L 236.87424 282.632508 
L 237.182662 287.398011 
L 237.393687 288.254254 
L 237.474851 288.12055 
L 237.620945 287.225078 
L 237.831971 284.303889 
L 238.107927 276.882638 
L 238.432582 261.107355 
L 238.854633 227.636897 
L 239.471476 180.266318 
L 239.650036 177.000426 
L 239.666269 177.04191 
L 239.747433 178.103911 
L 239.90976 184.315931 
L 240.201949 206.186469 
L 241.029818 271.175883 
L 241.403171 283.551795 
L 241.711593 287.705997 
L 241.890153 288.252046 
L 241.906385 288.240137 
L 242.003782 287.953928 
L 242.166109 286.629769 
L 242.393367 282.763262 
L 242.685556 273.362941 
L 243.026444 253.979639 
L 243.562124 207.30234 
L 243.984175 179.405958 
L 244.130269 177.000482 
L 244.162735 177.088692 
L 244.260131 178.716842 
L 244.438691 186.689851 
L 244.779578 214.503354 
L 245.461353 268.404004 
L 245.850938 282.66732 
L 246.15936 287.410339 
L 246.370385 288.254094 
L 246.451549 288.11571 
L 246.597644 287.211466 
L 246.808669 284.275674 
L 247.084625 276.829287 
L 247.40928 261.014382 
L 247.831331 227.499732 
L 248.448175 180.21177 
L 248.626735 177.001847 
L 248.642967 177.048579 
L 248.724131 178.136572 
L 248.886458 184.396294 
L 249.178647 206.32076 
L 249.990284 270.473078 
L 250.363636 283.234906 
L 250.672058 287.604212 
L 250.850618 288.254045 
L 250.866851 288.251377 
L 250.948015 288.085111 
L 251.094109 287.128511 
L 251.321367 283.782664 
L 251.597324 275.906011 
L 251.921978 259.417722 
L 252.360262 223.670764 
L 252.928407 180.48615 
L 253.106967 176.99952 
L 253.1232 177.020263 
L 253.188131 177.674224 
L 253.334225 182.384794 
L 253.593949 199.985935 
L 254.584145 275.138438 
L 254.941265 284.986901 
L 255.233455 288.025466 
L 255.347084 288.25385 
L 255.379549 288.22723 
L 255.493178 287.811079 
L 255.671738 286.092424 
L 255.915229 281.310337 
L 256.207418 270.714122 
L 256.564538 248.340307 
L 257.570967 177.071418 
L 257.603433 177.003749 
L 257.635898 177.164896 
L 257.733295 179.008027 
L 257.928087 188.367431 
L 258.317673 221.619142 
L 258.918284 268.097391 
L 259.307869 282.529002 
L 259.632524 287.493472 
L 259.827316 288.254224 
L 259.843549 288.250623 
L 259.924713 288.079669 
L 260.070807 287.114246 
L 260.298065 283.752368 
L 260.574022 275.849793 
L 260.898676 259.321237 
L 261.33696 223.532204 
L 261.905105 180.429875 
L 262.083665 176.999039 
L 262.099898 177.025031 
L 262.181062 178.010247 
L 262.343389 184.081038 
L 262.635578 205.790907 
L 263.463447 270.968335 
L 263.8368 283.458614 
L 264.145222 287.676592 
L 264.323782 288.25352 
L 264.340015 288.244366 
L 264.437411 287.974839 
L 264.599738 286.680286 
L 264.826996 282.863351 
L 265.119185 273.549006 
L 265.460073 254.294025 
L 265.995753 207.697289 
L 266.417804 179.5475 
L 266.580131 177.006133 
L 266.596364 177.063361 
L 266.677527 178.203302 
L 266.839855 184.558202 
L 267.148276 208.065385 
L 267.927447 269.825467 
L 268.3008 282.939576 
L 268.609222 287.505063 
L 268.804015 288.254317 
L 268.820247 288.249784 
L 268.901411 288.074139 
L 269.047505 287.099888 
L 269.274764 283.721953 
L 269.55072 275.793412 
L 269.875375 259.224555 
L 270.313658 223.393611 
L 270.881804 180.374037 
L 271.060364 176.999039 
L 271.076596 177.03028 
L 271.15776 178.041521 
L 271.320087 184.160232 
L 271.612276 205.924784 
L 272.440145 271.038834 
L 272.813498 283.490303 
L 273.12192 287.686643 
L 273.30048 288.253104 
L 273.316713 288.243017 
L 273.414109 287.96784 
L 273.576436 286.663266 
L 273.803695 282.829563 
L 274.095884 273.486137 
L 274.436771 254.187699 
L 274.972451 207.563365 
L 275.394502 179.499109 
L 275.540596 177.003747 
L 275.573062 177.071474 
L 275.654225 178.23737 
L 275.816553 184.639745 
L 276.124975 208.201459 
L 276.904145 269.898955 
L 277.277498 282.973245 
L 277.58592 287.516562 
L 277.780713 288.254325 
L 277.796945 288.248859 
L 277.894342 288.001641 
L 278.056669 286.746589 
L 278.283927 282.995655 
L 278.559884 274.462759 
L 278.884538 256.966336 
L 279.355287 217.196573 
L 279.858502 180.318635 
L 280.037062 176.99952 
L 280.053295 177.03601 
L 280.134458 178.073266 
L 280.296785 184.239823 
L 280.588975 206.058803 
L 281.416844 271.109146 
L 281.790196 283.521869 
L 282.098618 287.696603 
L 282.277178 288.252602 
L 282.293411 288.241582 
L 282.390807 287.960754 
L 282.553135 286.646149 
L 282.780393 282.79565 
L 283.072582 273.423094 
L 283.413469 254.081181 
L 283.949149 207.429561 
L 284.3712 179.451166 
L 284.517295 177.001845 
L 284.54976 177.080068 
L 284.647156 178.678717 
L 284.825716 186.603662 
L 285.166604 214.370164 
L 285.848378 268.330443 
L 286.237964 282.634195 
L 286.546385 287.39861 
L 286.757411 288.254248 
L 286.838575 288.120318 
L 286.984669 287.224422 
L 287.195695 284.302527 
L 287.471651 276.880061 
L 287.796305 261.102863 
L 288.218356 227.630263 
L 288.8352 180.26367 
L 289.01376 177.000483 
L 289.029993 177.042221 
L 289.111156 178.10548 
L 289.273484 184.31981 
L 289.565673 206.192962 
L 290.393542 271.179271 
L 290.766895 283.553313 
L 291.075316 287.706473 
L 291.253876 288.252015 
L 291.270109 288.240062 
L 291.367505 287.953579 
L 291.529833 286.628934 
L 291.757091 282.761612 
L 292.04928 273.359879 
L 292.390167 253.974472 
L 292.925847 207.295876 
L 293.347898 179.403671 
L 293.493993 177.000425 
L 293.526458 177.089142 
L 293.623855 178.718792 
L 293.802415 186.694241 
L 294.143302 214.510126 
L 294.825076 268.407738 
L 295.214662 282.669001 
L 295.523084 287.410933 
L 295.734109 288.254085 
L 295.815273 288.115474 
L 295.961367 287.210805 
L 296.172393 284.274306 
L 296.448349 276.826702 
L 296.773004 261.009879 
L 297.195055 227.493095 
L 297.811898 180.209143 
L 297.990458 177.001928 
L 298.006691 177.048914 
L 298.087855 178.138164 
L 298.250182 184.400192 
L 298.542371 206.32726 
L 299.354007 270.476555 
L 299.72736 283.236483 
L 300.035782 287.604731 
L 300.214342 288.254055 
L 300.230575 288.251343 
L 300.311738 288.08485 
L 300.457833 287.127823 
L 300.685091 283.781201 
L 300.961047 275.903295 
L 301.285702 259.413059 
L 301.723985 223.664062 
L 302.292131 180.483417 
L 302.470691 176.999486 
L 302.486924 177.020483 
L 302.551855 177.675454 
L 302.697949 182.388166 
L 302.957673 199.992029 
L 303.947869 275.141294 
L 304.304989 284.988133 
L 304.597178 288.025771 
L 304.710807 288.253836 
L 304.743273 288.227126 
L 304.856902 287.810654 
L 305.035462 286.091449 
L 305.278953 281.308439 
L 305.571142 270.710719 
L 305.928262 248.334687 
L 306.934691 177.071015 
L 306.967156 177.003854 
L 306.999622 177.165508 
L 307.097018 179.010132 
L 307.291811 188.37213 
L 307.681396 221.625959 
L 308.282007 268.101163 
L 308.671593 282.530707 
L 308.996247 287.494035 
L 309.19104 288.25423 
L 309.207273 288.250585 
L 309.288436 288.079403 
L 309.434531 287.113554 
L 309.661789 283.750899 
L 309.937745 275.847069 
L 310.2624 259.316564 
L 310.700684 223.525499 
L 311.268829 180.427164 
L 311.447389 176.999028 
L 311.463622 177.025274 
L 311.544785 178.011749 
L 311.707113 184.08486 
L 311.999302 205.797382 
L 312.827171 270.971751 
L 313.200524 283.46015 
L 313.508945 287.677081 
L 313.687505 288.253501 
L 313.703738 288.244302 
L 313.801135 287.974503 
L 313.963462 286.679465 
L 314.19072 282.861719 
L 314.482909 273.545968 
L 314.823796 254.288885 
L 315.359476 207.690806 
L 315.781527 179.545148 
L 315.943855 177.006261 
L 315.960087 177.063743 
L 316.041251 178.20494 
L 316.203578 184.562138 
L 316.512 208.071966 
L 317.291171 269.829027 
L 317.664524 282.941208 
L 317.972945 287.505621 
L 318.167738 288.25432 
L 318.183971 288.249741 
L 318.265135 288.073869 
L 318.411229 287.09919 
L 318.638487 283.720478 
L 318.914444 275.790679 
L 319.239098 259.219872 
L 319.677382 223.386904 
L 320.245527 180.371346 
L 320.424087 176.999051 
L 320.44032 177.030546 
L 320.521484 178.043046 
L 320.683811 184.164074 
L 320.976 205.931266 
L 321.803869 271.04224 
L 322.177222 283.491833 
L 322.485644 287.687127 
L 322.664204 288.253081 
L 322.680436 288.242949 
L 322.777833 287.967499 
L 322.94016 286.66244 
L 323.167418 282.827925 
L 323.459607 273.48309 
L 323.800495 254.182549 
L 324.336175 207.556888 
L 324.758225 179.496779 
L 324.90432 177.003644 
L 324.936785 177.071879 
L 325.017949 178.23903 
L 325.180276 184.6437 
L 325.488698 208.208047 
L 326.267869 269.902506 
L 326.641222 282.974871 
L 326.949644 287.517116 
L 327.144436 288.254324 
L 327.160669 288.248812 
L 327.258065 288.001321 
L 327.420393 286.745786 
L 327.647651 282.994046 
L 327.923607 274.459843 
L 328.248262 256.961437 
L 328.719011 217.189856 
L 329.222225 180.315965 
L 329.400785 176.999556 
L 329.417018 177.0363 
L 329.498182 178.074814 
L 329.660509 184.243684 
L 329.952698 206.065292 
L 330.780567 271.112543 
L 331.15392 283.523394 
L 331.462342 287.697083 
L 331.640902 288.252576 
L 331.657135 288.24151 
L 331.754531 287.960408 
L 331.916858 286.645318 
L 332.144116 282.794006 
L 332.436305 273.420039 
L 332.777193 254.076022 
L 333.312873 207.423089 
L 333.734924 179.448857 
L 333.881018 177.001766 
L 333.913484 177.080496 
L 334.01088 178.680645 
L 334.18944 186.608037 
L 334.530327 214.376936 
L 335.212102 268.334188 
L 335.601687 282.635882 
L 335.910109 287.399208 
L 336.121135 288.254242 
L 336.202298 288.120086 
L 336.348393 287.223765 
L 336.559418 284.301164 
L 336.835375 276.877483 
L 337.160029 261.098367 
L 337.58208 227.623626 
L 338.198924 180.261021 
L 338.377484 177.000542 
L 338.393716 177.042534 
L 338.47488 178.107051 
L 338.637207 184.323691 
L 338.929396 206.199458 
L 339.757265 271.18266 
L 340.130618 283.554831 
L 340.43904 287.706948 
L 340.6176 288.251985 
L 340.633833 288.239986 
L 340.731229 287.95323 
L 340.893556 286.628098 
L 341.120815 282.759962 
L 341.413004 273.356815 
L 341.753891 253.969303 
L 342.289571 207.289409 
L 342.711622 179.401384 
L 342.857716 177.000369 
L 342.890182 177.089594 
L 342.987578 178.720743 
L 343.166138 186.698634 
L 343.507025 214.516901 
L 344.1888 268.411474 
L 344.578385 282.670682 
L 344.886807 287.411527 
L 345.097833 288.254074 
L 345.178996 288.115237 
L 345.325091 287.210143 
L 345.536116 284.272937 
L 345.812073 276.824115 
L 346.136727 261.005374 
L 346.558778 227.486455 
L 347.175622 180.206515 
L 347.354182 177.00201 
L 347.370415 177.04925 
L 347.451578 178.139758 
L 347.613905 184.404092 
L 347.906095 206.333764 
L 348.717731 270.480034 
L 349.091084 283.238061 
L 349.399505 287.60525 
L 349.578065 288.254066 
L 349.594298 288.251308 
L 349.675462 288.084588 
L 349.821556 287.127134 
L 350.048815 283.779737 
L 350.324771 275.900578 
L 350.649425 259.408393 
L 351.087709 223.657356 
L 351.655855 180.480685 
L 351.834415 176.999453 
L 351.850647 177.020704 
L 351.915578 177.676686 
L 352.061673 182.39154 
L 352.321396 199.998125 
L 353.311593 275.144152 
L 353.668713 284.989365 
L 353.960902 288.026076 
L 354.074531 288.253821 
L 354.106996 288.227021 
L 354.220625 287.810228 
L 354.399185 286.090475 
L 354.642676 281.306539 
L 354.934865 270.707314 
L 355.291985 248.329065 
L 356.298415 177.070613 
L 356.33088 177.003959 
L 356.363345 177.166122 
L 356.460742 179.012238 
L 356.655535 188.376832 
L 357.04512 221.632778 
L 357.645731 268.104936 
L 358.035316 282.532413 
L 358.359971 287.494597 
L 358.554764 288.254237 
L 358.570996 288.250546 
L 358.65216 288.079137 
L 358.798255 287.112861 
L 359.025513 283.749429 
L 359.301469 275.844343 
L 359.626124 259.311888 
L 360.064407 223.518792 
L 360.632553 180.424452 
L 360.811113 176.999018 
L 360.827345 177.025518 
L 360.908509 178.013254 
L 361.070836 184.088686 
L 361.363025 205.803859 
L 362.190895 270.975167 
L 362.564247 283.461686 
L 362.872669 287.677569 
L 363.051229 288.253483 
L 363.067462 288.244239 
L 363.164858 287.974166 
L 363.327185 286.678643 
L 363.554444 282.860086 
L 363.846633 273.542929 
L 364.18752 254.283742 
L 364.7232 207.684322 
L 365.145251 179.542797 
L 365.307578 177.00639 
L 365.323811 177.064126 
L 365.404975 178.206579 
L 365.567302 184.566077 
L 365.875724 208.07855 
L 366.654895 269.832588 
L 367.028247 282.94284 
L 367.336669 287.50618 
L 367.531462 288.254322 
L 367.547695 288.249698 
L 367.628858 288.073599 
L 367.774953 287.098493 
L 368.002211 283.719002 
L 368.278167 275.787946 
L 368.602822 259.215187 
L 369.041105 223.380195 
L 369.609251 180.368656 
L 369.787811 176.999065 
L 369.804044 177.030814 
L 369.885207 178.044574 
L 370.047535 184.167918 
L 370.339724 205.93775 
L 371.167593 271.045648 
L 371.540945 283.493364 
L 371.849367 287.687611 
L 372.027927 288.253059 
L 372.04416 288.242881 
L 372.141556 287.967158 
L 372.303884 286.661614 
L 372.531142 282.826285 
L 372.823331 273.480042 
L 373.164218 254.177397 
L 373.699898 207.550409 
L 374.121949 179.494449 
L 374.268044 177.003542 
L 374.300509 177.072285 
L 374.381673 178.240693 
L 374.544 184.647659 
L 374.852422 208.214637 
L 375.631593 269.906058 
L 376.004945 282.976497 
L 376.313367 287.51767 
L 376.50816 288.254321 
L 376.524393 288.248764 
L 376.621789 288.001 
L 376.784116 286.744982 
L 377.011375 282.992437 
L 377.287331 274.456926 
L 377.611985 256.956535 
L 378.082735 217.183137 
L 378.585949 180.313295 
L 378.764509 176.999593 
L 378.780742 177.036591 
L 378.861905 178.076364 
L 379.024233 184.247548 
L 379.316422 206.071783 
L 380.144291 271.115942 
L 380.517644 283.524918 
L 380.826065 287.697562 
L 381.004625 288.252549 
L 381.020858 288.241438 
L 381.118255 287.960063 
L 381.280582 286.644487 
L 381.50784 282.79236 
L 381.800029 273.416982 
L 382.140916 254.07086 
L 382.676596 207.416615 
L 383.098647 179.446549 
L 383.244742 177.001687 
L 383.277207 177.080926 
L 383.374604 178.682576 
L 383.553164 186.612415 
L 383.894051 214.383711 
L 384.575825 268.337934 
L 384.965411 282.63757 
L 385.273833 287.399807 
L 385.484858 288.254236 
L 385.566022 288.119853 
L 385.712116 287.223108 
L 385.923142 284.2998 
L 386.199098 276.874903 
L 386.523753 261.09387 
L 386.945804 227.616987 
L 387.562647 180.258372 
L 387.741207 177.000603 
L 387.75744 177.042849 
L 387.838604 178.108624 
L 388.000931 184.327574 
L 388.29312 206.205957 
L 389.120989 271.18605 
L 389.494342 283.55635 
L 389.802764 287.707423 
L 389.981324 288.251954 
L 389.997556 288.23991 
L 390.094953 287.95288 
L 390.25728 286.627262 
L 390.484538 282.75831 
L 390.776727 273.353749 
L 391.117615 253.964132 
L 391.653295 207.28294 
L 392.075345 179.399097 
L 392.22144 177.000313 
L 392.253905 177.090047 
L 392.351302 178.722696 
L 392.529862 186.70303 
L 392.870749 214.523679 
L 393.552524 268.415211 
L 393.942109 282.672364 
L 394.250531 287.412121 
L 394.461556 288.254064 
L 394.54272 288.115 
L 394.688815 287.209481 
L 394.89984 284.271567 
L 395.175796 276.821527 
L 395.500451 261.000866 
L 395.922502 227.479812 
L 396.539345 180.203887 
L 396.717905 177.002094 
L 396.734138 177.049588 
L 396.815302 178.141354 
L 396.977629 184.407995 
L 397.269818 206.34027 
L 398.081455 270.483514 
L 398.454807 283.239639 
L 398.487273 283.921142 
L 398.487273 283.921142 
" clip-path="url(#p14f973b8db)" style="fill: none; stroke: #bfbf00; stroke-width: 1.5; stroke-linecap: square"/>
   </g>
   <g id="patch_3">
    <path d="M 57.6 307.584 
L 57.6 41.472 
" style="fill: none; stroke: #000000; stroke-width: 0.8; stroke-linejoin: miter; stroke-linecap: square"/>
   </g>
   <g id="patch_4">
    <path d="M 414.72 307.584 
L 414.72 41.472 
" style="fill: none; stroke: #000000; stroke-width: 0.8; stroke-linejoin: miter; stroke-linecap: square"/>
   </g>
   <g id="patch_5">
    <path d="M 57.6 307.584 
L 414.72 307.584 
" style="fill: none; stroke: #000000; stroke-width: 0.8; stroke-linejoin: miter; stroke-linecap: square"/>
   </g>
   <g id="patch_6">
    <path d="M 57.6 41.472 
L 414.72 41.472 
" style="fill: none; stroke: #000000; stroke-width: 0.8; stroke-linejoin: miter; stroke-linecap: square"/>
   </g>
  </g>
 </g>
 <defs>
  <clipPath id="p14f973b8db">
   <rect x="57.6" y="41.472" width="357.12" height="266.112"/>
  </clipPath>
 </defs>
</svg>
