<?xml version="1.0" encoding="utf-8" standalone="no"?>
<!DOCTYPE svg PUBLIC "-//W3C//DTD SVG 1.1//EN"
  "http://www.w3.org/Graphics/SVG/1.1/DTD/svg11.dtd">
<svg xmlns:xlink="http://www.w3.org/1999/xlink" width="442.01321pt" height="339.966531pt" viewBox="0 0 442.01321 339.966531" xmlns="http://www.w3.org/2000/svg" version="1.1">
 <metadata>
  <rdf:RDF xmlns:dc="http://purl.org/dc/elements/1.1/" xmlns:cc="http://creativecommons.org/ns#" xmlns:rdf="http://www.w3.org/1999/02/22-rdf-syntax-ns#">
   <cc:Work>
    <dc:type rdf:resource="http://purl.org/dc/dcmitype/StillImage"/>
    <dc:date>2025-05-29T13:14:22.964329</dc:date>
    <dc:format>image/svg+xml</dc:format>
    <dc:creator>
     <cc:Agent>
      <dc:title>Matplotlib v3.10.0, https://matplotlib.org/</dc:title>
     </cc:Agent>
    </dc:creator>
   </cc:Work>
  </rdf:RDF>
 </metadata>
 <defs>
  <style type="text/css">*{stroke-linejoin: round; stroke-linecap: butt}</style>
 </defs>
 <g id="figure_1">
  <g id="patch_1">
   <path d="M 0 339.966531 
L 442.01321 339.966531 
L 442.01321 0 
L 0 0 
z
" style="fill: #ffffff"/>
  </g>
  <g id="axes_1">
   <g id="patch_2">
    <path d="M 71.020938 280.150594 
L 428.140938 280.150594 
L 428.140938 14.038594 
L 71.020938 14.038594 
z
" style="fill: #ffffff"/>
   </g>
   <g id="matplotlib.axis_1">
    <g id="xtick_1">
     <g id="line2d_1">
      <defs>
       <path id="mfc57aeaa7b" d="M 0 0 
L 0 3.5 
" style="stroke: #000000; stroke-width: 0.8"/>
      </defs>
      <g>
       <use xlink:href="#mfc57aeaa7b" x="87.253665" y="280.150594" style="stroke: #000000; stroke-width: 0.8"/>
      </g>
     </g>
     <g id="text_1">
      <!-- 0 -->
      <g transform="translate(81.527415 300.827781) scale(0.18 -0.18)">
       <defs>
        <path id="DejaVuSans-30" d="M 2034 4250 
Q 1547 4250 1301 3770 
Q 1056 3291 1056 2328 
Q 1056 1369 1301 889 
Q 1547 409 2034 409 
Q 2525 409 2770 889 
Q 3016 1369 3016 2328 
Q 3016 3291 2770 3770 
Q 2525 4250 2034 4250 
z
M 2034 4750 
Q 2819 4750 3233 4129 
Q 3647 3509 3647 2328 
Q 3647 1150 3233 529 
Q 2819 -91 2034 -91 
Q 1250 -91 836 529 
Q 422 1150 422 2328 
Q 422 3509 836 4129 
Q 1250 4750 2034 4750 
z
" transform="scale(0.015625)"/>
       </defs>
       <use xlink:href="#DejaVuSans-30"/>
      </g>
     </g>
    </g>
    <g id="xtick_2">
     <g id="line2d_2">
      <g>
       <use xlink:href="#mfc57aeaa7b" x="168.417301" y="280.150594" style="stroke: #000000; stroke-width: 0.8"/>
      </g>
     </g>
     <g id="text_2">
      <!-- 500 -->
      <g transform="translate(151.238551 300.827781) scale(0.18 -0.18)">
       <defs>
        <path id="DejaVuSans-35" d="M 691 4666 
L 3169 4666 
L 3169 4134 
L 1269 4134 
L 1269 2991 
Q 1406 3038 1543 3061 
Q 1681 3084 1819 3084 
Q 2600 3084 3056 2656 
Q 3513 2228 3513 1497 
Q 3513 744 3044 326 
Q 2575 -91 1722 -91 
Q 1428 -91 1123 -41 
Q 819 9 494 109 
L 494 744 
Q 775 591 1075 516 
Q 1375 441 1709 441 
Q 2250 441 2565 725 
Q 2881 1009 2881 1497 
Q 2881 1984 2565 2268 
Q 2250 2553 1709 2553 
Q 1456 2553 1204 2497 
Q 953 2441 691 2322 
L 691 4666 
z
" transform="scale(0.015625)"/>
       </defs>
       <use xlink:href="#DejaVuSans-35"/>
       <use xlink:href="#DejaVuSans-30" transform="translate(63.623047 0)"/>
       <use xlink:href="#DejaVuSans-30" transform="translate(127.246094 0)"/>
      </g>
     </g>
    </g>
    <g id="xtick_3">
     <g id="line2d_3">
      <g>
       <use xlink:href="#mfc57aeaa7b" x="249.580938" y="280.150594" style="stroke: #000000; stroke-width: 0.8"/>
      </g>
     </g>
     <g id="text_3">
      <!-- 1000 -->
      <g transform="translate(226.675938 300.827781) scale(0.18 -0.18)">
       <defs>
        <path id="DejaVuSans-31" d="M 794 531 
L 1825 531 
L 1825 4091 
L 703 3866 
L 703 4441 
L 1819 4666 
L 2450 4666 
L 2450 531 
L 3481 531 
L 3481 0 
L 794 0 
L 794 531 
z
" transform="scale(0.015625)"/>
       </defs>
       <use xlink:href="#DejaVuSans-31"/>
       <use xlink:href="#DejaVuSans-30" transform="translate(63.623047 0)"/>
       <use xlink:href="#DejaVuSans-30" transform="translate(127.246094 0)"/>
       <use xlink:href="#DejaVuSans-30" transform="translate(190.869141 0)"/>
      </g>
     </g>
    </g>
    <g id="xtick_4">
     <g id="line2d_4">
      <g>
       <use xlink:href="#mfc57aeaa7b" x="330.744574" y="280.150594" style="stroke: #000000; stroke-width: 0.8"/>
      </g>
     </g>
     <g id="text_4">
      <!-- 1500 -->
      <g transform="translate(307.839574 300.827781) scale(0.18 -0.18)">
       <use xlink:href="#DejaVuSans-31"/>
       <use xlink:href="#DejaVuSans-35" transform="translate(63.623047 0)"/>
       <use xlink:href="#DejaVuSans-30" transform="translate(127.246094 0)"/>
       <use xlink:href="#DejaVuSans-30" transform="translate(190.869141 0)"/>
      </g>
     </g>
    </g>
    <g id="xtick_5">
     <g id="line2d_5">
      <g>
       <use xlink:href="#mfc57aeaa7b" x="411.90821" y="280.150594" style="stroke: #000000; stroke-width: 0.8"/>
      </g>
     </g>
     <g id="text_5">
      <!-- 2000 -->
      <g transform="translate(389.00321 300.827781) scale(0.18 -0.18)">
       <defs>
        <path id="DejaVuSans-32" d="M 1228 531 
L 3431 531 
L 3431 0 
L 469 0 
L 469 531 
Q 828 903 1448 1529 
Q 2069 2156 2228 2338 
Q 2531 2678 2651 2914 
Q 2772 3150 2772 3378 
Q 2772 3750 2511 3984 
Q 2250 4219 1831 4219 
Q 1534 4219 1204 4116 
Q 875 4013 500 3803 
L 500 4441 
Q 881 4594 1212 4672 
Q 1544 4750 1819 4750 
Q 2544 4750 2975 4387 
Q 3406 4025 3406 3419 
Q 3406 3131 3298 2873 
Q 3191 2616 2906 2266 
Q 2828 2175 2409 1742 
Q 1991 1309 1228 531 
z
" transform="scale(0.015625)"/>
       </defs>
       <use xlink:href="#DejaVuSans-32"/>
       <use xlink:href="#DejaVuSans-30" transform="translate(63.623047 0)"/>
       <use xlink:href="#DejaVuSans-30" transform="translate(127.246094 0)"/>
       <use xlink:href="#DejaVuSans-30" transform="translate(190.869141 0)"/>
      </g>
     </g>
    </g>
    <g id="text_6">
     <!-- $t$ -->
     <g transform="translate(244.580938 327.567312) scale(0.25 -0.25)">
      <defs>
       <path id="DejaVuSans-Oblique-74" d="M 2706 3500 
L 2619 3053 
L 1472 3053 
L 1100 1153 
Q 1081 1047 1072 975 
Q 1063 903 1063 863 
Q 1063 663 1183 572 
Q 1303 481 1569 481 
L 2150 481 
L 2053 0 
L 1503 0 
Q 991 0 739 200 
Q 488 400 488 806 
Q 488 878 497 964 
Q 506 1050 525 1153 
L 897 3053 
L 409 3053 
L 500 3500 
L 978 3500 
L 1172 4494 
L 1747 4494 
L 1556 3500 
L 2706 3500 
z
" transform="scale(0.015625)"/>
      </defs>
      <use xlink:href="#DejaVuSans-Oblique-74" transform="translate(0 0.78125)"/>
     </g>
    </g>
   </g>
   <g id="matplotlib.axis_2">
    <g id="ytick_1">
     <g id="line2d_6">
      <defs>
       <path id="m87618850e3" d="M 0 0 
L -3.5 0 
" style="stroke: #000000; stroke-width: 0.8"/>
      </defs>
      <g>
       <use xlink:href="#m87618850e3" x="71.020938" y="280.150594" style="stroke: #000000; stroke-width: 0.8"/>
      </g>
     </g>
     <g id="text_7">
      <!-- 0.0 -->
      <g transform="translate(35.395313 286.989187) scale(0.18 -0.18)">
       <defs>
        <path id="DejaVuSans-2e" d="M 684 794 
L 1344 794 
L 1344 0 
L 684 0 
L 684 794 
z
" transform="scale(0.015625)"/>
       </defs>
       <use xlink:href="#DejaVuSans-30"/>
       <use xlink:href="#DejaVuSans-2e" transform="translate(63.623047 0)"/>
       <use xlink:href="#DejaVuSans-30" transform="translate(95.410156 0)"/>
      </g>
     </g>
    </g>
    <g id="ytick_2">
     <g id="line2d_7">
      <g>
       <use xlink:href="#m87618850e3" x="71.020938" y="147.094594" style="stroke: #000000; stroke-width: 0.8"/>
      </g>
     </g>
     <g id="text_8">
      <!-- 0.5 -->
      <g transform="translate(35.395313 153.933187) scale(0.18 -0.18)">
       <use xlink:href="#DejaVuSans-30"/>
       <use xlink:href="#DejaVuSans-2e" transform="translate(63.623047 0)"/>
       <use xlink:href="#DejaVuSans-35" transform="translate(95.410156 0)"/>
      </g>
     </g>
    </g>
    <g id="ytick_3">
     <g id="line2d_8">
      <g>
       <use xlink:href="#m87618850e3" x="71.020938" y="14.038594" style="stroke: #000000; stroke-width: 0.8"/>
      </g>
     </g>
     <g id="text_9">
      <!-- 1.0 -->
      <g transform="translate(35.395313 20.877187) scale(0.18 -0.18)">
       <use xlink:href="#DejaVuSans-31"/>
       <use xlink:href="#DejaVuSans-2e" transform="translate(63.623047 0)"/>
       <use xlink:href="#DejaVuSans-30" transform="translate(95.410156 0)"/>
      </g>
     </g>
    </g>
    <g id="text_10">
     <!-- $x_i(t)$ -->
     <g transform="translate(26.196094 171.969594) rotate(-90) scale(0.25 -0.25)">
      <defs>
       <path id="DejaVuSans-Oblique-78" d="M 3841 3500 
L 2234 1784 
L 3219 0 
L 2559 0 
L 1819 1388 
L 531 0 
L -166 0 
L 1556 1844 
L 641 3500 
L 1300 3500 
L 1972 2234 
L 3144 3500 
L 3841 3500 
z
" transform="scale(0.015625)"/>
       <path id="DejaVuSans-Oblique-69" d="M 1172 4863 
L 1747 4863 
L 1606 4134 
L 1031 4134 
L 1172 4863 
z
M 909 3500 
L 1484 3500 
L 800 0 
L 225 0 
L 909 3500 
z
" transform="scale(0.015625)"/>
       <path id="DejaVuSans-28" d="M 1984 4856 
Q 1566 4138 1362 3434 
Q 1159 2731 1159 2009 
Q 1159 1288 1364 580 
Q 1569 -128 1984 -844 
L 1484 -844 
Q 1016 -109 783 600 
Q 550 1309 550 2009 
Q 550 2706 781 3412 
Q 1013 4119 1484 4856 
L 1984 4856 
z
" transform="scale(0.015625)"/>
       <path id="DejaVuSans-29" d="M 513 4856 
L 1013 4856 
Q 1481 4119 1714 3412 
Q 1947 2706 1947 2009 
Q 1947 1309 1714 600 
Q 1481 -109 1013 -844 
L 513 -844 
Q 928 -128 1133 580 
Q 1338 1288 1338 2009 
Q 1338 2731 1133 3434 
Q 928 4138 513 4856 
z
" transform="scale(0.015625)"/>
      </defs>
      <use xlink:href="#DejaVuSans-Oblique-78" transform="translate(0 0.125)"/>
      <use xlink:href="#DejaVuSans-Oblique-69" transform="translate(59.179688 -16.28125) scale(0.7)"/>
      <use xlink:href="#DejaVuSans-28" transform="translate(81.362305 0.125)"/>
      <use xlink:href="#DejaVuSans-Oblique-74" transform="translate(120.375977 0.125)"/>
      <use xlink:href="#DejaVuSans-29" transform="translate(159.584961 0.125)"/>
     </g>
    </g>
   </g>
   <g id="line2d_9">
    <path d="M 87.253665 194.994754 
L 87.756879 152.885371 
L 87.935439 149.046532 
L 87.951672 149.060626 
L 88.016603 149.703182 
L 88.162698 154.338208 
L 88.438654 172.257577 
L 89.42885 243.241736 
L 89.818436 255.26004 
L 90.14309 259.640419 
L 90.32165 260.262732 
L 90.337883 260.257813 
L 90.419047 260.073734 
L 90.565141 259.027897 
L 90.776167 255.59639 
L 91.03589 247.143352 
L 91.344312 228.433542 
L 91.815061 182.304619 
L 92.220879 151.273192 
L 92.383207 148.225265 
L 92.399439 148.257365 
L 92.480603 149.301467 
L 92.64293 155.421218 
L 92.951352 177.486172 
L 93.795454 239.934494 
L 94.201272 254.170474 
L 94.542159 259.589353 
L 94.769418 260.60398 
L 94.850581 260.481092 
L 94.980443 259.711389 
L 95.175236 257.02574 
L 95.418727 250.263191 
L 95.710916 234.949645 
L 96.084268 201.503768 
L 96.668647 150.66764 
L 96.830974 147.39962 
L 96.863439 147.490088 
L 96.960836 149.178997 
L 97.155628 158.161594 
L 97.561447 190.82494 
L 98.194523 237.379871 
L 98.616574 253.480196 
L 98.957461 259.515585 
L 99.200952 260.927159 
L 99.265883 260.921706 
L 99.282116 260.894504 
L 99.395745 260.401571 
L 99.574305 258.438454 
L 99.817796 252.758087 
L 100.093752 240.284834 
L 100.434639 212.948624 
L 101.197578 147.747576 
L 101.294974 146.562205 
L 101.343672 146.81168 
L 101.457301 149.451793 
L 101.668327 160.814835 
L 102.220239 207.584347 
L 102.739687 241.594966 
L 103.145505 255.311587 
L 103.486392 260.418508 
L 103.697418 261.285181 
L 103.778581 261.166829 
L 103.908443 260.414206 
L 104.103236 257.775242 
L 104.346727 251.091061 
L 104.638916 235.810424 
L 105.012268 201.936535 
L 105.612879 148.685686 
L 105.775207 145.720942 
L 105.791439 145.77416 
L 105.872603 146.9537 
L 106.03493 153.464578 
L 106.359585 177.912425 
L 107.154988 238.94406 
L 107.560807 254.171388 
L 107.901694 260.175778 
L 108.145185 261.602059 
L 108.210116 261.607817 
L 108.242581 261.54978 
L 108.372443 260.888514 
L 108.567236 258.426147 
L 108.810727 252.055125 
L 109.086683 238.354547 
L 109.42757 208.995553 
L 110.125578 146.8162 
L 110.255439 144.865719 
L 110.287905 145.019836 
L 110.385301 146.943036 
L 110.580094 156.528721 
L 111.002145 191.997421 
L 111.618988 238.098174 
L 112.041039 254.333583 
L 112.398159 260.597657 
L 112.64165 261.949236 
L 112.706581 261.938468 
L 112.722814 261.91063 
L 112.836443 261.42079 
L 113.015003 259.486687 
L 113.242261 254.379956 
L 113.518218 242.37629 
L 113.842872 216.878232 
L 114.670741 144.676652 
L 114.751905 144.009295 
L 114.78437 144.194154 
L 114.897999 146.764628 
L 115.109025 158.299378 
L 115.644705 205.120086 
L 116.164152 240.880183 
L 116.56997 255.454043 
L 116.910858 261.070394 
L 117.154348 262.297695 
L 117.235512 262.221591 
L 117.365374 261.557753 
L 117.560167 259.109052 
L 117.803658 252.764879 
L 118.079614 239.027625 
L 118.420501 209.261259 
L 119.118508 145.24075 
L 119.24837 143.133089 
L 119.280836 143.264842 
L 119.378232 145.16066 
L 119.573025 154.854552 
L 119.995076 191.031165 
L 120.611919 238.117486 
L 121.03397 254.672223 
L 121.39109 261.111613 
L 121.634581 262.599566 
L 121.699512 262.633515 
L 121.731978 262.591793 
L 121.845607 262.122415 
L 122.024167 260.243617 
L 122.251425 255.244769 
L 122.527381 243.383369 
L 122.852036 217.823524 
L 123.71237 142.571238 
L 123.761068 142.255146 
L 123.809767 142.532188 
L 123.923396 145.361432 
L 124.134421 157.444472 
L 124.718799 209.61342 
L 125.222014 243.052353 
L 125.627832 256.828854 
L 125.968719 261.987267 
L 126.195978 262.974904 
L 126.277141 262.875643 
L 126.407003 262.182111 
L 126.601796 259.697782 
L 126.845287 253.29282 
L 127.121243 239.370141 
L 127.46213 208.987766 
L 128.160138 143.471802 
L 128.289999 141.368832 
L 128.322465 141.517601 
L 128.419861 143.497826 
L 128.614654 153.480132 
L 129.036705 190.501915 
L 129.637316 237.496693 
L 130.059367 254.691814 
L 130.416487 261.484799 
L 130.67621 263.244643 
L 130.757374 263.303761 
L 130.789839 263.260547 
L 130.903468 262.792315 
L 131.082028 260.933865 
L 131.309287 255.98372 
L 131.56901 245.083983 
L 131.877432 221.598258 
L 132.802698 140.537327 
L 132.81893 140.478083 
L 132.867628 140.704087 
L 132.981258 143.475336 
L 133.192283 155.659811 
L 133.744196 206.021845 
L 134.263643 242.284156 
L 134.669461 256.776321 
L 135.010348 262.34902 
L 135.253839 263.630738 
L 135.31877 263.621369 
L 135.335003 263.595232 
L 135.448632 263.132513 
L 135.627192 261.293967 
L 135.85445 256.386403 
L 136.114174 245.53895 
L 136.422596 222.021793 
L 137.364094 139.581996 
L 137.380327 139.575711 
L 137.396559 139.637455 
L 137.477723 140.937854 
L 137.64005 148.032507 
L 137.964705 174.507735 
L 138.743876 238.816546 
L 139.149694 255.217798 
L 139.506814 262.058233 
L 139.766538 263.88519 
L 139.847701 263.976724 
L 139.896399 263.920089 
L 140.026261 263.334362 
L 140.221054 261.083422 
L 140.464545 255.116644 
L 140.740501 241.842332 
L 141.065156 213.631033 
L 141.844327 139.736128 
L 141.941723 138.665405 
L 141.974188 138.864429 
L 142.087818 141.622619 
L 142.298843 153.972437 
L 142.850756 205.359407 
L 143.370203 242.361702 
L 143.776021 257.125859 
L 144.116908 262.854026 
L 144.360399 264.269033 
L 144.42533 264.304435 
L 144.457796 264.266864 
L 144.571425 263.830321 
L 144.749985 262.06119 
L 144.977243 257.294348 
L 145.236967 246.653885 
L 145.545388 223.245075 
L 146.503119 137.740656 
L 146.519352 137.757519 
L 146.584283 138.510261 
L 146.730378 143.915848 
L 147.006334 164.702007 
L 147.964065 243.506046 
L 148.369883 257.833126 
L 148.71077 263.321073 
L 148.954261 264.616947 
L 149.019192 264.624765 
L 149.051658 264.573744 
L 149.181519 263.980883 
L 149.376312 261.740254 
L 149.619803 255.804123 
L 149.895759 242.513584 
L 150.220414 213.963898 
L 151.015818 137.614608 
L 151.096981 136.812394 
L 151.145679 137.180955 
L 151.259308 140.364116 
L 151.486567 154.810526 
L 152.768952 252.693 
L 153.142305 261.663993 
L 153.450727 264.668048 
L 153.596821 264.964963 
L 153.613054 264.953763 
L 153.71045 264.69187 
L 153.872778 263.439863 
L 154.083803 259.888854 
L 154.343527 251.095304 
L 154.635716 232.075693 
L 155.025301 188.994127 
L 155.512283 140.297698 
L 155.690843 135.873497 
L 155.707076 135.908033 
L 155.788239 137.123627 
L 155.950567 144.291051 
L 156.275221 171.668535 
L 157.054392 238.72764 
L 157.46021 255.783162 
L 157.81733 262.974567 
L 158.093287 265.133005 
L 158.206916 265.290396 
L 158.239381 265.256373 
L 158.35301 264.844473 
L 158.53157 263.154209 
L 158.758828 258.558759 
L 159.018552 248.170435 
L 159.310741 226.430765 
L 159.797723 168.516627 
L 160.171076 137.342116 
L 160.300938 134.929083 
L 160.333403 135.058612 
L 160.430799 137.111344 
L 160.625592 147.748626 
L 161.047643 187.51958 
L 161.648254 237.764658 
L 162.054072 255.446379 
L 162.427425 263.198133 
L 162.719614 265.477598 
L 162.81701 265.618619 
L 162.865708 265.57235 
L 162.979338 265.143357 
L 163.157898 263.431661 
L 163.385156 258.806935 
L 163.644879 248.34708 
L 163.937068 226.39508 
L 164.42405 167.792243 
L 164.78117 136.998613 
L 164.927265 133.975825 
L 164.95973 134.119754 
L 165.057127 136.231256 
L 165.251919 147.039462 
L 165.67397 187.263262 
L 166.274581 237.902099 
L 166.680399 255.664587 
L 167.053752 263.453933 
L 167.345941 265.77781 
L 167.45957 265.939359 
L 167.492036 265.9089 
L 167.605665 265.518286 
L 167.784225 263.891345 
L 168.011483 259.433629 
L 168.271207 249.264262 
L 168.563396 227.688584 
L 169.017912 172.815929 
L 169.407498 136.608608 
L 169.569825 133.016838 
L 169.586058 133.070888 
L 169.667221 134.414387 
L 169.829548 141.961977 
L 170.154203 170.362169 
L 170.933374 239.139987 
L 171.339192 256.435101 
L 171.696312 263.738797 
L 171.988501 266.082613 
L 172.10213 266.262122 
L 172.134596 266.238157 
L 172.248225 265.875863 
L 172.426785 264.314748 
L 172.654043 259.99032 
L 172.913767 250.053207 
L 173.205956 228.769727 
L 173.644239 175.728224 
L 174.050058 136.159134 
L 174.212385 132.051347 
L 174.24485 132.142163 
L 174.342247 134.139238 
L 174.537039 144.916935 
L 174.942858 184.07188 
L 175.559701 237.61757 
L 175.965519 255.814094 
L 176.338872 263.834583 
L 176.631061 266.332283 
L 176.760923 266.581592 
L 176.793388 266.561883 
L 176.907018 266.219623 
L 177.085578 264.708838 
L 177.312836 260.490104 
L 177.572559 250.736991 
L 177.864748 229.673292 
L 178.286799 178.513029 
L 178.725083 134.841586 
L 178.88741 131.069059 
L 178.903643 131.114367 
L 178.984807 132.43849 
L 179.147134 140.060386 
L 179.471788 168.955706 
L 180.250959 239.111292 
L 180.656778 256.710877 
L 181.03013 264.378999 
L 181.322319 266.704406 
L 181.452181 266.893918 
L 181.484647 266.860104 
L 181.598276 266.469449 
L 181.776836 264.878285 
L 182.004094 260.522248 
L 182.263818 250.496343 
L 182.556007 228.878316 
L 182.978058 176.806222 
L 183.400108 134.225062 
L 183.562436 130.087393 
L 183.594901 130.191515 
L 183.692298 132.261813 
L 183.88709 143.308986 
L 184.292908 183.290538 
L 184.909752 237.757547 
L 185.31557 256.173531 
L 185.688923 264.297143 
L 185.997345 266.960468 
L 186.143439 267.208822 
L 186.159672 267.19669 
L 186.257068 266.948132 
L 186.419396 265.791328 
L 186.630421 262.499265 
L 186.873912 254.884401 
L 187.149868 238.185283 
L 187.490756 201.362588 
L 188.123832 132.033915 
L 188.269927 129.095403 
L 188.302392 129.30059 
L 188.399788 131.673891 
L 188.594581 143.280845 
L 189.032865 187.488177 
L 189.617243 238.441111 
L 190.023061 256.659988 
L 190.396414 264.660576 
L 190.704836 267.277497 
L 190.85093 267.520845 
L 190.867163 267.508838 
L 190.980792 267.193137 
L 191.159352 265.771031 
L 191.38661 261.758506 
L 191.630101 253.154531 
L 191.906058 234.621264 
L 192.263178 193.051499 
L 192.81509 132.022475 
L 192.977418 128.090336 
L 192.99365 128.133201 
L 193.074814 129.478951 
L 193.237141 137.296479 
L 193.561796 167.022119 
L 194.340967 239.169907 
L 194.746785 257.165396 
L 195.120138 265.030238 
L 195.428559 267.594359 
L 195.574654 267.830076 
L 195.590887 267.8179 
L 195.704516 267.504863 
L 195.883076 266.100938 
L 196.110334 262.137101 
L 196.353825 253.610921 
L 196.629781 235.145221 
L 196.986901 193.372744 
L 197.538814 131.266762 
L 197.701141 127.083631 
L 197.733607 127.207125 
L 197.831003 129.384595 
L 198.025796 140.828594 
L 198.431614 182.047079 
L 199.032225 236.888812 
L 199.438043 256.157906 
L 199.811396 264.725439 
L 200.119818 267.700312 
L 200.298378 268.141347 
L 200.31461 268.13658 
L 200.412007 267.943132 
L 200.574334 266.926744 
L 200.785359 263.934875 
L 201.02885 256.880518 
L 201.288574 242.292062 
L 201.596996 211.081855 
L 202.359934 127.267064 
L 202.441098 126.074513 
L 202.489796 126.318807 
L 202.603425 129.515807 
L 202.81445 143.671858 
L 203.382596 203.846346 
L 203.869578 242.552472 
L 204.275396 259.107689 
L 204.632516 265.969842 
L 204.924705 268.221445 
L 205.054567 268.445557 
L 205.087032 268.427782 
L 205.200661 268.119098 
L 205.379221 266.750186 
L 205.606479 262.882604 
L 205.84997 254.513049 
L 206.125927 236.190437 
L 206.466814 196.314574 
L 207.051192 128.919221 
L 207.213519 125.045542 
L 207.229752 125.106754 
L 207.310916 126.572935 
L 207.473243 134.750645 
L 207.797898 165.476647 
L 208.560836 238.430187 
L 208.966654 257.209046 
L 209.340007 265.476374 
L 209.648428 268.329402 
L 209.826988 268.747008 
L 209.843221 268.741781 
L 209.940618 268.551502 
L 210.102945 267.563762 
L 210.31397 264.655942 
L 210.557461 257.763868 
L 210.817185 243.372677 
L 211.125607 212.118823 
L 211.904778 125.052231 
L 211.985941 124.011923 
L 212.034639 124.361837 
L 212.148268 127.834613 
L 212.375527 144.038547 
L 213.657912 254.366732 
L 214.031265 264.301957 
L 214.372152 268.274162 
L 214.59941 269.043416 
L 214.696807 268.947416 
L 214.842901 268.273325 
L 215.037694 266.146654 
L 215.264952 261.055059 
L 215.524676 249.47031 
L 215.816865 224.498351 
L 216.336312 153.446475 
L 216.660967 125.25475 
L 216.774596 122.980556 
L 216.823294 123.244801 
L 216.936923 126.557357 
L 217.147948 141.13997 
L 217.716094 203.037038 
L 218.203076 242.704765 
L 218.608894 259.581368 
L 218.966014 266.596917 
L 219.274436 269.067169 
L 219.436763 269.337237 
L 219.452996 269.325994 
L 219.566625 269.040071 
L 219.745185 267.75626 
L 219.972443 264.099063 
L 220.215934 256.093229 
L 220.475658 239.633385 
L 220.800312 202.798169 
L 221.465854 124.523792 
L 221.595716 121.929317 
L 221.628181 122.114748 
L 221.725578 124.550752 
L 221.92037 136.77209 
L 222.342421 182.01405 
L 222.926799 237.211517 
L 223.332618 257.000523 
L 223.70597 265.780736 
L 224.030625 269.053804 
L 224.24165 269.6339 
L 224.339047 269.512093 
L 224.485141 268.813529 
L 224.696167 266.41721 
L 224.939658 260.524584 
L 225.199381 247.840251 
L 225.49157 220.819882 
L 226.416836 120.883828 
L 226.449301 120.978057 
L 226.530465 122.615245 
L 226.709025 132.49387 
L 227.049912 167.108429 
L 227.764152 237.655778 
L 228.16997 257.354518 
L 228.543323 266.06993 
L 228.867978 269.326839 
L 229.079003 269.922657 
L 229.176399 269.817124 
L 229.322494 269.156693 
L 229.517287 267.101611 
L 229.744545 262.170237 
L 230.004268 250.826834 
L 230.280225 227.719938 
L 230.702276 169.037473 
L 231.108094 124.215945 
L 231.270421 119.817698 
L 231.286654 119.848611 
L 231.351585 120.78827 
L 231.497679 127.303114 
L 231.773636 152.144062 
L 232.698901 243.020039 
L 233.104719 260.119035 
L 233.478072 267.435833 
L 233.786494 269.891231 
L 233.965054 270.205581 
L 233.981287 270.195102 
L 234.094916 269.92733 
L 234.273476 268.721097 
L 234.500734 265.26467 
L 234.744225 257.617649 
L 235.003948 241.626176 
L 235.31237 207.117721 
L 236.02661 120.85338 
L 236.140239 118.750984 
L 236.172705 118.91962 
L 236.270101 121.355706 
L 236.464894 133.785819 
L 236.886945 180.175862 
L 237.471323 236.968451 
L 237.877141 257.26921 
L 238.250494 266.277997 
L 238.575148 269.725753 
L 238.802407 270.484173 
L 238.899803 270.428204 
L 239.029665 269.965469 
L 239.224458 268.252009 
L 239.451716 263.986 
L 239.695207 254.805733 
L 239.971163 234.47389 
L 240.328283 187.786277 
L 240.863963 122.074626 
L 241.02629 117.678378 
L 241.042523 117.717195 
L 241.123687 119.147077 
L 241.286014 127.604989 
L 241.594436 158.140868 
L 242.389839 239.051256 
L 242.795658 258.431018 
L 243.16901 266.931001 
L 243.493665 270.128561 
L 243.720923 270.770848 
L 243.818319 270.672106 
L 243.964414 270.053914 
L 244.159207 268.123707 
L 244.386465 263.458088 
L 244.629956 253.507172 
L 244.905912 231.683374 
L 245.279265 180.453057 
L 245.766247 121.269258 
L 245.928574 116.60312 
L 245.961039 116.721187 
L 246.058436 119.0448 
L 246.253228 131.427804 
L 246.659047 176.470867 
L 247.259658 236.508288 
L 247.665476 257.292292 
L 248.038828 266.525324 
L 248.379716 270.22352 
L 248.623207 271.040039 
L 248.720603 270.984851 
L 248.850465 270.540392 
L 249.045258 268.895865 
L 249.272516 264.786422 
L 249.516007 255.875728 
L 249.77573 237.447461 
L 250.116618 194.054331 
L 250.700996 119.77686 
L 250.863323 115.51513 
L 250.879556 115.574254 
L 250.960719 117.119987 
L 251.123047 125.86594 
L 251.447701 159.009497 
L 252.210639 238.12401 
L 252.616458 258.220051 
L 252.98981 267.068977 
L 253.330698 270.577903 
L 253.574188 271.31701 
L 253.671585 271.23927 
L 253.817679 270.677939 
L 254.012472 268.884448 
L 254.23973 264.502551 
L 254.483221 255.055065 
L 254.742945 235.615901 
L 255.083832 190.620996 
L 255.635745 119.42918 
L 255.814305 114.429299 
L 255.830538 114.508207 
L 255.911701 116.157527 
L 256.074028 125.123639 
L 256.398683 158.695969 
L 257.161621 238.313649 
L 257.567439 258.435335 
L 257.940792 267.281387 
L 258.281679 270.805187 
L 258.52517 271.581037 
L 258.622567 271.528059 
L 258.752428 271.104091 
L 258.947221 269.533406 
L 259.174479 265.592037 
L 259.41797 256.979467 
L 259.677694 238.944924 
L 260.002348 198.094637 
L 260.635425 116.688019 
L 260.781519 113.329206 
L 260.813985 113.561542 
L 260.911381 116.249744 
L 261.106174 129.409478 
L 261.528225 177.964209 
L 262.112603 237.033116 
L 262.518421 257.921989 
L 262.891774 267.154758 
L 263.232661 270.896752 
L 263.492385 271.835098 
L 263.606014 271.792941 
L 263.735876 271.377097 
L 263.930668 269.83923 
L 264.157927 265.97481 
L 264.401418 257.500001 
L 264.661141 239.648024 
L 264.985796 198.817597 
L 265.618872 115.931035 
L 265.764967 112.220662 
L 265.797432 112.385236 
L 265.894828 114.896126 
L 266.089621 127.832437 
L 266.495439 174.507505 
L 267.09605 236.484564 
L 267.501868 257.769127 
L 267.875221 267.191543 
L 268.216108 271.044999 
L 268.475832 272.074124 
L 268.573228 272.099188 
L 268.605694 272.062647 
L 268.735556 271.672647 
L 268.930348 270.203241 
L 269.157607 266.484984 
L 269.401098 258.285416 
L 269.660821 240.872852 
L 269.969243 202.943956 
L 270.651018 113.883994 
L 270.780879 111.11278 
L 270.813345 111.321155 
L 270.910741 113.968422 
L 271.105534 127.183628 
L 271.511352 174.367131 
L 272.111963 236.674867 
L 272.517781 257.981616 
L 272.891134 267.395914 
L 273.232021 271.257059 
L 273.491745 272.317294 
L 273.605374 272.352055 
L 273.621607 272.335247 
L 273.751468 271.988564 
L 273.930028 270.783373 
L 274.157287 267.462958 
L 274.400778 260.040097 
L 274.660501 244.023639 
L 274.95269 210.351268 
L 275.731861 111.110655 
L 275.813025 109.996573 
L 275.861723 110.404421 
L 275.975352 114.279256 
L 276.20261 132.26282 
L 277.501228 256.119259 
L 277.874581 266.624674 
L 278.231701 271.180117 
L 278.507658 272.512846 
L 278.637519 272.616868 
L 278.669985 272.590418 
L 278.799847 272.256776 
L 278.978407 271.089769 
L 279.205665 267.863811 
L 279.449156 260.623024 
L 279.708879 244.90013 
L 280.001068 211.496439 
L 280.796472 109.805667 
L 280.877636 108.886977 
L 280.910101 109.150576 
L 281.02373 112.730391 
L 281.234756 128.714808 
L 281.754203 192.062757 
L 282.257418 240.230202 
L 282.663236 259.951577 
L 283.036588 268.511661 
L 283.377476 271.961244 
L 283.637199 272.84807 
L 283.750828 272.830537 
L 283.88069 272.483576 
L 284.075483 271.150904 
L 284.302741 267.742796 
L 284.546232 260.131332 
L 284.805956 243.641008 
L 285.098145 208.925873 
L 285.861083 109.154154 
L 285.958479 107.761566 
L 285.990945 108.025281 
L 286.104574 111.620741 
L 286.315599 127.694787 
L 286.818814 189.531444 
L 287.338261 240.132611 
L 287.744079 260.014367 
L 288.117432 268.640465 
L 288.458319 272.136606 
L 288.718043 273.07632 
L 288.831672 273.09348 
L 288.847905 273.075838 
L 288.977767 272.737888 
L 289.172559 271.440147 
L 289.399818 268.115714 
L 289.643308 260.66472 
L 289.903032 244.425132 
L 290.195221 209.905924 
L 290.974392 107.780956 
L 291.055556 106.621293 
L 291.104254 107.021338 
L 291.217883 110.930239 
L 291.428908 127.518211 
L 291.980821 195.982573 
L 292.467803 241.686785 
L 292.857388 260.348854 
L 293.230741 268.891688 
L 293.571628 272.358237 
L 293.831352 273.308018 
L 293.944981 273.340872 
L 293.961214 273.326165 
L 294.091076 273.019162 
L 294.269636 271.944345 
L 294.496894 268.957885 
L 294.740385 262.185273 
L 294.983876 248.490124 
L 295.259832 219.09665 
L 296.168865 105.533535 
L 296.185098 105.486612 
L 296.217563 105.66519 
L 296.314959 108.286824 
L 296.509752 121.733337 
L 296.91557 170.550184 
L 297.516181 235.824419 
L 297.921999 258.127866 
L 298.295352 267.957673 
L 298.652472 272.194254 
L 298.944661 273.494605 
L 299.090756 273.577486 
L 299.106988 273.563298 
L 299.23685 273.266102 
L 299.41541 272.223644 
L 299.642668 269.321019 
L 299.886159 262.715499 
L 300.12965 249.283746 
L 300.405607 220.192899 
L 301.347105 104.356311 
L 301.412036 105.232635 
L 301.55813 112.063849 
L 301.817854 137.180569 
L 302.824283 246.063501 
L 303.213868 262.688859 
L 303.587221 270.145732 
L 303.928108 273.095123 
L 304.187832 273.813779 
L 304.301461 273.768193 
L 304.447556 273.352748 
L 304.642348 271.99715 
L 304.869607 268.601356 
L 305.113098 260.977805 
L 305.356588 245.64054 
L 305.648778 210.917254 
L 306.444181 104.233988 
L 306.525345 103.20858 
L 306.574043 103.701383 
L 306.703905 108.766283 
L 306.947396 130.279888 
L 308.116152 252.075282 
L 308.505738 265.640202 
L 308.862858 271.38153 
L 309.187512 273.612877 
L 309.41477 274.050685 
L 309.528399 273.949074 
L 309.690727 273.37631 
L 309.901752 271.612149 
L 310.12901 267.576536 
L 310.372501 258.621424 
L 310.632225 239.249131 
L 310.940647 196.867744 
L 311.573723 106.300508 
L 311.719818 102.065467 
L 311.752283 102.169623 
L 311.833447 103.990082 
L 312.012007 115.006976 
L 312.352894 154.269094 
L 313.067134 236.062429 
L 313.472952 258.565131 
L 313.846305 268.431916 
L 314.203425 272.706931 
L 314.495614 274.101171 
L 314.674174 274.265917 
L 314.804036 274.055829 
L 314.982596 273.213879 
L 315.193621 271.024307 
L 315.420879 266.158488 
L 315.66437 255.478166 
L 315.924094 232.869308 
L 316.281214 177.495996 
L 316.768196 107.641393 
L 316.962988 100.907138 
L 317.011687 101.366642 
L 317.125316 105.472641 
L 317.352574 124.374292 
L 318.667425 257.055948 
L 319.040778 267.810619 
L 319.397898 272.533537 
L 319.706319 274.221549 
L 319.917345 274.487767 
L 320.047207 274.302256 
L 320.225767 273.518744 
L 320.436792 271.455534 
L 320.66405 266.844053 
L 320.907541 256.657171 
L 321.167265 234.846397 
L 321.508152 183.055979 
L 322.043832 105.493277 
L 322.222392 99.751587 
L 322.238625 99.806633 
L 322.319788 101.432193 
L 322.482116 110.814522 
L 322.790538 144.957429 
L 323.602174 238.793 
L 324.007992 260.093355 
L 324.381345 269.311297 
L 324.738465 273.274544 
L 325.030654 274.554849 
L 325.209214 274.695825 
L 325.339076 274.488783 
L 325.517636 273.681509 
L 325.728661 271.589416 
L 325.955919 266.923213 
L 326.19941 256.596025 
L 326.459134 234.443106 
L 326.800021 181.927527 
L 327.319468 105.249721 
L 327.514261 98.597325 
L 327.562959 99.092059 
L 327.676588 103.295532 
L 327.903847 122.461848 
L 329.218698 257.120879 
L 329.59205 268.007068 
L 329.94917 272.798481 
L 330.273825 274.609806 
L 330.48485 274.914444 
L 330.614712 274.779225 
L 330.777039 274.201365 
L 330.988065 272.497671 
L 331.215323 268.613367 
L 331.458814 259.895809 
L 331.702305 242.300343 
L 331.994494 203.181005 
L 332.708734 99.979688 
L 332.822363 97.436087 
L 332.871061 97.77713 
L 332.98469 101.660258 
L 333.195716 118.651832 
L 333.682698 182.461825 
L 334.202145 237.994377 
L 334.607963 259.901993 
L 334.981316 269.38429 
L 335.338436 273.487977 
L 335.646858 274.920167 
L 335.84165 275.11473 
L 335.971512 274.943829 
L 336.150072 274.229888 
L 336.361098 272.347024 
L 336.588356 268.108701 
L 336.831847 258.622651 
L 337.09157 237.86205 
L 337.416225 189.540337 
L 338.000603 101.783656 
L 338.179163 96.275404 
L 338.195396 96.356306 
L 338.276559 98.117604 
L 338.438887 107.800766 
L 338.747308 142.674812 
L 339.558945 238.575887 
L 339.964763 260.275484 
L 340.338116 269.634668 
L 340.695236 273.682168 
L 341.003658 275.106324 
L 341.214683 275.311877 
L 341.344545 275.133142 
L 341.523105 274.419325 
L 341.73413 272.552478 
L 341.961388 268.350325 
L 342.204879 258.916152 
L 342.464603 238.173889 
L 342.773025 192.576734 
L 343.389868 99.821765 
L 343.552196 95.104513 
L 343.568428 95.167077 
L 343.649592 96.843948 
L 343.811919 106.400325 
L 344.120341 141.254807 
L 344.94821 239.342659 
L 345.337796 260.153779 
L 345.711148 269.654102 
L 346.068268 273.773414 
L 346.37669 275.253388 
L 346.587716 275.513374 
L 346.717578 275.383381 
L 346.896138 274.770336 
L 347.107163 273.111263 
L 347.334421 269.335976 
L 347.561679 261.578256 
L 347.80517 244.866479 
L 348.097359 206.560135 
L 348.860298 95.621885 
L 348.957694 93.935514 
L 349.006392 94.380248 
L 349.120021 98.508936 
L 349.331047 115.978808 
L 349.818028 181.138414 
L 350.337476 237.819645 
L 350.743294 260.09567 
L 351.116647 269.700947 
L 351.473767 273.873331 
L 351.798421 275.440595 
L 352.009447 275.704189 
L 352.139308 275.587994 
L 352.317868 275.013247 
L 352.528894 273.443022 
L 352.756152 269.854312 
L 352.98341 262.445485 
L 353.226901 246.357218 
L 353.502858 211.547882 
L 354.330727 93.496203 
L 354.395658 92.765635 
L 354.444356 93.213286 
L 354.557985 97.353822 
L 354.76901 114.875437 
L 355.255992 180.415392 
L 355.775439 237.599464 
L 356.181258 260.079229 
L 356.55461 269.76512 
L 356.91173 273.977844 
L 357.236385 275.583745 
L 357.463643 275.889934 
L 357.593505 275.785165 
L 357.772065 275.244314 
L 357.98309 273.754562 
L 358.210348 270.336322 
L 358.437607 263.24841 
L 358.681098 247.741055 
L 358.957054 213.707707 
L 359.817388 91.982996 
L 359.866087 91.594694 
L 359.914785 92.056809 
L 360.028414 96.232945 
L 360.239439 113.837985 
L 360.726421 179.770001 
L 361.245868 237.420088 
L 361.635454 259.465361 
L 362.008807 269.551124 
L 362.365927 273.955865 
L 362.690581 275.674334 
L 362.934072 276.068402 
L 363.063934 275.999604 
L 363.226261 275.59797 
L 363.437287 274.347723 
L 363.664545 271.424474 
L 363.891803 265.309111 
L 364.135294 251.725308 
L 364.395018 223.194059 
L 364.849534 140.3128 
L 365.206654 95.145589 
L 365.368981 90.422712 
L 365.385214 90.488737 
L 365.466378 92.190323 
L 365.628705 101.84331 
L 365.937127 137.249131 
L 366.781228 239.714807 
L 367.170814 260.675768 
L 367.544167 270.177894 
L 367.901287 274.304737 
L 368.225941 275.90003 
L 368.469432 276.246597 
L 368.615527 276.13776 
L 368.794087 275.616524 
L 369.005112 274.196109 
L 369.23237 270.932832 
L 369.459628 264.123786 
L 369.703119 249.072447 
L 369.979076 215.501833 
L 370.871876 89.400505 
L 370.904341 89.249072 
L 370.936807 89.476025 
L 371.034203 92.318162 
L 371.228996 106.592792 
L 371.602348 154.820496 
L 372.251658 234.328134 
L 372.657476 258.764352 
L 373.030828 269.36099 
L 373.387948 274.007098 
L 373.728836 275.925033 
L 373.988559 276.406918 
L 374.134654 276.364243 
L 374.296981 276.015588 
L 374.508007 274.903888 
L 374.735265 272.280899 
L 374.962523 266.749921 
L 375.206014 254.300227 
L 375.465738 227.485075 
L 375.855323 157.282557 
L 376.277374 95.060218 
L 376.472167 88.073357 
L 376.520865 88.530961 
L 376.634494 92.704378 
L 376.845519 110.379053 
L 377.300036 172.677754 
L 377.851948 236.589706 
L 378.241534 259.302766 
L 378.614887 269.675094 
L 378.972007 274.212787 
L 379.312894 276.08896 
L 379.572618 276.570356 
L 379.734945 276.523204 
L 379.897272 276.169994 
L 380.108298 275.06525 
L 380.335556 272.466155 
L 380.562814 266.974738 
L 380.790072 255.707483 
L 381.049796 229.934008 
L 381.406916 166.875651 
L 381.877665 94.140021 
L 382.072458 86.897993 
L 382.08869 86.938015 
L 382.169854 88.516265 
L 382.332181 97.971851 
L 382.62437 131.16203 
L 383.533403 242.219784 
L 383.922988 262.121969 
L 384.296341 271.032496 
L 384.653461 274.882072 
L 384.978116 276.383684 
L 385.221607 276.742234 
L 385.367701 276.680396 
L 385.546261 276.274106 
L 385.757287 275.118935 
L 385.984545 272.424662 
L 386.211803 266.729267 
L 386.439061 255.030369 
L 386.698785 228.346104 
L 387.072138 160.712384 
L 387.510421 93.440692 
L 387.705214 85.73282 
L 387.721447 85.736725 
L 387.786378 86.680393 
L 387.932472 93.841554 
L 388.192196 120.527305 
L 389.296021 249.986314 
L 389.669374 265.41504 
L 390.042727 272.582946 
L 390.399847 275.623375 
L 390.724501 276.737574 
L 390.935527 276.902228 
L 391.081621 276.767206 
L 391.260181 276.257223 
L 391.471207 274.916791 
L 391.698465 271.840631 
L 391.925723 265.35035 
L 392.169214 250.751697 
L 392.428938 219.963787 
L 393.386668 84.548419 
L 393.435367 84.95214 
L 393.548996 89.006066 
L 393.760021 106.543381 
L 394.198305 167.153706 
L 394.76645 235.399249 
L 395.156036 258.948932 
L 395.529388 269.695313 
L 395.886508 274.400748 
L 396.227396 276.39009 
L 396.519585 277.017594 
L 396.698145 277.023995 
L 396.860472 276.758055 
L 397.071498 275.874292 
L 397.298756 273.75664 
L 397.526014 269.229008 
L 397.753272 259.767705 
L 397.996763 239.194585 
L 398.305185 190.286051 
L 398.922028 89.281187 
L 399.100588 83.374493 
L 399.116821 83.428231 
L 399.197985 85.068387 
L 399.360312 94.627815 
L 399.652501 128.130533 
L 400.577767 242.778122 
L 400.967352 262.603119 
L 401.340705 271.426518 
L 401.697825 275.234922 
L 402.038712 276.796892 
L 402.298436 277.193333 
L 402.460763 277.149872 
L 402.639323 276.801768 
L 402.850348 275.802345 
L 403.077607 273.455031 
L 403.304865 268.444662 
L 403.532123 257.986718 
L 403.775614 235.475713 
L 404.100268 180.407114 
L 404.652181 89.477619 
L 404.846974 82.201806 
L 404.863207 82.238246 
L 404.928138 83.30383 
L 405.074232 90.697574 
L 405.333956 117.775369 
L 406.437781 249.745928 
L 406.811134 265.489111 
L 407.168254 272.573994 
L 407.525374 275.798295 
L 407.850028 277.047662 
L 408.109752 277.346737 
L 408.272079 277.253263 
L 408.450639 276.846368 
L 408.661665 275.74791 
L 408.888923 273.198481 
L 409.116181 267.756783 
L 409.343439 256.407554 
L 409.603163 229.996505 
L 409.960283 164.541175 
L 410.431032 88.980136 
L 410.642058 81.034912 
L 410.706988 81.899999 
L 410.853083 88.880441 
L 411.112807 115.440391 
L 411.90821 224.324731 
L 411.90821 224.324731 
" clip-path="url(#pb83a4048e7)" style="fill: none; stroke: #bf00bf; stroke-width: 1.5; stroke-linecap: square"/>
   </g>
   <g id="line2d_10">
    <path d="M 87.253665 224.267074 
L 87.318596 224.466796 
L 87.367294 224.312608 
L 87.480923 222.924478 
L 87.675716 217.122194 
L 87.967905 200.284753 
L 88.454887 156.014151 
L 89.055498 107.340037 
L 89.347687 97.642616 
L 89.461316 96.798861 
L 89.510014 96.930947 
L 89.623643 98.363768 
L 89.818436 104.328319 
L 90.126858 121.851014 
L 90.711236 171.446646 
L 91.295614 213.671835 
L 91.620268 224.041311 
L 91.75013 225.059753 
L 91.782596 225.026129 
L 91.863759 224.429727 
L 92.026087 221.000291 
L 92.269578 210.138762 
L 92.626698 182.652741 
L 93.600661 102.178814 
L 93.860385 96.247614 
L 93.909083 96.09207 
L 93.957781 96.232638 
L 94.07141 97.689869 
L 94.266203 103.710894 
L 94.574625 121.36513 
L 95.14277 169.903577 
L 95.743381 214.01461 
L 96.068036 224.568253 
L 96.21413 225.65833 
L 96.246596 225.582307 
L 96.343992 224.647213 
L 96.522552 220.11979 
L 96.782276 206.90596 
L 97.188094 172.512678 
L 97.967265 105.557701 
L 98.259454 96.101697 
L 98.373083 95.383516 
L 98.405548 95.477044 
L 98.502945 96.537362 
L 98.681505 101.412715 
L 98.973694 116.832355 
L 99.460676 157.030527 
L 100.191148 213.870801 
L 100.515803 224.936039 
L 100.67813 226.257053 
L 100.694363 226.229904 
L 100.775527 225.652465 
L 100.937854 222.24777 
L 101.181345 211.365181 
L 101.538465 183.603237 
L 102.528661 100.570228 
L 102.788385 94.785226 
L 102.837083 94.665935 
L 102.885781 94.844884 
L 102.99941 96.399156 
L 103.210436 103.319275 
L 103.53509 123.020996 
L 104.200632 181.620311 
L 104.720079 217.179941 
L 105.028501 226.139585 
L 105.14213 226.862434 
L 105.190828 226.735436 
L 105.304458 225.400566 
L 105.49925 219.640852 
L 105.775207 203.839887 
L 106.229723 162.079728 
L 106.879032 105.826791 
L 107.187454 94.870789 
L 107.301083 93.94642 
L 107.349781 94.053338 
L 107.46341 95.448205 
L 107.658203 101.416855 
L 107.966625 119.163503 
L 108.518538 167.153588 
L 109.135381 214.511228 
L 109.460036 225.968124 
L 109.622363 227.467386 
L 109.654828 227.418618 
L 109.752225 226.561486 
L 109.930785 222.1551 
L 110.190508 209.007796 
L 110.580094 175.784954 
L 111.407963 102.892348 
L 111.700152 93.782926 
L 111.797548 93.218414 
L 111.846247 93.389067 
L 111.959876 94.933397 
L 112.154668 101.158075 
L 112.46309 119.299389 
L 113.031236 169.353544 
L 113.631847 215.295681 
L 113.956501 226.644911 
L 114.118828 228.075537 
L 114.135061 228.058587 
L 114.216225 227.529959 
L 114.362319 224.678514 
L 114.589578 215.22776 
L 114.930465 189.858031 
L 116.050523 96.230268 
L 116.277781 92.498213 
L 116.310247 92.511303 
L 116.326479 92.568021 
L 116.423876 93.600929 
L 116.602436 98.477458 
L 116.878392 112.981571 
L 117.332908 150.643668 
L 118.128312 215.529882 
L 118.452967 227.1327 
L 118.615294 228.684212 
L 118.647759 228.644934 
L 118.745156 227.81419 
L 118.907483 223.996343 
L 119.150974 212.369422 
L 119.508094 183.205479 
L 120.465825 98.973948 
L 120.725548 92.092586 
L 120.806712 91.756977 
L 120.839178 91.85903 
L 120.952807 93.256902 
L 121.147599 99.273066 
L 121.456021 117.233263 
L 121.991701 164.653326 
L 122.64101 216.046197 
L 122.965665 227.718694 
L 123.127992 229.295836 
L 123.160458 229.261321 
L 123.241621 228.655298 
L 123.403948 225.164323 
L 123.647439 214.018065 
L 124.004559 185.323191 
L 125.010988 97.137945 
L 125.270712 91.149256 
L 125.31941 91.013468 
L 125.368108 91.181684 
L 125.481738 92.732385 
L 125.67653 99.008521 
L 125.984952 117.367339 
L 126.536865 166.891722 
L 127.153708 215.967366 
L 127.494596 228.400881 
L 127.656923 229.912598 
L 127.689388 229.8644 
L 127.786785 229.004644 
L 127.965345 224.566927 
L 128.225068 211.241541 
L 128.598421 178.843228 
L 129.474988 99.367664 
L 129.750945 90.860487 
L 129.848341 90.269393 
L 129.897039 90.433304 
L 130.010668 91.977757 
L 130.205461 98.256186 
L 130.513883 116.664549 
L 131.065796 166.496492 
L 131.698872 217.024787 
L 132.039759 229.168709 
L 132.202087 230.528182 
L 132.218319 230.503255 
L 132.299483 229.932083 
L 132.46181 226.50557 
L 132.705301 215.414867 
L 133.046188 188.143496 
L 134.101316 94.927749 
L 134.344807 89.639893 
L 134.393505 89.523177 
L 134.442203 89.712056 
L 134.555832 91.316647 
L 134.766858 98.434574 
L 135.091512 118.790188 
L 135.708356 175.933659 
L 136.260268 218.321182 
L 136.584923 229.732352 
L 136.74725 231.14842 
L 136.763483 231.129155 
L 136.844647 230.586329 
L 136.990741 227.692774 
L 137.217999 218.084856 
L 137.542654 193.546339 
L 138.727643 91.75762 
L 138.938668 88.768782 
L 138.987367 88.908935 
L 139.100996 90.405754 
L 139.295788 96.629708 
L 139.60421 115.051739 
L 140.13989 163.828528 
L 140.789199 217.236151 
L 141.130087 230.074195 
L 141.308647 231.768747 
L 141.324879 231.747357 
L 141.406043 231.193605 
L 141.552138 228.27789 
L 141.779396 218.618884 
L 142.10405 193.928338 
L 143.305272 90.665222 
L 143.500065 88.01403 
L 143.516298 88.019059 
L 143.581228 88.378478 
L 143.727323 91.125838 
L 143.954581 100.455885 
L 144.311701 125.911914 
L 145.594087 227.962683 
L 145.837578 232.303118 
L 145.886276 232.387654 
L 145.918741 232.296376 
L 146.016138 231.303551 
L 146.194698 226.595082 
L 146.454421 212.746035 
L 146.827774 179.168259 
L 147.704341 96.855211 
L 147.99653 87.744147 
L 148.077694 87.253215 
L 148.126392 87.371764 
L 148.240021 88.824913 
L 148.434814 94.997634 
L 148.743236 113.429815 
L 149.262683 161.077902 
L 149.944458 218.337052 
L 150.285345 231.278589 
L 150.463905 233.016044 
L 150.480138 232.998644 
L 150.561301 232.465075 
L 150.707396 229.584665 
L 150.934654 219.956885 
L 151.259308 195.144738 
L 152.476763 89.049063 
L 152.671556 86.486741 
L 152.687788 86.50011 
L 152.768952 87.076682 
L 152.931279 90.709357 
L 153.191003 102.973955 
L 153.580588 133.81752 
L 154.651948 224.485926 
L 154.944138 232.893244 
L 155.057767 233.641533 
L 155.106465 233.521959 
L 155.220094 232.193078 
L 155.414887 226.362227 
L 155.690843 210.002268 
L 156.112894 168.685297 
L 156.843367 98.362945 
L 157.151788 86.743233 
L 157.28165 85.719794 
L 157.314116 85.81065 
L 157.411512 86.894442 
L 157.590072 91.93721 
L 157.866028 106.947001 
L 158.304312 144.917877 
L 159.164647 220.221334 
L 159.505534 232.750983 
L 159.667861 234.268419 
L 159.700327 234.221285 
L 159.797723 233.363837 
L 159.96005 229.473345 
L 160.203541 217.537911 
L 160.560661 186.910442 
L 161.56709 92.071617 
L 161.826814 85.230777 
L 161.891745 84.945696 
L 161.940443 85.09445 
L 162.054072 86.622694 
L 162.248865 92.940719 
L 162.557287 111.680478 
L 163.076734 160.244874 
L 163.758508 219.126238 
L 164.099396 232.775062 
L 164.294188 234.897375 
L 164.310421 234.884901 
L 164.391585 234.377154 
L 164.537679 231.545327 
L 164.764938 221.96688 
L 165.089592 196.991071 
L 166.339512 86.399154 
L 166.518072 84.170888 
L 166.534305 84.178875 
L 166.599236 84.553098 
L 166.74533 87.350464 
L 166.972588 96.817037 
L 167.329708 122.76491 
L 168.644559 230.937688 
L 168.88805 235.41255 
L 168.936748 235.526467 
L 168.985447 235.375655 
L 169.099076 233.974491 
L 169.293868 228.007263 
L 169.569825 211.348395 
L 169.975643 170.978127 
L 170.738581 95.806406 
L 171.047003 84.330724 
L 171.160632 83.392033 
L 171.20933 83.512277 
L 171.322959 84.978584 
L 171.517752 91.207388 
L 171.826174 109.885121 
L 172.329388 157.139465 
L 173.043628 220.10982 
L 173.384516 233.933792 
L 173.579308 236.155613 
L 173.595541 236.1521 
L 173.660472 235.842764 
L 173.790334 233.775979 
L 174.001359 226.082285 
L 174.293548 206.029645 
L 174.78053 153.422282 
L 175.364908 96.972443 
L 175.67333 84.117272 
L 175.819425 82.608407 
L 175.85189 82.658441 
L 175.949287 83.626225 
L 176.127847 88.483239 
L 176.403803 103.317384 
L 176.825854 139.979807 
L 177.767352 223.956313 
L 178.092007 235.382236 
L 178.254334 236.788967 
L 178.270567 236.769872 
L 178.35173 236.230588 
L 178.497825 233.344718 
L 178.725083 223.65586 
L 179.049738 198.310512 
L 180.31589 83.995041 
L 180.49445 81.820993 
L 180.510683 81.834569 
L 180.591847 82.415995 
L 180.754174 86.077437 
L 181.013898 98.47454 
L 181.403483 129.979703 
L 182.523541 228.264288 
L 182.81573 236.665272 
L 182.929359 237.420921 
L 182.978058 237.308481 
L 183.091687 236.004105 
L 183.286479 230.216039 
L 183.562436 213.744742 
L 183.968254 173.025042 
L 184.747425 94.020107 
L 185.055847 82.113437 
L 185.185708 81.031668 
L 185.218174 81.11083 
L 185.31557 82.1651 
L 185.49413 87.177984 
L 185.770087 102.262266 
L 186.192138 139.407327 
L 187.133636 224.677426 
L 187.45829 236.457255 
L 187.63685 238.051253 
L 187.653083 238.022641 
L 187.734247 237.437072 
L 187.896574 233.983434 
L 188.140065 222.685439 
L 188.464719 195.676348 
L 189.649708 83.986812 
L 189.876967 80.24367 
L 189.925665 80.343689 
L 190.023061 81.462822 
L 190.201621 86.590519 
L 190.477578 101.849861 
L 190.899628 139.286415 
L 191.841127 225.12035 
L 192.165781 237.020302 
L 192.344341 238.687264 
L 192.360574 238.665876 
L 192.441738 238.118117 
L 192.587832 235.226036 
L 192.81509 225.517036 
L 193.123512 201.536058 
L 193.756588 128.54084 
L 194.211105 89.959869 
L 194.503294 80.10968 
L 194.60069 79.443747 
L 194.649388 79.581369 
L 194.763018 81.089558 
L 194.95781 87.399518 
L 195.249999 105.063814 
L 195.720748 149.487485 
L 196.516152 222.805777 
L 196.857039 236.907883 
L 197.068065 239.321857 
L 197.116763 239.189079 
L 197.230392 237.843758 
L 197.425185 231.9924 
L 197.701141 215.358863 
L 198.090727 175.870397 
L 198.902363 91.611592 
L 199.210785 79.708494 
L 199.340647 78.645786 
L 199.373112 78.729756 
L 199.470508 79.797912 
L 199.649068 84.835849 
L 199.925025 99.989581 
L 200.347076 137.516755 
L 201.304807 226.080599 
L 201.629461 238.168395 
L 201.808021 239.955376 
L 201.824254 239.946187 
L 201.889185 239.618468 
L 202.019047 237.531734 
L 202.230072 229.80922 
L 202.522261 209.478982 
L 202.976778 158.883921 
L 203.609854 93.523992 
L 203.934508 79.398222 
L 204.080603 77.846777 
L 204.113068 77.888412 
L 204.194232 78.590223 
L 204.356559 82.483019 
L 204.616283 95.256694 
L 205.005868 127.550285 
L 206.158392 231.418061 
L 206.450581 239.808481 
L 206.56421 240.587602 
L 206.612908 240.492229 
L 206.726538 239.243397 
L 206.905098 234.232832 
L 207.164821 219.670406 
L 207.521941 185.353455 
L 208.479672 86.590704 
L 208.755628 77.677132 
L 208.853025 77.040643 
L 208.901723 77.192071 
L 209.015352 78.729445 
L 209.210145 85.083516 
L 209.502334 102.846925 
L 209.973083 147.796625 
L 210.784719 224.17276 
L 211.141839 238.954743 
L 211.352865 241.222061 
L 211.417796 240.951264 
L 211.547658 238.992287 
L 211.758683 231.507637 
L 212.050872 211.46921 
L 212.489156 162.686125 
L 213.154698 92.279469 
L 213.479352 77.895172 
L 213.641679 76.236245 
L 213.657912 76.263282 
L 213.739076 76.909731 
L 213.901403 80.691158 
L 214.161127 93.300429 
L 214.534479 123.915275 
L 215.751934 233.753767 
L 216.044123 241.353552 
L 216.141519 241.857429 
L 216.190218 241.725431 
L 216.303847 240.396733 
L 216.498639 234.605449 
L 216.758363 219.266925 
L 217.131716 181.850815 
L 218.024516 87.143102 
L 218.316705 76.40274 
L 218.430334 75.430666 
L 218.479032 75.537007 
L 218.592661 76.968797 
L 218.787454 83.142517 
L 219.079643 100.673925 
L 219.534159 143.876962 
L 220.394494 225.835731 
L 220.735381 239.983609 
L 220.946407 242.488829 
L 220.995105 242.391361 
L 221.108734 241.150153 
L 221.287294 236.177317 
L 221.547018 221.654208 
L 221.904138 187.050803 
L 222.878101 84.396475 
L 223.154058 75.312046 
L 223.251454 74.618581 
L 223.300152 74.740533 
L 223.413781 76.205799 
L 223.608574 82.42903 
L 223.900763 100.032288 
L 224.355279 143.423243 
L 225.215614 226.036207 
L 225.572734 240.810176 
L 225.783759 243.123018 
L 225.832458 242.983791 
L 225.946087 241.647023 
L 226.140879 235.861553 
L 226.400603 220.515613 
L 226.773956 182.835318 
L 227.682988 85.33177 
L 227.975178 74.729097 
L 228.088807 73.806345 
L 228.137505 73.931624 
L 228.251134 75.402102 
L 228.445927 81.627505 
L 228.738116 99.235353 
L 229.192632 142.741396 
L 230.052967 226.102904 
L 230.410087 241.221053 
L 230.621112 243.751617 
L 230.66981 243.667159 
L 230.767207 242.726362 
L 230.945767 238.189194 
L 231.189258 225.508999 
L 231.530145 194.203794 
L 232.650203 79.007295 
L 232.893694 73.189811 
L 232.942392 72.994016 
L 232.99109 73.107823 
L 233.104719 74.549532 
L 233.299512 80.720263 
L 233.591701 98.251584 
L 234.029985 139.99512 
L 234.939018 227.99456 
L 235.279905 241.941748 
L 235.49093 244.384837 
L 235.539628 244.283733 
L 235.653258 243.049371 
L 235.831818 238.121164 
L 236.091541 223.66532 
L 236.448661 188.835401 
L 237.45509 81.378821 
L 237.731047 72.732481 
L 237.828443 72.178176 
L 237.860908 72.268937 
L 237.958305 73.346758 
L 238.136865 78.367057 
L 238.412821 93.500518 
L 238.818639 129.931581 
L 239.889999 232.338582 
L 240.214654 243.563123 
L 240.376981 245.014828 
L 240.409447 244.974716 
L 240.506843 244.178067 
L 240.66917 240.49043 
L 240.912661 228.822898 
L 241.237316 200.575692 
L 242.487236 74.874563 
L 242.714494 71.360178 
L 242.763192 71.498283 
L 242.876821 72.988834 
L 243.071614 79.221721 
L 243.363803 96.831028 
L 243.802087 138.838523 
L 244.711119 228.268007 
L 245.068239 243.166833 
L 245.279265 245.641405 
L 245.327963 245.556081 
L 245.425359 244.627162 
L 245.603919 240.15164 
L 245.84741 227.583151 
L 246.188298 196.204097 
L 247.340821 76.165491 
L 247.584312 70.680552 
L 247.63301 70.542584 
L 247.681708 70.710733 
L 247.795338 72.265878 
L 247.99013 78.594457 
L 248.282319 96.33019 
L 248.720603 138.557227 
L 249.645868 229.546628 
L 249.986756 243.650478 
L 250.214014 246.271468 
L 250.262712 246.13982 
L 250.376341 244.850336 
L 250.571134 239.224097 
L 250.830858 224.11194 
L 251.187978 188.13952 
L 252.178174 79.823375 
L 252.470363 70.299533 
L 252.567759 69.724241 
L 252.616458 69.896882 
L 252.730087 71.458176 
L 252.924879 77.785231 
L 253.217068 95.509324 
L 253.655352 137.806015 
L 254.580618 229.585041 
L 254.937738 244.406337 
L 255.148763 246.892173 
L 255.197461 246.818755 
L 255.294858 245.924699 
L 255.473418 241.548368 
L 255.716908 229.155158 
L 256.041563 199.729348 
L 257.259018 73.394011 
L 257.486276 68.973417 
L 257.518741 68.904064 
L 257.567439 69.053105 
L 257.681068 70.556326 
L 257.875861 76.774852 
L 258.16805 94.333975 
L 258.606334 136.528878 
L 259.547832 230.321098 
L 259.904952 245.051171 
L 260.115978 247.516022 
L 260.164676 247.442657 
L 260.262072 246.554286 
L 260.440632 242.205609 
L 260.684123 229.868703 
L 261.008778 200.463189 
L 262.242465 72.298752 
L 262.469723 68.124944 
L 262.502188 68.08727 
L 262.534654 68.183919 
L 262.63205 69.265044 
L 262.81061 74.24084 
L 263.086567 89.24447 
L 263.492385 125.77295 
L 264.612443 235.324534 
L 264.937098 246.563647 
L 265.115658 248.142444 
L 265.13189 248.126749 
L 265.213054 247.642196 
L 265.359148 244.996851 
L 265.586407 235.858004 
L 265.878596 213.70293 
L 266.333112 158.230625 
L 266.966188 86.215655 
L 267.290843 69.924413 
L 267.485636 67.266575 
L 267.501868 67.268917 
L 267.566799 67.610461 
L 267.696661 69.852425 
L 267.923919 78.605915 
L 268.248574 101.24546 
L 268.768021 156.539083 
L 269.482261 227.668979 
L 269.855614 245.144535 
L 270.099105 248.7289 
L 270.13157 248.759837 
L 270.164036 248.684538 
L 270.261432 247.808704 
L 270.439992 243.520364 
L 270.683483 231.309959 
L 271.008138 201.975038 
L 272.27429 70.152573 
L 272.501548 66.45021 
L 272.534014 66.47225 
L 272.550247 66.533024 
L 272.647643 67.582769 
L 272.826203 72.47645 
L 273.102159 87.317506 
L 273.491745 121.986281 
L 274.692967 238.573581 
L 275.001388 248.168549 
L 275.163716 249.377656 
L 275.179948 249.355005 
L 275.261112 248.841975 
L 275.407207 246.168919 
L 275.634465 237.023761 
L 275.926654 214.826146 
L 276.364938 161.094792 
L 277.030479 84.310153 
L 277.355134 68.205619 
L 277.549927 65.623523 
L 277.566159 65.630034 
L 277.63109 65.984787 
L 277.777185 68.660439 
L 278.004443 77.817784 
L 278.329098 100.968519 
L 278.848545 157.000715 
L 279.546552 227.517938 
L 279.919905 245.753985 
L 280.163396 249.868846 
L 280.212094 249.993933 
L 280.260792 249.884794 
L 280.374421 248.695424 
L 280.552981 243.993189 
L 280.812705 230.000829 
L 281.153592 196.982709 
L 282.289883 71.99056 
L 282.549607 65.119211 
L 282.614538 64.803636 
L 282.663236 64.915357 
L 282.776865 66.306407 
L 282.971658 72.258333 
L 283.263847 89.336614 
L 283.685898 129.461197 
L 284.724792 234.569946 
L 285.065679 248.092072 
L 285.292938 250.606097 
L 285.341636 250.491358 
L 285.455265 249.29718 
L 285.633825 244.607559 
L 285.893548 230.655257 
L 286.234436 197.627584 
L 287.386959 70.79571 
L 287.646683 64.231573 
L 287.711614 63.98144 
L 287.760312 64.139243 
L 287.873941 65.628497 
L 288.068734 71.72347 
L 288.360923 88.980105 
L 288.782974 129.348647 
L 289.821868 234.948392 
L 290.162756 248.58501 
L 290.390014 251.213042 
L 290.438712 251.129648 
L 290.552341 250.020421 
L 290.730901 245.501027 
L 290.974392 232.992985 
L 291.299047 203.03704 
L 292.565199 67.449925 
L 292.792458 63.220896 
L 292.824923 63.161806 
L 292.873621 63.317374 
L 292.98725 64.794662 
L 293.182043 70.849116 
L 293.474232 88.017412 
L 293.896283 128.320948 
L 294.95141 235.792354 
L 295.292298 249.2539 
L 295.519556 251.820025 
L 295.568254 251.730054 
L 295.681883 250.614302 
L 295.860443 246.106534 
L 296.103934 233.639066 
L 296.428588 203.69735 
L 297.710974 66.357198 
L 297.938232 62.376553 
L 297.970698 62.347975 
L 298.003163 62.4487 
L 298.116792 63.798608 
L 298.311585 69.619833 
L 298.603774 86.416822 
L 299.009592 124.501955 
L 300.12965 237.954925 
L 300.470538 250.407237 
L 300.681563 252.423378 
L 300.746494 252.198351 
L 300.876356 250.502846 
L 301.071148 244.539177 
L 301.330872 228.993627 
L 301.671759 193.614016 
L 302.743119 71.008026 
L 303.019076 62.223371 
L 303.132705 61.528624 
L 303.16517 61.622596 
L 303.278799 62.942584 
L 303.473592 68.691034 
L 303.765781 85.345981 
L 304.171599 123.286599 
L 305.30789 238.679503 
L 305.648778 251.022551 
L 305.859803 253.022863 
L 305.924734 252.802659 
L 306.054596 251.13079 
L 306.249388 245.235048 
L 306.509112 229.816847 
L 306.849999 194.535035 
L 307.921359 70.713599 
L 308.213548 61.336754 
L 308.310945 60.709413 
L 308.359643 60.831453 
L 308.473272 62.209766 
L 308.668065 68.030897 
L 308.960254 84.753738 
L 309.366072 122.789517 
L 310.518596 239.741279 
L 310.859483 251.753735 
L 311.054276 253.617029 
L 311.070508 253.615032 
L 311.135439 253.36131 
L 311.265301 251.63249 
L 311.476327 244.966802 
L 311.752283 227.52181 
L 312.109403 188.332114 
L 313.083367 72.869545 
L 313.391788 61.074241 
L 313.537883 59.89704 
L 313.554116 59.92759 
L 313.635279 60.548662 
L 313.797607 64.074957 
L 314.05733 75.888101 
L 314.41445 104.169559 
L 315.031294 175.587477 
L 315.615672 232.445934 
L 315.989025 250.016138 
L 316.248748 254.123706 
L 316.297447 254.209975 
L 316.346145 254.079244 
L 316.459774 252.904928 
L 316.654567 247.806469 
L 316.91429 233.746189 
L 317.238945 202.204649 
L 318.472632 64.750157 
L 318.716123 59.276025 
L 318.781054 59.084044 
L 318.813519 59.177385 
L 318.927148 60.472812 
L 319.121941 66.104346 
L 319.41413 82.464115 
L 319.819948 120.085518 
L 321.02117 241.857597 
L 321.345825 252.907577 
L 321.55685 254.797617 
L 321.621781 254.573846 
L 321.751643 252.937188 
L 321.946436 247.190305 
L 322.206159 232.079039 
L 322.547047 197.020216 
L 323.667105 67.226479 
L 323.943061 58.875587 
L 324.040458 58.269399 
L 324.089156 58.391945 
L 324.202785 59.74552 
L 324.397578 65.446389 
L 324.689767 81.862792 
L 325.095585 119.554382 
L 326.296807 242.034973 
L 326.637694 253.608846 
L 326.832487 255.381282 
L 326.848719 255.377667 
L 326.91365 255.126748 
L 327.043512 253.447541 
L 327.238305 247.65774 
L 327.498028 232.498648 
L 327.838916 197.313746 
L 328.958974 66.679453 
L 329.23493 58.144292 
L 329.348559 57.462148 
L 329.381025 57.548781 
L 329.478421 58.53583 
L 329.656981 63.105636 
L 329.932938 77.068428 
L 330.30629 108.971287 
L 331.751003 248.810454 
L 332.043192 255.433506 
L 332.156821 255.9615 
L 332.189287 255.905178 
L 332.286683 255.168723 
L 332.44901 251.921036 
L 332.676268 242.408077 
L 332.968458 219.56562 
L 333.390508 165.408995 
L 334.088516 78.535652 
L 334.429403 60.141511 
L 334.656661 56.662003 
L 334.689127 56.675629 
L 334.705359 56.728233 
L 334.802756 57.673775 
L 334.981316 62.144819 
L 335.257272 75.907324 
L 335.630625 107.532278 
L 337.107803 249.920937 
L 337.399992 256.126692 
L 337.497388 256.536821 
L 337.546087 256.435188 
L 337.659716 255.376418 
L 337.838276 251.182695 
L 338.081767 239.470761 
L 338.390188 212.262759 
L 338.893403 142.845695 
L 339.445316 77.568284 
L 339.786203 59.303524 
L 340.013461 55.857492 
L 340.045927 55.871383 
L 340.062159 55.923688 
L 340.159556 56.861458 
L 340.338116 61.29299 
L 340.614072 74.943477 
L 340.987425 106.396494 
L 341.73413 195.222332 
L 342.237345 239.188751 
L 342.594465 253.840222 
L 342.837956 257.058144 
L 342.870421 257.106801 
L 342.919119 257.011265 
L 343.032748 255.979178 
L 343.211308 251.863191 
L 343.454799 240.32024 
L 343.763221 213.352327 
L 344.250203 146.255471 
L 344.818348 77.696902 
L 345.159236 58.882929 
L 345.386494 55.086414 
L 345.418959 55.049262 
L 345.451425 55.132307 
L 345.548821 56.088248 
L 345.727381 60.525726 
L 346.003338 74.132056 
L 346.37669 105.495846 
L 347.09093 190.868866 
L 347.610378 238.080683 
L 347.967498 253.672618 
L 348.227221 257.571173 
L 348.275919 257.672026 
L 348.324618 257.573978 
L 348.438247 256.547829 
L 348.616807 252.473272 
L 348.860298 241.038875 
L 349.168719 214.223937 
L 349.655701 147.00224 
L 350.223847 77.690433 
L 350.564734 58.423426 
L 350.808225 54.275841 
L 350.84069 54.255004 
L 350.873156 54.352927 
L 350.986785 55.611017 
L 351.181578 60.99904 
L 351.473767 76.681905 
L 351.863352 111.6232 
L 353.210668 247.601199 
L 353.535323 256.953708 
L 353.713883 258.231937 
L 353.730116 258.218464 
L 353.811279 257.820121 
L 353.957374 255.640172 
L 354.168399 248.667576 
L 354.444356 230.882481 
L 354.801476 190.605755 
L 355.791672 68.077246 
L 356.100094 55.297221 
L 356.278654 53.453634 
L 356.294887 53.468004 
L 356.37605 53.975846 
L 356.538378 57.11768 
L 356.781868 67.053899 
L 357.122756 91.593815 
L 357.609738 145.61466 
L 358.405141 232.481615 
L 358.794727 252.731985 
L 359.086916 258.443046 
L 359.184312 258.78584 
L 359.216778 258.72954 
L 359.314174 258.034551 
L 359.476501 254.992505 
L 359.703759 246.025822 
L 359.995948 224.089694 
L 360.385534 174.98816 
L 361.180938 73.535214 
L 361.521825 55.927581 
L 361.749083 52.668274 
L 361.797781 52.742442 
L 361.895178 53.662467 
L 362.073738 57.951345 
L 362.349694 71.154975 
L 362.706814 100.23748 
L 363.307425 171.802676 
L 363.908036 233.623044 
L 364.297621 253.480943 
L 364.573578 258.896265 
L 364.687207 259.333503 
L 364.719672 259.269805 
L 364.817068 258.560561 
L 364.995628 255.075135 
L 365.239119 244.793731 
L 365.531308 221.481758 
L 365.937127 168.325882 
L 366.667599 74.656161 
L 367.008487 55.895566 
L 367.235745 51.951004 
L 367.26821 51.875715 
L 367.316908 51.97915 
L 367.430538 53.205774 
L 367.62533 58.436797 
L 367.901287 72.608441 
L 368.274639 104.566332 
L 368.988879 191.153392 
L 369.508327 239.085935 
L 369.881679 255.594251 
L 370.141403 259.687217 
L 370.206334 259.878824 
L 370.255032 259.806133 
L 370.368661 258.892263 
L 370.547221 255.149786 
L 370.790712 244.460445 
L 371.082901 220.527197 
L 371.504952 164.110577 
L 372.186727 75.932322 
L 372.543847 55.429796 
L 372.787338 51.148259 
L 372.819803 51.090756 
L 372.868501 51.217863 
L 372.98213 52.486437 
L 373.176923 57.751312 
L 373.469112 72.992619 
L 373.858698 107.243375 
L 375.30341 251.514438 
L 375.611832 259.358809 
L 375.774159 260.41726 
L 375.806625 260.386925 
L 375.904021 259.799011 
L 376.066348 257.040263 
L 376.293607 248.703556 
L 376.569563 229.375991 
L 376.942916 184.473315 
L 377.835716 69.584501 
L 378.16037 53.539618 
L 378.387628 50.320582 
L 378.420094 50.331218 
L 378.436327 50.378521 
L 378.533723 51.239512 
L 378.712283 55.33112 
L 378.972007 67.069598 
L 379.329127 94.7467 
L 379.864807 157.299704 
L 380.562814 233.071584 
L 380.952399 253.936741 
L 381.244588 260.268853 
L 381.37445 260.949018 
L 381.406916 260.92114 
L 381.504312 260.349953 
L 381.666639 257.651378 
L 381.893898 249.467772 
L 382.169854 230.407146 
L 382.526974 188.103588 
L 383.484705 66.285135 
L 383.809359 51.887184 
L 384.020385 49.537194 
L 384.085316 49.783803 
L 384.215178 51.56925 
L 384.426203 58.072468 
L 384.734625 75.744672 
L 385.140443 113.998681 
L 386.422828 247.759594 
L 386.763716 259.130386 
L 386.990974 261.45336 
L 387.023439 261.47356 
L 387.055905 261.415501 
L 387.153301 260.759813 
L 387.331861 257.517998 
L 387.559119 248.730591 
L 387.835076 228.715388 
L 388.208428 182.756879 
L 389.084996 68.92149 
L 389.425883 51.955231 
L 389.653141 48.777367 
L 389.685607 48.782711 
L 389.701839 48.826314 
L 389.799236 49.650446 
L 389.977796 53.611193 
L 390.237519 65.030457 
L 390.594639 92.135024 
L 391.114087 152.232218 
L 391.844559 232.995548 
L 392.234145 254.328879 
L 392.542567 261.233819 
L 392.688661 261.995428 
L 392.721127 261.955209 
L 392.818523 261.364253 
L 392.98085 258.687585 
L 393.208108 250.637403 
L 393.484065 231.83969 
L 393.841185 189.733594 
L 394.815148 64.928203 
L 395.139803 50.48529 
L 395.350828 48.002004 
L 395.399527 48.10059 
L 395.513156 49.254319 
L 395.707948 54.170567 
L 395.983905 67.555355 
L 396.357258 98.2059 
L 396.941636 168.881851 
L 397.558479 234.354114 
L 397.948065 255.159596 
L 398.256487 261.812375 
L 398.402581 262.507496 
L 398.435047 262.456613 
L 398.532443 261.841883 
L 398.69477 259.150285 
L 398.922028 251.120801 
L 399.197985 232.381439 
L 399.555105 190.284998 
L 400.529068 64.684187 
L 400.853723 49.947273 
L 401.064748 47.252657 
L 401.097214 47.255965 
L 401.113447 47.297433 
L 401.210843 48.093298 
L 401.389403 51.935769 
L 401.649127 63.046943 
L 401.990014 88.079502 
L 402.476996 142.955172 
L 403.304865 235.33455 
L 403.69445 255.809626 
L 404.002872 262.332713 
L 404.148967 263.014188 
L 404.181432 262.964562 
L 404.278828 262.363188 
L 404.441156 259.726815 
L 404.668414 251.845936 
L 404.94437 233.378572 
L 405.30149 191.582108 
L 406.307919 62.627021 
L 406.632574 48.773233 
L 406.843599 46.486386 
L 406.892298 46.609638 
L 407.005927 47.79284 
L 407.200719 52.676274 
L 407.476676 65.869041 
L 407.850028 96.13135 
L 408.418174 164.628878 
L 409.067483 234.691713 
L 409.457068 255.709583 
L 409.76549 262.619934 
L 409.927818 263.515202 
L 409.94405 263.506503 
L 410.025214 263.189594 
L 410.171308 261.403208 
L 410.382334 255.569131 
L 410.642058 241.338182 
L 410.966712 208.992969 
L 411.616021 112.215846 
L 411.90821 77.651093 
L 411.90821 77.651093 
" clip-path="url(#pb83a4048e7)" style="fill: none; stroke: #0000ff; stroke-width: 1.5; stroke-linecap: square"/>
   </g>
   <g id="line2d_11">
    <path d="M 87.253665 155.077954 
L 88.17893 236.478557 
L 88.503585 245.576524 
L 88.730843 247.254382 
L 88.795774 247.160465 
L 88.925636 246.273336 
L 89.136661 242.905803 
L 89.42885 234.223649 
L 89.802203 215.749695 
L 90.32165 177.127077 
L 90.987192 130.802391 
L 91.181985 127.177301 
L 91.198218 127.206924 
L 91.279381 128.185605 
L 91.425476 133.528389 
L 91.685199 153.557544 
L 92.64293 237.773218 
L 92.951352 246.082013 
L 93.162378 247.691561 
L 93.211076 247.678607 
L 93.227308 247.644411 
L 93.340938 246.998945 
L 93.53573 244.28534 
L 93.811687 236.933339 
L 94.168807 220.801277 
L 94.639556 187.923221 
L 95.467425 129.081484 
L 95.629752 126.384865 
L 95.662218 126.472365 
L 95.759614 128.087059 
L 95.938174 136.421658 
L 96.246596 164.618426 
L 96.960836 231.672744 
L 97.301723 244.643223 
L 97.561447 247.990286 
L 97.64261 248.148968 
L 97.691308 248.063045 
L 97.82117 247.199413 
L 98.032196 243.884974 
L 98.324385 235.295545 
L 98.697738 216.906042 
L 99.200952 179.384068 
L 99.898959 129.34276 
L 100.093752 125.583149 
L 100.109985 125.607964 
L 100.174916 126.271138 
L 100.32101 131.16212 
L 100.564501 149.263482 
L 101.603396 240.385957 
L 101.911818 247.552071 
L 102.10661 248.597143 
L 102.187774 248.379313 
L 102.333868 247.091689 
L 102.561127 242.84768 
L 102.869548 232.515605 
L 103.259134 211.15621 
L 103.843512 164.402485 
L 104.362959 128.856195 
L 104.573985 124.781993 
L 104.638916 125.347008 
L 104.768778 129.290211 
L 104.996036 144.984337 
L 106.181025 244.153138 
L 106.456981 248.659164 
L 106.57061 249.047661 
L 106.619308 248.986554 
L 106.732938 248.34112 
L 106.92773 245.649747 
L 107.203687 238.360145 
L 107.560807 222.284704 
L 108.015323 190.460753 
L 108.908123 125.952726 
L 109.054218 123.965076 
L 109.086683 124.125049 
L 109.184079 126.01036 
L 109.362639 135.0368 
L 109.671061 164.75227 
L 110.352836 231.41618 
L 110.693723 245.36454 
L 110.969679 249.282265 
L 111.067076 249.494035 
L 111.099541 249.44499 
L 111.21317 248.823681 
L 111.407963 246.180903 
L 111.683919 238.975325 
L 112.041039 223.01388 
L 112.495556 191.221107 
L 113.404588 125.026783 
L 113.53445 123.141404 
L 113.566916 123.219538 
L 113.648079 124.44135 
L 113.810407 131.412617 
L 114.086363 155.741686 
L 114.914232 235.644032 
L 115.238887 246.967914 
L 115.482378 249.816093 
L 115.563541 249.942509 
L 115.596007 249.889527 
L 115.709636 249.257418 
L 115.904428 246.605235 
L 116.180385 239.397994 
L 116.537505 223.427262 
L 116.992021 191.523494 
L 117.901054 124.389785 
L 118.047148 122.312172 
L 118.079614 122.463443 
L 118.17701 124.352287 
L 118.35557 133.519737 
L 118.663992 163.895251 
L 119.345767 232.007007 
L 119.686654 246.151657 
L 119.96261 250.154003 
L 120.060007 250.397123 
L 120.108705 250.318822 
L 120.238567 249.491523 
L 120.449592 246.283023 
L 120.741781 237.904626 
L 121.098901 220.70879 
L 121.56965 185.883127 
L 122.397519 124.095156 
L 122.559847 121.475433 
L 122.576079 121.519411 
L 122.657243 122.637338 
L 122.803338 128.537236 
L 123.063061 150.518047 
L 123.988327 239.213613 
L 124.312981 248.863525 
L 124.540239 250.822211 
L 124.588938 250.839485 
L 124.621403 250.778672 
L 124.735032 250.125463 
L 124.929825 247.456439 
L 125.205781 240.250913 
L 125.562901 224.272222 
L 126.001185 193.515175 
L 126.958916 122.211558 
L 127.072545 120.63747 
L 127.121243 120.818618 
L 127.218639 122.827596 
L 127.397199 132.349439 
L 127.705621 163.632718 
L 128.387396 232.911056 
L 128.728283 247.064466 
L 129.004239 251.05224 
L 129.101636 251.298863 
L 129.150334 251.224525 
L 129.263963 250.56404 
L 129.458756 247.89266 
L 129.734712 240.698201 
L 130.091832 224.732365 
L 130.530116 193.903398 
L 131.504079 121.150244 
L 131.617708 119.780981 
L 131.650174 119.910183 
L 131.74757 121.77589 
L 131.92613 131.103177 
L 132.234552 162.423638 
L 132.916327 232.817244 
L 133.257214 247.298773 
L 133.53317 251.45133 
L 133.646799 251.747151 
L 133.679265 251.700339 
L 133.792894 251.100419 
L 133.987687 248.541045 
L 134.263643 241.53159 
L 134.60453 226.731646 
L 135.042814 196.603224 
L 136.081708 119.675487 
L 136.162872 118.924234 
L 136.21157 119.183282 
L 136.325199 121.980402 
L 136.519992 134.02542 
L 136.877112 173.94693 
L 137.445258 231.959311 
L 137.786145 247.216374 
L 138.062101 251.766387 
L 138.191963 252.200146 
L 138.224428 252.16241 
L 138.338058 251.596285 
L 138.53285 249.104305 
L 138.808807 242.213556 
L 139.149694 227.584719 
L 139.571745 198.931975 
L 140.659338 118.526427 
L 140.724268 118.060546 
L 140.772967 118.342353 
L 140.886596 121.217288 
L 141.081388 133.477853 
L 141.438508 173.950937 
L 142.006654 232.409722 
L 142.347541 247.672288 
L 142.623498 252.214133 
L 142.753359 252.651036 
L 142.785825 252.615007 
L 142.899454 252.057885 
L 143.094247 249.592211 
L 143.370203 242.759103 
L 143.71109 228.215966 
L 144.133141 199.607943 
L 145.236967 117.580234 
L 145.301898 117.194871 
L 145.350596 117.546265 
L 145.464225 120.613012 
L 145.659018 133.279202 
L 146.03237 176.575004 
L 146.56805 232.049554 
L 146.908938 247.790932 
L 147.184894 252.569755 
L 147.330988 253.100431 
L 147.363454 253.059362 
L 147.477083 252.488584 
L 147.671876 250.011687 
L 147.947832 243.180168 
L 148.288719 228.643189 
L 148.71077 199.979255 
L 149.830828 116.589824 
L 149.879527 116.313176 
L 149.928225 116.59009 
L 150.041854 119.497562 
L 150.236647 131.98417 
L 150.593767 173.380182 
L 151.145679 231.922049 
L 151.486567 248.004681 
L 151.762523 252.947143 
L 151.908618 253.551932 
L 151.941083 253.527295 
L 152.038479 253.128279 
L 152.217039 251.173324 
L 152.476763 245.473744 
L 152.801418 233.032061 
L 153.207236 207.772944 
L 153.856545 149.687928 
L 154.311061 118.493037 
L 154.473388 115.430993 
L 154.505854 115.528723 
L 154.60325 117.370568 
L 154.78181 126.989 
L 155.073999 157.863297 
L 155.788239 235.237544 
L 156.129127 249.629725 
L 156.405083 253.701249 
L 156.518712 253.999759 
L 156.551178 253.958267 
L 156.664807 253.393142 
L 156.859599 250.95023 
L 157.135556 244.210089 
L 157.476443 229.817551 
L 157.898494 201.223384 
L 159.051018 114.692689 
L 159.083483 114.540829 
L 159.132181 114.783714 
L 159.24581 117.651835 
L 159.440603 130.243175 
L 159.797723 172.459318 
L 160.349636 232.337452 
L 160.690523 248.710817 
L 160.982712 253.911969 
L 161.128807 254.449795 
L 161.161272 254.413748 
L 161.274901 253.870714 
L 161.469694 251.477737 
L 161.74565 244.835043 
L 162.086538 230.593388 
L 162.492356 203.463404 
L 163.70981 113.642587 
L 163.758508 113.920677 
L 163.872138 116.896719 
L 164.06693 129.755405 
L 164.42405 172.583881 
L 164.975963 232.851516 
L 165.31685 249.190782 
L 165.609039 254.362487 
L 165.755134 254.898112 
L 165.787599 254.862872 
L 165.901228 254.326392 
L 166.096021 251.957692 
L 166.371978 245.37417 
L 166.712865 231.229025 
L 167.118683 204.176312 
L 168.35237 112.741713 
L 168.401068 113.086358 
L 168.514698 116.246943 
L 168.70949 129.501961 
L 169.06661 173.060266 
L 169.618523 233.542609 
L 169.95941 249.742515 
L 170.251599 254.831087 
L 170.397694 255.344858 
L 170.430159 255.306419 
L 170.543788 254.763088 
L 170.738581 252.396561 
L 171.014538 245.839127 
L 171.355425 231.742946 
L 171.761243 204.707549 
L 172.99493 111.832012 
L 173.011163 111.847422 
L 173.076094 112.567915 
L 173.205956 117.308103 
L 173.433214 136.114657 
L 174.553272 248.323835 
L 174.845461 254.716946 
L 175.040254 255.792003 
L 175.056487 255.789325 
L 175.13765 255.579679 
L 175.283745 254.407115 
L 175.511003 250.570788 
L 175.819425 241.087433 
L 176.192778 221.688986 
L 176.663527 183.591905 
L 177.507628 113.786581 
L 177.669956 110.917407 
L 177.686188 110.971025 
L 177.767352 112.247292 
L 177.913447 118.955397 
L 178.156938 142.191678 
L 179.082203 242.974996 
L 179.406858 253.601118 
L 179.650348 256.134318 
L 179.715279 256.23795 
L 179.763978 256.176091 
L 179.877607 255.587513 
L 180.072399 253.17314 
L 180.348356 246.588996 
L 180.689243 232.475533 
L 181.095061 205.325455 
L 181.857999 133.81945 
L 182.231352 111.531629 
L 182.344981 109.992146 
L 182.377447 110.124323 
L 182.474843 112.160027 
L 182.653403 122.536264 
L 182.945592 155.738783 
L 183.627367 235.319007 
L 183.968254 251.261572 
L 184.24421 256.068534 
L 184.406538 256.680267 
L 184.42277 256.666712 
L 184.520167 256.319191 
L 184.698727 254.535575 
L 184.95845 249.251285 
L 185.283105 237.531064 
L 185.67269 214.297258 
L 186.192138 167.784679 
L 186.841447 113.651315 
L 187.036239 109.06612 
L 187.052472 109.083137 
L 187.117403 109.826942 
L 187.247265 114.706586 
L 187.474523 134.112017 
L 188.578348 248.910169 
L 188.88677 255.967277 
L 189.097796 257.125031 
L 189.162727 257.018989 
L 189.292588 256.214607 
L 189.503614 253.259622 
L 189.795803 245.567703 
L 190.152923 229.346786 
L 190.574974 198.630191 
L 191.711265 108.323977 
L 191.74373 108.136423 
L 191.792428 108.352181 
L 191.889825 110.663502 
L 192.068385 121.685652 
L 192.376807 158.412814 
L 193.026116 235.455937 
L 193.367003 251.83949 
L 193.659192 256.981135 
L 193.821519 257.563726 
L 193.837752 257.548954 
L 193.935148 257.200284 
L 194.113708 255.440267 
L 194.373432 250.242278 
L 194.698087 238.693018 
L 195.087672 215.66531 
L 195.590887 170.630578 
L 196.272661 112.096333 
L 196.483687 107.196245 
L 196.548618 107.856567 
L 196.678479 112.618754 
L 196.889505 130.256201 
L 197.392719 199.212923 
L 197.81477 239.920341 
L 198.139425 253.470661 
L 198.415381 257.613589 
L 198.545243 258.005939 
L 198.577708 257.974005 
L 198.691338 257.478533 
L 198.88613 255.282533 
L 199.162087 249.142229 
L 199.502974 235.764395 
L 199.892559 210.765456 
L 200.460705 157.070226 
L 201.012618 111.292349 
L 201.223643 106.24749 
L 201.272341 106.611568 
L 201.38597 109.965551 
L 201.580763 124.140783 
L 201.937883 171.177217 
L 202.473563 234.520809 
L 202.81445 251.971279 
L 203.106639 257.625501 
L 203.285199 258.444528 
L 203.301432 258.439701 
L 203.382596 258.232299 
L 203.544923 256.934182 
L 203.788414 252.776477 
L 204.096836 243.231172 
L 204.453956 224.76635 
L 204.892239 189.493828 
L 205.866203 106.838243 
L 205.979832 105.294388 
L 206.012298 105.447701 
L 206.109694 107.61686 
L 206.288254 118.563984 
L 206.580443 153.665212 
L 207.262218 237.00802 
L 207.603105 253.241956 
L 207.895294 258.293245 
L 208.057621 258.87955 
L 208.073854 258.86746 
L 208.17125 258.543766 
L 208.34981 256.868879 
L 208.609534 251.883002 
L 208.934188 240.726622 
L 209.307541 219.393467 
L 209.77829 178.234251 
L 210.573694 108.249825 
L 210.752254 104.337527 
L 210.768487 104.366997 
L 210.833418 105.188442 
L 210.963279 110.375822 
L 211.190538 130.899165 
L 212.27813 250.26137 
L 212.586552 257.82841 
L 212.81381 259.309788 
L 212.878741 259.259712 
L 212.99237 258.72048 
L 213.187163 256.500248 
L 213.463119 250.407591 
L 213.804007 237.16145 
L 214.193592 212.260152 
L 214.729272 161.334713 
L 215.346116 108.206298 
L 215.540908 103.378876 
L 215.557141 103.391581 
L 215.622072 104.148361 
L 215.751934 109.226356 
L 215.962959 127.778032 
L 216.482407 201.973008 
L 216.888225 241.490055 
L 217.212879 255.110552 
L 217.488836 259.296578 
L 217.63493 259.746128 
L 217.651163 259.733798 
L 217.748559 259.415295 
L 217.927119 257.778151 
L 218.186843 252.907447 
L 218.511498 241.97999 
L 218.88485 220.957932 
L 219.355599 179.913616 
L 220.183468 106.079461 
L 220.362028 102.412738 
L 220.378261 102.472534 
L 220.459425 103.852889 
L 220.605519 111.114512 
L 220.84901 136.545297 
L 221.758043 245.292604 
L 222.082698 256.84038 
L 222.342421 259.952513 
L 222.439818 260.177968 
L 222.488516 260.127515 
L 222.602145 259.611206 
L 222.796938 257.464492 
L 223.072894 251.548076 
L 223.397548 239.401608 
L 223.787134 215.373653 
L 224.290348 168.343831 
L 224.988356 106.14299 
L 225.183148 101.436335 
L 225.199381 101.466037 
L 225.264312 102.302778 
L 225.394174 107.60365 
L 225.621432 128.67627 
L 226.709025 251.330718 
L 227.017447 259.004045 
L 227.244705 260.587102 
L 227.293403 260.597181 
L 227.325868 260.545899 
L 227.45573 259.895008 
L 227.666756 257.346413 
L 227.958945 250.535406 
L 228.299832 236.646767 
L 228.689418 210.767084 
L 229.24133 156.600941 
L 229.825708 105.623827 
L 230.036734 100.463595 
L 230.085432 100.861998 
L 230.199061 104.413107 
L 230.393854 119.411104 
L 230.750974 169.517099 
L 231.270421 235.045343 
L 231.611308 253.700539 
L 231.903498 259.870453 
L 232.114523 261.028915 
L 232.179454 260.966624 
L 232.309316 260.312349 
L 232.520341 257.779561 
L 232.81253 251.027257 
L 233.153418 237.246704 
L 233.543003 211.490705 
L 234.094916 157.213222 
L 234.679294 105.248527 
L 234.890319 99.481731 
L 234.906552 99.491669 
L 234.971483 100.255131 
L 235.101345 105.45105 
L 235.31237 124.601173 
L 235.815585 199.603347 
L 236.221403 241.626078 
L 236.546058 256.145335 
L 236.838247 260.895948 
L 237.000574 261.453339 
L 237.016807 261.443715 
L 237.114203 261.154773 
L 237.292763 259.630297 
L 237.552487 255.055875 
L 237.877141 244.705465 
L 238.250494 224.518085 
L 238.688778 187.346712 
L 239.662741 100.278068 
L 239.77637 98.493162 
L 239.825068 98.760311 
L 239.938698 102.01878 
L 240.13349 116.657804 
L 240.474378 164.57528 
L 241.02629 236.058053 
L 241.367178 254.608329 
L 241.659367 260.707191 
L 241.870392 261.869989 
L 241.951556 261.779518 
L 242.081418 261.079914 
L 242.292443 258.516249 
L 242.584632 251.782105 
L 242.925519 238.06929 
L 243.315105 212.357542 
L 243.850785 159.474061 
L 244.467628 103.340804 
L 244.678654 97.504825 
L 244.694887 97.513803 
L 244.759818 98.281487 
L 244.889679 103.534425 
L 245.100705 122.97473 
L 245.587687 197.123369 
L 245.993505 241.077019 
L 246.318159 256.399061 
L 246.610348 261.543133 
L 246.788908 262.290917 
L 246.805141 262.288529 
L 246.886305 262.115009 
L 247.048632 260.990516 
L 247.292123 257.348336 
L 247.600545 248.866317 
L 247.957665 232.034463 
L 248.363483 201.32303 
L 249.59717 96.523334 
L 249.613403 96.507429 
L 249.629636 96.563472 
L 249.710799 97.964038 
L 249.856894 105.47341 
L 250.100385 132.169928 
L 251.009418 247.135569 
L 251.334072 259.021904 
L 251.610028 262.433514 
L 251.723658 262.705605 
L 251.772356 262.655883 
L 251.885985 262.176758 
L 252.080778 260.203935 
L 252.356734 254.759281 
L 252.681388 243.470799 
L 253.054741 221.858944 
L 253.509258 181.046966 
L 254.402058 98.45897 
L 254.548152 95.509507 
L 254.580618 95.606049 
L 254.661781 97.162208 
L 254.824108 106.285531 
L 255.083832 137.107928 
L 255.895468 243.879291 
L 256.220123 257.99672 
L 256.512312 262.564364 
L 256.674639 263.116711 
L 256.690872 263.110312 
L 256.788268 262.854718 
L 256.966828 261.453163 
L 257.226552 257.200562 
L 257.534974 248.112443 
L 257.892094 230.361212 
L 258.314145 196.796623 
L 259.466668 94.874339 
L 259.515367 94.504428 
L 259.564065 94.781871 
L 259.677694 98.125943 
L 259.872487 113.199682 
L 260.197141 160.231745 
L 260.765287 237.069206 
L 261.106174 255.981782 
L 261.398363 262.203894 
L 261.625621 263.51779 
L 261.706785 263.447891 
L 261.836647 262.816016 
L 262.047672 260.45372 
L 262.339861 254.188726 
L 262.680748 241.29291 
L 263.054101 217.954823 
L 263.541083 171.420967 
L 264.304021 98.689415 
L 264.498814 93.503396 
L 264.515047 93.50586 
L 264.579978 94.260792 
L 264.709839 99.573168 
L 264.920865 119.49063 
L 265.375381 191.490757 
L 265.797432 240.855823 
L 266.138319 257.722247 
L 266.430508 263.029899 
L 266.641534 263.928828 
L 266.722698 263.78856 
L 266.868792 262.924384 
L 267.09605 260.020659 
L 267.388239 253.131791 
L 267.729127 239.27858 
L 268.118712 213.247207 
L 268.638159 160.953122 
L 269.303701 98.167443 
L 269.514727 92.485248 
L 269.563425 92.809164 
L 269.677054 96.296116 
L 269.871847 111.757589 
L 270.212734 162.597142 
L 270.748414 236.416915 
L 271.089301 256.18716 
L 271.397723 262.960804 
L 271.624981 264.316302 
L 271.689912 264.302775 
L 271.706145 264.27451 
L 271.836007 263.704048 
L 272.047032 261.489282 
L 272.322988 255.970081 
L 272.647643 244.671596 
L 273.020996 223.017725 
L 273.475512 181.777086 
L 274.400778 94.264482 
L 274.546872 91.471539 
L 274.579338 91.619393 
L 274.676734 93.918485 
L 274.839061 104.375804 
L 275.115018 140.303326 
L 275.84549 241.911571 
L 276.170145 258.11841 
L 276.462334 263.668939 
L 276.673359 264.72291 
L 276.754523 264.648953 
L 276.884385 264.039229 
L 277.09541 261.783453 
L 277.387599 255.804975 
L 277.712254 244.187522 
L 278.085607 222.039186 
L 278.540123 180.110403 
L 279.449156 93.482712 
L 279.59525 90.459807 
L 279.627716 90.553257 
L 279.708879 92.130442 
L 279.871207 101.476766 
L 280.13093 133.463339 
L 280.942567 245.182204 
L 281.267221 259.651178 
L 281.55941 264.402251 
L 281.754203 265.121084 
L 281.835367 264.989125 
L 281.981461 264.173712 
L 282.208719 261.429897 
L 282.500908 254.898784 
L 282.841796 241.675794 
L 283.215148 217.813641 
L 283.70213 170.183521 
L 284.481301 94.466152 
L 284.676094 89.436386 
L 284.692327 89.459975 
L 284.757258 90.314518 
L 284.887119 95.9154 
L 285.098145 116.655296 
L 285.568894 194.123518 
L 285.974712 242.159824 
L 286.299367 258.661447 
L 286.591556 264.339584 
L 286.818814 265.507086 
L 286.899978 265.433638 
L 287.029839 264.843931 
L 287.240865 262.668794 
L 287.516821 257.316302 
L 287.841476 246.360304 
L 288.214828 225.222524 
L 288.653112 186.097504 
L 289.659541 90.371383 
L 289.77317 88.420915 
L 289.821868 88.653343 
L 289.919265 91.235747 
L 290.097825 103.894636 
L 290.390014 145.192835 
L 291.039323 239.418773 
L 291.38021 258.302842 
L 291.672399 264.453761 
L 291.899658 265.864561 
L 291.964588 265.888254 
L 291.997054 265.844422 
L 292.126916 265.314679 
L 292.337941 263.262576 
L 292.613898 258.136523 
L 292.938552 247.568798 
L 293.295672 228.155249 
L 293.717723 191.976877 
L 294.821548 88.376783 
L 294.902712 87.390657 
L 294.95141 87.670655 
L 295.048807 90.362146 
L 295.227367 103.276958 
L 295.519556 145.121476 
L 296.168865 239.896554 
L 296.509752 258.713338 
L 296.801941 264.826608 
L 297.029199 266.241763 
L 297.09413 266.272544 
L 297.126596 266.233257 
L 297.256458 265.728545 
L 297.467483 263.741909 
L 297.743439 258.753651 
L 298.068094 248.43504 
L 298.425214 229.398588 
L 298.847265 193.6633 
L 299.999788 86.828555 
L 300.064719 86.367394 
L 300.097185 86.579309 
L 300.194581 89.115678 
L 300.373141 101.764226 
L 300.649098 140.69082 
L 301.330872 240.984249 
L 301.655527 258.828455 
L 301.963948 265.277768 
L 302.191207 266.626114 
L 302.256138 266.64736 
L 302.288603 266.604641 
L 302.418465 266.094267 
L 302.62949 264.122747 
L 302.905447 259.194668 
L 303.230101 249.002067 
L 303.587221 230.159571 
L 304.009272 194.63226 
L 305.178028 85.776725 
L 305.242959 85.34165 
L 305.275425 85.568212 
L 305.372821 88.156494 
L 305.551381 100.945082 
L 305.827338 140.245766 
L 306.509112 241.296891 
L 306.833767 259.167094 
L 307.142188 265.619599 
L 307.369447 266.991541 
L 307.434378 267.024424 
L 307.466843 266.988441 
L 307.596705 266.511585 
L 307.80773 264.619731 
L 308.083687 259.852399 
L 308.408341 249.948798 
L 308.765461 231.552519 
L 309.187512 196.587149 
L 310.404967 84.450629 
L 310.437432 84.30168 
L 310.48613 84.639495 
L 310.599759 88.238895 
L 310.778319 102.527687 
L 311.086741 149.666226 
L 311.687352 239.383712 
L 312.028239 259.164535 
L 312.336661 265.844099 
L 312.580152 267.362107 
L 312.645083 267.39287 
L 312.677548 267.357024 
L 312.80741 266.888297 
L 313.018436 265.034432 
L 313.294392 260.363469 
L 313.619047 250.646405 
L 313.976167 232.5431 
L 314.381985 199.550649 
L 315.66437 83.270658 
L 315.696836 83.395267 
L 315.794232 85.663877 
L 315.956559 96.320153 
L 316.216283 131.263584 
L 316.995454 245.851172 
L 317.320108 261.40434 
L 317.612298 266.644967 
L 317.839556 267.752923 
L 317.920719 267.711642 
L 317.936952 267.678899 
L 318.083047 267.031323 
L 318.310305 264.755323 
L 318.602494 259.231098 
L 318.927148 248.517234 
L 319.284268 228.883214 
L 319.706319 192.132699 
L 320.84261 83.140869 
L 320.923774 82.236181 
L 320.972472 82.575578 
L 321.086101 86.190164 
L 321.264661 100.581337 
L 321.573083 148.362784 
L 322.173694 239.694386 
L 322.498348 259.13061 
L 322.80677 266.265738 
L 323.050261 268.024911 
L 323.147658 268.115973 
L 323.180123 268.08052 
L 323.309985 267.628542 
L 323.52101 265.851593 
L 323.796967 261.375536 
L 324.121621 252.038041 
L 324.478741 234.539815 
L 324.884559 202.303689 
L 325.550101 126.52638 
L 326.004618 86.596743 
L 326.215643 81.208907 
L 326.280574 81.956618 
L 326.410436 87.420319 
L 326.621461 108.53078 
L 327.027279 179.581703 
L 327.465563 240.476856 
L 327.790218 259.653128 
L 328.098639 266.65619 
L 328.34213 268.380516 
L 328.439527 268.471109 
L 328.471992 268.437041 
L 328.601854 267.998013 
L 328.812879 266.267089 
L 329.088836 261.900637 
L 329.41349 252.774258 
L 329.77061 235.616696 
L 330.176428 203.825671 
L 330.793272 133.679232 
L 331.296487 86.68001 
L 331.523745 80.167386 
L 331.572443 80.539297 
L 331.686072 84.24419 
L 331.864632 98.857147 
L 332.156821 144.367988 
L 332.773665 240.166331 
L 333.098319 259.725893 
L 333.406741 266.8871 
L 333.666465 268.740346 
L 333.763861 268.81907 
L 333.796327 268.782807 
L 333.926188 268.342944 
L 334.137214 266.635289 
L 334.41317 262.342866 
L 334.737825 253.370054 
L 335.094945 236.464924 
L 335.500763 205.002175 
L 336.101374 136.770283 
L 336.637054 85.728793 
L 336.864312 79.131296 
L 336.91301 79.480649 
L 337.026639 83.130485 
L 337.205199 97.679554 
L 337.497388 143.338363 
L 338.114232 240.14317 
L 338.438887 259.913654 
L 338.747308 267.153852 
L 339.007032 269.063666 
L 339.104428 269.168886 
L 339.136894 269.142461 
L 339.250523 268.822084 
L 339.445316 267.46702 
L 339.721272 263.657257 
L 340.029694 256.035779 
L 340.370581 241.716721 
L 340.760167 214.716196 
L 341.263381 161.325824 
L 341.993854 85.542202 
L 342.221112 78.125355 
L 342.237345 78.095968 
L 342.26981 78.262755 
L 342.367207 80.675715 
L 342.529534 91.696641 
L 342.789258 127.902907 
L 343.568428 247.060671 
L 343.893083 262.860582 
L 344.185272 268.194669 
L 344.428763 269.48373 
L 344.509927 269.491146 
L 344.542392 269.443121 
L 344.688487 268.883392 
L 344.915745 266.891938 
L 345.207934 262.021238 
L 345.532588 252.474924 
L 345.889708 234.673814 
L 346.295527 201.875988 
L 346.944836 126.540589 
L 347.431818 82.545607 
L 347.642843 77.063492 
L 347.691541 77.476344 
L 347.80517 81.290279 
L 347.98373 96.175648 
L 348.275919 142.682468 
L 348.892763 240.762703 
L 349.217418 260.551814 
L 349.525839 267.768396 
L 349.785563 269.710419 
L 349.899192 269.841824 
L 349.931658 269.81357 
L 350.061519 269.427265 
L 350.272545 267.88173 
L 350.548501 263.957319 
L 350.873156 255.691175 
L 351.214043 240.860062 
L 351.603628 213.047569 
L 352.106843 158.578442 
L 352.821083 83.931311 
L 353.064574 76.030635 
L 353.097039 76.121204 
L 353.178203 77.719061 
L 353.324298 86.013585 
L 353.551556 113.770703 
L 354.525519 255.147737 
L 354.833941 265.950876 
L 355.12613 269.60262 
L 355.337156 270.17269 
L 355.434552 270.019724 
L 355.596879 269.240761 
L 355.84037 266.808166 
L 356.132559 261.471984 
L 356.457214 251.230733 
L 356.814334 232.337862 
L 357.220152 197.95987 
L 358.51877 75.031068 
L 358.535003 74.990298 
L 358.567468 75.132762 
L 358.664865 77.46394 
L 358.827192 88.367304 
L 359.086916 124.807723 
L 359.866087 247.287443 
L 360.190741 263.5047 
L 360.48293 268.997757 
L 360.726421 270.42843 
L 360.823818 270.490632 
L 360.856283 270.456796 
L 360.986145 270.064032 
L 361.19717 268.556461 
L 361.473127 264.766686 
L 361.797781 256.791058 
L 362.138668 242.432986 
L 362.528254 215.307123 
L 363.015236 163.320746 
L 363.794407 81.168017 
L 364.021665 73.974629 
L 364.037898 73.959919 
L 364.05413 74.019757 
L 364.135294 75.49213 
L 364.281388 83.539187 
L 364.508647 111.057219 
L 365.515076 256.95132 
L 365.823498 266.988815 
L 366.099454 270.235048 
L 366.310479 270.816674 
L 366.407876 270.688642 
L 366.570203 269.979259 
L 366.813694 267.723204 
L 367.105883 262.737552 
L 367.430538 253.111465 
L 367.787658 235.203377 
L 368.193476 202.128048 
L 368.826552 127.574777 
L 369.329767 79.822748 
L 369.557025 72.929524 
L 369.58949 73.022237 
L 369.670654 74.619749 
L 369.816748 82.919664 
L 370.044007 110.907912 
L 371.034203 256.560099 
L 371.342625 267.011208 
L 371.634814 270.539167 
L 371.845839 271.129942 
L 371.943236 271.015536 
L 372.105563 270.342614 
L 372.349054 268.177324 
L 372.641243 263.371246 
L 372.965898 254.062205 
L 373.323018 236.669818 
L 373.712603 205.884929 
L 374.280748 140.036933 
L 374.865127 80.448141 
L 375.108618 71.940653 
L 375.12485 71.894042 
L 375.157316 72.02281 
L 375.254712 74.299871 
L 375.417039 85.114001 
L 375.66053 118.86814 
L 376.504632 251.082032 
L 376.829287 265.479544 
L 377.121476 270.232352 
L 377.364967 271.402247 
L 377.462363 271.41515 
L 377.478596 271.3957 
L 377.608458 271.028841 
L 377.819483 269.636003 
L 378.095439 266.138982 
L 378.420094 258.754645 
L 378.760981 245.362115 
L 379.134334 221.0403 
L 379.58885 174.962474 
L 380.530348 75.730232 
L 380.725141 70.864329 
L 380.741374 70.900109 
L 380.806305 71.809478 
L 380.936167 77.63774 
L 381.147192 99.856701 
L 381.520545 169.855455 
L 381.975061 240.622195 
L 382.299716 261.592358 
L 382.608138 269.211598 
L 382.884094 271.490154 
L 383.046421 271.734802 
L 383.062654 271.724705 
L 383.176283 271.492428 
L 383.371076 270.451827 
L 383.630799 267.699496 
L 383.939221 261.81495 
L 384.280108 250.46928 
L 384.637228 230.481396 
L 385.059279 192.698808 
L 386.292967 70.4232 
L 386.357898 69.837557 
L 386.406596 70.160365 
L 386.520225 73.717081 
L 386.698785 88.25121 
L 386.974741 132.46778 
L 387.640283 243.626176 
L 387.964938 262.954185 
L 388.273359 269.863377 
L 388.533083 271.811785 
L 388.679178 272.03428 
L 388.711643 272.016734 
L 388.841505 271.723264 
L 389.05253 270.499028 
L 389.328487 267.343837 
L 389.636908 261.04159 
L 389.977796 249.016362 
L 390.351148 226.795252 
L 390.789432 185.131939 
L 391.893258 71.185793 
L 392.023119 68.816586 
L 392.055585 68.917575 
L 392.136748 70.521821 
L 392.282843 78.816954 
L 392.510101 107.037321 
L 393.51653 258.067988 
L 393.824952 268.231105 
L 394.117141 271.672442 
L 394.328167 272.319738 
L 394.425563 272.266049 
L 394.571658 271.822602 
L 394.798916 270.269193 
L 395.091105 266.461507 
L 395.415759 258.898377 
L 395.756647 245.260772 
L 396.129999 220.538707 
L 396.584516 173.785466 
L 397.526014 73.235345 
L 397.737039 67.792289 
L 397.785738 68.164544 
L 397.899367 71.831888 
L 398.077927 86.565447 
L 398.353883 131.346711 
L 399.019425 244.008111 
L 399.344079 263.436958 
L 399.652501 270.356218 
L 399.928458 272.396402 
L 400.090785 272.604024 
L 400.107018 272.593512 
L 400.236879 272.321621 
L 400.447905 271.179317 
L 400.723861 268.226931 
L 401.032283 262.311492 
L 401.37317 250.968798 
L 401.73029 230.982388 
L 402.152341 193.09106 
L 403.402261 67.525881 
L 403.483425 66.777047 
L 403.532123 67.188508 
L 403.645752 70.94732 
L 403.824312 85.842323 
L 404.100268 130.981716 
L 404.76581 244.280443 
L 405.090465 263.705141 
L 405.398887 270.606444 
L 405.674843 272.656443 
L 405.83717 272.885825 
L 405.853403 272.878234 
L 405.983265 272.635101 
L 406.178058 271.675831 
L 406.454014 268.973674 
L 406.762436 263.490962 
L 407.103323 252.89829 
L 407.460443 234.065838 
L 407.866261 199.485748 
L 408.548036 116.650934 
L 409.018785 72.844881 
L 409.246043 65.78109 
L 409.262276 65.758397 
L 409.278508 65.807798 
L 409.359672 67.194035 
L 409.505767 75.004502 
L 409.733025 102.548204 
L 410.788152 260.436685 
L 411.096574 269.567983 
L 411.388763 272.609388 
L 411.599788 273.158546 
L 411.713418 273.068239 
L 411.875745 272.529094 
L 411.90821 272.363958 
L 411.90821 272.363958 
" clip-path="url(#pb83a4048e7)" style="fill: none; stroke: #bfbf00; stroke-width: 1.5; stroke-linecap: square"/>
   </g>
   <g id="patch_3">
    <path d="M 71.020938 280.150594 
L 71.020938 14.038594 
" style="fill: none; stroke: #000000; stroke-width: 0.8; stroke-linejoin: miter; stroke-linecap: square"/>
   </g>
   <g id="patch_4">
    <path d="M 428.140938 280.150594 
L 428.140938 14.038594 
" style="fill: none; stroke: #000000; stroke-width: 0.8; stroke-linejoin: miter; stroke-linecap: square"/>
   </g>
   <g id="patch_5">
    <path d="M 71.020938 280.150594 
L 428.140938 280.150594 
" style="fill: none; stroke: #000000; stroke-width: 0.8; stroke-linejoin: miter; stroke-linecap: square"/>
   </g>
   <g id="patch_6">
    <path d="M 71.020938 14.038594 
L 428.140938 14.038594 
" style="fill: none; stroke: #000000; stroke-width: 0.8; stroke-linejoin: miter; stroke-linecap: square"/>
   </g>
  </g>
 </g>
 <defs>
  <clipPath id="pb83a4048e7">
   <rect x="71.020938" y="14.038594" width="357.12" height="266.112"/>
  </clipPath>
 </defs>
</svg>
