<?xml version="1.0" encoding="utf-8" standalone="no"?>
<!DOCTYPE svg PUBLIC "-//W3C//DTD SVG 1.1//EN"
  "http://www.w3.org/Graphics/SVG/1.1/DTD/svg11.dtd">
<svg xmlns:xlink="http://www.w3.org/1999/xlink" width="442.01321pt" height="339.966531pt" viewBox="0 0 442.01321 339.966531" xmlns="http://www.w3.org/2000/svg" version="1.1">
 <metadata>
  <rdf:RDF xmlns:dc="http://purl.org/dc/elements/1.1/" xmlns:cc="http://creativecommons.org/ns#" xmlns:rdf="http://www.w3.org/1999/02/22-rdf-syntax-ns#">
   <cc:Work>
    <dc:type rdf:resource="http://purl.org/dc/dcmitype/StillImage"/>
    <dc:date>2025-05-29T13:14:22.823261</dc:date>
    <dc:format>image/svg+xml</dc:format>
    <dc:creator>
     <cc:Agent>
      <dc:title>Matplotlib v3.10.0, https://matplotlib.org/</dc:title>
     </cc:Agent>
    </dc:creator>
   </cc:Work>
  </rdf:RDF>
 </metadata>
 <defs>
  <style type="text/css">*{stroke-linejoin: round; stroke-linecap: butt}</style>
 </defs>
 <g id="figure_1">
  <g id="patch_1">
   <path d="M 0 339.966531 
L 442.01321 339.966531 
L 442.01321 0 
L 0 0 
z
" style="fill: #ffffff"/>
  </g>
  <g id="axes_1">
   <g id="patch_2">
    <path d="M 71.020938 280.150594 
L 428.140938 280.150594 
L 428.140938 14.038594 
L 71.020938 14.038594 
z
" style="fill: #ffffff"/>
   </g>
   <g id="matplotlib.axis_1">
    <g id="xtick_1">
     <g id="line2d_1">
      <defs>
       <path id="m521ad52e82" d="M 0 0 
L 0 3.5 
" style="stroke: #000000; stroke-width: 0.8"/>
      </defs>
      <g>
       <use xlink:href="#m521ad52e82" x="87.253665" y="280.150594" style="stroke: #000000; stroke-width: 0.8"/>
      </g>
     </g>
     <g id="text_1">
      <!-- 0 -->
      <g transform="translate(81.527415 300.827781) scale(0.18 -0.18)">
       <defs>
        <path id="DejaVuSans-30" d="M 2034 4250 
Q 1547 4250 1301 3770 
Q 1056 3291 1056 2328 
Q 1056 1369 1301 889 
Q 1547 409 2034 409 
Q 2525 409 2770 889 
Q 3016 1369 3016 2328 
Q 3016 3291 2770 3770 
Q 2525 4250 2034 4250 
z
M 2034 4750 
Q 2819 4750 3233 4129 
Q 3647 3509 3647 2328 
Q 3647 1150 3233 529 
Q 2819 -91 2034 -91 
Q 1250 -91 836 529 
Q 422 1150 422 2328 
Q 422 3509 836 4129 
Q 1250 4750 2034 4750 
z
" transform="scale(0.015625)"/>
       </defs>
       <use xlink:href="#DejaVuSans-30"/>
      </g>
     </g>
    </g>
    <g id="xtick_2">
     <g id="line2d_2">
      <g>
       <use xlink:href="#m521ad52e82" x="168.417301" y="280.150594" style="stroke: #000000; stroke-width: 0.8"/>
      </g>
     </g>
     <g id="text_2">
      <!-- 500 -->
      <g transform="translate(151.238551 300.827781) scale(0.18 -0.18)">
       <defs>
        <path id="DejaVuSans-35" d="M 691 4666 
L 3169 4666 
L 3169 4134 
L 1269 4134 
L 1269 2991 
Q 1406 3038 1543 3061 
Q 1681 3084 1819 3084 
Q 2600 3084 3056 2656 
Q 3513 2228 3513 1497 
Q 3513 744 3044 326 
Q 2575 -91 1722 -91 
Q 1428 -91 1123 -41 
Q 819 9 494 109 
L 494 744 
Q 775 591 1075 516 
Q 1375 441 1709 441 
Q 2250 441 2565 725 
Q 2881 1009 2881 1497 
Q 2881 1984 2565 2268 
Q 2250 2553 1709 2553 
Q 1456 2553 1204 2497 
Q 953 2441 691 2322 
L 691 4666 
z
" transform="scale(0.015625)"/>
       </defs>
       <use xlink:href="#DejaVuSans-35"/>
       <use xlink:href="#DejaVuSans-30" transform="translate(63.623047 0)"/>
       <use xlink:href="#DejaVuSans-30" transform="translate(127.246094 0)"/>
      </g>
     </g>
    </g>
    <g id="xtick_3">
     <g id="line2d_3">
      <g>
       <use xlink:href="#m521ad52e82" x="249.580938" y="280.150594" style="stroke: #000000; stroke-width: 0.8"/>
      </g>
     </g>
     <g id="text_3">
      <!-- 1000 -->
      <g transform="translate(226.675938 300.827781) scale(0.18 -0.18)">
       <defs>
        <path id="DejaVuSans-31" d="M 794 531 
L 1825 531 
L 1825 4091 
L 703 3866 
L 703 4441 
L 1819 4666 
L 2450 4666 
L 2450 531 
L 3481 531 
L 3481 0 
L 794 0 
L 794 531 
z
" transform="scale(0.015625)"/>
       </defs>
       <use xlink:href="#DejaVuSans-31"/>
       <use xlink:href="#DejaVuSans-30" transform="translate(63.623047 0)"/>
       <use xlink:href="#DejaVuSans-30" transform="translate(127.246094 0)"/>
       <use xlink:href="#DejaVuSans-30" transform="translate(190.869141 0)"/>
      </g>
     </g>
    </g>
    <g id="xtick_4">
     <g id="line2d_4">
      <g>
       <use xlink:href="#m521ad52e82" x="330.744574" y="280.150594" style="stroke: #000000; stroke-width: 0.8"/>
      </g>
     </g>
     <g id="text_4">
      <!-- 1500 -->
      <g transform="translate(307.839574 300.827781) scale(0.18 -0.18)">
       <use xlink:href="#DejaVuSans-31"/>
       <use xlink:href="#DejaVuSans-35" transform="translate(63.623047 0)"/>
       <use xlink:href="#DejaVuSans-30" transform="translate(127.246094 0)"/>
       <use xlink:href="#DejaVuSans-30" transform="translate(190.869141 0)"/>
      </g>
     </g>
    </g>
    <g id="xtick_5">
     <g id="line2d_5">
      <g>
       <use xlink:href="#m521ad52e82" x="411.90821" y="280.150594" style="stroke: #000000; stroke-width: 0.8"/>
      </g>
     </g>
     <g id="text_5">
      <!-- 2000 -->
      <g transform="translate(389.00321 300.827781) scale(0.18 -0.18)">
       <defs>
        <path id="DejaVuSans-32" d="M 1228 531 
L 3431 531 
L 3431 0 
L 469 0 
L 469 531 
Q 828 903 1448 1529 
Q 2069 2156 2228 2338 
Q 2531 2678 2651 2914 
Q 2772 3150 2772 3378 
Q 2772 3750 2511 3984 
Q 2250 4219 1831 4219 
Q 1534 4219 1204 4116 
Q 875 4013 500 3803 
L 500 4441 
Q 881 4594 1212 4672 
Q 1544 4750 1819 4750 
Q 2544 4750 2975 4387 
Q 3406 4025 3406 3419 
Q 3406 3131 3298 2873 
Q 3191 2616 2906 2266 
Q 2828 2175 2409 1742 
Q 1991 1309 1228 531 
z
" transform="scale(0.015625)"/>
       </defs>
       <use xlink:href="#DejaVuSans-32"/>
       <use xlink:href="#DejaVuSans-30" transform="translate(63.623047 0)"/>
       <use xlink:href="#DejaVuSans-30" transform="translate(127.246094 0)"/>
       <use xlink:href="#DejaVuSans-30" transform="translate(190.869141 0)"/>
      </g>
     </g>
    </g>
    <g id="text_6">
     <!-- $t$ -->
     <g transform="translate(244.580938 327.567312) scale(0.25 -0.25)">
      <defs>
       <path id="DejaVuSans-Oblique-74" d="M 2706 3500 
L 2619 3053 
L 1472 3053 
L 1100 1153 
Q 1081 1047 1072 975 
Q 1063 903 1063 863 
Q 1063 663 1183 572 
Q 1303 481 1569 481 
L 2150 481 
L 2053 0 
L 1503 0 
Q 991 0 739 200 
Q 488 400 488 806 
Q 488 878 497 964 
Q 506 1050 525 1153 
L 897 3053 
L 409 3053 
L 500 3500 
L 978 3500 
L 1172 4494 
L 1747 4494 
L 1556 3500 
L 2706 3500 
z
" transform="scale(0.015625)"/>
      </defs>
      <use xlink:href="#DejaVuSans-Oblique-74" transform="translate(0 0.78125)"/>
     </g>
    </g>
   </g>
   <g id="matplotlib.axis_2">
    <g id="ytick_1">
     <g id="line2d_6">
      <defs>
       <path id="m7790b8cb55" d="M 0 0 
L -3.5 0 
" style="stroke: #000000; stroke-width: 0.8"/>
      </defs>
      <g>
       <use xlink:href="#m7790b8cb55" x="71.020938" y="280.150594" style="stroke: #000000; stroke-width: 0.8"/>
      </g>
     </g>
     <g id="text_7">
      <!-- 0.0 -->
      <g transform="translate(35.395313 286.989187) scale(0.18 -0.18)">
       <defs>
        <path id="DejaVuSans-2e" d="M 684 794 
L 1344 794 
L 1344 0 
L 684 0 
L 684 794 
z
" transform="scale(0.015625)"/>
       </defs>
       <use xlink:href="#DejaVuSans-30"/>
       <use xlink:href="#DejaVuSans-2e" transform="translate(63.623047 0)"/>
       <use xlink:href="#DejaVuSans-30" transform="translate(95.410156 0)"/>
      </g>
     </g>
    </g>
    <g id="ytick_2">
     <g id="line2d_7">
      <g>
       <use xlink:href="#m7790b8cb55" x="71.020938" y="147.094594" style="stroke: #000000; stroke-width: 0.8"/>
      </g>
     </g>
     <g id="text_8">
      <!-- 0.5 -->
      <g transform="translate(35.395313 153.933187) scale(0.18 -0.18)">
       <use xlink:href="#DejaVuSans-30"/>
       <use xlink:href="#DejaVuSans-2e" transform="translate(63.623047 0)"/>
       <use xlink:href="#DejaVuSans-35" transform="translate(95.410156 0)"/>
      </g>
     </g>
    </g>
    <g id="ytick_3">
     <g id="line2d_8">
      <g>
       <use xlink:href="#m7790b8cb55" x="71.020938" y="14.038594" style="stroke: #000000; stroke-width: 0.8"/>
      </g>
     </g>
     <g id="text_9">
      <!-- 1.0 -->
      <g transform="translate(35.395313 20.877187) scale(0.18 -0.18)">
       <use xlink:href="#DejaVuSans-31"/>
       <use xlink:href="#DejaVuSans-2e" transform="translate(63.623047 0)"/>
       <use xlink:href="#DejaVuSans-30" transform="translate(95.410156 0)"/>
      </g>
     </g>
    </g>
    <g id="text_10">
     <!-- $x_i(t)$ -->
     <g transform="translate(26.196094 171.969594) rotate(-90) scale(0.25 -0.25)">
      <defs>
       <path id="DejaVuSans-Oblique-78" d="M 3841 3500 
L 2234 1784 
L 3219 0 
L 2559 0 
L 1819 1388 
L 531 0 
L -166 0 
L 1556 1844 
L 641 3500 
L 1300 3500 
L 1972 2234 
L 3144 3500 
L 3841 3500 
z
" transform="scale(0.015625)"/>
       <path id="DejaVuSans-Oblique-69" d="M 1172 4863 
L 1747 4863 
L 1606 4134 
L 1031 4134 
L 1172 4863 
z
M 909 3500 
L 1484 3500 
L 800 0 
L 225 0 
L 909 3500 
z
" transform="scale(0.015625)"/>
       <path id="DejaVuSans-28" d="M 1984 4856 
Q 1566 4138 1362 3434 
Q 1159 2731 1159 2009 
Q 1159 1288 1364 580 
Q 1569 -128 1984 -844 
L 1484 -844 
Q 1016 -109 783 600 
Q 550 1309 550 2009 
Q 550 2706 781 3412 
Q 1013 4119 1484 4856 
L 1984 4856 
z
" transform="scale(0.015625)"/>
       <path id="DejaVuSans-29" d="M 513 4856 
L 1013 4856 
Q 1481 4119 1714 3412 
Q 1947 2706 1947 2009 
Q 1947 1309 1714 600 
Q 1481 -109 1013 -844 
L 513 -844 
Q 928 -128 1133 580 
Q 1338 1288 1338 2009 
Q 1338 2731 1133 3434 
Q 928 4138 513 4856 
z
" transform="scale(0.015625)"/>
      </defs>
      <use xlink:href="#DejaVuSans-Oblique-78" transform="translate(0 0.125)"/>
      <use xlink:href="#DejaVuSans-Oblique-69" transform="translate(59.179688 -16.28125) scale(0.7)"/>
      <use xlink:href="#DejaVuSans-28" transform="translate(81.362305 0.125)"/>
      <use xlink:href="#DejaVuSans-Oblique-74" transform="translate(120.375977 0.125)"/>
      <use xlink:href="#DejaVuSans-29" transform="translate(159.584961 0.125)"/>
     </g>
    </g>
   </g>
   <g id="line2d_9">
    <path d="M 87.253665 194.994754 
L 88.211396 115.224022 
L 88.389956 112.779461 
L 88.406188 112.815093 
L 88.487352 113.610454 
L 88.649679 118.098855 
L 88.925636 133.133166 
L 89.542479 183.143087 
L 90.126858 222.171615 
L 90.50021 234.91352 
L 90.743701 237.763379 
L 90.792399 237.803808 
L 90.824865 237.729249 
L 90.938494 236.807993 
L 91.117054 233.142204 
L 91.376778 222.318648 
L 91.717665 197.16576 
L 92.724094 114.560932 
L 92.870188 112.777143 
L 92.902654 112.852155 
L 93.00005 114.059038 
L 93.17861 119.807294 
L 93.487032 138.36821 
L 94.850581 231.405946 
L 95.159003 237.372925 
L 95.272632 237.809357 
L 95.305098 237.753384 
L 95.402494 237.085818 
L 95.581054 233.791975 
L 95.824545 224.437675 
L 96.149199 202.125019 
L 97.28549 113.220348 
L 97.366654 112.780983 
L 97.415352 113.023956 
L 97.545214 115.434897 
L 97.772472 125.13417 
L 98.17829 154.493987 
L 99.087323 221.460758 
L 99.476908 234.944096 
L 99.720399 237.767293 
L 99.752865 237.810723 
L 99.801563 237.723859 
L 99.915192 236.788915 
L 100.093752 233.099462 
L 100.353476 222.236103 
L 100.694363 197.03023 
L 101.700792 114.524906 
L 101.846887 112.77691 
L 101.879352 112.859596 
L 101.976748 114.088583 
L 102.155308 119.872813 
L 102.46373 138.477898 
L 103.811047 230.947934 
L 104.119468 237.245528 
L 104.24933 237.808574 
L 104.281796 237.748853 
L 104.379192 237.069659 
L 104.557752 233.752536 
L 104.801243 224.361583 
L 105.125898 201.997122 
L 106.245956 113.415853 
L 106.327119 112.781537 
L 106.375818 112.911086 
L 106.489447 114.635266 
L 106.700472 122.608866 
L 107.057592 146.654698 
L 108.145185 225.242562 
L 108.502305 235.880868 
L 108.729563 237.810784 
L 108.794494 237.646302 
L 108.924356 236.303078 
L 109.119148 231.534219 
L 109.395105 218.305431 
L 109.768458 187.634802 
L 110.580094 117.604004 
L 110.807352 112.794893 
L 110.823585 112.777033 
L 110.85605 112.867386 
L 110.953447 114.118453 
L 111.132007 119.938603 
L 111.440428 138.587737 
L 112.787745 230.994898 
L 113.096167 237.259121 
L 113.226028 237.80762 
L 113.258494 237.744148 
L 113.35589 237.053317 
L 113.53445 233.71289 
L 113.777941 224.285252 
L 114.102596 201.869012 
L 115.222654 113.39448 
L 115.303818 112.7799 
L 115.352516 112.920945 
L 115.466145 114.670568 
L 115.67717 122.684743 
L 116.03429 146.773563 
L 117.121883 225.306138 
L 117.479003 235.905867 
L 117.706261 237.810674 
L 117.771192 237.638658 
L 117.901054 236.279533 
L 118.095847 231.48405 
L 118.371803 218.211748 
L 118.745156 187.488024 
L 119.556792 117.544462 
L 119.78405 112.791491 
L 119.800283 112.77751 
L 119.832748 112.875524 
L 119.930145 114.148649 
L 120.124938 120.742378 
L 120.449592 141.132075 
L 121.699512 228.850864 
L 122.024167 236.748692 
L 122.186494 237.809553 
L 122.218959 237.783117 
L 122.316356 237.207115 
L 122.478683 234.495493 
L 122.722174 225.824287 
L 123.030596 205.825696 
L 123.582508 151.540527 
L 124.020792 118.531792 
L 124.264283 112.811837 
L 124.280516 112.778619 
L 124.329214 112.93115 
L 124.442843 114.706189 
L 124.653868 122.76087 
L 125.010988 146.892531 
L 126.098581 225.369553 
L 126.455701 235.930705 
L 126.682959 237.810394 
L 126.74789 237.630838 
L 126.877752 236.255798 
L 127.072545 231.433663 
L 127.348501 218.117819 
L 127.721854 187.341108 
L 128.53349 117.48529 
L 128.760748 112.788446 
L 128.776981 112.778341 
L 128.809447 112.884011 
L 128.906843 114.179169 
L 129.101636 120.811622 
L 129.42629 141.245294 
L 130.67621 228.904529 
L 131.000865 236.767285 
L 131.163192 237.810115 
L 131.195658 237.77995 
L 131.293054 237.192395 
L 131.455381 234.459899 
L 131.698872 225.752674 
L 132.007294 205.704317 
L 132.575439 149.789457 
L 133.013723 117.781899 
L 133.240981 112.807021 
L 133.257214 112.777694 
L 133.289679 112.845397 
L 133.387076 114.031224 
L 133.565636 119.745192 
L 133.874058 138.26396 
L 135.237607 231.362617 
L 135.546028 237.36138 
L 135.659658 237.809944 
L 135.692123 237.757536 
L 135.789519 237.101026 
L 135.968079 233.829317 
L 136.21157 224.509869 
L 136.536225 202.246539 
L 137.672516 113.237576 
L 137.753679 112.779527 
L 137.802378 113.011641 
L 137.916007 114.962583 
L 138.127032 123.296957 
L 138.500385 149.033282 
L 139.523047 223.68474 
L 139.896399 235.545181 
L 140.123658 237.797077 
L 140.156123 237.803733 
L 140.188588 237.728993 
L 140.302218 236.807076 
L 140.480778 233.140144 
L 140.740501 222.314666 
L 141.081388 197.159217 
L 142.087818 114.559183 
L 142.233912 112.777123 
L 142.266378 112.852506 
L 142.363774 114.060458 
L 142.542334 119.810453 
L 142.850756 138.373505 
L 144.214305 231.408141 
L 144.522727 237.373507 
L 144.636356 237.809323 
L 144.668821 237.753169 
L 144.766218 237.085041 
L 144.944778 233.790075 
L 145.188268 224.434005 
L 145.512923 202.118845 
L 146.649214 113.219483 
L 146.730378 112.781066 
L 146.762843 112.902026 
L 146.876472 114.601967 
L 147.071265 121.728605 
L 147.412152 143.978756 
L 148.580908 227.182909 
L 148.921796 236.368857 
L 149.116588 237.81073 
L 149.132821 237.802095 
L 149.213985 237.450343 
L 149.360079 235.46161 
L 149.587338 228.534805 
L 149.879527 211.766331 
L 150.31781 171.176457 
L 150.918421 119.822095 
L 151.161912 112.969395 
L 151.21061 112.776908 
L 151.259308 112.96384 
L 151.372938 114.814958 
L 151.583963 122.990749 
L 151.941083 147.250047 
L 153.012443 224.863966 
L 153.369563 235.730012 
L 153.596821 237.807967 
L 153.645519 237.748629 
L 153.742916 237.068873 
L 153.921476 233.750625 
L 154.164967 224.357901 
L 154.489621 201.990937 
L 155.609679 113.414812 
L 155.690843 112.78145 
L 155.739541 112.911555 
L 155.85317 114.636965 
L 156.064196 122.612527 
L 156.421316 146.660438 
L 157.508908 225.245637 
L 157.866028 235.88208 
L 158.093287 237.810782 
L 158.158218 237.645936 
L 158.288079 236.301944 
L 158.482872 231.5318 
L 158.758828 218.30091 
L 159.132181 187.627714 
L 159.943818 117.601119 
L 160.171076 112.794721 
L 160.187308 112.777048 
L 160.219774 112.867771 
L 160.31717 114.119905 
L 160.49573 119.941789 
L 160.804152 138.593048 
L 162.151468 230.997163 
L 162.45989 237.259773 
L 162.589752 237.807569 
L 162.622218 237.743916 
L 162.735847 236.862333 
L 162.914407 233.265111 
L 163.17413 222.556933 
L 163.515018 197.558165 
L 164.537679 114.283113 
L 164.667541 112.77983 
L 164.700007 112.832528 
L 164.797403 113.97511 
L 164.975963 119.61861 
L 165.284385 138.050598 
L 166.647934 231.273304 
L 166.956356 237.337241 
L 167.069985 237.810664 
L 167.10245 237.76556 
L 167.199847 237.131699 
L 167.362174 234.315497 
L 167.605665 225.463848 
L 167.930319 203.868881 
L 169.115308 112.946572 
L 169.164007 112.777542 
L 169.212705 112.987361 
L 169.326334 114.889056 
L 169.537359 123.145243 
L 169.910712 148.797814 
L 170.949607 224.28236 
L 171.322959 235.781749 
L 171.550218 237.809584 
L 171.598916 237.739029 
L 171.712545 236.843793 
L 171.891105 233.222978 
L 172.150828 222.475092 
L 172.491716 197.423193 
L 173.498145 114.630528 
L 173.644239 112.778566 
L 173.676705 112.838955 
L 173.774101 114.003706 
L 173.952661 119.683338 
L 174.261083 138.159848 
L 175.624632 231.319143 
L 175.933054 237.349687 
L 176.046683 237.810376 
L 176.079148 237.761531 
L 176.176545 237.116069 
L 176.355105 233.866472 
L 176.598596 224.581845 
L 176.92325 202.367865 
L 178.059541 113.255135 
L 178.140705 112.778391 
L 178.189403 112.999638 
L 178.303032 114.92658 
L 178.514058 123.222862 
L 178.88741 148.91842 
L 179.910072 223.620448 
L 180.283425 235.519273 
L 180.510683 237.79495 
L 180.543148 237.805132 
L 180.575614 237.733969 
L 180.689243 236.825068 
L 180.867803 233.180635 
L 181.127527 222.393008 
L 181.468414 197.288028 
L 182.474843 114.593795 
L 182.620938 112.777658 
L 182.653403 112.845733 
L 182.750799 114.03263 
L 182.929359 119.74834 
L 183.237781 138.26925 
L 184.60133 231.36482 
L 184.909752 237.36197 
L 185.023381 237.809917 
L 185.055847 237.757329 
L 185.153243 237.100258 
L 185.331803 233.827426 
L 185.575294 224.506208 
L 185.899948 202.240373 
L 187.036239 113.236693 
L 187.117403 112.779593 
L 187.166101 113.012259 
L 187.27973 114.964419 
L 187.490756 123.300726 
L 187.864108 149.039117 
L 188.88677 223.688001 
L 189.260123 235.546492 
L 189.487381 237.79718 
L 189.519847 237.803658 
L 189.552312 237.728736 
L 189.665941 236.806157 
L 189.844501 233.138082 
L 190.104225 222.310682 
L 190.445112 197.152671 
L 191.451541 114.557434 
L 191.597636 112.777105 
L 191.630101 112.852859 
L 191.727498 114.06188 
L 191.906058 119.813614 
L 192.214479 138.378803 
L 193.578028 231.410337 
L 193.88645 237.374088 
L 194.000079 237.809288 
L 194.032545 237.752953 
L 194.129941 237.084264 
L 194.308501 233.788173 
L 194.551992 224.430332 
L 194.876647 202.112668 
L 196.012938 113.218618 
L 196.094101 112.781149 
L 196.126567 112.902479 
L 196.240196 114.603651 
L 196.434988 121.732121 
L 196.775876 143.984377 
L 197.944632 227.185738 
L 198.285519 236.369906 
L 198.480312 237.810736 
L 198.496545 237.802012 
L 198.577708 237.449799 
L 198.723803 235.46018 
L 198.951061 228.531806 
L 199.24325 211.761051 
L 199.681534 171.168931 
L 200.282145 119.818615 
L 200.525636 112.968826 
L 200.574334 112.776907 
L 200.623032 112.964393 
L 200.736661 114.816734 
L 200.947687 122.994471 
L 201.304807 147.255814 
L 202.376167 224.867088 
L 202.733287 235.73127 
L 202.960545 237.808014 
L 203.009243 237.748405 
L 203.106639 237.068087 
L 203.285199 233.748713 
L 203.52869 224.354216 
L 203.853345 201.98475 
L 204.973403 113.413772 
L 205.054567 112.781363 
L 205.103265 112.912024 
L 205.216894 114.638665 
L 205.427919 122.616189 
L 205.785039 146.666182 
L 206.872632 225.248713 
L 207.229752 235.883291 
L 207.45701 237.81078 
L 207.521941 237.64557 
L 207.651803 236.30081 
L 207.846596 231.529379 
L 208.122552 218.296387 
L 208.495905 187.620622 
L 209.307541 117.598233 
L 209.534799 112.794549 
L 209.551032 112.777064 
L 209.583498 112.868158 
L 209.680894 114.121358 
L 209.859454 119.944977 
L 210.167876 138.598361 
L 211.515192 230.999428 
L 211.823614 237.260426 
L 211.953476 237.807518 
L 211.985941 237.743684 
L 212.09957 236.861441 
L 212.27813 233.263079 
L 212.537854 222.552983 
L 212.878741 197.551645 
L 213.901403 114.281507 
L 214.031265 112.779761 
L 214.06373 112.83283 
L 214.161127 113.976485 
L 214.339687 119.621732 
L 214.648108 138.055876 
L 216.011658 231.275524 
L 216.320079 237.337846 
L 216.433708 237.810654 
L 216.466174 237.765369 
L 216.56357 237.130947 
L 216.725898 234.313732 
L 216.969388 225.460335 
L 217.294043 203.862848 
L 218.479032 112.946039 
L 218.52773 112.777575 
L 218.576428 112.987946 
L 218.690058 114.890863 
L 218.901083 123.14899 
L 219.274436 148.803642 
L 220.31333 224.285553 
L 220.686683 235.782991 
L 220.913941 237.809615 
L 220.962639 237.738789 
L 221.076268 236.842892 
L 221.254828 233.220936 
L 221.514552 222.471129 
L 221.855439 197.416663 
L 222.861868 114.628744 
L 223.007963 112.778514 
L 223.040428 112.839275 
L 223.137825 114.005097 
L 223.316385 119.686475 
L 223.624807 138.165133 
L 224.988356 231.321355 
L 225.296778 237.350285 
L 225.410407 237.810358 
L 225.442872 237.761331 
L 225.540268 237.115309 
L 225.718828 233.864589 
L 225.962319 224.578194 
L 226.286974 202.361706 
L 227.423265 113.254235 
L 227.504428 112.778441 
L 227.553127 113.00024 
L 227.666756 114.928402 
L 227.877781 123.22662 
L 228.251134 148.924253 
L 229.273796 223.623717 
L 229.647148 235.520592 
L 229.874407 237.795061 
L 229.906872 237.805065 
L 229.939338 237.73372 
L 230.052967 236.824158 
L 230.231527 233.178583 
L 230.49125 222.389034 
L 230.832138 197.281489 
L 231.838567 114.592029 
L 231.984661 112.777623 
L 232.017127 112.846069 
L 232.114523 114.034036 
L 232.293083 119.75149 
L 232.601505 138.274543 
L 233.965054 231.367025 
L 234.273476 237.362559 
L 234.387105 237.809891 
L 234.41957 237.757121 
L 234.516967 237.099489 
L 234.695527 233.825532 
L 234.939018 224.502545 
L 235.263672 202.234204 
L 236.399963 113.235811 
L 236.481127 112.779661 
L 236.529825 113.012878 
L 236.643454 114.966257 
L 236.854479 123.304497 
L 237.227832 149.044955 
L 238.250494 223.691263 
L 238.623847 235.547804 
L 238.851105 237.797284 
L 238.88357 237.803582 
L 238.916036 237.728478 
L 239.029665 236.805238 
L 239.208225 233.13602 
L 239.467948 222.306695 
L 239.808836 197.146122 
L 240.815265 114.555686 
L 240.961359 112.777088 
L 240.993825 112.853212 
L 241.091221 114.063302 
L 241.269781 119.816777 
L 241.578203 138.384104 
L 242.941752 231.412534 
L 243.250174 237.37467 
L 243.363803 237.809253 
L 243.396268 237.752737 
L 243.493665 237.083486 
L 243.672225 233.786269 
L 243.915716 224.426657 
L 244.24037 202.106488 
L 245.376661 113.217753 
L 245.457825 112.781234 
L 245.49029 112.902933 
L 245.603919 114.605337 
L 245.798712 121.735639 
L 246.139599 143.99 
L 247.308356 227.188567 
L 247.649243 236.370955 
L 247.844036 237.810742 
L 247.860268 237.801927 
L 247.941432 237.449255 
L 248.087527 235.458749 
L 248.314785 228.528806 
L 248.606974 211.755768 
L 249.045258 171.161402 
L 249.645868 119.815134 
L 249.889359 112.968258 
L 249.938058 112.776907 
L 249.986756 112.964946 
L 250.100385 114.818511 
L 250.31141 122.998195 
L 250.66853 147.261584 
L 251.73989 224.870211 
L 252.09701 235.732528 
L 252.324268 237.808061 
L 252.372967 237.748181 
L 252.470363 237.0673 
L 252.648923 233.7468 
L 252.892414 224.35053 
L 253.217068 201.978559 
L 254.337127 113.412732 
L 254.41829 112.781278 
L 254.466988 112.912495 
L 254.580618 114.640366 
L 254.791643 122.619854 
L 255.148763 146.671928 
L 256.236356 225.25179 
L 256.593476 235.884503 
L 256.820734 237.810778 
L 256.885665 237.645204 
L 257.015527 236.299675 
L 257.210319 231.526957 
L 257.486276 218.291861 
L 257.859628 187.613527 
L 258.671265 117.595348 
L 258.898523 112.794378 
L 258.914756 112.777081 
L 258.947221 112.868545 
L 259.044618 114.122812 
L 259.223178 119.948166 
L 259.531599 138.603677 
L 260.878916 231.001694 
L 261.187338 237.261078 
L 261.317199 237.807467 
L 261.349665 237.743451 
L 261.463294 236.860548 
L 261.641854 233.261046 
L 261.901578 222.54903 
L 262.242465 197.545122 
L 263.265127 114.279901 
L 263.394988 112.779693 
L 263.427454 112.833134 
L 263.52485 113.977861 
L 263.70341 119.624857 
L 264.011832 138.061156 
L 265.375381 231.277744 
L 265.683803 237.338451 
L 265.797432 237.810643 
L 265.829898 237.765178 
L 265.927294 237.130195 
L 266.089621 234.311966 
L 266.333112 225.456819 
L 266.657767 203.856812 
L 267.842756 112.945506 
L 267.891454 112.777609 
L 267.940152 112.988533 
L 268.053781 114.892671 
L 268.264807 123.152739 
L 268.638159 148.809472 
L 269.677054 224.288746 
L 270.050407 235.784234 
L 270.277665 237.809645 
L 270.326363 237.738547 
L 270.439992 236.84199 
L 270.618552 233.218892 
L 270.878276 222.467165 
L 271.219163 197.410131 
L 272.225592 114.62696 
L 272.371687 112.778463 
L 272.404152 112.839596 
L 272.501548 114.006489 
L 272.680108 119.689613 
L 272.98853 138.170421 
L 274.352079 231.323567 
L 274.660501 237.350882 
L 274.77413 237.810339 
L 274.806596 237.761132 
L 274.903992 237.114548 
L 275.082552 233.862705 
L 275.326043 224.57454 
L 275.650698 202.355545 
L 276.786988 113.253336 
L 276.868152 112.778492 
L 276.91685 113.000844 
L 277.030479 114.930226 
L 277.241505 123.230381 
L 277.614858 148.930088 
L 278.637519 223.626988 
L 279.010872 235.521912 
L 279.23813 237.795173 
L 279.270596 237.804997 
L 279.303061 237.73347 
L 279.41669 236.823247 
L 279.59525 233.176529 
L 279.854974 222.385057 
L 280.195861 197.274946 
L 281.20229 114.590263 
L 281.348385 112.777589 
L 281.38085 112.846407 
L 281.478247 114.035445 
L 281.656807 119.754641 
L 281.965228 138.279839 
L 283.328778 231.369229 
L 283.637199 237.363149 
L 283.750828 237.809864 
L 283.783294 237.756913 
L 283.88069 237.098719 
L 284.05925 233.823638 
L 284.302741 224.49888 
L 284.627396 202.228032 
L 285.763687 113.23493 
L 285.84485 112.779729 
L 285.893548 113.013498 
L 286.007178 114.968096 
L 286.218203 123.30827 
L 286.591556 149.050795 
L 287.614218 223.694526 
L 287.98757 235.549116 
L 288.214828 237.797387 
L 288.247294 237.803506 
L 288.279759 237.72822 
L 288.393388 236.804318 
L 288.571948 233.133955 
L 288.831672 222.302706 
L 289.172559 197.139569 
L 290.178988 114.553938 
L 290.325083 112.777071 
L 290.357548 112.853567 
L 290.454945 114.064726 
L 290.633505 119.819942 
L 290.941927 138.389407 
L 292.305476 231.414731 
L 292.613898 237.375251 
L 292.727527 237.809218 
L 292.759992 237.752521 
L 292.857388 237.082707 
L 293.035948 233.784365 
L 293.279439 224.42298 
L 293.604094 202.100305 
L 294.740385 113.216889 
L 294.821548 112.781319 
L 294.854014 112.903388 
L 294.967643 114.607024 
L 295.162436 121.739159 
L 295.503323 143.995626 
L 296.672079 227.191398 
L 297.012967 236.372005 
L 297.207759 237.810747 
L 297.223992 237.801843 
L 297.305156 237.44871 
L 297.45125 235.457317 
L 297.678508 228.525803 
L 297.970698 211.750482 
L 298.408981 171.15387 
L 299.009592 119.811652 
L 299.253083 112.967691 
L 299.301781 112.776907 
L 299.350479 112.9655 
L 299.464108 114.82029 
L 299.675134 123.001922 
L 300.032254 147.267357 
L 301.103614 224.873336 
L 301.460734 235.733786 
L 301.687992 237.808107 
L 301.73669 237.747956 
L 301.834087 237.066512 
L 302.012647 233.744885 
L 302.256138 224.346841 
L 302.580792 201.972365 
L 303.70085 113.411692 
L 303.782014 112.781193 
L 303.830712 112.912966 
L 303.944341 114.642069 
L 304.155367 122.62352 
L 304.512487 146.677676 
L 305.600079 225.254868 
L 305.957199 235.885715 
L 306.184458 237.810775 
L 306.249388 237.644837 
L 306.37925 236.298539 
L 306.574043 231.524534 
L 306.849999 218.287333 
L 307.223352 187.606429 
L 308.034988 117.592461 
L 308.262247 112.794208 
L 308.278479 112.777099 
L 308.310945 112.868934 
L 308.408341 114.124268 
L 308.586901 119.951358 
L 308.895323 138.608996 
L 310.242639 231.003961 
L 310.551061 237.26173 
L 310.680923 237.807415 
L 310.713388 237.743217 
L 310.827018 236.859655 
L 311.005578 233.259012 
L 311.265301 222.545075 
L 311.606188 197.538596 
L 312.62885 114.278295 
L 312.758712 112.779625 
L 312.791178 112.833439 
L 312.888574 113.979239 
L 313.067134 119.627984 
L 313.375556 138.066438 
L 314.739105 231.279964 
L 315.047527 237.339056 
L 315.161156 237.810632 
L 315.193621 237.764986 
L 315.291018 237.129442 
L 315.453345 234.310198 
L 315.696836 225.453301 
L 316.02149 203.850772 
L 317.206479 112.944974 
L 317.255178 112.777644 
L 317.303876 112.989121 
L 317.417505 114.894481 
L 317.62853 123.156489 
L 318.001883 148.815306 
L 319.040778 224.29194 
L 319.41413 235.785476 
L 319.641388 237.809674 
L 319.690087 237.738306 
L 319.803716 236.841087 
L 319.982276 233.216847 
L 320.241999 222.463198 
L 320.582887 197.403595 
L 321.589316 114.625176 
L 321.73541 112.778413 
L 321.767876 112.839918 
L 321.865272 114.007883 
L 322.043832 119.692753 
L 322.352254 138.175712 
L 323.715803 231.32578 
L 324.024225 237.351479 
L 324.137854 237.81032 
L 324.170319 237.760931 
L 324.267716 237.113786 
L 324.446276 233.860819 
L 324.689767 224.570885 
L 325.014421 202.34938 
L 326.150712 113.252437 
L 326.231876 112.778544 
L 326.280574 113.001448 
L 326.394203 114.932051 
L 326.605228 123.234144 
L 326.978581 148.935926 
L 328.001243 223.630259 
L 328.374596 235.523232 
L 328.601854 237.795283 
L 328.634319 237.804929 
L 328.666785 237.73322 
L 328.780414 236.822335 
L 328.958974 233.174474 
L 329.218698 222.381078 
L 329.559585 197.2684 
L 330.566014 114.588497 
L 330.712108 112.777556 
L 330.744574 112.846746 
L 330.84197 114.036854 
L 331.02053 119.757795 
L 331.328952 138.285137 
L 332.692501 231.371434 
L 333.000923 237.363738 
L 333.114552 237.809836 
L 333.147018 237.756704 
L 333.244414 237.097948 
L 333.422974 233.821742 
L 333.666465 224.495213 
L 333.991119 202.221856 
L 335.12741 113.234049 
L 335.208574 112.779798 
L 335.257272 113.01412 
L 335.370901 114.969936 
L 335.581927 123.312045 
L 335.955279 149.056638 
L 336.977941 223.69779 
L 337.351294 235.550428 
L 337.578552 237.797489 
L 337.611018 237.803429 
L 337.643483 237.727961 
L 337.757112 236.803397 
L 337.935672 233.13189 
L 338.195396 222.298715 
L 338.536283 197.133014 
L 339.542712 114.55219 
L 339.688807 112.777055 
L 339.721272 112.853923 
L 339.818668 114.066152 
L 339.997228 119.823109 
L 340.30565 138.394713 
L 341.669199 231.416928 
L 341.977621 237.375833 
L 342.09125 237.809182 
L 342.123716 237.752304 
L 342.221112 237.081927 
L 342.399672 233.782459 
L 342.643163 224.419301 
L 342.967818 202.094119 
L 344.104108 113.216026 
L 344.185272 112.781405 
L 344.217738 112.903843 
L 344.331367 114.608713 
L 344.526159 121.742681 
L 344.867047 144.001254 
L 346.035803 227.194229 
L 346.37669 236.373054 
L 346.571483 237.810753 
L 346.587716 237.801758 
L 346.668879 237.448164 
L 346.814974 235.455884 
L 347.042232 228.5228 
L 347.334421 211.745193 
L 347.772705 171.146335 
L 348.373316 119.80817 
L 348.616807 112.967125 
L 348.665505 112.776909 
L 348.714203 112.966056 
L 348.827832 114.82207 
L 349.038858 123.00565 
L 349.395978 147.273132 
L 350.467338 224.876461 
L 350.824458 235.735044 
L 351.051716 237.808152 
L 351.100414 237.74773 
L 351.19781 237.065724 
L 351.37637 233.742969 
L 351.619861 224.34315 
L 351.944516 201.966168 
L 353.064574 113.410653 
L 353.145738 112.781109 
L 353.194436 112.913439 
L 353.308065 114.643773 
L 353.51909 122.627189 
L 353.87621 146.683427 
L 354.963803 225.257947 
L 355.320923 235.886926 
L 355.548181 237.810772 
L 355.613112 237.644469 
L 355.742974 236.297402 
L 355.937767 231.522109 
L 356.213723 218.282802 
L 356.587076 187.599327 
L 357.398712 117.589575 
L 357.62597 112.794039 
L 357.642203 112.777117 
L 357.674668 112.869323 
L 357.772065 114.125725 
L 357.950625 119.954552 
L 358.259047 138.614317 
L 359.606363 231.006228 
L 359.914785 237.262382 
L 360.044647 237.807363 
L 360.077112 237.742984 
L 360.190741 236.85876 
L 360.369301 233.256976 
L 360.629025 222.541118 
L 360.969912 197.532067 
L 361.992574 114.276689 
L 362.122436 112.779559 
L 362.154901 112.833745 
L 362.252298 113.980618 
L 362.430858 119.631112 
L 362.739279 138.071723 
L 364.102828 231.282185 
L 364.41125 237.339661 
L 364.524879 237.810621 
L 364.557345 237.764793 
L 364.654741 237.128688 
L 364.817068 234.30843 
L 365.060559 225.449781 
L 365.385214 203.84473 
L 366.55397 113.085713 
L 366.618901 112.77768 
L 366.667599 112.98971 
L 366.781228 114.896292 
L 366.992254 123.160242 
L 367.365607 148.821142 
L 368.404501 224.295135 
L 368.777854 235.786719 
L 369.005112 237.809704 
L 369.05381 237.738063 
L 369.167439 236.840184 
L 369.345999 233.214801 
L 369.605723 222.459228 
L 369.94661 197.397056 
L 370.953039 114.623393 
L 371.099134 112.778364 
L 371.131599 112.84024 
L 371.228996 114.009278 
L 371.407556 119.695895 
L 371.715978 138.181005 
L 373.079527 231.327993 
L 373.387948 237.352076 
L 373.501578 237.8103 
L 373.534043 237.760731 
L 373.631439 237.113024 
L 373.809999 233.858933 
L 374.05349 224.567228 
L 374.378145 202.343213 
L 375.514436 113.251539 
L 375.595599 112.778597 
L 375.644298 113.002054 
L 375.757927 114.933877 
L 375.968952 123.237909 
L 376.342305 148.941767 
L 377.364967 223.633531 
L 377.738319 235.524552 
L 377.965578 237.795394 
L 377.998043 237.80486 
L 378.030508 237.73297 
L 378.144138 236.821422 
L 378.322698 233.172417 
L 378.582421 222.377097 
L 378.923308 197.261851 
L 379.929738 114.586732 
L 380.075832 112.777524 
L 380.108298 112.847085 
L 380.205694 114.038265 
L 380.384254 119.76095 
L 380.692676 138.290437 
L 382.056225 231.37364 
L 382.364647 237.364327 
L 382.478276 237.809808 
L 382.510741 237.756495 
L 382.608138 237.097177 
L 382.786698 233.819845 
L 383.030188 224.491544 
L 383.354843 202.215678 
L 384.491134 113.233168 
L 384.572298 112.779868 
L 384.620996 113.014742 
L 384.734625 114.971778 
L 384.94565 123.315823 
L 385.319003 149.062484 
L 386.341665 223.701054 
L 386.715018 235.551741 
L 386.942276 237.797592 
L 386.974741 237.803352 
L 387.007207 237.727702 
L 387.120836 236.802476 
L 387.299396 233.129823 
L 387.559119 222.294722 
L 387.900007 197.126455 
L 388.906436 114.550442 
L 389.05253 112.77704 
L 389.084996 112.854279 
L 389.182392 114.067578 
L 389.360952 119.826278 
L 389.669374 138.400022 
L 391.032923 231.419127 
L 391.341345 237.376414 
L 391.454974 237.809146 
L 391.487439 237.752086 
L 391.584836 237.081147 
L 391.763396 233.780552 
L 392.006887 224.41562 
L 392.331541 202.087929 
L 393.467832 113.215163 
L 393.548996 112.781492 
L 393.581461 112.9043 
L 393.69509 114.610403 
L 393.889883 121.746205 
L 394.23077 144.006885 
L 395.399527 227.197061 
L 395.740414 236.374104 
L 395.935207 237.810757 
L 395.951439 237.801673 
L 396.032603 237.447617 
L 396.178698 235.45445 
L 396.405956 228.519794 
L 396.698145 211.739902 
L 397.136428 171.138797 
L 397.737039 119.804687 
L 397.98053 112.966559 
L 398.029228 112.776911 
L 398.077927 112.966612 
L 398.191556 114.823852 
L 398.402581 123.009381 
L 398.759701 147.27891 
L 399.831061 224.879587 
L 400.188181 235.736303 
L 400.415439 237.808198 
L 400.464138 237.747504 
L 400.561534 237.064935 
L 400.740094 233.741052 
L 400.983585 224.339457 
L 401.308239 201.959968 
L 402.428298 113.409614 
L 402.509461 112.781026 
L 402.558159 112.913913 
L 402.671788 114.645479 
L 402.882814 122.63086 
L 403.239934 146.689181 
L 404.327527 225.261027 
L 404.684647 235.888138 
L 404.911905 237.810768 
L 404.976836 237.644101 
L 405.106698 236.296264 
L 405.30149 231.519682 
L 405.577447 218.278269 
L 405.950799 187.592222 
L 406.762436 117.586688 
L 406.989694 112.79387 
L 407.005927 112.777136 
L 407.038392 112.869713 
L 407.135788 114.127184 
L 407.314348 119.957747 
L 407.62277 138.619641 
L 408.970087 231.008496 
L 409.278508 237.263034 
L 409.40837 237.80731 
L 409.440836 237.742749 
L 409.554465 236.857865 
L 409.733025 233.254938 
L 409.992748 222.537159 
L 410.333636 197.525534 
L 411.356298 114.275084 
L 411.486159 112.779493 
L 411.518625 112.834051 
L 411.616021 113.981998 
L 411.794581 119.634243 
L 411.90821 125.325853 
L 411.90821 125.325853 
" clip-path="url(#pd1588cdf47)" style="fill: none; stroke: #bf00bf; stroke-width: 1.5; stroke-linecap: square"/>
   </g>
   <g id="line2d_10">
    <path d="M 87.253665 224.267074 
L 87.562087 233.549489 
L 87.740647 234.935495 
L 87.756879 234.92961 
L 87.838043 234.583023 
L 87.984138 232.656998 
L 88.227628 225.810329 
L 88.568516 208.731849 
L 89.07173 170.346254 
L 89.818436 115.97744 
L 90.078159 109.207073 
L 90.126858 109.01482 
L 90.175556 109.188748 
L 90.289185 111.056228 
L 90.483978 119.073282 
L 90.792399 142.888598 
L 91.766363 225.379207 
L 92.074785 233.909468 
L 92.237112 234.934931 
L 92.253345 234.9174 
L 92.334508 234.513549 
L 92.496836 232.160461 
L 92.740327 224.848445 
L 93.081214 207.144093 
L 93.616894 165.414158 
L 94.298668 116.299108 
L 94.574625 109.145229 
L 94.623323 109.018974 
L 94.655788 109.138585 
L 94.753185 110.497896 
L 94.931745 116.945837 
L 95.223934 137.735848 
L 96.343992 228.829806 
L 96.619948 234.527656 
L 96.717345 234.935846 
L 96.766043 234.84856 
L 96.879672 233.912626 
L 97.074465 229.982999 
L 97.366654 218.673778 
L 97.772472 192.786729 
L 98.941228 110.989907 
L 99.103556 109.014669 
L 99.119788 109.035305 
L 99.200952 109.758911 
L 99.347047 113.719476 
L 99.590538 127.749349 
L 100.028821 169.303151 
L 100.613199 218.978106 
L 100.954087 232.228357 
L 101.181345 234.908982 
L 101.21381 234.934211 
L 101.246276 234.874021 
L 101.359905 234.004006 
L 101.554698 230.18455 
L 101.846887 219.038182 
L 102.252705 193.348009 
L 103.437694 110.783272 
L 103.583788 109.018765 
L 103.616254 109.063859 
L 103.697418 109.90126 
L 103.859745 114.745256 
L 104.119468 130.965611 
L 104.655148 183.42685 
L 105.158363 222.068107 
L 105.483018 233.054729 
L 105.694043 234.936017 
L 105.758974 234.769613 
L 105.888836 233.437391 
L 106.099861 228.500903 
L 106.408283 215.209683 
L 106.846567 185.008397 
L 107.836763 113.330064 
L 108.064021 109.031232 
L 108.080254 109.014861 
L 108.112719 109.104682 
L 108.210116 110.372715 
L 108.388676 116.652487 
L 108.664632 135.78684 
L 109.849621 230.183182 
L 110.109345 234.717508 
L 110.190508 234.933311 
L 110.222974 234.86923 
L 110.336603 233.985892 
L 110.531396 230.14418 
L 110.823585 218.964916 
L 111.229403 193.234883 
L 112.414392 110.749634 
L 112.560487 109.017262 
L 112.592952 109.069859 
L 112.674116 109.926411 
L 112.836443 114.809271 
L 113.096167 131.08545 
L 113.631847 183.573982 
L 114.135061 222.143253 
L 114.459716 233.081586 
L 114.670741 234.936008 
L 114.735672 234.761843 
L 114.865534 233.414514 
L 115.076559 228.45401 
L 115.384981 215.128333 
L 115.823265 184.888059 
L 116.813461 113.278583 
L 117.040719 109.028041 
L 117.056952 109.015395 
L 117.089418 109.112748 
L 117.186814 110.403866 
L 117.365374 116.72621 
L 117.64133 135.916443 
L 118.810087 229.737591 
L 119.086043 234.72638 
L 119.167207 234.932232 
L 119.199672 234.864261 
L 119.313301 233.967606 
L 119.508094 230.103641 
L 119.800283 218.891485 
L 120.206101 193.121643 
L 121.39109 110.716307 
L 121.537185 109.016101 
L 121.56965 109.076206 
L 121.667047 110.253103 
L 121.845607 116.364549 
L 122.121563 135.277006 
L 123.322785 230.483263 
L 123.582508 234.775345 
L 123.647439 234.935818 
L 123.696138 234.831022 
L 123.809767 233.855212 
L 124.004559 229.858875 
L 124.296748 218.45104 
L 124.702567 192.445326 
L 125.871323 110.884378 
L 126.03365 109.016273 
L 126.049883 109.048167 
L 126.131047 109.829093 
L 126.293374 114.558362 
L 126.553098 130.61346 
L 127.072545 181.375882 
L 127.575759 221.002235 
L 127.916647 232.974283 
L 128.127672 234.934993 
L 128.17637 234.859114 
L 128.289999 233.949147 
L 128.484792 230.062934 
L 128.776981 218.817889 
L 129.182799 193.008288 
L 130.367788 110.683291 
L 130.513883 109.015282 
L 130.546348 109.0829 
L 130.643745 110.282846 
L 130.822305 116.436901 
L 131.098261 135.405671 
L 132.28325 230.052606 
L 132.542974 234.690235 
L 132.624138 234.935449 
L 132.672836 234.824822 
L 132.786465 233.83573 
L 132.981258 229.817163 
L 133.273447 218.376465 
L 133.679265 192.331301 
L 134.848021 110.849821 
L 135.010348 109.017494 
L 135.026581 109.053146 
L 135.107745 109.853196 
L 135.270072 114.621335 
L 135.529796 130.732501 
L 136.065476 183.139336 
L 136.56869 221.920754 
L 136.893345 233.001734 
L 137.10437 234.935516 
L 137.153068 234.853791 
L 137.266698 233.930516 
L 137.46149 230.022058 
L 137.753679 218.744128 
L 138.159498 192.89482 
L 139.328254 111.023966 
L 139.490581 109.014805 
L 139.523047 109.089941 
L 139.620443 110.312945 
L 139.799003 116.509601 
L 140.074959 135.534576 
L 141.259948 230.097055 
L 141.519672 234.699656 
L 141.600836 234.9349 
L 141.649534 234.818446 
L 141.763163 233.816076 
L 141.957956 229.775282 
L 142.250145 218.301726 
L 142.655963 192.217164 
L 143.808487 111.205679 
L 143.987047 109.019058 
L 144.003279 109.05847 
L 144.084443 109.877654 
L 144.24677 114.684662 
L 144.506494 130.851813 
L 145.042174 183.286711 
L 145.545388 221.996368 
L 145.870043 233.028983 
L 146.081068 234.935858 
L 146.129767 234.84829 
L 146.243396 233.911714 
L 146.438188 229.981012 
L 146.730378 218.670203 
L 147.136196 192.781239 
L 148.304952 110.988185 
L 148.467279 109.014671 
L 148.483512 109.035487 
L 148.564676 109.760016 
L 148.71077 113.722272 
L 148.954261 127.754757 
L 149.392545 169.310611 
L 149.976923 218.982193 
L 150.31781 232.229932 
L 150.545068 234.909133 
L 150.577534 234.934172 
L 150.609999 234.873794 
L 150.723628 234.003135 
L 150.918421 230.182603 
L 151.21061 219.034646 
L 151.616428 193.342546 
L 152.801418 110.78164 
L 152.947512 109.018685 
L 152.979978 109.064141 
L 153.061141 109.902467 
L 153.223468 114.748341 
L 153.483192 130.971395 
L 154.018872 183.433962 
L 154.522087 222.071743 
L 154.846741 233.056031 
L 155.057767 234.93602 
L 155.122698 234.769241 
L 155.252559 233.436289 
L 155.463585 228.498641 
L 155.772007 215.205756 
L 156.21029 185.002585 
L 157.200487 113.32757 
L 157.427745 109.03107 
L 157.443978 109.014879 
L 157.476443 109.105064 
L 157.573839 110.374212 
L 157.752399 116.656041 
L 158.028356 135.793096 
L 159.213345 230.185304 
L 159.473068 234.717941 
L 159.554232 234.933263 
L 159.586698 234.868993 
L 159.700327 233.985012 
L 159.895119 230.142225 
L 160.187308 218.961372 
L 160.593127 193.229414 
L 161.778116 110.748016 
L 161.92421 109.017199 
L 161.956676 109.070158 
L 162.037839 109.927636 
L 162.200167 114.812373 
L 162.45989 131.091247 
L 162.99557 183.581087 
L 163.498785 222.146878 
L 163.823439 233.082879 
L 164.034465 234.936002 
L 164.099396 234.761463 
L 164.229258 233.413405 
L 164.440283 228.451739 
L 164.748705 215.124398 
L 165.186988 184.882242 
L 166.177185 113.276103 
L 166.404443 109.027896 
L 166.420676 109.01543 
L 166.453141 109.113147 
L 166.550538 110.405381 
L 166.729098 116.729781 
L 167.005054 135.922711 
L 168.17381 229.739817 
L 168.449767 234.726804 
L 168.53093 234.932175 
L 168.563396 234.864016 
L 168.677025 233.966718 
L 168.871818 230.101678 
L 169.164007 218.887932 
L 169.569825 193.116168 
L 170.754814 110.714704 
L 170.900908 109.016054 
L 170.933374 109.076522 
L 171.03077 110.254532 
L 171.20933 116.368038 
L 171.485287 135.283217 
L 172.686508 230.485312 
L 172.946232 234.775716 
L 173.011163 234.935805 
L 173.059861 234.830726 
L 173.17349 233.854274 
L 173.368283 229.856864 
L 173.660472 218.44744 
L 174.06629 192.439819 
L 175.235047 110.882701 
L 175.397374 109.016324 
L 175.413607 109.0484 
L 175.49477 109.830249 
L 175.657098 114.561397 
L 175.916821 130.619206 
L 176.436268 181.383074 
L 176.939483 221.006033 
L 177.28037 232.975614 
L 177.491396 234.935022 
L 177.540094 234.858861 
L 177.653723 233.948251 
L 177.848516 230.060962 
L 178.140705 218.814328 
L 178.546523 193.002808 
L 179.731512 110.681704 
L 179.877607 109.015252 
L 179.910072 109.083232 
L 180.007468 110.284292 
L 180.186028 116.440407 
L 180.461985 135.411895 
L 181.646974 230.054758 
L 181.906698 234.690694 
L 181.987861 234.935427 
L 182.036559 234.824518 
L 182.150188 233.834784 
L 182.344981 229.815143 
L 182.63717 218.372857 
L 183.042988 192.325788 
L 184.211745 110.848159 
L 184.374072 109.017561 
L 184.390305 109.053395 
L 184.471468 109.85437 
L 184.633796 114.624388 
L 184.893519 130.738261 
L 185.429199 183.146461 
L 185.932414 221.924414 
L 186.257068 233.003055 
L 186.468094 234.935536 
L 186.516792 234.853529 
L 186.630421 233.929612 
L 186.825214 230.020078 
L 187.117403 218.740559 
L 187.523221 192.889334 
L 188.691978 111.022229 
L 188.854305 109.014791 
L 188.88677 109.09029 
L 188.984167 110.314408 
L 189.162727 116.513123 
L 189.438683 135.540811 
L 190.623672 230.099198 
L 190.883396 234.700107 
L 190.964559 234.934869 
L 191.013258 234.818133 
L 191.126887 233.815122 
L 191.321679 229.773253 
L 191.613868 218.298109 
L 192.019687 192.211645 
L 193.17221 111.203869 
L 193.35077 109.019142 
L 193.367003 109.058737 
L 193.448167 109.878845 
L 193.610494 114.687731 
L 193.870218 130.857586 
L 194.405898 183.29383 
L 194.909112 222.000017 
L 195.233767 233.030295 
L 195.444792 234.93587 
L 195.49349 234.84802 
L 195.607119 233.910801 
L 195.801912 229.979024 
L 196.094101 218.666626 
L 196.499919 192.775747 
L 197.668676 110.986464 
L 197.831003 109.014673 
L 197.847236 109.035671 
L 197.928399 109.761123 
L 198.074494 113.725071 
L 198.317985 127.760168 
L 198.756268 169.318075 
L 199.340647 218.986281 
L 199.681534 232.231507 
L 199.908792 234.909284 
L 199.941258 234.934132 
L 199.973723 234.873566 
L 200.087352 234.002263 
L 200.282145 230.180655 
L 200.574334 219.031108 
L 200.980152 193.337081 
L 202.165141 110.780008 
L 202.311236 109.018605 
L 202.343701 109.064424 
L 202.424865 109.903676 
L 202.587192 114.751428 
L 202.846916 130.977182 
L 203.382596 183.441076 
L 203.88581 222.07538 
L 204.210465 233.057333 
L 204.42149 234.936024 
L 204.486421 234.768869 
L 204.616283 233.435187 
L 204.827308 228.496378 
L 205.13573 215.201827 
L 205.574014 184.99677 
L 206.56421 113.325076 
L 206.791468 109.030909 
L 206.807701 109.014898 
L 206.840167 109.105447 
L 206.937563 110.37571 
L 207.116123 116.659597 
L 207.392079 135.799356 
L 208.577068 230.187426 
L 208.836792 234.718373 
L 208.917956 234.933215 
L 208.950421 234.868757 
L 209.06405 233.984132 
L 209.258843 230.140269 
L 209.551032 218.957825 
L 209.95685 193.223943 
L 211.141839 110.746399 
L 211.287934 109.017136 
L 211.320399 109.070458 
L 211.401563 109.928861 
L 211.56389 114.815477 
L 211.823614 131.097047 
L 212.359294 183.588196 
L 212.862508 222.150503 
L 213.187163 233.084171 
L 213.398188 234.935997 
L 213.463119 234.761082 
L 213.592981 233.412294 
L 213.804007 228.449468 
L 214.112428 215.120461 
L 214.550712 184.876423 
L 215.540908 113.273623 
L 215.768167 109.027751 
L 215.784399 109.015466 
L 215.816865 109.113546 
L 215.914261 110.406896 
L 216.092821 116.733354 
L 216.368778 135.928982 
L 217.537534 229.742043 
L 217.81349 234.727228 
L 217.894654 234.932118 
L 217.927119 234.863771 
L 218.040748 233.965829 
L 218.235541 230.099714 
L 218.52773 218.884378 
L 218.933548 193.110691 
L 220.118538 110.713102 
L 220.264632 109.016008 
L 220.297098 109.076838 
L 220.394494 110.255963 
L 220.573054 116.371528 
L 220.84901 135.289432 
L 222.050232 230.487361 
L 222.309956 234.776086 
L 222.374887 234.93579 
L 222.423585 234.83043 
L 222.537214 233.853336 
L 222.732007 229.854851 
L 223.024196 218.443838 
L 223.430014 192.434309 
L 224.59877 110.881024 
L 224.761098 109.016376 
L 224.77733 109.048634 
L 224.858494 109.831408 
L 225.020821 114.564434 
L 225.280545 130.624955 
L 225.799992 181.390268 
L 226.303207 221.009831 
L 226.644094 232.976945 
L 226.855119 234.935051 
L 226.903818 234.858607 
L 227.017447 233.947353 
L 227.212239 230.05899 
L 227.504428 218.810765 
L 227.910247 192.997324 
L 229.095236 110.680117 
L 229.24133 109.015222 
L 229.273796 109.083566 
L 229.371192 110.28574 
L 229.549752 116.443914 
L 229.825708 135.418122 
L 231.010698 230.056912 
L 231.270421 234.691153 
L 231.351585 234.935404 
L 231.400283 234.824213 
L 231.513912 233.833837 
L 231.708705 229.813122 
L 232.000894 218.369247 
L 232.406712 192.320272 
L 233.559236 111.239642 
L 233.737796 109.01763 
L 233.754028 109.053646 
L 233.835192 109.855545 
L 233.997519 114.627442 
L 234.257243 130.744023 
L 234.792923 183.153589 
L 235.296138 221.928074 
L 235.620792 233.004376 
L 235.831818 234.935557 
L 235.880516 234.853267 
L 235.994145 233.928706 
L 236.188938 230.018097 
L 236.481127 218.736988 
L 236.886945 192.883845 
L 238.055701 111.020493 
L 238.218028 109.014778 
L 238.250494 109.09064 
L 238.34789 110.315874 
L 238.52645 116.516648 
L 238.802407 135.54705 
L 239.987396 230.101341 
L 240.247119 234.700557 
L 240.328283 234.934837 
L 240.376981 234.817819 
L 240.49061 233.814167 
L 240.685403 229.771224 
L 240.977592 218.294491 
L 241.38341 192.206124 
L 242.535934 111.20206 
L 242.714494 109.019228 
L 242.730727 109.059004 
L 242.81189 109.880038 
L 242.974218 114.690803 
L 243.233941 130.863363 
L 243.769621 183.300952 
L 244.272836 222.003666 
L 244.59749 233.031607 
L 244.808516 234.935881 
L 244.857214 234.847749 
L 244.970843 233.909887 
L 245.165636 229.977035 
L 245.457825 218.663047 
L 245.863643 192.770252 
L 247.032399 110.984743 
L 247.194727 109.014677 
L 247.210959 109.035855 
L 247.292123 109.762231 
L 247.438218 113.727871 
L 247.681708 127.765582 
L 248.119992 169.325541 
L 248.70437 218.99037 
L 249.045258 232.233082 
L 249.272516 234.909434 
L 249.304981 234.934091 
L 249.337447 234.873337 
L 249.451076 234.00139 
L 249.645868 230.178706 
L 249.938058 219.027569 
L 250.343876 193.331613 
L 251.528865 110.778376 
L 251.674959 109.018527 
L 251.707425 109.064708 
L 251.788588 109.904886 
L 251.950916 114.754517 
L 252.210639 130.982972 
L 252.746319 183.448192 
L 253.249534 222.079018 
L 253.574188 233.058636 
L 253.785214 234.936026 
L 253.850145 234.768497 
L 253.980007 233.434084 
L 254.191032 228.494113 
L 254.499454 215.197896 
L 254.937738 184.990953 
L 255.927934 113.322582 
L 256.155192 109.030749 
L 256.171425 109.014918 
L 256.20389 109.105831 
L 256.301287 110.37721 
L 256.479847 116.663156 
L 256.755803 135.805619 
L 257.940792 230.189548 
L 258.200516 234.718806 
L 258.281679 234.933166 
L 258.314145 234.86852 
L 258.427774 233.983251 
L 258.622567 230.138312 
L 258.914756 218.954278 
L 259.320574 193.218469 
L 260.505563 110.744782 
L 260.651658 109.017073 
L 260.684123 109.070759 
L 260.765287 109.930089 
L 260.927614 114.818584 
L 261.187338 131.10285 
L 261.73925 185.190962 
L 262.226232 222.15413 
L 262.550887 233.085464 
L 262.761912 234.935991 
L 262.826843 234.760701 
L 262.956705 233.411182 
L 263.16773 228.447195 
L 263.476152 215.116523 
L 263.914436 184.870601 
L 264.904632 113.271142 
L 265.13189 109.027607 
L 265.148123 109.015502 
L 265.180588 109.113947 
L 265.277985 110.408414 
L 265.456545 116.73693 
L 265.732501 135.935257 
L 266.901258 229.74427 
L 267.177214 234.727651 
L 267.258378 234.93206 
L 267.290843 234.863525 
L 267.404472 233.964939 
L 267.599265 230.097748 
L 267.891454 218.880822 
L 268.297272 193.105211 
L 269.482261 110.7115 
L 269.628356 109.015962 
L 269.660821 109.077156 
L 269.758218 110.257395 
L 269.936778 116.375021 
L 270.212734 135.29565 
L 271.413956 230.489411 
L 271.673679 234.776456 
L 271.73861 234.935776 
L 271.787308 234.830133 
L 271.900938 233.852397 
L 272.09573 229.852836 
L 272.387919 218.440235 
L 272.793738 192.428796 
L 273.962494 110.879348 
L 274.124821 109.016429 
L 274.141054 109.048868 
L 274.222218 109.832567 
L 274.384545 114.567473 
L 274.644268 130.630708 
L 275.163716 181.397466 
L 275.66693 221.013631 
L 276.007818 232.978276 
L 276.218843 234.93508 
L 276.267541 234.858353 
L 276.38117 233.946455 
L 276.575963 230.057016 
L 276.868152 218.807201 
L 277.27397 192.991839 
L 278.458959 110.67853 
L 278.605054 109.015193 
L 278.637519 109.0839 
L 278.734916 110.28719 
L 278.913476 116.447424 
L 279.189432 135.424352 
L 280.374421 230.059065 
L 280.634145 234.691612 
L 280.715308 234.93538 
L 280.764007 234.823908 
L 280.877636 233.832889 
L 281.072428 229.811099 
L 281.364618 218.365635 
L 281.770436 192.314754 
L 282.922959 111.237818 
L 283.101519 109.0177 
L 283.117752 109.053897 
L 283.198916 109.856722 
L 283.361243 114.630499 
L 283.620967 130.749789 
L 284.156647 183.160719 
L 284.659861 221.931736 
L 284.984516 233.005698 
L 285.195541 234.935576 
L 285.244239 234.853004 
L 285.357868 233.9278 
L 285.552661 230.016115 
L 285.84485 218.733416 
L 286.250668 192.878353 
L 287.419425 111.018757 
L 287.581752 109.014765 
L 287.614218 109.090991 
L 287.711614 110.31734 
L 287.890174 116.520175 
L 288.16613 135.553292 
L 289.351119 230.103484 
L 289.610843 234.701007 
L 289.692007 234.934805 
L 289.740705 234.817506 
L 289.854334 233.813211 
L 290.049127 229.769193 
L 290.341316 218.290871 
L 290.747134 192.2006 
L 291.899658 111.20025 
L 292.078218 109.019314 
L 292.09445 109.059272 
L 292.175614 109.881232 
L 292.337941 114.693877 
L 292.597665 130.869142 
L 293.133345 183.308077 
L 293.636559 222.007316 
L 293.961214 233.032918 
L 294.172239 234.935892 
L 294.220938 234.847477 
L 294.334567 233.908972 
L 294.529359 229.975044 
L 294.821548 218.659466 
L 295.227367 192.764754 
L 296.396123 110.983022 
L 296.55845 109.014681 
L 296.574683 109.036041 
L 296.655847 109.76334 
L 296.801941 113.730674 
L 297.045432 127.770999 
L 297.483716 169.33301 
L 298.068094 218.99446 
L 298.408981 232.234658 
L 298.636239 234.909584 
L 298.668705 234.93405 
L 298.70117 234.873108 
L 298.814799 234.000516 
L 299.009592 230.176756 
L 299.301781 219.024027 
L 299.707599 193.326142 
L 300.892588 110.776744 
L 301.038683 109.018449 
L 301.071148 109.064993 
L 301.152312 109.906097 
L 301.314639 114.757608 
L 301.574363 130.988765 
L 302.110043 183.455311 
L 302.613258 222.082656 
L 302.937912 233.059938 
L 303.148938 234.936029 
L 303.213868 234.768123 
L 303.34373 233.43298 
L 303.554756 228.491847 
L 303.863178 215.193964 
L 304.301461 184.985133 
L 305.291658 113.320087 
L 305.518916 109.030589 
L 305.535148 109.014938 
L 305.567614 109.106215 
L 305.66501 110.378712 
L 305.84357 116.666717 
L 306.119527 135.811885 
L 307.304516 230.19167 
L 307.564239 234.719238 
L 307.645403 234.933116 
L 307.677868 234.868282 
L 307.791498 233.982369 
L 307.98629 230.136353 
L 308.278479 218.950728 
L 308.684298 193.212993 
L 309.869287 110.743165 
L 310.015381 109.017012 
L 310.047847 109.07106 
L 310.12901 109.931317 
L 310.291338 114.821692 
L 310.551061 131.108657 
L 311.102974 185.198007 
L 311.589956 222.157757 
L 311.91461 233.086756 
L 312.125636 234.935984 
L 312.190567 234.760319 
L 312.320428 233.41007 
L 312.531454 228.444921 
L 312.839876 215.112582 
L 313.278159 184.864777 
L 314.268356 113.268661 
L 314.495614 109.027464 
L 314.511847 109.015539 
L 314.544312 109.114349 
L 314.641708 110.409933 
L 314.820268 116.740508 
L 315.096225 135.941535 
L 316.264981 229.746497 
L 316.540938 234.728074 
L 316.622101 234.932002 
L 316.654567 234.863279 
L 316.768196 233.964049 
L 316.962988 230.095781 
L 317.255178 218.877264 
L 317.660996 193.099729 
L 318.845985 110.709898 
L 318.992079 109.015917 
L 319.024545 109.077475 
L 319.121941 110.258829 
L 319.300501 116.378516 
L 319.576458 135.301872 
L 320.777679 230.491461 
L 321.037403 234.776825 
L 321.102334 234.93576 
L 321.151032 234.829836 
L 321.264661 233.851457 
L 321.459454 229.850821 
L 321.751643 218.436629 
L 322.157461 192.423281 
L 323.326218 110.877671 
L 323.488545 109.016483 
L 323.504778 109.049104 
L 323.585941 109.833728 
L 323.748268 114.570515 
L 324.007992 130.636463 
L 324.527439 181.404666 
L 325.030654 221.017431 
L 325.371541 232.979607 
L 325.582567 234.935108 
L 325.631265 234.858098 
L 325.744894 233.945556 
L 325.939687 230.055041 
L 326.231876 218.803635 
L 326.637694 192.986351 
L 327.822683 110.676943 
L 327.968778 109.015164 
L 328.001243 109.084235 
L 328.098639 110.28864 
L 328.277199 116.450936 
L 328.553156 135.430586 
L 329.738145 230.061219 
L 329.997868 234.692071 
L 330.079032 234.935356 
L 330.12773 234.823602 
L 330.241359 233.831941 
L 330.436152 229.809075 
L 330.728341 218.362021 
L 331.134159 192.309233 
L 332.286683 111.235993 
L 332.465243 109.01777 
L 332.481476 109.054149 
L 332.562639 109.8579 
L 332.724967 114.633557 
L 332.98469 130.755558 
L 333.52037 183.167852 
L 334.023585 221.935398 
L 334.348239 233.007019 
L 334.559265 234.935596 
L 334.607963 234.85274 
L 334.721592 233.926892 
L 334.916385 230.014131 
L 335.208574 218.729841 
L 335.614392 192.872859 
L 336.783148 111.017021 
L 336.945476 109.014754 
L 336.977941 109.091343 
L 337.075338 110.318809 
L 337.253898 116.523704 
L 337.529854 135.559538 
L 338.714843 230.105628 
L 338.974567 234.701457 
L 339.05573 234.934773 
L 339.104428 234.817191 
L 339.218058 233.812254 
L 339.41285 229.767161 
L 339.705039 218.287249 
L 340.110858 192.195073 
L 341.263381 111.19844 
L 341.441941 109.019401 
L 341.458174 109.059541 
L 341.539338 109.882427 
L 341.701665 114.696953 
L 341.961388 130.874924 
L 342.497068 183.315205 
L 343.000283 222.010967 
L 343.324938 233.03423 
L 343.535963 234.935903 
L 343.584661 234.847205 
L 343.69829 233.908056 
L 343.893083 229.973053 
L 344.185272 218.655883 
L 344.59109 192.759254 
L 345.759847 110.9813 
L 345.922174 109.014685 
L 345.938407 109.036227 
L 346.01957 109.76445 
L 346.165665 113.733478 
L 346.409156 127.776419 
L 346.847439 169.340483 
L 347.431818 218.998552 
L 347.772705 232.236233 
L 347.999963 234.909733 
L 348.032428 234.934009 
L 348.064894 234.872878 
L 348.178523 233.999642 
L 348.373316 230.174804 
L 348.665505 219.020484 
L 349.071323 193.320669 
L 350.256312 110.775112 
L 350.402407 109.018372 
L 350.434872 109.065279 
L 350.516036 109.907309 
L 350.678363 114.760701 
L 350.938087 130.99456 
L 351.473767 183.462433 
L 351.976981 222.086296 
L 352.301636 233.06124 
L 352.512661 234.93603 
L 352.577592 234.76775 
L 352.707454 233.431875 
L 352.918479 228.48958 
L 353.226901 215.190029 
L 353.665185 184.97931 
L 354.655381 113.317592 
L 354.882639 109.030431 
L 354.898872 109.01496 
L 354.931338 109.106601 
L 355.028734 110.380215 
L 355.207294 116.67028 
L 355.48325 135.818154 
L 356.668239 230.193794 
L 356.927963 234.71967 
L 357.009127 234.933066 
L 357.041592 234.868044 
L 357.155221 233.981486 
L 357.350014 230.134393 
L 357.642203 218.947176 
L 358.048021 193.207514 
L 359.23301 110.741548 
L 359.379105 109.016951 
L 359.41157 109.071363 
L 359.492734 109.932547 
L 359.655061 114.824803 
L 359.914785 131.114466 
L 360.466698 185.205054 
L 360.953679 222.161386 
L 361.278334 233.088049 
L 361.489359 234.935978 
L 361.55429 234.759937 
L 361.684152 233.408957 
L 361.895178 228.442645 
L 362.203599 215.108639 
L 362.641883 184.858949 
L 363.632079 113.26618 
L 363.859338 109.027322 
L 363.87557 109.015577 
L 363.908036 109.114752 
L 364.005432 110.411453 
L 364.183992 116.744089 
L 364.459948 135.947816 
L 365.628705 229.748724 
L 365.904661 234.728497 
L 365.985825 234.931944 
L 366.01829 234.863032 
L 366.131919 233.963157 
L 366.326712 230.093813 
L 366.618901 218.873704 
L 367.024719 193.094244 
L 368.209708 110.708296 
L 368.355803 109.015873 
L 368.388268 109.077794 
L 368.485665 110.260263 
L 368.664225 116.382013 
L 368.940181 135.308096 
L 370.141403 230.493512 
L 370.401127 234.777195 
L 370.466058 234.935745 
L 370.514756 234.829538 
L 370.628385 233.850516 
L 370.823178 229.848804 
L 371.115367 218.433022 
L 371.521185 192.417764 
L 372.689941 110.875994 
L 372.852268 109.016538 
L 372.868501 109.04934 
L 372.949665 109.83489 
L 373.111992 114.573558 
L 373.371716 130.642221 
L 373.891163 181.411869 
L 374.394378 221.021233 
L 374.735265 232.980939 
L 374.94629 234.935135 
L 374.994988 234.857843 
L 375.108618 233.944657 
L 375.30341 230.053064 
L 375.595599 218.800067 
L 376.001418 192.98086 
L 377.186407 110.675355 
L 377.332501 109.015137 
L 377.364967 109.084572 
L 377.462363 110.290093 
L 377.640923 116.454451 
L 377.916879 135.436822 
L 379.101868 230.063374 
L 379.361592 234.692529 
L 379.442756 234.935332 
L 379.491454 234.823296 
L 379.605083 233.830992 
L 379.799876 229.80705 
L 380.092065 218.358406 
L 380.497883 192.30371 
L 381.650407 111.234168 
L 381.828967 109.017841 
L 381.845199 109.054403 
L 381.926363 109.859079 
L 382.08869 114.636618 
L 382.348414 130.76133 
L 382.884094 183.174987 
L 383.387308 221.939061 
L 383.711963 233.008341 
L 383.922988 234.935614 
L 383.971687 234.852476 
L 384.085316 233.925984 
L 384.280108 230.012146 
L 384.572298 218.726265 
L 384.978116 192.867362 
L 386.146872 111.015285 
L 386.309199 109.014743 
L 386.341665 109.091697 
L 386.439061 110.320278 
L 386.617621 116.527235 
L 386.893578 135.565786 
L 388.078567 230.107772 
L 388.33829 234.701906 
L 388.419454 234.93474 
L 388.468152 234.816876 
L 388.581781 233.811296 
L 388.776574 229.765127 
L 389.068763 218.283625 
L 389.474581 192.189544 
L 390.627105 111.19663 
L 390.805665 109.019489 
L 390.821898 109.059811 
L 390.903061 109.883624 
L 391.065388 114.700031 
L 391.325112 130.88071 
L 391.860792 183.322335 
L 392.364007 222.014619 
L 392.688661 233.035542 
L 392.899687 234.935913 
L 392.948385 234.846932 
L 393.062014 233.90714 
L 393.256807 229.97106 
L 393.548996 218.652298 
L 393.954814 192.753752 
L 395.12357 110.979579 
L 395.285898 109.014691 
L 395.30213 109.036414 
L 395.383294 109.765561 
L 395.529388 113.736285 
L 395.772879 127.781841 
L 396.211163 169.347959 
L 396.795541 219.002644 
L 397.136428 232.237809 
L 397.363687 234.909882 
L 397.396152 234.933968 
L 397.428618 234.872648 
L 397.542247 233.998767 
L 397.737039 230.172852 
L 398.029228 219.016938 
L 398.435047 193.315194 
L 399.620036 110.77348 
L 399.76613 109.018295 
L 399.798596 109.065566 
L 399.879759 109.908523 
L 400.042087 114.763797 
L 400.30181 131.000359 
L 400.83749 183.469558 
L 401.340705 222.089937 
L 401.665359 233.062543 
L 401.876385 234.936032 
L 401.941316 234.767375 
L 402.071178 233.430769 
L 402.282203 228.487312 
L 402.590625 215.186092 
L 403.028908 184.973485 
L 404.019105 113.315096 
L 404.246363 109.030272 
L 404.262596 109.014982 
L 404.295061 109.106988 
L 404.392458 110.381719 
L 404.571018 116.673846 
L 404.846974 135.824426 
L 406.031963 230.195917 
L 406.291687 234.720101 
L 406.37285 234.933016 
L 406.405316 234.867805 
L 406.518945 233.980602 
L 406.713738 230.132432 
L 407.005927 218.943622 
L 407.411745 193.202032 
L 408.596734 110.739931 
L 408.742828 109.016892 
L 408.775294 109.071667 
L 408.856458 109.933778 
L 409.018785 114.827915 
L 409.278508 131.120278 
L 409.830421 185.212104 
L 410.317403 222.165015 
L 410.642058 233.089342 
L 410.853083 234.93597 
L 410.918014 234.759554 
L 411.047876 233.407843 
L 411.258901 228.440368 
L 411.567323 215.104694 
L 411.90821 192.526192 
L 411.90821 192.526192 
" clip-path="url(#pd1588cdf47)" style="fill: none; stroke: #0000ff; stroke-width: 1.5; stroke-linecap: square"/>
   </g>
   <g id="line2d_11">
    <path d="M 87.253665 155.077954 
L 87.513388 172.78041 
L 88.487352 247.160803 
L 88.844472 257.317204 
L 89.136661 260.531123 
L 89.266523 260.819785 
L 89.298988 260.789792 
L 89.412618 260.361647 
L 89.591178 258.622483 
L 89.834668 253.805832 
L 90.126858 243.153346 
L 90.483978 220.696781 
L 91.490407 149.623719 
L 91.522872 149.575 
L 91.555338 149.755094 
L 91.668967 152.164227 
L 91.879992 163.320928 
L 92.334508 203.564361 
L 92.853956 241.639383 
L 93.227308 255.159084 
L 93.551963 260.08094 
L 93.746756 260.820925 
L 93.762988 260.815638 
L 93.860385 260.569511 
L 94.022712 259.316388 
L 94.24997 255.568673 
L 94.525927 247.041 
L 94.850581 229.552503 
L 95.32133 189.790005 
L 95.824545 152.895906 
L 96.003105 149.565983 
L 96.019338 149.601457 
L 96.100501 150.633684 
L 96.262828 156.790995 
L 96.555018 178.599471 
L 97.382887 243.662159 
L 97.756239 256.08237 
L 98.064661 260.261278 
L 98.243221 260.8193 
L 98.259454 260.80846 
L 98.35685 260.528725 
L 98.519178 259.216061 
L 98.746436 255.368811 
L 99.038625 246.001892 
L 99.379512 226.668387 
L 99.915192 180.022018 
L 100.337243 152.026994 
L 100.483338 149.568768 
L 100.515803 149.644961 
L 100.613199 151.237614 
L 100.791759 159.152782 
L 101.132647 186.9097 
L 101.814421 240.882068 
L 102.204007 255.194044 
L 102.512428 259.96281 
L 102.723454 260.820864 
L 102.804618 260.687839 
L 102.950712 259.793638 
L 103.161738 256.874565 
L 103.437694 249.456955 
L 103.762348 233.687414 
L 104.184399 200.223374 
L 104.801243 152.840857 
L 104.979803 149.566852 
L 104.996036 149.607575 
L 105.077199 150.665807 
L 105.239527 156.870904 
L 105.531716 178.733602 
L 106.359585 243.732319 
L 106.732938 256.113836 
L 107.041359 260.271165 
L 107.219919 260.81873 
L 107.236152 260.806956 
L 107.333548 260.521567 
L 107.495876 259.198865 
L 107.723134 255.334798 
L 108.015323 245.938711 
L 108.35621 226.561716 
L 108.89189 179.888311 
L 109.313941 151.979413 
L 109.460036 149.567255 
L 109.492501 149.653943 
L 109.589898 151.277599 
L 109.768458 159.243289 
L 110.109345 187.049649 
L 110.791119 240.9594 
L 111.180705 255.228874 
L 111.489127 259.975151 
L 111.700152 260.820717 
L 111.781316 260.683011 
L 111.92741 259.780039 
L 112.138436 256.846366 
L 112.414392 249.403627 
L 112.739047 233.59447 
L 113.161098 200.08622 
L 113.777941 152.786246 
L 113.956501 149.568204 
L 113.972734 149.614175 
L 114.053898 150.6984 
L 114.216225 156.951209 
L 114.508414 178.867871 
L 115.32005 243.029244 
L 115.693403 255.796769 
L 116.001825 260.16925 
L 116.180385 260.820606 
L 116.196618 260.818074 
L 116.277781 260.652487 
L 116.423876 259.697166 
L 116.651134 256.353642 
L 116.92709 248.480744 
L 117.251745 231.998292 
L 117.690028 196.257449 
L 118.258174 153.060939 
L 118.436734 149.566223 
L 118.452967 149.586205 
L 118.517898 150.237136 
L 118.663992 154.941288 
L 118.923716 172.534267 
L 119.913912 247.696468 
L 120.271032 257.549801 
L 120.563221 260.591146 
L 120.67685 260.820485 
L 120.709316 260.794136 
L 120.822945 260.378947 
L 121.001505 258.661936 
L 121.244996 253.882619 
L 121.537185 243.290915 
L 121.894305 220.923742 
L 122.900734 149.639226 
L 122.933199 149.570036 
L 122.965665 149.729663 
L 123.063061 151.568318 
L 123.257854 160.919945 
L 123.647439 194.165301 
L 124.24805 240.652675 
L 124.637636 255.090481 
L 124.96229 260.058377 
L 125.157083 260.820797 
L 125.173316 260.817332 
L 125.254479 260.647057 
L 125.400574 259.682915 
L 125.627832 256.323363 
L 125.903788 248.42455 
L 126.228443 231.901836 
L 126.666727 196.118894 
L 127.234872 153.004603 
L 127.413432 149.565672 
L 127.429665 149.590902 
L 127.510828 150.572343 
L 127.673156 156.636179 
L 127.965345 178.338097 
L 128.793214 243.52469 
L 129.166567 256.020602 
L 129.474988 260.241721 
L 129.653548 260.820167 
L 129.669781 260.811148 
L 129.767178 260.542441 
L 129.929505 259.24934 
L 130.156763 255.434835 
L 130.448952 246.124704 
L 130.789839 226.876024 
L 131.309287 181.750981 
L 131.74757 152.121148 
L 131.909898 149.57235 
L 131.92613 149.628818 
L 132.007294 150.764993 
L 132.169621 157.113001 
L 132.478043 180.612253 
L 133.257214 242.381387 
L 133.630567 255.501277 
L 133.938988 260.069982 
L 134.133781 260.820903 
L 134.150014 260.816505 
L 134.231178 260.641541 
L 134.377272 259.66857 
L 134.60453 256.292965 
L 134.880487 248.368193 
L 135.205141 231.805184 
L 135.643425 195.980308 
L 136.21157 152.948701 
L 136.39013 149.565602 
L 136.406363 149.596081 
L 136.487527 150.603549 
L 136.649854 156.715314 
L 136.942043 178.471951 
L 137.769912 243.595214 
L 138.143265 256.052309 
L 138.451687 260.251785 
L 138.630247 260.819763 
L 138.646479 260.809812 
L 138.743876 260.535455 
L 138.906203 259.232335 
L 139.133461 255.401065 
L 139.42565 246.06186 
L 139.766538 226.769726 
L 140.302218 180.149376 
L 140.724268 152.072693 
L 140.870363 149.570656 
L 140.902828 149.636861 
L 140.983992 150.798993 
L 141.146319 157.194486 
L 141.454741 180.748309 
L 142.233912 242.454902 
L 142.607265 255.534964 
L 142.915687 260.081494 
L 143.110479 260.820924 
L 143.126712 260.815592 
L 143.224108 260.569193 
L 143.386436 259.315587 
L 143.613694 255.567068 
L 143.88965 247.03809 
L 144.214305 229.547614 
L 144.685054 189.783299 
L 145.188268 152.893237 
L 145.366828 149.566014 
L 145.383061 149.601742 
L 145.464225 150.635225 
L 145.626552 156.794847 
L 145.918741 178.605948 
L 146.74661 243.665553 
L 147.119963 256.083892 
L 147.428385 260.261758 
L 147.606945 260.819274 
L 147.623178 260.808389 
L 147.720574 260.528381 
L 147.882901 259.215232 
L 148.110159 255.367171 
L 148.402348 245.998843 
L 148.743236 226.663238 
L 149.278916 180.015556 
L 149.700967 152.024685 
L 149.847061 149.568684 
L 149.879527 149.645384 
L 149.976923 151.239535 
L 150.155483 159.157147 
L 150.49637 186.91646 
L 151.178145 240.885809 
L 151.56773 255.195729 
L 151.876152 259.963409 
L 152.087178 260.820858 
L 152.168341 260.687608 
L 152.314436 259.792983 
L 152.525461 256.873205 
L 152.801418 249.454382 
L 153.126072 233.682928 
L 153.548123 200.216749 
L 154.164967 152.838209 
L 154.343527 149.566907 
L 154.359759 149.607883 
L 154.440923 150.667371 
L 154.60325 156.874775 
L 154.895439 178.740086 
L 155.723308 243.735704 
L 156.096661 256.115353 
L 156.405083 260.271641 
L 156.583643 260.8187 
L 156.599876 260.806881 
L 156.697272 260.521219 
L 156.859599 259.198031 
L 157.086858 255.333151 
L 157.379047 245.935654 
L 157.719934 226.556558 
L 158.255614 179.881854 
L 158.677665 151.977126 
L 158.823759 149.567194 
L 158.856225 149.654389 
L 158.953621 151.279543 
L 159.132181 159.247672 
L 159.473068 187.056412 
L 160.154843 240.963131 
L 160.544428 255.230554 
L 160.85285 259.975745 
L 161.063876 260.820708 
L 161.145039 260.682776 
L 161.291134 259.77938 
L 161.502159 256.845001 
L 161.778116 249.401046 
L 162.10277 233.589974 
L 162.524821 200.079591 
L 163.141665 152.783619 
L 163.320225 149.568281 
L 163.336458 149.614506 
L 163.417621 150.699987 
L 163.579948 156.9551 
L 163.872138 178.874363 
L 164.683774 243.032719 
L 165.057127 255.798346 
L 165.365548 260.169768 
L 165.544108 260.820617 
L 165.560341 260.81804 
L 165.641505 260.652227 
L 165.787599 259.696479 
L 166.014858 256.352182 
L 166.290814 248.478033 
L 166.615468 231.993635 
L 167.053752 196.250755 
L 167.621898 153.058207 
L 167.800458 149.566185 
L 167.81669 149.586421 
L 167.881621 150.238362 
L 168.027716 154.944652 
L 168.287439 172.540351 
L 169.277636 247.699322 
L 169.634756 257.551032 
L 169.926945 260.591451 
L 170.040574 260.820471 
L 170.073039 260.794032 
L 170.186668 260.378523 
L 170.365228 258.660964 
L 170.608719 253.880724 
L 170.900908 243.287517 
L 171.258028 220.918131 
L 172.264458 149.63882 
L 172.296923 149.570137 
L 172.329388 149.73027 
L 172.426785 151.570417 
L 172.621578 160.924636 
L 173.011163 194.17211 
L 173.611774 240.656443 
L 174.001359 255.092185 
L 174.326014 260.05894 
L 174.520807 260.820804 
L 174.537039 260.817294 
L 174.618203 260.646793 
L 174.764298 259.682224 
L 174.991556 256.321897 
L 175.267512 248.42183 
L 175.592167 231.89717 
L 176.03045 196.112198 
L 176.598596 153.001891 
L 176.777156 149.565657 
L 176.793388 149.591142 
L 176.874552 150.573841 
L 177.036879 156.639994 
L 177.329068 178.344562 
L 178.156938 243.528102 
L 178.53029 256.022137 
L 178.838712 260.24221 
L 179.017272 260.820149 
L 179.033505 260.811085 
L 179.130901 260.542106 
L 179.293228 259.248521 
L 179.520487 255.433206 
L 179.812676 246.121671 
L 180.153563 226.870891 
L 180.689243 180.27684 
L 181.111294 152.118796 
L 181.273621 149.572475 
L 181.289854 149.629195 
L 181.371018 150.766625 
L 181.533345 157.11693 
L 181.841767 180.618825 
L 182.620938 242.384944 
L 182.99429 255.502907 
L 183.302712 260.07054 
L 183.497505 260.820906 
L 183.513738 260.816463 
L 183.594901 260.641272 
L 183.740996 259.667874 
L 183.968254 256.291493 
L 184.24421 248.365465 
L 184.568865 231.800508 
L 185.007148 195.973609 
L 185.575294 152.946011 
L 185.753854 149.565611 
L 185.770087 149.596344 
L 185.85125 150.605069 
L 186.013578 156.719149 
L 186.305767 178.478424 
L 187.133636 243.598618 
L 187.506988 256.053838 
L 187.81541 260.252269 
L 187.99397 260.819742 
L 188.010203 260.809745 
L 188.107599 260.535115 
L 188.269927 259.231511 
L 188.497185 255.39943 
L 188.789374 246.058818 
L 189.130261 226.764584 
L 189.665941 180.142906 
L 190.087992 152.070363 
L 190.234087 149.57055 
L 190.266552 149.637262 
L 190.347716 150.800648 
L 190.510043 157.198434 
L 190.818465 180.754887 
L 191.597636 242.45845 
L 191.970988 255.536588 
L 192.27941 260.082048 
L 192.474203 260.820922 
L 192.490436 260.815546 
L 192.587832 260.568874 
L 192.750159 259.314786 
L 192.977418 255.565462 
L 193.253374 247.035179 
L 193.578028 229.542722 
L 194.048778 189.776591 
L 194.551992 152.890567 
L 194.730552 149.566046 
L 194.746785 149.602028 
L 194.827948 150.636768 
L 194.990276 156.798701 
L 195.282465 178.612428 
L 196.110334 243.668947 
L 196.483687 256.085416 
L 196.792108 260.262238 
L 196.970668 260.819249 
L 196.986901 260.808318 
L 197.084298 260.528037 
L 197.246625 259.214403 
L 197.473883 255.365529 
L 197.766072 245.995793 
L 198.106959 226.658086 
L 198.642639 180.009091 
L 199.06469 152.022377 
L 199.210785 149.568601 
L 199.24325 149.645809 
L 199.340647 151.241458 
L 199.519207 159.161514 
L 199.860094 186.923223 
L 200.541868 240.88955 
L 200.931454 255.197415 
L 201.239876 259.964007 
L 201.450901 260.820853 
L 201.532065 260.687376 
L 201.678159 259.792328 
L 201.889185 256.871844 
L 202.165141 249.451808 
L 202.489796 233.67844 
L 202.911847 200.210121 
L 203.52869 152.83556 
L 203.70725 149.566963 
L 203.723483 149.608193 
L 203.804647 150.668937 
L 203.966974 156.878649 
L 204.259163 178.746573 
L 205.087032 243.73909 
L 205.460385 256.116871 
L 205.768807 260.272116 
L 205.947367 260.81867 
L 205.963599 260.806806 
L 206.060996 260.520871 
L 206.223323 259.197198 
L 206.450581 255.331504 
L 206.74277 245.932595 
L 207.083658 226.551396 
L 207.619338 179.875395 
L 208.041388 151.974839 
L 208.187483 149.567135 
L 208.219948 149.654837 
L 208.317345 151.281488 
L 208.495905 159.252057 
L 208.836792 187.063179 
L 209.518567 240.966864 
L 209.908152 255.232234 
L 210.216574 259.976339 
L 210.427599 260.820698 
L 210.508763 260.68254 
L 210.654858 259.77872 
L 210.865883 256.843635 
L 211.141839 249.398464 
L 211.466494 233.585476 
L 211.888545 200.07296 
L 212.505388 152.780991 
L 212.683948 149.56836 
L 212.700181 149.614839 
L 212.781345 150.701575 
L 212.943672 156.958992 
L 213.235861 178.880857 
L 214.047498 243.036194 
L 214.42085 255.799922 
L 214.729272 260.170287 
L 214.907832 260.820628 
L 214.924065 260.818006 
L 215.005228 260.651966 
L 215.151323 259.695792 
L 215.378581 256.35072 
L 215.654538 248.47532 
L 215.979192 231.988977 
L 216.417476 196.244058 
L 216.985621 153.055475 
L 217.164181 149.566149 
L 217.180414 149.586638 
L 217.245345 150.239589 
L 217.391439 154.948019 
L 217.651163 172.546439 
L 218.641359 247.702176 
L 218.998479 257.552264 
L 219.290668 260.591756 
L 219.404298 260.820457 
L 219.436763 260.793928 
L 219.550392 260.378098 
L 219.728952 258.659991 
L 219.972443 253.878828 
L 220.264632 243.284118 
L 220.621752 220.912517 
L 221.628181 149.638415 
L 221.660647 149.57024 
L 221.693112 149.73088 
L 221.790508 151.572518 
L 221.985301 160.929329 
L 222.374887 194.178921 
L 222.975498 240.660213 
L 223.365083 255.09389 
L 223.689738 260.059503 
L 223.88453 260.820811 
L 223.900763 260.817256 
L 223.981927 260.646528 
L 224.128021 259.681532 
L 224.355279 256.32043 
L 224.631236 248.419109 
L 224.95589 231.892502 
L 225.394174 196.105499 
L 225.962319 152.99918 
L 226.140879 149.565644 
L 226.157112 149.591382 
L 226.238276 150.57534 
L 226.400603 156.643811 
L 226.692792 178.35103 
L 227.520661 243.531515 
L 227.894014 256.023672 
L 228.202436 260.242698 
L 228.380996 260.820131 
L 228.397228 260.811022 
L 228.494625 260.54177 
L 228.656952 259.247701 
L 228.88421 255.431576 
L 229.176399 246.118636 
L 229.517287 226.865756 
L 230.052967 180.270362 
L 230.475018 152.116445 
L 230.637345 149.5726 
L 230.653578 149.629575 
L 230.734741 150.76826 
L 230.897068 157.120861 
L 231.20549 180.6254 
L 231.984661 242.388502 
L 232.358014 255.504538 
L 232.666436 260.071098 
L 232.861228 260.820909 
L 232.877461 260.81642 
L 232.958625 260.641003 
L 233.104719 259.667178 
L 233.331978 256.29002 
L 233.607934 248.362736 
L 233.932588 231.79583 
L 234.370872 195.966909 
L 234.939018 152.943321 
L 235.117578 149.565621 
L 235.13381 149.596608 
L 235.214974 150.606591 
L 235.377301 156.722986 
L 235.66949 178.484899 
L 236.497359 243.602022 
L 236.870712 256.055367 
L 237.179134 260.252753 
L 237.357694 260.81972 
L 237.373927 260.809678 
L 237.471323 260.534775 
L 237.63365 259.230686 
L 237.860908 255.397794 
L 238.153098 246.055775 
L 238.493985 226.75944 
L 239.029665 180.136434 
L 239.451716 152.068033 
L 239.59781 149.570445 
L 239.630276 149.637664 
L 239.711439 150.802305 
L 239.873767 157.202385 
L 240.182188 180.761469 
L 240.961359 242.461999 
L 241.334712 255.538214 
L 241.643134 260.082602 
L 241.837927 260.820921 
L 241.854159 260.815499 
L 241.951556 260.568554 
L 242.113883 259.313985 
L 242.341141 255.563856 
L 242.617098 247.032267 
L 242.941752 229.537827 
L 243.412501 189.76988 
L 243.915716 152.887898 
L 244.094276 149.56608 
L 244.110508 149.602315 
L 244.191672 150.638313 
L 244.353999 156.802557 
L 244.646188 178.618911 
L 245.474058 243.672343 
L 245.84741 256.086939 
L 246.155832 260.262717 
L 246.334392 260.819222 
L 246.350625 260.808247 
L 246.448021 260.527692 
L 246.610348 259.213573 
L 246.837607 255.363887 
L 247.129796 245.992741 
L 247.470683 226.652932 
L 248.006363 180.002624 
L 248.428414 152.020068 
L 248.574508 149.56852 
L 248.606974 149.646234 
L 248.70437 151.243383 
L 248.88293 159.165883 
L 249.223818 186.929989 
L 249.905592 240.893293 
L 250.295178 255.199102 
L 250.603599 259.964605 
L 250.814625 260.820847 
L 250.895788 260.687144 
L 251.041883 259.791672 
L 251.252908 256.870483 
L 251.528865 249.449232 
L 251.853519 233.673949 
L 252.27557 200.20349 
L 252.892414 152.832912 
L 253.070974 149.567019 
L 253.087207 149.608503 
L 253.16837 150.670504 
L 253.330698 156.882525 
L 253.622887 178.753063 
L 254.450756 243.742477 
L 254.824108 256.118389 
L 255.13253 260.272591 
L 255.31109 260.81864 
L 255.327323 260.806731 
L 255.424719 260.520522 
L 255.587047 259.196363 
L 255.814305 255.329855 
L 256.106494 245.929534 
L 256.447381 226.546232 
L 256.983061 179.868934 
L 257.405112 151.972552 
L 257.551207 149.567076 
L 257.583672 149.655286 
L 257.681068 151.283436 
L 257.859628 159.256444 
L 258.200516 187.069948 
L 258.88229 240.970597 
L 259.271876 255.233914 
L 259.580298 259.976933 
L 259.791323 260.820688 
L 259.872487 260.682304 
L 260.018581 259.778059 
L 260.229607 256.842268 
L 260.505563 249.395881 
L 260.830218 233.580975 
L 261.252268 200.066326 
L 261.869112 152.778364 
L 262.047672 149.56844 
L 262.063905 149.615173 
L 262.145068 150.703166 
L 262.307396 156.962888 
L 262.599585 178.887354 
L 263.411221 243.039671 
L 263.784574 255.801499 
L 264.092996 260.170806 
L 264.271556 260.820639 
L 264.287788 260.817971 
L 264.368952 260.651705 
L 264.515047 259.695105 
L 264.742305 256.349258 
L 265.018261 248.472605 
L 265.342916 231.984316 
L 265.781199 196.237358 
L 266.349345 153.052743 
L 266.527905 149.566114 
L 266.544138 149.586857 
L 266.609068 150.240817 
L 266.755163 154.951388 
L 267.014887 172.552529 
L 268.005083 247.705032 
L 268.362203 257.553495 
L 268.654392 260.59206 
L 268.768021 260.820444 
L 268.800487 260.793824 
L 268.914116 260.377673 
L 269.092676 258.659017 
L 269.336167 253.876931 
L 269.628356 243.280716 
L 269.985476 220.9069 
L 270.991905 149.638012 
L 271.02437 149.570343 
L 271.056836 149.73149 
L 271.154232 151.574621 
L 271.349025 160.934025 
L 271.73861 194.185735 
L 272.339221 240.663985 
L 272.728807 255.095595 
L 273.053461 260.060066 
L 273.248254 260.820818 
L 273.264487 260.817217 
L 273.34565 260.646262 
L 273.491745 259.68084 
L 273.719003 256.318961 
L 273.994959 248.416387 
L 274.319614 231.887831 
L 274.757898 196.098797 
L 275.326043 152.996469 
L 275.504603 149.565632 
L 275.520836 149.591624 
L 275.601999 150.576841 
L 275.764327 156.647632 
L 276.056516 178.357501 
L 276.884385 243.534929 
L 277.257738 256.025208 
L 277.566159 260.243186 
L 277.744719 260.820113 
L 277.760952 260.810959 
L 277.858348 260.541433 
L 278.020676 259.24688 
L 278.247934 255.429945 
L 278.540123 246.1156 
L 278.88101 226.860619 
L 279.41669 180.263882 
L 279.838741 152.114093 
L 280.001068 149.572727 
L 280.017301 149.629955 
L 280.098465 150.769896 
L 280.260792 157.124795 
L 280.569214 180.631979 
L 281.348385 242.392061 
L 281.721738 255.50617 
L 282.030159 260.071657 
L 282.224952 260.820911 
L 282.241185 260.816378 
L 282.322348 260.640733 
L 282.468443 259.666481 
L 282.695701 256.288546 
L 282.971658 248.360005 
L 283.296312 231.791149 
L 283.734596 195.960205 
L 284.302741 152.94063 
L 284.481301 149.565633 
L 284.497534 149.596873 
L 284.578698 150.608115 
L 284.741025 156.726825 
L 285.033214 178.491378 
L 285.861083 243.605428 
L 286.234436 256.056897 
L 286.542858 260.253237 
L 286.721418 260.819698 
L 286.73765 260.80961 
L 286.835047 260.534434 
L 286.997374 259.22986 
L 287.224632 255.396157 
L 287.516821 246.05273 
L 287.857708 226.754293 
L 288.393388 180.129959 
L 288.815439 152.065703 
L 288.961534 149.570341 
L 288.993999 149.638068 
L 289.075163 150.803964 
L 289.23749 157.206338 
L 289.545912 180.768053 
L 290.325083 242.465549 
L 290.698436 255.539839 
L 291.006858 260.083156 
L 291.20165 260.820919 
L 291.217883 260.815452 
L 291.315279 260.568235 
L 291.477607 259.313182 
L 291.704865 255.562248 
L 291.980821 247.029353 
L 292.305476 229.53293 
L 292.776225 189.763167 
L 293.279439 152.885228 
L 293.457999 149.566114 
L 293.474232 149.602604 
L 293.555396 150.639859 
L 293.717723 156.806416 
L 294.009912 178.625396 
L 294.837781 243.675739 
L 295.211134 256.088463 
L 295.519556 260.263197 
L 295.698116 260.819196 
L 295.714348 260.808176 
L 295.811745 260.527347 
L 295.974072 259.212743 
L 296.20133 255.362244 
L 296.493519 245.989688 
L 296.834407 226.647775 
L 297.370087 179.996154 
L 297.792138 152.017759 
L 297.938232 149.568439 
L 297.970698 149.646661 
L 298.068094 151.24531 
L 298.246654 159.170256 
L 298.587541 186.936758 
L 299.269316 240.897037 
L 299.658901 255.200789 
L 299.967323 259.965204 
L 300.178348 260.820842 
L 300.259512 260.686912 
L 300.405607 259.791016 
L 300.616632 256.86912 
L 300.892588 249.446655 
L 301.217243 233.669456 
L 301.639294 200.196857 
L 302.256138 152.830263 
L 302.434698 149.567077 
L 302.45093 149.608815 
L 302.532094 150.672074 
L 302.694421 156.886403 
L 302.98661 178.759556 
L 303.814479 243.745865 
L 304.187832 256.119907 
L 304.496254 260.273066 
L 304.674814 260.818609 
L 304.691047 260.806655 
L 304.788443 260.520173 
L 304.95077 259.195528 
L 305.178028 255.328206 
L 305.470218 245.926472 
L 305.811105 226.541066 
L 306.346785 179.862469 
L 306.768836 151.970265 
L 306.91493 149.567019 
L 306.947396 149.655736 
L 307.044792 151.285385 
L 307.223352 159.260835 
L 307.564239 187.07672 
L 308.246014 240.974332 
L 308.635599 255.235595 
L 308.944021 259.977527 
L 309.155047 260.820678 
L 309.23621 260.682067 
L 309.382305 259.777398 
L 309.59333 256.8409 
L 309.869287 249.393296 
L 310.193941 233.576473 
L 310.615992 200.059688 
L 311.232836 152.775736 
L 311.411396 149.568522 
L 311.427628 149.615508 
L 311.508792 150.704758 
L 311.671119 156.966786 
L 311.963308 178.893854 
L 312.774945 243.043149 
L 313.148298 255.803077 
L 313.456719 260.171325 
L 313.635279 260.820649 
L 313.651512 260.817937 
L 313.732676 260.651444 
L 313.87877 259.694417 
L 314.106028 256.347795 
L 314.381985 248.469889 
L 314.706639 231.979653 
L 315.144923 196.230656 
L 315.713068 153.050011 
L 315.891628 149.566079 
L 315.907861 149.587077 
L 315.972792 150.242048 
L 316.118887 154.95476 
L 316.37861 172.558623 
L 317.368807 247.707888 
L 317.725927 257.554727 
L 318.018116 260.592365 
L 318.131745 260.820429 
L 318.16421 260.79372 
L 318.277839 260.377248 
L 318.456399 258.658043 
L 318.69989 253.875032 
L 318.992079 243.277313 
L 319.349199 220.901281 
L 320.355628 149.637609 
L 320.388094 149.570447 
L 320.420559 149.732102 
L 320.517956 151.576725 
L 320.712748 160.938724 
L 321.102334 194.192552 
L 321.702945 240.667757 
L 322.09253 255.097301 
L 322.417185 260.060628 
L 322.611978 260.820824 
L 322.62821 260.817178 
L 322.709374 260.645997 
L 322.855468 259.680147 
L 323.082727 256.317493 
L 323.358683 248.413663 
L 323.683338 231.883158 
L 324.121621 196.092093 
L 324.689767 152.993758 
L 324.868327 149.565622 
L 324.884559 149.591867 
L 324.965723 150.578343 
L 325.12805 156.651454 
L 325.420239 178.363975 
L 326.248108 243.538344 
L 326.621461 256.026744 
L 326.929883 260.243674 
L 327.108443 260.820095 
L 327.124676 260.810896 
L 327.222072 260.541096 
L 327.384399 259.246058 
L 327.611658 255.428313 
L 327.903847 246.112562 
L 328.244734 226.855479 
L 328.780414 180.2574 
L 329.202465 152.111742 
L 329.364792 149.572855 
L 329.381025 149.630337 
L 329.462188 150.771534 
L 329.624516 157.128732 
L 329.932938 180.63856 
L 330.712108 242.395621 
L 331.085461 255.507802 
L 331.393883 260.072215 
L 331.588676 260.820913 
L 331.604908 260.816335 
L 331.686072 260.640463 
L 331.832167 259.665784 
L 332.059425 256.287072 
L 332.335381 248.357273 
L 332.660036 231.786466 
L 333.098319 195.953498 
L 333.666465 152.93794 
L 333.845025 149.565645 
L 333.861258 149.59714 
L 333.942421 150.60964 
L 334.104748 156.730668 
L 334.396938 178.497859 
L 335.224807 243.608834 
L 335.598159 256.058427 
L 335.906581 260.253721 
L 336.085141 260.819675 
L 336.101374 260.809543 
L 336.19877 260.534093 
L 336.361098 259.229034 
L 336.588356 255.394518 
L 336.880545 246.049684 
L 337.221432 226.749143 
L 337.757112 180.123482 
L 338.179163 152.063373 
L 338.325258 149.570238 
L 338.357723 149.638473 
L 338.438887 150.805624 
L 338.601214 157.210294 
L 338.909636 180.77464 
L 339.688807 242.4691 
L 340.062159 255.541465 
L 340.370581 260.08371 
L 340.565374 260.820917 
L 340.581607 260.815405 
L 340.679003 260.567915 
L 340.84133 259.312379 
L 341.068588 255.56064 
L 341.344545 247.026437 
L 341.669199 229.528031 
L 342.139948 189.75645 
L 342.643163 152.882559 
L 342.821723 149.56615 
L 342.837956 149.602893 
L 342.919119 150.641408 
L 343.081447 156.810278 
L 343.373636 178.631885 
L 344.201505 243.679137 
L 344.574858 256.089987 
L 344.883279 260.263676 
L 345.061839 260.81917 
L 345.078072 260.808104 
L 345.175468 260.527002 
L 345.337796 259.211912 
L 345.565054 255.360599 
L 345.857243 245.986633 
L 346.19813 226.642616 
L 346.73381 179.989683 
L 347.155861 152.015451 
L 347.301956 149.568359 
L 347.334421 149.64709 
L 347.431818 151.247239 
L 347.610378 159.174631 
L 347.951265 186.94353 
L 348.633039 240.900781 
L 349.022625 255.202476 
L 349.331047 259.965802 
L 349.542072 260.820835 
L 349.623236 260.686679 
L 349.76933 259.790359 
L 349.980356 256.867757 
L 350.256312 249.444076 
L 350.580967 233.664961 
L 351.003018 200.19022 
L 351.619861 152.827615 
L 351.798421 149.567136 
L 351.814654 149.609128 
L 351.895818 150.673645 
L 352.058145 156.890284 
L 352.350334 178.766052 
L 353.178203 243.749254 
L 353.551556 256.121425 
L 353.859978 260.273542 
L 354.038538 260.818578 
L 354.05477 260.80658 
L 354.152167 260.519823 
L 354.314494 259.194692 
L 354.541752 255.326555 
L 354.833941 245.923409 
L 355.174828 226.535897 
L 355.710508 179.856003 
L 356.132559 151.967978 
L 356.278654 149.566962 
L 356.311119 149.656188 
L 356.408516 151.287337 
L 356.587076 159.265228 
L 356.927963 187.083494 
L 357.609738 240.978068 
L 357.999323 255.237276 
L 358.307745 259.97812 
L 358.51877 260.820668 
L 358.599934 260.681831 
L 358.746028 259.776737 
L 358.957054 256.839531 
L 359.23301 249.390709 
L 359.557665 233.571967 
L 359.979716 200.053048 
L 360.596559 152.773109 
L 360.775119 149.568604 
L 360.791352 149.615844 
L 360.872516 150.706352 
L 361.034843 156.970686 
L 361.327032 178.900357 
L 362.138668 243.046628 
L 362.512021 255.804655 
L 362.820443 260.171844 
L 362.999003 260.820659 
L 363.015236 260.817902 
L 363.096399 260.651182 
L 363.242494 259.693728 
L 363.469752 256.346331 
L 363.745708 248.467171 
L 364.070363 231.974987 
L 364.508647 196.22395 
L 365.076792 153.047279 
L 365.255352 149.566046 
L 365.271585 149.587298 
L 365.336516 150.243279 
L 365.48261 154.958134 
L 365.742334 172.564719 
L 366.73253 247.710745 
L 367.08965 257.555959 
L 367.381839 260.592669 
L 367.495468 260.820415 
L 367.527934 260.793615 
L 367.641563 260.376822 
L 367.820123 258.657068 
L 368.063614 253.873133 
L 368.355803 243.273908 
L 368.712923 220.895659 
L 369.719352 149.637207 
L 369.751818 149.570553 
L 369.784283 149.732715 
L 369.881679 151.578832 
L 370.076472 160.943425 
L 370.466058 194.199372 
L 371.066668 240.67153 
L 371.456254 255.099007 
L 371.780908 260.061191 
L 371.975701 260.82083 
L 371.991934 260.817139 
L 372.073098 260.645731 
L 372.219192 259.679454 
L 372.44645 256.316023 
L 372.722407 248.410937 
L 373.047061 231.878482 
L 373.485345 196.085385 
L 374.05349 152.991046 
L 374.23205 149.565612 
L 374.248283 149.592112 
L 374.329447 150.579847 
L 374.491774 156.655279 
L 374.783963 178.370452 
L 375.611832 243.54176 
L 375.985185 256.02828 
L 376.293607 260.244163 
L 376.472167 260.820077 
L 376.488399 260.810832 
L 376.585796 260.540759 
L 376.748123 259.245237 
L 376.975381 255.42668 
L 377.26757 246.109522 
L 377.608458 226.850336 
L 378.144138 180.250915 
L 378.566188 152.109391 
L 378.728516 149.572983 
L 378.744748 149.63072 
L 378.825912 150.773173 
L 378.988239 157.132671 
L 379.296661 180.645144 
L 380.075832 242.399182 
L 380.449185 255.509434 
L 380.757607 260.072774 
L 380.952399 260.820916 
L 380.968632 260.816292 
L 381.049796 260.640193 
L 381.19589 259.665086 
L 381.423148 256.285596 
L 381.699105 248.354539 
L 382.023759 231.78178 
L 382.462043 195.946788 
L 383.030188 152.935249 
L 383.208748 149.565659 
L 383.224981 149.597407 
L 383.306145 150.611167 
L 383.468472 156.734512 
L 383.760661 178.504344 
L 384.58853 243.612241 
L 384.961883 256.059958 
L 385.270305 260.254205 
L 385.448865 260.819653 
L 385.465098 260.809475 
L 385.562494 260.533752 
L 385.724821 259.228207 
L 385.952079 255.392879 
L 386.244268 246.046635 
L 386.585156 226.74399 
L 387.120836 180.117003 
L 387.542887 152.061043 
L 387.688981 149.570136 
L 387.721447 149.638879 
L 387.80261 150.807287 
L 387.964938 157.214253 
L 388.273359 180.781231 
L 389.05253 242.472652 
L 389.425883 255.543091 
L 389.734305 260.084264 
L 389.929098 260.820915 
L 389.94533 260.815358 
L 390.042727 260.567594 
L 390.205054 259.311576 
L 390.432312 255.55903 
L 390.708268 247.02352 
L 391.032923 229.523128 
L 391.503672 189.749731 
L 392.006887 152.879889 
L 392.185447 149.566187 
L 392.201679 149.603184 
L 392.282843 150.642958 
L 392.44517 156.814142 
L 392.737359 178.638377 
L 393.565228 243.682536 
L 393.938581 256.091512 
L 394.247003 260.264156 
L 394.425563 260.819143 
L 394.441796 260.808032 
L 394.539192 260.526656 
L 394.701519 259.211081 
L 394.928778 255.358954 
L 395.220967 245.983576 
L 395.561854 226.637454 
L 396.097534 179.983208 
L 396.519585 152.013143 
L 396.665679 149.568281 
L 396.698145 149.647519 
L 396.795541 151.24917 
L 396.974101 159.179008 
L 397.314988 186.950304 
L 397.996763 240.904527 
L 398.386348 255.204163 
L 398.69477 259.9664 
L 398.905796 260.820829 
L 398.986959 260.686446 
L 399.133054 259.789701 
L 399.344079 256.866393 
L 399.620036 249.441496 
L 399.94469 233.660463 
L 400.366741 200.183581 
L 400.983585 152.824966 
L 401.162145 149.567196 
L 401.178378 149.609442 
L 401.259541 150.675218 
L 401.421868 156.894168 
L 401.714058 178.772551 
L 402.541927 243.752643 
L 402.915279 256.122944 
L 403.223701 260.274017 
L 403.402261 260.818548 
L 403.418494 260.806503 
L 403.51589 260.519473 
L 403.678218 259.193856 
L 403.905476 255.324904 
L 404.197665 245.920343 
L 404.538552 226.530725 
L 405.074232 179.849534 
L 405.496283 151.965691 
L 405.642378 149.566907 
L 405.674843 149.656641 
L 405.772239 151.28929 
L 405.950799 159.269624 
L 406.291687 187.090272 
L 406.973461 240.981805 
L 407.363047 255.238958 
L 407.671468 259.978714 
L 407.882494 260.820658 
L 407.963658 260.681594 
L 408.109752 259.776075 
L 408.320778 256.838161 
L 408.596734 249.388121 
L 408.921388 233.56746 
L 409.343439 200.046405 
L 409.960283 152.770481 
L 410.138843 149.568687 
L 410.155076 149.616182 
L 410.236239 150.707948 
L 410.398567 156.974589 
L 410.690756 178.906864 
L 411.502392 243.050108 
L 411.875745 255.806233 
L 411.90821 256.487736 
L 411.90821 256.487736 
" clip-path="url(#pd1588cdf47)" style="fill: none; stroke: #bfbf00; stroke-width: 1.5; stroke-linecap: square"/>
   </g>
   <g id="patch_3">
    <path d="M 71.020938 280.150594 
L 71.020938 14.038594 
" style="fill: none; stroke: #000000; stroke-width: 0.8; stroke-linejoin: miter; stroke-linecap: square"/>
   </g>
   <g id="patch_4">
    <path d="M 428.140938 280.150594 
L 428.140938 14.038594 
" style="fill: none; stroke: #000000; stroke-width: 0.8; stroke-linejoin: miter; stroke-linecap: square"/>
   </g>
   <g id="patch_5">
    <path d="M 71.020938 280.150594 
L 428.140938 280.150594 
" style="fill: none; stroke: #000000; stroke-width: 0.8; stroke-linejoin: miter; stroke-linecap: square"/>
   </g>
   <g id="patch_6">
    <path d="M 71.020938 14.038594 
L 428.140938 14.038594 
" style="fill: none; stroke: #000000; stroke-width: 0.8; stroke-linejoin: miter; stroke-linecap: square"/>
   </g>
  </g>
 </g>
 <defs>
  <clipPath id="pd1588cdf47">
   <rect x="71.020938" y="14.038594" width="357.12" height="266.112"/>
  </clipPath>
 </defs>
</svg>
