<?xml version="1.0" encoding="utf-8" standalone="no"?>
<!DOCTYPE svg PUBLIC "-//W3C//DTD SVG 1.1//EN"
  "http://www.w3.org/Graphics/SVG/1.1/DTD/svg11.dtd">
<svg xmlns:xlink="http://www.w3.org/1999/xlink" width="442.01321pt" height="339.966531pt" viewBox="0 0 442.01321 339.966531" xmlns="http://www.w3.org/2000/svg" version="1.1">
 <metadata>
  <rdf:RDF xmlns:dc="http://purl.org/dc/elements/1.1/" xmlns:cc="http://creativecommons.org/ns#" xmlns:rdf="http://www.w3.org/1999/02/22-rdf-syntax-ns#">
   <cc:Work>
    <dc:type rdf:resource="http://purl.org/dc/dcmitype/StillImage"/>
    <dc:date>2025-05-29T13:14:12.956837</dc:date>
    <dc:format>image/svg+xml</dc:format>
    <dc:creator>
     <cc:Agent>
      <dc:title>Matplotlib v3.10.0, https://matplotlib.org/</dc:title>
     </cc:Agent>
    </dc:creator>
   </cc:Work>
  </rdf:RDF>
 </metadata>
 <defs>
  <style type="text/css">*{stroke-linejoin: round; stroke-linecap: butt}</style>
 </defs>
 <g id="figure_1">
  <g id="patch_1">
   <path d="M 0 339.966531 
L 442.01321 339.966531 
L 442.01321 0 
L 0 0 
z
" style="fill: #ffffff"/>
  </g>
  <g id="axes_1">
   <g id="patch_2">
    <path d="M 71.020938 280.150594 
L 428.140938 280.150594 
L 428.140938 14.038594 
L 71.020938 14.038594 
z
" style="fill: #ffffff"/>
   </g>
   <g id="matplotlib.axis_1">
    <g id="xtick_1">
     <g id="line2d_1">
      <defs>
       <path id="m2f413f3ef5" d="M 0 0 
L 0 3.5 
" style="stroke: #000000; stroke-width: 0.8"/>
      </defs>
      <g>
       <use xlink:href="#m2f413f3ef5" x="87.253665" y="280.150594" style="stroke: #000000; stroke-width: 0.8"/>
      </g>
     </g>
     <g id="text_1">
      <!-- 0 -->
      <g transform="translate(81.527415 300.827781) scale(0.18 -0.18)">
       <defs>
        <path id="DejaVuSans-30" d="M 2034 4250 
Q 1547 4250 1301 3770 
Q 1056 3291 1056 2328 
Q 1056 1369 1301 889 
Q 1547 409 2034 409 
Q 2525 409 2770 889 
Q 3016 1369 3016 2328 
Q 3016 3291 2770 3770 
Q 2525 4250 2034 4250 
z
M 2034 4750 
Q 2819 4750 3233 4129 
Q 3647 3509 3647 2328 
Q 3647 1150 3233 529 
Q 2819 -91 2034 -91 
Q 1250 -91 836 529 
Q 422 1150 422 2328 
Q 422 3509 836 4129 
Q 1250 4750 2034 4750 
z
" transform="scale(0.015625)"/>
       </defs>
       <use xlink:href="#DejaVuSans-30"/>
      </g>
     </g>
    </g>
    <g id="xtick_2">
     <g id="line2d_2">
      <g>
       <use xlink:href="#m2f413f3ef5" x="168.417301" y="280.150594" style="stroke: #000000; stroke-width: 0.8"/>
      </g>
     </g>
     <g id="text_2">
      <!-- 500 -->
      <g transform="translate(151.238551 300.827781) scale(0.18 -0.18)">
       <defs>
        <path id="DejaVuSans-35" d="M 691 4666 
L 3169 4666 
L 3169 4134 
L 1269 4134 
L 1269 2991 
Q 1406 3038 1543 3061 
Q 1681 3084 1819 3084 
Q 2600 3084 3056 2656 
Q 3513 2228 3513 1497 
Q 3513 744 3044 326 
Q 2575 -91 1722 -91 
Q 1428 -91 1123 -41 
Q 819 9 494 109 
L 494 744 
Q 775 591 1075 516 
Q 1375 441 1709 441 
Q 2250 441 2565 725 
Q 2881 1009 2881 1497 
Q 2881 1984 2565 2268 
Q 2250 2553 1709 2553 
Q 1456 2553 1204 2497 
Q 953 2441 691 2322 
L 691 4666 
z
" transform="scale(0.015625)"/>
       </defs>
       <use xlink:href="#DejaVuSans-35"/>
       <use xlink:href="#DejaVuSans-30" transform="translate(63.623047 0)"/>
       <use xlink:href="#DejaVuSans-30" transform="translate(127.246094 0)"/>
      </g>
     </g>
    </g>
    <g id="xtick_3">
     <g id="line2d_3">
      <g>
       <use xlink:href="#m2f413f3ef5" x="249.580938" y="280.150594" style="stroke: #000000; stroke-width: 0.8"/>
      </g>
     </g>
     <g id="text_3">
      <!-- 1000 -->
      <g transform="translate(226.675938 300.827781) scale(0.18 -0.18)">
       <defs>
        <path id="DejaVuSans-31" d="M 794 531 
L 1825 531 
L 1825 4091 
L 703 3866 
L 703 4441 
L 1819 4666 
L 2450 4666 
L 2450 531 
L 3481 531 
L 3481 0 
L 794 0 
L 794 531 
z
" transform="scale(0.015625)"/>
       </defs>
       <use xlink:href="#DejaVuSans-31"/>
       <use xlink:href="#DejaVuSans-30" transform="translate(63.623047 0)"/>
       <use xlink:href="#DejaVuSans-30" transform="translate(127.246094 0)"/>
       <use xlink:href="#DejaVuSans-30" transform="translate(190.869141 0)"/>
      </g>
     </g>
    </g>
    <g id="xtick_4">
     <g id="line2d_4">
      <g>
       <use xlink:href="#m2f413f3ef5" x="330.744574" y="280.150594" style="stroke: #000000; stroke-width: 0.8"/>
      </g>
     </g>
     <g id="text_4">
      <!-- 1500 -->
      <g transform="translate(307.839574 300.827781) scale(0.18 -0.18)">
       <use xlink:href="#DejaVuSans-31"/>
       <use xlink:href="#DejaVuSans-35" transform="translate(63.623047 0)"/>
       <use xlink:href="#DejaVuSans-30" transform="translate(127.246094 0)"/>
       <use xlink:href="#DejaVuSans-30" transform="translate(190.869141 0)"/>
      </g>
     </g>
    </g>
    <g id="xtick_5">
     <g id="line2d_5">
      <g>
       <use xlink:href="#m2f413f3ef5" x="411.90821" y="280.150594" style="stroke: #000000; stroke-width: 0.8"/>
      </g>
     </g>
     <g id="text_5">
      <!-- 2000 -->
      <g transform="translate(389.00321 300.827781) scale(0.18 -0.18)">
       <defs>
        <path id="DejaVuSans-32" d="M 1228 531 
L 3431 531 
L 3431 0 
L 469 0 
L 469 531 
Q 828 903 1448 1529 
Q 2069 2156 2228 2338 
Q 2531 2678 2651 2914 
Q 2772 3150 2772 3378 
Q 2772 3750 2511 3984 
Q 2250 4219 1831 4219 
Q 1534 4219 1204 4116 
Q 875 4013 500 3803 
L 500 4441 
Q 881 4594 1212 4672 
Q 1544 4750 1819 4750 
Q 2544 4750 2975 4387 
Q 3406 4025 3406 3419 
Q 3406 3131 3298 2873 
Q 3191 2616 2906 2266 
Q 2828 2175 2409 1742 
Q 1991 1309 1228 531 
z
" transform="scale(0.015625)"/>
       </defs>
       <use xlink:href="#DejaVuSans-32"/>
       <use xlink:href="#DejaVuSans-30" transform="translate(63.623047 0)"/>
       <use xlink:href="#DejaVuSans-30" transform="translate(127.246094 0)"/>
       <use xlink:href="#DejaVuSans-30" transform="translate(190.869141 0)"/>
      </g>
     </g>
    </g>
    <g id="text_6">
     <!-- $t$ -->
     <g transform="translate(244.580938 327.567312) scale(0.25 -0.25)">
      <defs>
       <path id="DejaVuSans-Oblique-74" d="M 2706 3500 
L 2619 3053 
L 1472 3053 
L 1100 1153 
Q 1081 1047 1072 975 
Q 1063 903 1063 863 
Q 1063 663 1183 572 
Q 1303 481 1569 481 
L 2150 481 
L 2053 0 
L 1503 0 
Q 991 0 739 200 
Q 488 400 488 806 
Q 488 878 497 964 
Q 506 1050 525 1153 
L 897 3053 
L 409 3053 
L 500 3500 
L 978 3500 
L 1172 4494 
L 1747 4494 
L 1556 3500 
L 2706 3500 
z
" transform="scale(0.015625)"/>
      </defs>
      <use xlink:href="#DejaVuSans-Oblique-74" transform="translate(0 0.78125)"/>
     </g>
    </g>
   </g>
   <g id="matplotlib.axis_2">
    <g id="ytick_1">
     <g id="line2d_6">
      <defs>
       <path id="m800a4a241e" d="M 0 0 
L -3.5 0 
" style="stroke: #000000; stroke-width: 0.8"/>
      </defs>
      <g>
       <use xlink:href="#m800a4a241e" x="71.020938" y="280.150594" style="stroke: #000000; stroke-width: 0.8"/>
      </g>
     </g>
     <g id="text_7">
      <!-- 0.0 -->
      <g transform="translate(35.395313 286.989187) scale(0.18 -0.18)">
       <defs>
        <path id="DejaVuSans-2e" d="M 684 794 
L 1344 794 
L 1344 0 
L 684 0 
L 684 794 
z
" transform="scale(0.015625)"/>
       </defs>
       <use xlink:href="#DejaVuSans-30"/>
       <use xlink:href="#DejaVuSans-2e" transform="translate(63.623047 0)"/>
       <use xlink:href="#DejaVuSans-30" transform="translate(95.410156 0)"/>
      </g>
     </g>
    </g>
    <g id="ytick_2">
     <g id="line2d_7">
      <g>
       <use xlink:href="#m800a4a241e" x="71.020938" y="147.094594" style="stroke: #000000; stroke-width: 0.8"/>
      </g>
     </g>
     <g id="text_8">
      <!-- 0.5 -->
      <g transform="translate(35.395313 153.933187) scale(0.18 -0.18)">
       <use xlink:href="#DejaVuSans-30"/>
       <use xlink:href="#DejaVuSans-2e" transform="translate(63.623047 0)"/>
       <use xlink:href="#DejaVuSans-35" transform="translate(95.410156 0)"/>
      </g>
     </g>
    </g>
    <g id="ytick_3">
     <g id="line2d_8">
      <g>
       <use xlink:href="#m800a4a241e" x="71.020938" y="14.038594" style="stroke: #000000; stroke-width: 0.8"/>
      </g>
     </g>
     <g id="text_9">
      <!-- 1.0 -->
      <g transform="translate(35.395313 20.877187) scale(0.18 -0.18)">
       <use xlink:href="#DejaVuSans-31"/>
       <use xlink:href="#DejaVuSans-2e" transform="translate(63.623047 0)"/>
       <use xlink:href="#DejaVuSans-30" transform="translate(95.410156 0)"/>
      </g>
     </g>
    </g>
    <g id="text_10">
     <!-- $x_i(t)$ -->
     <g transform="translate(26.196094 171.969594) rotate(-90) scale(0.25 -0.25)">
      <defs>
       <path id="DejaVuSans-Oblique-78" d="M 3841 3500 
L 2234 1784 
L 3219 0 
L 2559 0 
L 1819 1388 
L 531 0 
L -166 0 
L 1556 1844 
L 641 3500 
L 1300 3500 
L 1972 2234 
L 3144 3500 
L 3841 3500 
z
" transform="scale(0.015625)"/>
       <path id="DejaVuSans-Oblique-69" d="M 1172 4863 
L 1747 4863 
L 1606 4134 
L 1031 4134 
L 1172 4863 
z
M 909 3500 
L 1484 3500 
L 800 0 
L 225 0 
L 909 3500 
z
" transform="scale(0.015625)"/>
       <path id="DejaVuSans-28" d="M 1984 4856 
Q 1566 4138 1362 3434 
Q 1159 2731 1159 2009 
Q 1159 1288 1364 580 
Q 1569 -128 1984 -844 
L 1484 -844 
Q 1016 -109 783 600 
Q 550 1309 550 2009 
Q 550 2706 781 3412 
Q 1013 4119 1484 4856 
L 1984 4856 
z
" transform="scale(0.015625)"/>
       <path id="DejaVuSans-29" d="M 513 4856 
L 1013 4856 
Q 1481 4119 1714 3412 
Q 1947 2706 1947 2009 
Q 1947 1309 1714 600 
Q 1481 -109 1013 -844 
L 513 -844 
Q 928 -128 1133 580 
Q 1338 1288 1338 2009 
Q 1338 2731 1133 3434 
Q 928 4138 513 4856 
z
" transform="scale(0.015625)"/>
      </defs>
      <use xlink:href="#DejaVuSans-Oblique-78" transform="translate(0 0.125)"/>
      <use xlink:href="#DejaVuSans-Oblique-69" transform="translate(59.179688 -16.28125) scale(0.7)"/>
      <use xlink:href="#DejaVuSans-28" transform="translate(81.362305 0.125)"/>
      <use xlink:href="#DejaVuSans-Oblique-74" transform="translate(120.375977 0.125)"/>
      <use xlink:href="#DejaVuSans-29" transform="translate(159.584961 0.125)"/>
     </g>
    </g>
   </g>
   <g id="line2d_9">
    <path d="M 87.253665 194.994754 
L 88.146465 116.79918 
L 88.325025 113.978585 
L 88.341258 114.002621 
L 88.422421 114.79311 
L 88.584748 119.509224 
L 88.860705 135.422139 
L 90.305418 232.201756 
L 90.548908 235.355767 
L 90.581374 235.407463 
L 90.630072 235.316767 
L 90.743701 234.29582 
L 90.922261 230.248362 
L 91.181985 218.407522 
L 91.539105 190.141183 
L 92.350741 122.401332 
L 92.561767 118.541657 
L 92.610465 118.711199 
L 92.724094 120.561918 
L 92.935119 128.838622 
L 93.308472 154.429503 
L 94.233738 219.791961 
L 94.590858 230.6323 
L 94.78565 232.257162 
L 94.801883 232.250728 
L 94.866814 231.999686 
L 94.996676 230.380752 
L 95.207701 224.343287 
L 95.49989 208.38956 
L 95.970639 167.391765 
L 96.490087 128.535012 
L 96.733578 122.889799 
L 96.766043 122.849496 
L 96.798508 122.9721 
L 96.912138 124.63905 
L 97.123163 132.339116 
L 97.496516 156.399462 
L 98.421781 218.040556 
L 98.762668 227.758078 
L 98.957461 229.211778 
L 99.022392 229.001242 
L 99.152254 227.486322 
L 99.363279 221.723684 
L 99.655468 206.54993 
L 100.14245 166.713977 
L 100.645665 132.097582 
L 100.889156 126.923592 
L 100.921621 126.901054 
L 100.954087 127.031489 
L 101.067716 128.651341 
L 101.278741 135.988577 
L 101.652094 158.746903 
L 102.561127 215.915166 
L 102.902014 225.059726 
L 103.080574 226.284628 
L 103.096807 226.268809 
L 103.17797 225.862216 
L 103.324065 223.713121 
L 103.551323 216.549536 
L 103.875978 198.110126 
L 104.914872 131.566 
L 105.028501 130.688523 
L 105.060967 130.764898 
L 105.158363 131.834572 
L 105.336923 136.819411 
L 105.661578 153.634445 
L 106.781636 217.68144 
L 107.073825 223.11278 
L 107.171221 223.480623 
L 107.219919 223.382851 
L 107.333548 222.40438 
L 107.528341 218.19075 
L 107.804298 206.545984 
L 108.242581 176.670875 
L 108.843192 139.022347 
L 109.086683 134.293336 
L 109.119148 134.244592 
L 109.151614 134.330362 
L 109.24901 135.372941 
L 109.443803 140.705741 
L 109.78469 157.904412 
L 110.823585 214.474043 
L 111.132007 220.385108 
L 111.245636 220.801225 
L 111.278101 220.738287 
L 111.39173 219.865817 
L 111.586523 215.939704 
L 111.862479 205.016204 
L 112.300763 177.160648 
L 112.901374 142.111054 
L 113.144865 137.622679 
L 113.17733 137.565586 
L 113.226028 137.714993 
L 113.339658 139.124583 
L 113.550683 145.296436 
L 113.924036 164.230256 
L 114.816836 210.642793 
L 115.14149 217.557689 
L 115.287585 218.25594 
L 115.32005 218.197438 
L 115.417447 217.544498 
L 115.596007 214.445729 
L 115.85573 205.491492 
L 116.261548 182.519403 
L 116.943323 144.792604 
L 117.186814 140.708411 
L 117.219279 140.666747 
L 117.251745 140.741944 
L 117.349141 141.651342 
L 117.543934 146.30907 
L 117.884821 161.371128 
L 118.923716 210.907023 
L 119.215905 215.579067 
L 119.297068 215.842281 
L 119.345767 215.775473 
L 119.459396 214.951734 
L 119.654188 211.322426 
L 119.946378 200.689068 
L 120.449592 172.029843 
L 120.969039 147.211565 
L 121.21253 143.578627 
L 121.244996 143.560865 
L 121.277461 143.651533 
L 121.39109 144.798923 
L 121.602116 150.049845 
L 121.975468 166.468153 
L 122.884501 207.690983 
L 123.192923 213.114328 
L 123.306552 213.558006 
L 123.35525 213.479752 
L 123.468879 212.658761 
L 123.663672 209.143931 
L 123.955861 199.01228 
L 124.491541 170.418425 
L 124.978523 149.468019 
L 125.222014 146.255062 
L 125.254479 146.259248 
L 125.270712 146.299098 
L 125.368108 147.055619 
L 125.546668 150.595036 
L 125.85509 161.895126 
L 127.007614 208.729092 
L 127.267338 211.3705 
L 127.316036 211.389327 
L 127.348501 211.315861 
L 127.46213 210.510994 
L 127.656923 207.134436 
L 127.949112 197.527327 
L 128.517258 169.216872 
L 128.971774 151.624624 
L 129.199032 148.77735 
L 129.231498 148.747997 
L 129.263963 148.812243 
L 129.361359 149.55428 
L 129.556152 153.331229 
L 129.880807 164.87916 
L 130.952167 206.230031 
L 131.228123 209.299264 
L 131.276821 209.366839 
L 131.325519 209.287511 
L 131.439148 208.525116 
L 131.633941 205.330936 
L 131.92613 196.294688 
L 132.526741 168.462894 
L 132.965025 153.391344 
L 133.192283 151.075368 
L 133.240981 151.135686 
L 133.35461 152.019066 
L 133.549403 155.760706 
L 133.89029 167.41914 
L 134.896719 204.072557 
L 135.172676 207.316748 
L 135.253839 207.449138 
L 135.286305 207.393824 
L 135.399934 206.708076 
L 135.594727 203.751808 
L 135.886916 195.343994 
L 136.487527 169.511623 
L 136.92581 155.464262 
L 137.153068 153.239488 
L 137.201767 153.277898 
L 137.217999 153.330688 
L 137.331628 154.245514 
L 137.542654 158.268914 
L 137.916007 170.748521 
L 138.808807 201.595524 
L 139.100996 205.397683 
L 139.198392 205.656645 
L 139.24709 205.588935 
L 139.360719 204.91422 
L 139.555512 202.08144 
L 139.863934 193.579821 
L 141.065156 155.358013 
L 141.130087 155.239255 
L 141.178785 155.345755 
L 141.308647 156.423968 
L 141.535905 160.81792 
L 141.941723 174.07819 
L 142.737127 199.737537 
L 143.045548 203.705811 
L 143.142945 203.970185 
L 143.191643 203.916193 
L 143.305272 203.302848 
L 143.500065 200.674871 
L 143.808487 192.762924 
L 145.009708 157.225682 
L 145.074639 157.099367 
L 145.123338 157.185818 
L 145.236967 157.975837 
L 145.447992 161.44696 
L 145.821345 172.248376 
L 146.714145 199.047274 
L 147.006334 202.227435 
L 147.087498 202.390264 
L 147.136196 202.331651 
L 147.249825 201.735802 
L 147.444618 199.235007 
L 147.753039 191.790247 
L 148.938028 158.998643 
L 149.019192 158.827174 
L 149.06789 158.915951 
L 149.197752 159.834926 
L 149.42501 163.606951 
L 149.830828 175.066215 
L 150.626232 197.370412 
L 150.934654 200.730211 
L 151.03205 200.908917 
L 151.064516 200.870391 
L 151.178145 200.346944 
L 151.372938 198.060622 
L 151.681359 191.181162 
L 152.882581 160.552191 
L 152.947512 160.428131 
L 152.99621 160.490339 
L 153.109839 161.141142 
L 153.320865 164.081786 
L 153.677985 172.890174 
L 154.619483 197.154167 
L 154.895439 199.454849 
L 154.96037 199.525907 
L 155.009068 199.457913 
L 155.13893 198.76709 
L 155.349956 196.09976 
L 155.690843 188.284809 
L 156.713505 162.631433 
L 156.875832 161.914039 
L 156.908298 161.935007 
L 157.005694 162.321365 
L 157.184254 164.221756 
L 157.492676 170.46702 
L 158.677665 197.413776 
L 158.88869 198.231687 
L 158.969854 198.061646 
L 159.115948 197.073375 
L 159.359439 193.564605 
L 159.749025 184.133095 
L 160.528196 165.132563 
L 160.771687 163.319162 
L 160.820385 163.296287 
L 160.85285 163.344146 
L 160.966479 163.901055 
L 161.177505 166.42536 
L 161.534625 174.02019 
L 162.476123 195.04834 
L 162.752079 196.981377 
L 162.81701 197.020468 
L 162.849476 196.978949 
L 162.963105 196.512859 
L 163.157898 194.577495 
L 163.466319 188.907964 
L 164.618843 164.834725 
L 164.732472 164.568733 
L 164.764938 164.598194 
L 164.878567 165.063228 
L 165.073359 167.087067 
L 165.414247 173.536879 
L 166.436908 194.491382 
L 166.680399 195.872263 
L 166.74533 195.885525 
L 166.777796 195.834906 
L 166.907658 195.251646 
L 167.118683 193.044871 
L 167.45957 186.686756 
L 168.449767 166.554466 
L 168.644559 165.752495 
L 168.660792 165.756025 
L 168.741956 165.934749 
L 168.904283 167.068042 
L 169.180239 171.042455 
L 169.78085 184.100985 
L 170.300298 193.007654 
L 170.576254 194.790378 
L 170.657418 194.837532 
L 170.689883 194.793911 
L 170.819745 194.263191 
L 171.03077 192.224477 
L 171.371658 186.330128 
L 172.378087 167.504839 
L 172.572879 166.851519 
L 172.654043 167.00396 
L 172.81637 168.02904 
L 173.076094 171.411493 
L 173.611774 182.124661 
L 174.179919 191.792548 
L 174.472108 193.777362 
L 174.569505 193.858192 
L 174.60197 193.818377 
L 174.731832 193.326155 
L 174.942858 191.428784 
L 175.283745 185.94814 
L 176.273941 168.595879 
L 176.484967 167.868332 
L 176.56613 168.004275 
L 176.712225 168.811541 
L 176.971948 171.822821 
L 177.475163 181.057273 
L 178.092007 191.025168 
L 178.384196 192.871737 
L 178.481592 192.94398 
L 178.514058 192.905654 
L 178.643919 192.441416 
L 178.854945 190.664371 
L 179.195832 185.555618 
L 180.186028 169.482487 
L 180.397054 168.811499 
L 180.478218 168.938052 
L 180.624312 169.686809 
L 180.884036 172.479973 
L 181.38725 181.059364 
L 182.004094 190.328434 
L 182.296283 192.031496 
L 182.393679 192.091005 
L 182.426145 192.052537 
L 182.556007 191.608548 
L 182.767032 189.93535 
L 183.107919 185.163394 
L 184.098116 170.293747 
L 184.309141 169.686281 
L 184.406538 169.856336 
L 184.568865 170.746526 
L 184.844821 173.759429 
L 185.477898 184.059771 
L 185.964879 190.093996 
L 186.224603 191.275468 
L 186.305767 191.295318 
L 186.338232 191.255608 
L 186.468094 190.82631 
L 186.695352 189.080111 
L 187.052472 184.265421 
L 187.961505 171.336144 
L 188.188763 170.500413 
L 188.286159 170.580402 
L 188.432254 171.18226 
L 188.675745 173.335856 
L 189.130261 179.847888 
L 189.812036 188.975915 
L 190.104225 190.498855 
L 190.201621 190.564379 
L 190.234087 190.535439 
L 190.363948 190.16707 
L 190.574974 188.740903 
L 190.915861 184.644413 
L 191.906058 171.807481 
L 192.117083 171.246738 
L 192.214479 171.373733 
L 192.376807 172.108052 
L 192.652763 174.658546 
L 193.237141 182.848915 
L 193.756588 188.690529 
L 194.032545 189.850399 
L 194.129941 189.860682 
L 194.146174 189.841666 
L 194.276036 189.478025 
L 194.503294 187.978154 
L 194.860414 183.833204 
L 195.769447 172.692479 
L 196.012938 171.943946 
L 196.110334 172.038386 
L 196.272661 172.682185 
L 196.532385 174.825544 
L 197.051832 181.48588 
L 197.63621 187.964538 
L 197.912167 189.179615 
L 198.025796 189.229659 
L 198.042028 189.214729 
L 198.17189 188.897926 
L 198.382916 187.665774 
L 198.723803 184.130383 
L 199.713999 173.082382 
L 199.925025 172.588957 
L 200.022421 172.69177 
L 200.184748 173.312339 
L 200.460705 175.49187 
L 201.02885 182.350784 
L 201.56453 187.615986 
L 201.840487 188.621061 
L 201.954116 188.612097 
L 201.970348 188.590246 
L 202.116443 188.16539 
L 202.359934 186.600701 
L 202.765752 182.225645 
L 203.52869 174.103594 
L 203.788414 173.205104 
L 203.902043 173.240984 
L 204.048138 173.666897 
L 204.291628 175.232824 
L 204.729912 179.856904 
L 205.444152 186.997888 
L 205.720108 188.042983 
L 205.833738 188.081907 
L 205.866203 188.049903 
L 206.012298 187.671553 
L 206.255788 186.241312 
L 206.661607 182.202184 
L 207.424545 174.632146 
L 207.684268 173.765214 
L 207.797898 173.782551 
L 207.81413 173.804888 
L 207.976458 174.292502 
L 208.236181 175.968831 
L 208.739396 181.100888 
L 209.340007 186.524071 
L 209.632196 187.544255 
L 209.762058 187.545416 
L 209.908152 187.207787 
L 210.13541 186.012673 
L 210.524996 182.511433 
L 211.352865 174.951322 
L 211.612588 174.262038 
L 211.726218 174.329179 
L 211.888545 174.806476 
L 212.148268 176.394186 
L 212.667716 181.347756 
L 213.252094 186.175153 
L 213.52805 187.062501 
L 213.657912 187.074836 
L 213.674145 187.057688 
L 213.836472 186.661653 
L 214.079963 185.355307 
L 214.502014 181.644372 
L 215.216254 175.561238 
L 215.49221 174.751403 
L 215.622072 174.792396 
L 215.784399 175.219293 
L 216.044123 176.67129 
L 216.547338 181.102509 
L 217.147948 185.769793 
L 217.440138 186.631284 
L 217.586232 186.602833 
L 217.748559 186.208499 
L 218.008283 184.852226 
L 218.462799 181.029895 
L 219.112108 175.969532 
L 219.388065 175.196848 
L 219.517927 175.223738 
L 219.680254 175.606169 
L 219.939978 176.935162 
L 220.426959 180.893094 
L 221.043803 185.396495 
L 221.335992 186.215817 
L 221.482087 186.198611 
L 221.644414 185.841748 
L 221.904138 184.594622 
L 222.358654 181.057282 
L 223.007963 176.344823 
L 223.283919 175.609738 
L 223.430014 175.643509 
L 223.592341 176.021454 
L 223.852065 177.28485 
L 224.355279 181.11439 
L 224.95589 185.121831 
L 225.231847 185.82998 
L 225.377941 185.821973 
L 225.540268 185.498672 
L 225.799992 184.351307 
L 226.254508 181.077162 
L 226.92005 176.623591 
L 227.196007 175.981262 
L 227.342101 176.033859 
L 227.520661 176.461059 
L 227.81285 177.90088 
L 229.127701 185.471709 
L 229.273796 185.471209 
L 229.436123 185.178045 
L 229.695847 184.121989 
L 230.150363 181.091021 
L 230.815905 176.945479 
L 231.091861 176.335863 
L 231.237956 176.376633 
L 231.416516 176.763482 
L 231.692472 177.995102 
L 232.293083 182.026938 
L 232.796298 184.672425 
L 233.056021 185.16059 
L 233.202116 185.114116 
L 233.380676 184.745013 
L 233.656632 183.573001 
L 234.208545 179.984617 
L 234.727992 177.186205 
L 235.003948 176.656361 
L 235.150043 176.713386 
L 235.328603 177.094095 
L 235.620792 178.350169 
L 236.91941 184.830262 
L 237.081738 184.828519 
L 237.260298 184.519994 
L 237.536254 183.47537 
L 238.055701 180.377844 
L 238.623847 177.46317 
L 238.899803 176.961077 
L 239.045898 177.007861 
L 239.224458 177.35387 
L 239.516647 178.510094 
L 240.831498 184.555214 
L 240.993825 184.533814 
L 241.172385 184.22616 
L 241.448341 183.228899 
L 242.000254 180.146524 
L 242.535934 177.671869 
L 242.81189 177.237852 
L 242.974218 177.317462 
L 243.185243 177.778934 
L 243.509898 179.132432 
L 244.59749 184.134457 
L 244.824748 184.307529 
L 244.987076 184.153604 
L 245.230567 183.515163 
L 245.620152 181.725995 
L 246.448021 177.868903 
L 246.707745 177.499802 
L 246.870072 177.56838 
L 247.081098 177.990097 
L 247.405752 179.239038 
L 248.509578 183.920404 
L 248.736836 184.05706 
L 248.915396 183.869291 
L 249.175119 183.168508 
L 249.613403 181.187692 
L 250.31141 178.172461 
L 250.587367 177.748728 
L 250.749694 177.786221 
L 250.944487 178.106677 
L 251.252908 179.133411 
L 252.470363 183.774294 
L 252.665156 183.815709 
L 252.843716 183.602251 
L 253.119672 182.845887 
L 253.622887 180.638506 
L 254.207265 178.373673 
L 254.483221 177.97409 
L 254.661781 178.018667 
L 254.872807 178.371284 
L 255.197461 179.435261 
L 256.317519 183.510445 
L 256.544778 183.611982 
L 256.723338 183.437111 
L 256.983061 182.816496 
L 257.437578 181.024668 
L 258.103119 178.559585 
L 258.395308 178.177209 
L 258.573868 178.234731 
L 258.801127 178.617216 
L 259.158247 179.772589 
L 260.148443 183.22762 
L 260.408167 183.422263 
L 260.586727 183.300381 
L 260.830218 182.818763 
L 261.236036 181.418799 
L 262.031439 178.665578 
L 262.307396 178.367056 
L 262.485956 178.435493 
L 262.713214 178.807631 
L 263.070334 179.89792 
L 264.044298 183.053538 
L 264.304021 183.238696 
L 264.498814 183.108975 
L 264.758538 182.602766 
L 265.196821 181.145209 
L 265.911061 178.858745 
L 266.20325 178.546912 
L 266.398043 178.621964 
L 266.641534 179.01917 
L 267.031119 180.180063 
L 267.891454 182.818242 
L 268.16741 183.066941 
L 268.362203 182.984814 
L 268.605694 182.595639 
L 268.995279 181.470394 
L 269.855614 178.927189 
L 270.13157 178.710123 
L 270.326363 178.811448 
L 270.586087 179.251238 
L 271.02437 180.540803 
L 271.754843 182.62088 
L 272.047032 182.905276 
L 272.258058 182.834568 
L 272.501548 182.476139 
L 272.891134 181.434488 
L 273.751468 179.070083 
L 274.027425 178.864692 
L 274.23845 178.971996 
L 274.514407 179.430767 
L 274.985156 180.7571 
L 275.650698 182.490067 
L 275.942887 182.757831 
L 276.153912 182.694827 
L 276.413636 182.333889 
L 276.819454 181.305032 
L 277.63109 179.224668 
L 277.923279 179.008136 
L 278.134305 179.104811 
L 278.410261 179.527282 
L 278.88101 180.755886 
L 279.546552 182.368943 
L 279.854974 182.623813 
L 280.082232 182.538552 
L 280.358188 182.141459 
L 280.812705 181.008819 
L 281.510712 179.367599 
L 281.802901 179.142746 
L 282.030159 179.228326 
L 282.306116 179.617402 
L 282.776865 180.755483 
L 283.458639 182.278787 
L 283.767061 182.498421 
L 283.994319 182.40627 
L 284.286508 181.993637 
L 284.789723 180.792445 
L 285.406567 179.478142 
L 285.714988 179.264791 
L 285.942247 179.356633 
L 286.234436 179.759986 
L 286.753883 180.958893 
L 287.354494 182.173502 
L 287.662916 182.380432 
L 287.906407 182.283562 
L 288.198596 181.887468 
L 288.734276 180.685497 
L 289.318654 179.561253 
L 289.627076 179.378823 
L 289.870567 179.489766 
L 290.178988 179.920104 
L 290.828298 181.347782 
L 291.315279 182.144407 
L 291.607468 182.270454 
L 291.850959 182.140547 
L 292.175614 181.67477 
L 293.457999 179.493645 
L 293.717723 179.549268 
L 294.009912 179.877909 
L 294.513127 180.863023 
L 295.162436 182.00288 
L 295.470858 182.170054 
L 295.730581 182.064378 
L 296.055236 181.647651 
L 297.386319 179.586235 
L 297.646043 179.663061 
L 297.954465 180.016199 
L 298.555076 181.146172 
L 299.090756 181.948081 
L 299.399178 182.075103 
L 299.675134 181.938982 
L 300.032254 181.462651 
L 301.184778 179.705031 
L 301.460734 179.70364 
L 301.752923 179.945053 
L 302.207439 180.671337 
L 302.970378 181.853952 
L 303.295032 181.987739 
L 303.570988 181.863242 
L 303.928108 181.422848 
L 305.096865 179.782623 
L 305.389054 179.799212 
L 305.697476 180.064194 
L 306.216923 180.875893 
L 306.866232 181.780282 
L 307.190887 181.906605 
L 307.483076 181.780036 
L 307.856428 181.337806 
L 308.960254 179.873015 
L 309.268676 179.86744 
L 309.59333 180.118132 
L 310.112778 180.870273 
L 310.762087 181.712029 
L 311.102974 181.830334 
L 311.411396 181.690262 
L 311.817214 181.214491 
L 312.80741 179.966907 
L 313.132065 179.92739 
L 313.456719 180.135742 
L 313.943701 180.768784 
L 314.674174 181.659993 
L 315.015061 181.759141 
L 315.323483 181.619724 
L 315.745534 181.147927 
L 316.687032 180.040119 
L 317.027919 179.993466 
L 317.352574 180.185134 
L 317.855788 180.793859 
L 318.570028 181.600685 
L 318.927148 181.692723 
L 319.251803 181.542255 
L 319.706319 181.046377 
L 320.550421 180.116738 
L 320.907541 180.05146 
L 321.248428 180.231162 
L 321.767876 180.815813 
L 322.482116 181.555051 
L 322.839236 181.630792 
L 323.180123 181.470485 
L 323.683338 180.936249 
L 324.430043 180.179694 
L 324.787163 180.106249 
L 325.144283 180.274052 
L 325.66373 180.815632 
L 326.37797 181.503535 
L 326.751323 181.573075 
L 327.108443 181.404152 
L 327.660356 180.839986 
L 328.34213 180.221487 
L 328.715483 180.164838 
L 329.088836 180.350247 
L 329.705679 180.976156 
L 330.30629 181.47086 
L 330.679643 181.516281 
L 331.052996 181.330784 
L 331.702305 180.690053 
L 332.286683 180.248077 
L 332.660036 180.22417 
L 333.049621 180.433711 
L 334.526799 181.476257 
L 334.916385 181.320589 
L 335.516996 180.78285 
L 336.166305 180.29847 
L 336.55589 180.268958 
L 336.961708 180.474153 
L 338.406421 181.433217 
L 338.796007 181.298505 
L 339.396618 180.805047 
L 340.062159 180.33935 
L 340.467978 180.314114 
L 340.890028 180.52269 
L 342.26981 181.393111 
L 342.675628 181.276828 
L 343.276239 180.824475 
L 343.974247 180.372063 
L 344.396298 180.359962 
L 344.850814 180.589676 
L 346.100734 181.352537 
L 346.522785 181.270613 
L 347.09093 180.892771 
L 347.886334 180.402959 
L 348.324618 180.403078 
L 348.811599 180.65114 
L 349.94789 181.311818 
L 350.386174 181.254551 
L 350.938087 180.927423 
L 351.798421 180.432116 
L 352.236705 180.439098 
L 352.739919 180.685356 
L 353.827512 181.276609 
L 354.282028 181.226703 
L 354.866407 180.901865 
L 355.710508 180.459611 
L 356.165025 180.476791 
L 356.716938 180.746729 
L 357.690901 181.2412 
L 358.16165 181.205883 
L 358.746028 180.910236 
L 359.622596 180.48552 
L 360.093345 180.512026 
L 360.677723 180.791827 
L 361.586756 181.213101 
L 362.073738 181.176676 
L 362.706814 180.869655 
L 363.534683 180.509918 
L 364.037898 180.549623 
L 364.703439 180.868193 
L 365.498843 181.189302 
L 366.002058 181.144977 
L 366.683832 180.825754 
L 367.44677 180.532875 
L 367.966218 180.580205 
L 368.69669 180.916531 
L 369.427163 181.168624 
L 369.94661 181.11065 
L 370.758247 180.741836 
L 371.423788 180.549095 
L 371.959468 180.629066 
L 373.728836 181.12111 
L 374.41061 180.862507 
L 375.287178 180.573379 
L 375.83909 180.639588 
L 377.689621 181.088593 
L 378.485025 180.786204 
L 379.23173 180.590984 
L 379.816108 180.67857 
L 381.471847 181.0931 
L 382.169854 180.876549 
L 383.111352 180.610788 
L 383.711963 180.690533 
L 385.383934 181.07404 
L 386.130639 180.851548 
L 387.039672 180.627213 
L 387.672748 180.720079 
L 389.214858 181.066237 
L 389.94533 180.880887 
L 390.967992 180.643035 
L 391.633534 180.747456 
L 393.062014 181.055127 
L 393.792487 180.895399 
L 394.896312 180.658221 
L 395.594319 180.772567 
L 396.925403 181.04261 
L 397.672108 180.897993 
L 398.824632 180.672747 
L 399.571338 180.799841 
L 400.805025 181.029835 
L 401.584196 180.891135 
L 402.736719 180.686144 
L 403.51589 180.815828 
L 404.717112 181.016818 
L 405.528748 180.876713 
L 406.648807 180.698633 
L 407.476676 180.833995 
L 408.612967 181.005281 
L 409.473301 180.864084 
L 410.577127 180.710831 
L 411.469927 180.857419 
L 411.90821 180.949066 
L 411.90821 180.949066 
" clip-path="url(#pc7eb71d4a1)" style="fill: none; stroke: #bf00bf; stroke-width: 1.5; stroke-linecap: square"/>
   </g>
   <g id="line2d_10">
    <path d="M 87.253665 224.267074 
L 87.562087 233.519397 
L 87.708181 234.563523 
L 87.740647 234.531179 
L 87.838043 233.879769 
L 88.016603 230.584319 
L 88.276327 221.045586 
L 88.649679 197.938849 
L 89.883367 112.441222 
L 89.980763 111.799031 
L 90.013228 111.932565 
L 90.110625 113.406459 
L 90.289185 120.320856 
L 90.581374 142.192251 
L 91.555338 223.449973 
L 91.847527 230.678762 
L 91.961156 231.251555 
L 91.993621 231.20177 
L 92.091018 230.501112 
L 92.269578 227.128963 
L 92.545534 216.776337 
L 92.935119 192.418416 
L 94.022712 118.206178 
L 94.185039 116.214025 
L 94.201272 116.237494 
L 94.282436 116.985747 
L 94.42853 121.013372 
L 94.672021 135.010713 
L 95.191468 182.205696 
L 95.67845 217.136159 
L 95.986872 226.714148 
L 96.165432 228.043352 
L 96.181665 228.022382 
L 96.262828 227.575664 
L 96.425156 225.01744 
L 96.684879 216.488517 
L 97.058232 195.484011 
L 98.243221 121.248553 
L 98.35685 120.386645 
L 98.389316 120.48948 
L 98.486712 121.75407 
L 98.665272 127.792703 
L 98.957461 146.848562 
L 99.947658 218.807462 
L 100.223614 224.584649 
L 100.32101 224.956684 
L 100.353476 224.89771 
L 100.450872 224.186416 
L 100.629432 220.864483 
L 100.905388 210.855367 
L 101.311207 186.879914 
L 102.268938 127.378268 
L 102.479963 124.309099 
L 102.528661 124.461093 
L 102.64229 126.126145 
L 102.837083 133.190099 
L 103.161738 154.753038 
L 104.005839 213.747508 
L 104.314261 221.34791 
L 104.444123 221.995785 
L 104.476588 221.934091 
L 104.573985 221.227939 
L 104.752545 217.968181 
L 105.028501 208.223411 
L 105.450552 184.116602 
L 106.343352 131.526717 
L 106.57061 127.997237 
L 106.619308 128.093564 
L 106.716705 129.231391 
L 106.895265 134.562564 
L 107.187454 151.167926 
L 108.193883 214.440295 
L 108.453607 218.939974 
L 108.53477 219.168702 
L 108.583468 219.047701 
L 108.697098 218.031923 
L 108.908123 213.531068 
L 109.216545 201.350605 
L 109.735992 170.224438 
L 110.352836 136.593324 
L 110.612559 131.526018 
L 110.645025 131.442166 
L 110.693723 131.559141 
L 110.807352 132.977431 
L 111.002145 139.063667 
L 111.326799 157.637406 
L 112.187134 209.763059 
L 112.479323 215.966897 
L 112.592952 216.479135 
L 112.625418 216.43734 
L 112.722814 215.822808 
L 112.901374 212.855113 
L 113.17733 203.921235 
L 113.615614 181.15786 
L 114.42725 138.631911 
L 114.670741 134.701552 
L 114.703207 134.668636 
L 114.735672 134.756835 
L 114.833068 135.753794 
L 115.011628 140.390148 
L 115.32005 155.71658 
L 116.310247 209.847475 
L 116.56997 213.76783 
L 116.634901 213.924937 
L 116.683599 213.833297 
L 116.797228 212.937365 
L 116.992021 209.2717 
L 117.300443 198.493017 
L 117.836123 170.03039 
L 118.436734 141.813363 
L 118.696458 137.708477 
L 118.728923 137.679324 
L 118.761388 137.763046 
L 118.858785 138.695813 
L 119.037345 143.012945 
L 119.345767 157.237598 
L 120.335963 207.711415 
L 120.595687 211.374521 
L 120.660618 211.506271 
L 120.709316 211.40481 
L 120.822945 210.515574 
L 121.03397 206.549977 
L 121.358625 195.234861 
L 121.991701 162.891999 
L 122.478683 143.483806 
L 122.705941 140.508544 
L 122.738407 140.487833 
L 122.770872 140.572193 
L 122.884501 141.698654 
L 123.079294 146.552815 
L 123.403948 161.33313 
L 124.296748 204.544929 
L 124.572705 208.952931 
L 124.670101 209.22032 
L 124.702567 209.163456 
L 124.816196 208.402712 
L 125.010988 205.149621 
L 125.31941 195.504684 
L 125.871323 169.539593 
L 126.439468 146.614578 
L 126.682959 143.163461 
L 126.731658 143.102953 
L 126.764123 143.184553 
L 126.877752 144.241688 
L 127.072545 148.76037 
L 127.397199 162.468253 
L 128.306232 203.093358 
L 128.582188 206.913695 
L 128.647119 207.069944 
L 128.695818 207.005012 
L 128.809447 206.259065 
L 129.004239 203.129228 
L 129.312661 193.935873 
L 129.897039 168.017012 
L 130.416487 148.846954 
L 130.67621 145.554299 
L 130.708676 145.533818 
L 130.741141 145.603978 
L 130.85477 146.565121 
L 131.049563 150.720491 
L 131.374218 163.373801 
L 132.28325 201.269154 
L 132.559207 204.893342 
L 132.64037 205.040424 
L 132.672836 204.984208 
L 132.786465 204.280304 
L 132.981258 201.317223 
L 133.289679 192.627029 
L 133.89029 167.64325 
L 134.393505 150.680422 
L 134.636996 147.8298 
L 134.669461 147.79299 
L 134.718159 147.89538 
L 134.831788 148.870791 
L 135.026581 152.853074 
L 135.367468 165.423853 
L 136.244036 199.45293 
L 136.519992 202.972327 
L 136.601156 203.140301 
L 136.649854 203.054402 
L 136.763483 202.32113 
L 136.974508 199.077791 
L 137.299163 189.96747 
L 138.549083 150.109429 
L 138.630247 149.896219 
L 138.678945 150.00144 
L 138.792574 150.928967 
L 139.003599 155.075606 
L 139.360719 167.662041 
L 140.188588 197.622381 
L 140.464545 201.136682 
L 140.561941 201.352975 
L 140.594407 201.307346 
L 140.708036 200.693309 
L 140.902828 198.068375 
L 141.21125 190.364658 
L 141.876792 166.161227 
L 142.331308 153.826874 
L 142.558567 151.857506 
L 142.607265 151.884113 
L 142.623498 151.929145 
L 142.737127 152.749449 
L 142.931919 156.1336 
L 143.272807 166.861156 
L 144.165607 196.681428 
L 144.441563 199.584461 
L 144.506494 199.680944 
L 144.555192 199.607919 
L 144.668821 198.962191 
L 144.879847 196.086333 
L 145.204501 188.026284 
L 146.421956 153.947935 
L 146.519352 153.661755 
L 146.56805 153.74353 
L 146.681679 154.518919 
L 146.876472 157.674773 
L 147.217359 167.626393 
L 148.126392 195.594535 
L 148.386116 198.02955 
L 148.451047 198.113296 
L 148.499745 198.039291 
L 148.629607 197.280511 
L 148.840632 194.401703 
L 149.181519 186.155703 
L 150.31781 155.879201 
L 150.447672 155.345636 
L 150.480138 155.365729 
L 150.577534 155.797859 
L 150.756094 158.002492 
L 151.048283 164.997919 
L 152.184574 195.74629 
L 152.379367 196.648474 
L 152.395599 196.643523 
L 152.476763 196.436348 
L 152.63909 195.135165 
L 152.898814 190.811135 
L 153.337098 178.997598 
L 154.083803 159.279402 
L 154.343527 156.951236 
L 154.392225 156.908215 
L 154.440923 156.994227 
L 154.570785 157.851513 
L 154.78181 161.087455 
L 155.155163 171.013695 
L 155.950567 192.422816 
L 156.226523 195.118059 
L 156.323919 195.275529 
L 156.356385 195.235865 
L 156.470014 194.740653 
L 156.664807 192.660646 
L 156.989461 186.241247 
L 158.223148 158.54578 
L 158.320545 158.357969 
L 158.35301 158.401275 
L 158.466639 158.969851 
L 158.661432 161.393844 
L 158.986087 168.738242 
L 159.96005 192.403221 
L 160.203541 193.973617 
L 160.268472 193.98114 
L 160.300938 193.920375 
L 160.430799 193.255808 
L 160.658058 190.567271 
L 161.015178 183.175481 
L 162.021607 160.718739 
L 162.232632 159.699298 
L 162.297563 159.797946 
L 162.427425 160.580914 
L 162.654683 163.710858 
L 163.044268 172.86128 
L 163.790974 190.177826 
L 164.083163 192.686377 
L 164.164327 192.804837 
L 164.213025 192.754497 
L 164.326654 192.289023 
L 164.537679 190.198889 
L 164.878567 184.017187 
L 165.998625 161.444254 
L 166.160952 160.947758 
L 166.177185 160.960172 
L 166.274581 161.273178 
L 166.453141 162.879981 
L 166.74533 167.987994 
L 167.914087 191.187757 
L 168.092647 191.688687 
L 168.108879 191.677289 
L 168.206276 191.412329 
L 168.384836 190.08198 
L 168.677025 185.83043 
L 169.24517 173.364935 
L 169.78085 163.696821 
L 170.040574 162.115929 
L 170.105505 162.130951 
L 170.121738 162.16103 
L 170.251599 162.777443 
L 170.462625 165.127431 
L 170.835978 172.382864 
L 171.663847 188.785528 
L 171.939803 190.595764 
L 172.020967 190.643502 
L 172.053432 190.600712 
L 172.183294 190.082636 
L 172.394319 188.12335 
L 172.751439 182.253373 
L 173.774101 163.950901 
L 173.985127 163.174011 
L 174.06629 163.30924 
L 174.212385 164.157709 
L 174.455876 167.151625 
L 174.910392 176.15915 
L 175.543468 187.568471 
L 175.835658 189.592826 
L 175.933054 189.67766 
L 175.965519 189.639777 
L 176.095381 189.163674 
L 176.306407 187.344249 
L 176.663527 181.878173 
L 177.686188 164.88163 
L 177.897214 164.168088 
L 177.978378 164.295623 
L 178.124472 165.084815 
L 178.367963 167.860348 
L 178.822479 176.206493 
L 179.455556 186.809399 
L 179.747745 188.697374 
L 179.845141 188.776451 
L 179.877607 188.741014 
L 180.007468 188.296 
L 180.218494 186.595954 
L 180.575614 181.494822 
L 181.598276 165.733486 
L 181.809301 165.090273 
L 181.890465 165.215278 
L 182.036559 165.957679 
L 182.28005 168.542851 
L 182.734567 176.286393 
L 183.367643 186.121694 
L 183.659832 187.867374 
L 183.757228 187.936107 
L 183.789694 187.901344 
L 183.919556 187.479262 
L 184.130581 185.882298 
L 184.487701 181.112966 
L 185.49413 166.611847 
L 185.705156 165.944049 
L 185.786319 166.03141 
L 185.932414 166.668994 
L 186.175905 168.990619 
L 186.614188 175.822931 
L 187.27973 185.495486 
L 187.571919 187.097328 
L 187.669316 187.152739 
L 187.701781 187.11742 
L 187.831643 186.712269 
L 188.058901 185.049637 
L 188.432254 180.249527 
L 189.373752 167.516414 
L 189.60101 166.739058 
L 189.698407 166.829634 
L 189.844501 167.44156 
L 190.087992 169.621278 
L 190.542508 176.237028 
L 191.191818 184.92249 
L 191.467774 186.353443 
L 191.581403 186.422529 
L 191.597636 186.407302 
L 191.727498 186.06351 
L 191.938523 184.708242 
L 192.27941 180.827983 
L 193.318305 167.98007 
L 193.52933 167.471914 
L 193.626727 167.612157 
L 193.789054 168.363316 
L 194.06501 170.952972 
L 194.681854 179.689705 
L 195.152603 184.741785 
L 195.412327 185.736092 
L 195.509723 185.725471 
L 195.525956 185.703299 
L 195.67205 185.247398 
L 195.915541 183.536236 
L 196.321359 178.733552 
L 197.132996 169.122617 
L 197.392719 168.164345 
L 197.490116 168.201766 
L 197.63621 168.667564 
L 197.879701 170.451055 
L 198.301752 175.607919 
L 198.999759 183.794617 
L 199.291948 185.078228 
L 199.405578 185.107261 
L 199.42181 185.08964 
L 199.567905 184.691353 
L 199.795163 183.270657 
L 200.184748 179.111011 
L 201.045083 169.631328 
L 201.304807 168.78998 
L 201.402203 168.84294 
L 201.548298 169.300931 
L 201.791788 170.990617 
L 202.230072 176.009505 
L 202.911847 183.354463 
L 203.187803 184.484372 
L 203.301432 184.529482 
L 203.333898 184.496736 
L 203.479992 184.103961 
L 203.723483 182.622846 
L 204.129301 178.465644 
L 204.924705 170.284756 
L 205.184428 169.391438 
L 205.298058 169.414911 
L 205.444152 169.819854 
L 205.687643 171.356839 
L 206.109694 175.790385 
L 206.807701 182.846049 
L 207.09989 183.955315 
L 207.213519 183.979457 
L 207.229752 183.964023 
L 207.375847 183.617108 
L 207.603105 182.382606 
L 207.99269 178.777151 
L 208.853025 170.624102 
L 209.096516 169.925383 
L 209.210145 169.968342 
L 209.356239 170.369862 
L 209.59973 171.831342 
L 210.038014 176.151642 
L 210.719788 182.474109 
L 210.995745 183.443777 
L 211.125607 183.466651 
L 211.141839 183.449747 
L 211.287934 183.104541 
L 211.531425 181.813558 
L 211.937243 178.208246 
L 212.732647 171.180325 
L 212.99237 170.432042 
L 213.122232 170.483134 
L 213.284559 170.946395 
L 213.544283 172.515888 
L 214.047498 177.303645 
L 214.631876 182.126589 
L 214.907832 182.987438 
L 215.037694 182.98855 
L 215.053927 182.970318 
L 215.216254 182.569643 
L 215.475978 181.174494 
L 215.930494 177.23012 
L 216.612268 171.692937 
L 216.888225 170.901787 
L 217.018087 170.938595 
L 217.180414 171.355082 
L 217.440138 172.792066 
L 217.927119 177.064931 
L 218.52773 181.724107 
L 218.803687 182.546672 
L 218.949781 182.542844 
L 219.112108 182.182838 
L 219.371832 180.90207 
L 219.826348 177.249376 
L 220.508123 172.088736 
L 220.784079 171.337257 
L 220.913941 171.362371 
L 221.076268 171.737401 
L 221.335992 173.05417 
L 221.822974 177.004914 
L 222.423585 181.353762 
L 222.715774 182.152407 
L 222.861868 182.1274 
L 223.024196 181.769618 
L 223.283919 180.547059 
L 223.754668 176.98992 
L 224.403978 172.453113 
L 224.679934 171.740932 
L 224.826028 171.774547 
L 224.988356 172.147229 
L 225.248079 173.400981 
L 225.751294 177.220513 
L 226.335672 181.081208 
L 226.611628 181.7725 
L 226.757723 181.758238 
L 226.92005 181.43497 
L 227.179774 180.310697 
L 227.650523 177.015027 
L 228.299832 172.788797 
L 228.575788 172.115125 
L 228.721883 172.13877 
L 228.88421 172.476107 
L 229.143934 173.627212 
L 229.647148 177.161301 
L 230.231527 180.762987 
L 230.507483 181.419765 
L 230.653578 181.414323 
L 230.815905 181.121984 
L 231.075628 180.087673 
L 231.530145 177.151052 
L 232.211919 173.038149 
L 232.487876 172.451365 
L 232.63397 172.494463 
L 232.81253 172.879026 
L 233.088487 174.104176 
L 233.70533 178.222771 
L 234.192312 180.686095 
L 234.452036 181.118571 
L 234.59813 181.043623 
L 234.792923 180.597444 
L 235.101345 179.200908 
L 236.335032 172.81303 
L 236.497359 172.779708 
L 236.659687 173.029275 
L 236.91941 173.963806 
L 237.373927 176.643895 
L 238.023236 180.198769 
L 238.315425 180.799798 
L 238.477752 180.76863 
L 238.656312 180.435836 
L 238.948501 179.301213 
L 239.549112 175.763805 
L 240.052327 173.450155 
L 240.31205 173.05872 
L 240.458145 173.13299 
L 240.652938 173.554797 
L 240.961359 174.859794 
L 242.130116 180.436718 
L 242.324908 180.527072 
L 242.487236 180.333831 
L 242.730727 179.623005 
L 243.152778 177.531047 
L 243.915716 173.793731 
L 244.191672 173.340355 
L 244.353999 173.399664 
L 244.548792 173.785152 
L 244.857214 174.988376 
L 246.02597 180.177718 
L 246.220763 180.267921 
L 246.38309 180.093351 
L 246.626581 179.439226 
L 247.032399 177.587324 
L 247.827803 173.982371 
L 248.103759 173.591768 
L 248.266087 173.665042 
L 248.477112 174.087617 
L 248.801767 175.331911 
L 249.873127 179.867826 
L 250.100385 180.031212 
L 250.262712 179.894235 
L 250.506203 179.319548 
L 250.895788 177.709523 
L 251.73989 174.160817 
L 251.999614 173.829742 
L 252.161941 173.893775 
L 252.372967 174.280867 
L 252.697621 175.42942 
L 253.785214 179.67287 
L 254.012472 179.802947 
L 254.191032 179.635643 
L 254.450756 179.004978 
L 254.889039 177.221446 
L 255.603279 174.435054 
L 255.879236 174.055678 
L 256.057796 174.106374 
L 256.268821 174.461068 
L 256.593476 175.521421 
L 257.681068 179.468729 
L 257.908327 179.59473 
L 258.086887 179.443224 
L 258.34661 178.862135 
L 258.784894 177.209633 
L 259.499134 174.617428 
L 259.791323 174.255305 
L 259.969883 174.318704 
L 260.197141 174.703336 
L 260.554261 175.854027 
L 261.528225 179.210752 
L 261.787948 179.403601 
L 261.982741 179.264014 
L 262.242465 178.728556 
L 262.680748 177.197467 
L 263.411221 174.75385 
L 263.687178 174.445295 
L 263.88197 174.515989 
L 264.109228 174.89027 
L 264.482581 176.03501 
L 265.407847 179.014867 
L 265.66757 179.223637 
L 265.862363 179.116113 
L 266.122087 178.644179 
L 266.544138 177.304038 
L 267.307076 174.911996 
L 267.599265 174.618186 
L 267.794058 174.699212 
L 268.037548 175.098477 
L 268.427134 176.253294 
L 269.271236 178.80745 
L 269.547192 179.054407 
L 269.741985 178.975137 
L 269.985476 178.595962 
L 270.375061 177.500495 
L 271.235396 175.005794 
L 271.511352 174.779797 
L 271.706145 174.8693 
L 271.965868 175.290835 
L 272.387919 176.500878 
L 273.150858 178.639593 
L 273.443047 178.898433 
L 273.654072 178.813127 
L 273.913796 178.412694 
L 274.335847 177.262802 
L 275.115018 175.168612 
L 275.407207 174.931436 
L 275.618232 175.027121 
L 275.877956 175.433511 
L 276.316239 176.619174 
L 277.046712 178.509324 
L 277.338901 178.753604 
L 277.549927 178.677241 
L 277.80965 178.308375 
L 278.231701 177.243251 
L 279.010872 175.295608 
L 279.303061 175.072152 
L 279.514087 175.158369 
L 279.790043 175.564583 
L 280.244559 176.722988 
L 280.942567 178.388731 
L 281.234756 178.619129 
L 281.462014 178.537505 
L 281.73797 178.151152 
L 282.192487 177.047566 
L 282.890494 175.435158 
L 283.198916 175.202732 
L 283.426174 175.294236 
L 283.70213 175.684917 
L 284.189112 176.856776 
L 284.838421 178.277089 
L 285.146843 178.496125 
L 285.374101 178.40781 
L 285.66629 178.0064 
L 286.169505 176.835343 
L 286.802581 175.52203 
L 287.111003 175.322889 
L 287.338261 175.420197 
L 287.63045 175.824841 
L 288.16613 177.051792 
L 288.750508 178.193246 
L 289.05893 178.381118 
L 289.302421 178.273464 
L 289.610843 177.844027 
L 290.211454 176.503972 
L 290.730901 175.587069 
L 291.02309 175.435153 
L 291.266581 175.551335 
L 291.575003 175.98228 
L 292.289243 177.525697 
L 292.743759 178.187812 
L 293.019716 178.268013 
L 293.279439 178.098648 
L 293.636559 177.541912 
L 294.756618 175.583072 
L 295.032574 175.563443 
L 295.30853 175.800863 
L 295.714348 176.503579 
L 296.574683 178.038323 
L 296.883105 178.173248 
L 297.142828 178.044874 
L 297.483716 177.585283 
L 298.717403 175.650906 
L 298.977127 175.679333 
L 299.269316 175.957767 
L 299.740065 176.77847 
L 300.438072 177.923365 
L 300.762727 178.081408 
L 301.038683 177.963695 
L 301.37957 177.538948 
L 302.613258 175.740272 
L 302.889214 175.77292 
L 303.197636 176.0626 
L 303.717083 176.929869 
L 304.350159 177.860636 
L 304.674814 177.995081 
L 304.95077 177.875411 
L 305.30789 177.446772 
L 306.476647 175.833762 
L 306.768836 175.844098 
L 307.077258 176.099167 
L 307.580472 176.866972 
L 308.246014 177.788406 
L 308.586901 177.914468 
L 308.87909 177.780812 
L 309.268676 177.315371 
L 310.323803 175.930165 
L 310.632225 175.906132 
L 310.940647 176.118461 
L 311.411396 176.761774 
L 312.158101 177.733406 
L 312.498988 177.839229 
L 312.80741 177.692751 
L 313.229461 177.196026 
L 314.170959 176.024173 
L 314.495614 175.967489 
L 314.820268 176.155936 
L 315.291018 176.743182 
L 316.070188 177.68126 
L 316.411076 177.769042 
L 316.73573 177.610967 
L 317.190247 177.088802 
L 318.034348 176.105221 
L 318.375236 176.030023 
L 318.69989 176.19259 
L 319.170639 176.728012 
L 319.966043 177.622465 
L 320.323163 177.7036 
L 320.66405 177.535189 
L 321.151032 176.993578 
L 321.930203 176.162484 
L 322.287323 176.093588 
L 322.62821 176.265802 
L 323.131425 176.817416 
L 323.861898 177.567991 
L 324.219018 177.645066 
L 324.559905 177.490257 
L 325.063119 176.969018 
L 325.826058 176.21554 
L 326.183178 176.149981 
L 326.540298 176.320672 
L 327.075978 176.876202 
L 327.773985 177.525759 
L 328.147338 177.585807 
L 328.52069 177.400545 
L 329.121301 176.783515 
L 329.738145 176.257087 
L 330.111498 176.207878 
L 330.48485 176.395583 
L 331.117927 177.031029 
L 331.702305 177.492652 
L 332.075658 177.529613 
L 332.465243 177.328618 
L 333.211948 176.60063 
L 333.731396 176.268964 
L 334.104748 176.281188 
L 334.526799 176.544785 
L 335.776719 177.492405 
L 336.150072 177.424404 
L 336.620821 177.081828 
L 337.594785 176.322881 
L 337.98437 176.318908 
L 338.406421 176.554278 
L 339.705039 177.451063 
L 340.094625 177.364392 
L 340.614072 176.984555 
L 341.458174 176.373875 
L 341.863992 176.354788 
L 342.302276 176.576134 
L 343.617127 177.410903 
L 344.022945 177.315786 
L 344.59109 176.911844 
L 345.354028 176.41123 
L 345.776079 176.395956 
L 346.230596 176.618783 
L 347.496748 177.372191 
L 347.918799 177.28583 
L 348.503178 176.899079 
L 349.266116 176.441292 
L 349.704399 176.438171 
L 350.191381 176.679261 
L 351.327672 177.330904 
L 351.765956 177.276923 
L 352.334101 176.946294 
L 353.194436 176.46597 
L 353.648952 176.482311 
L 354.184632 176.75576 
L 355.174828 177.291117 
L 355.629345 177.259931 
L 356.181258 176.975472 
L 357.122756 176.4903 
L 357.593505 176.524455 
L 358.177883 176.824859 
L 359.05445 177.258587 
L 359.525199 177.233575 
L 360.109578 176.950508 
L 361.01861 176.518931 
L 361.505592 176.554292 
L 362.122436 176.856613 
L 362.966538 177.233879 
L 363.453519 177.200184 
L 364.086596 176.900558 
L 364.914465 176.545481 
L 365.417679 176.581841 
L 366.083221 176.8932 
L 366.878625 177.210623 
L 367.381839 177.1691 
L 368.079847 176.84868 
L 368.842785 176.565854 
L 369.362232 176.61664 
L 370.12517 176.965279 
L 370.83941 177.193314 
L 371.37509 177.12021 
L 373.209388 176.622411 
L 373.923628 176.912681 
L 374.719032 177.169629 
L 375.270945 177.103932 
L 377.121476 176.644357 
L 377.900647 176.94487 
L 378.663585 177.151873 
L 379.247963 177.064344 
L 380.903701 176.640077 
L 381.601708 176.85987 
L 382.543207 177.131692 
L 383.143818 177.052058 
L 384.815788 176.659524 
L 385.546261 176.879225 
L 386.471527 177.115071 
L 387.104603 177.021996 
L 388.646712 176.667661 
L 389.360952 176.84992 
L 390.399847 177.09905 
L 391.065388 176.994116 
L 392.493868 176.67912 
L 393.224341 176.840959 
L 394.328167 177.083666 
L 395.026174 176.968521 
L 396.357258 176.691968 
L 397.103963 176.838404 
L 398.256487 177.068943 
L 398.986959 176.945267 
L 400.253112 176.705617 
L 401.032283 176.849993 
L 402.168574 177.05533 
L 402.947745 176.924368 
L 404.132734 176.717774 
L 404.928138 176.851751 
L 406.096894 177.042142 
L 406.924763 176.901706 
L 408.044821 176.730069 
L 408.888923 176.869176 
L 410.008981 177.03026 
L 410.885548 176.885687 
L 411.90821 176.740265 
L 411.90821 176.740265 
" clip-path="url(#pc7eb71d4a1)" style="fill: none; stroke: #0000ff; stroke-width: 1.5; stroke-linecap: square"/>
   </g>
   <g id="line2d_11">
    <path d="M 87.253665 155.077954 
L 87.513388 174.136551 
L 88.406188 245.585676 
L 88.763308 256.451731 
L 89.039265 259.632767 
L 89.152894 259.911024 
L 89.201592 259.857787 
L 89.315221 259.328339 
L 89.510014 257.018581 
L 89.769738 250.655492 
L 90.078159 236.647618 
L 90.467745 207.147557 
L 91.133287 156.588686 
L 91.279381 154.215987 
L 91.311847 154.327503 
L 91.409243 156.052157 
L 91.587803 164.22875 
L 91.961156 194.807758 
L 92.561767 239.819771 
L 92.935119 253.082744 
L 93.227308 257.277672 
L 93.373403 257.795905 
L 93.405868 257.778888 
L 93.503265 257.440161 
L 93.665592 255.883793 
L 93.909083 250.928517 
L 94.201272 239.787594 
L 94.574625 215.583563 
L 95.386261 159.82849 
L 95.483658 158.900033 
L 95.532356 159.161355 
L 95.645985 161.62003 
L 95.85701 172.28509 
L 96.441388 218.907098 
L 96.895905 244.28327 
L 97.253025 253.463801 
L 97.512748 255.649146 
L 97.577679 255.689548 
L 97.610145 255.636012 
L 97.723774 255.058201 
L 97.918567 252.586578 
L 98.17829 245.954539 
L 98.502945 231.075385 
L 98.973694 196.983063 
L 99.460676 166.269506 
L 99.639236 163.254921 
L 99.655468 163.273605 
L 99.720399 163.841309 
L 99.866494 167.895059 
L 100.126218 182.832741 
L 101.083948 243.830131 
L 101.424836 251.800148 
L 101.668327 253.607867 
L 101.717025 253.624542 
L 101.74949 253.573097 
L 101.863119 252.996117 
L 102.057912 250.511493 
L 102.317636 243.894271 
L 102.64229 229.338396 
L 103.161738 193.599121 
L 103.600021 169.594914 
L 103.762348 167.29656 
L 103.794814 167.375507 
L 103.89221 168.688879 
L 104.07077 174.990324 
L 104.42789 197.749605 
L 105.093432 238.194795 
L 105.466785 248.756477 
L 105.742741 251.508952 
L 105.807672 251.609555 
L 105.85637 251.552379 
L 105.969999 250.9749 
L 106.164792 248.487356 
L 106.424516 241.921383 
L 106.765403 226.869594 
L 107.852996 171.042357 
L 107.869228 171.054273 
L 107.934159 171.515488 
L 108.080254 174.885812 
L 108.339978 187.433001 
L 109.362639 242.751622 
L 109.687294 248.68725 
L 109.882087 249.642216 
L 109.898319 249.639028 
L 109.979483 249.433555 
L 110.125578 248.258446 
L 110.352836 244.26512 
L 110.661258 234.165226 
L 111.083308 211.574833 
L 111.74885 176.629216 
L 111.92741 174.51022 
L 111.943643 174.542839 
L 112.024807 175.270913 
L 112.187134 179.408832 
L 112.495556 194.746468 
L 113.323425 238.20184 
L 113.680545 246.120983 
L 113.924036 247.732986 
L 113.988967 247.68108 
L 114.102596 247.106048 
L 114.297388 244.651702 
L 114.573345 237.777401 
L 114.930465 222.625046 
L 115.888196 178.0858 
L 115.969359 177.715127 
L 116.018058 177.908148 
L 116.131687 179.546599 
L 116.342712 186.53484 
L 116.813461 212.02023 
L 117.365374 236.887793 
L 117.722494 244.431064 
L 117.949752 245.893004 
L 117.99845 245.887679 
L 118.030916 245.822277 
L 118.160778 245.063847 
L 118.371803 242.096675 
L 118.663992 234.238917 
L 119.06981 216.243694 
L 119.816516 182.372811 
L 119.978843 180.677006 
L 120.011308 180.714075 
L 120.092472 181.356986 
L 120.254799 184.879576 
L 120.546988 197.049076 
L 121.456021 237.505096 
L 121.796908 243.322136 
L 121.991701 244.142746 
L 122.072865 243.96717 
L 122.218959 242.883361 
L 122.446218 239.188971 
L 122.754639 230.123523 
L 123.241621 207.833215 
L 123.793534 185.505011 
L 123.988327 183.409145 
L 124.004559 183.419849 
L 124.085723 183.904884 
L 124.24805 186.937583 
L 124.540239 197.88042 
L 125.49797 237.070853 
L 125.822625 241.880838 
L 125.984952 242.459521 
L 126.001185 242.452074 
L 126.082348 242.237345 
L 126.244676 240.916844 
L 126.488167 236.668387 
L 126.829054 226.126336 
L 127.965345 185.944614 
L 127.99781 185.948076 
L 128.014043 185.989401 
L 128.111439 186.785 
L 128.289999 190.526456 
L 128.630887 203.578705 
L 129.42629 234.371386 
L 129.767178 239.982134 
L 129.96197 240.853295 
L 129.978203 240.850867 
L 130.059367 240.666422 
L 130.205461 239.609749 
L 130.432719 236.098294 
L 130.757374 227.166356 
L 131.341752 203.236956 
L 131.780036 189.693856 
L 131.958596 188.262379 
L 131.974828 188.275546 
L 132.055992 188.701163 
L 132.218319 191.273512 
L 132.510508 200.524199 
L 133.516938 235.541113 
L 133.825359 239.055701 
L 133.938988 239.326668 
L 133.987687 239.275913 
L 134.101316 238.768975 
L 134.296108 236.63315 
L 134.588298 230.445379 
L 135.026581 215.363256 
L 135.708356 192.328849 
L 135.919381 190.412384 
L 135.968079 190.491761 
L 136.081708 191.436814 
L 136.292734 195.766648 
L 136.698552 210.093487 
L 137.364094 231.993597 
L 137.704981 237.100255 
L 137.899774 237.877938 
L 137.916007 237.872979 
L 137.99717 237.68778 
L 138.159498 236.516881 
L 138.402988 232.771815 
L 138.760108 223.224024 
L 139.799003 192.651643 
L 139.880167 192.394036 
L 139.928865 192.480928 
L 140.042494 193.37745 
L 140.253519 197.393114 
L 140.659338 210.631901 
L 141.324879 231.045919 
L 141.665767 235.818996 
L 141.860559 236.505497 
L 141.941723 236.354317 
L 142.087818 235.437461 
L 142.315076 232.38119 
L 142.655963 224.302961 
L 143.776021 194.32466 
L 143.840952 194.227254 
L 143.873418 194.289028 
L 143.987047 195.0764 
L 144.198072 198.702782 
L 144.587658 210.307811 
L 145.285665 230.303054 
L 145.626552 234.656632 
L 145.805112 235.209968 
L 145.821345 235.201183 
L 145.918741 234.942352 
L 146.097301 233.5559 
L 146.357025 229.486821 
L 146.762843 218.929185 
L 147.574479 197.14 
L 147.769272 195.910632 
L 147.785505 195.916509 
L 147.866668 196.197542 
L 148.028996 197.969902 
L 148.304952 204.048986 
L 149.441243 232.423242 
L 149.700967 233.964585 
L 149.765898 233.974232 
L 149.798363 233.922772 
L 149.928225 233.343423 
L 150.13925 231.14624 
L 150.463905 224.930484 
L 151.113214 206.640075 
L 151.519032 198.496308 
L 151.713825 197.468552 
L 151.778756 197.615783 
L 151.908618 198.63215 
L 152.152108 202.82905 
L 152.671556 217.020294 
L 153.223468 229.459944 
L 153.53189 232.509642 
L 153.677985 232.836521 
L 153.71045 232.810801 
L 153.824079 232.440339 
L 154.018872 230.804209 
L 154.311061 226.110381 
L 154.798043 213.911864 
L 155.382421 200.621666 
L 155.625912 198.908041 
L 155.690843 198.97882 
L 155.804472 199.638566 
L 156.015498 202.521878 
L 156.405083 211.680848 
L 157.135556 228.319178 
L 157.46021 231.443048 
L 157.606305 231.753932 
L 157.63877 231.729596 
L 157.752399 231.378123 
L 157.947192 229.827248 
L 158.239381 225.397007 
L 158.742596 213.589026 
L 159.310741 201.778227 
L 159.554232 200.232522 
L 159.619163 200.304551 
L 159.749025 201.059163 
L 159.976283 204.149909 
L 160.414567 214.067387 
L 161.063876 227.544501 
L 161.38853 230.459339 
L 161.534625 230.735813 
L 161.56709 230.708702 
L 161.680719 230.361553 
L 161.875512 228.87042 
L 162.167701 224.663931 
L 162.687148 213.238635 
L 163.239061 202.808365 
L 163.466319 201.46322 
L 163.53125 201.499676 
L 163.547483 201.538399 
L 163.677345 202.265014 
L 163.904603 205.154629 
L 164.342887 214.351575 
L 164.992196 226.866339 
L 165.31685 229.549055 
L 165.446712 229.783266 
L 165.479178 229.765639 
L 165.592807 229.465108 
L 165.787599 228.102416 
L 166.079788 224.203715 
L 166.599236 213.597164 
L 167.151148 203.895618 
L 167.394639 202.586708 
L 167.475803 202.687247 
L 167.605665 203.402755 
L 167.832923 206.129771 
L 168.287439 215.027967 
L 168.920516 226.265473 
L 169.228938 228.647986 
L 169.375032 228.886298 
L 169.391265 228.876798 
L 169.504894 228.609768 
L 169.699687 227.351942 
L 169.991876 223.722696 
L 170.511323 213.864409 
L 171.063236 204.869568 
L 171.306727 203.632133 
L 171.38789 203.712321 
L 171.517752 204.350816 
L 171.74501 206.831284 
L 172.183294 214.709476 
L 172.848836 225.725957 
L 173.157258 227.867311 
L 173.287119 228.049365 
L 173.319585 228.027004 
L 173.433214 227.7362 
L 173.628007 226.48702 
L 173.936428 222.753125 
L 174.553272 211.665754 
L 175.007788 205.479534 
L 175.235047 204.59223 
L 175.31621 204.707501 
L 175.462305 205.478206 
L 175.722028 208.414517 
L 176.290174 218.327909 
L 176.809621 225.537954 
L 177.10181 227.173912 
L 177.215439 227.258239 
L 177.247905 227.224806 
L 177.377767 226.837715 
L 177.588792 225.372755 
L 177.929679 221.103098 
L 179.033505 205.686375 
L 179.163367 205.487662 
L 179.195832 205.522338 
L 179.325694 205.993176 
L 179.536719 207.804923 
L 179.926305 213.529245 
L 180.689243 224.637406 
L 180.997665 226.41409 
L 181.127527 226.524449 
L 181.143759 226.511176 
L 181.273621 226.190195 
L 181.484647 224.879858 
L 181.809301 221.194013 
L 182.961825 206.436406 
L 183.075454 206.311767 
L 183.107919 206.346015 
L 183.237781 206.7883 
L 183.465039 208.642188 
L 183.870858 214.278957 
L 184.60133 224.095084 
L 184.909752 225.742716 
L 185.039614 225.837573 
L 185.055847 225.823993 
L 185.185708 225.513655 
L 185.396734 224.270376 
L 185.721388 220.805214 
L 186.857679 207.219866 
L 186.971308 207.067704 
L 187.003774 207.088507 
L 187.117403 207.383915 
L 187.312196 208.64843 
L 187.653083 212.630586 
L 188.578348 224.070318 
L 188.854305 225.169069 
L 188.967934 225.180627 
L 188.984167 225.161073 
L 189.130261 224.749702 
L 189.357519 223.306221 
L 189.730872 219.195358 
L 190.656138 208.33907 
L 190.867163 207.770533 
L 190.964559 207.880297 
L 191.126887 208.573065 
L 191.402843 211.010327 
L 192.701461 224.471969 
L 192.847556 224.603953 
L 192.863788 224.59373 
L 192.99365 224.334245 
L 193.204676 223.262688 
L 193.52933 220.259757 
L 194.665621 208.561122 
L 194.795483 208.425167 
L 194.827948 208.451728 
L 194.95781 208.796412 
L 195.185068 210.24676 
L 195.590887 214.699314 
L 196.337592 222.729212 
L 196.629781 223.967891 
L 196.759643 224.043103 
L 196.775876 224.031512 
L 196.905738 223.772499 
L 197.116763 222.74517 
L 197.45765 219.739002 
L 198.52901 209.265252 
L 198.691338 209.023694 
L 198.70757 209.030171 
L 198.821199 209.230544 
L 199.015992 210.173461 
L 199.340647 213.081902 
L 200.347076 222.866539 
L 200.606799 223.527099 
L 200.720428 223.466796 
L 200.882756 223.015222 
L 201.142479 221.464757 
L 201.580763 217.163933 
L 202.295003 210.381576 
L 202.554727 209.587586 
L 202.668356 209.647962 
L 202.830683 210.16109 
L 203.090407 211.898587 
L 203.642319 217.571292 
L 204.177999 222.073464 
L 204.470188 223.014768 
L 204.616283 222.995925 
L 204.77861 222.591691 
L 205.038334 221.168568 
L 205.460385 217.355017 
L 206.20709 210.789107 
L 206.450581 210.1061 
L 206.56421 210.147396 
L 206.710305 210.535766 
L 206.953796 211.934179 
L 207.424545 216.286938 
L 208.057621 221.566501 
L 208.34981 222.539492 
L 208.495905 222.570613 
L 208.641999 222.294526 
L 208.869258 221.2891 
L 209.24261 218.41872 
L 210.151643 211.035519 
L 210.378901 210.571519 
L 210.49253 210.658681 
L 210.67109 211.214589 
L 210.963279 213.062131 
L 212.196967 222.036535 
L 212.375527 222.165512 
L 212.521621 221.951048 
L 212.748879 221.07392 
L 213.105999 218.604096 
L 214.079963 211.351215 
L 214.290988 211.011723 
L 214.404618 211.110166 
L 214.583178 211.649885 
L 214.875367 213.390391 
L 216.092821 221.643071 
L 216.287614 221.768413 
L 216.433708 221.548889 
L 216.660967 220.702897 
L 217.034319 218.245487 
L 217.959585 211.800213 
L 218.186843 211.420323 
L 218.316705 211.529152 
L 218.511498 212.120693 
L 218.819919 213.921546 
L 219.939978 221.176163 
L 220.151003 221.416529 
L 220.297098 221.27571 
L 220.508123 220.645749 
L 220.832778 218.844196 
L 221.952836 211.926886 
L 222.131396 211.80779 
L 222.27749 212.018338 
L 222.504748 212.855029 
L 222.894334 215.329768 
L 223.689738 220.400257 
L 223.981927 221.056604 
L 224.128021 221.037077 
L 224.306581 220.698664 
L 224.582538 219.55926 
L 225.069519 216.357342 
L 225.686363 212.708607 
L 225.946087 212.162101 
L 226.092181 212.206958 
L 226.270741 212.6026 
L 226.56293 213.941907 
L 227.829083 220.693731 
L 228.007643 220.739357 
L 228.16997 220.498826 
L 228.413461 219.671775 
L 228.819279 217.36934 
L 229.59845 212.952008 
L 229.858174 212.479834 
L 230.004268 212.540692 
L 230.199061 212.980001 
L 230.507483 214.374309 
L 231.676239 220.332772 
L 231.887265 220.45709 
L 232.049592 220.263858 
L 232.293083 219.534399 
L 232.682668 217.53118 
L 233.510538 213.181188 
L 233.770261 212.775997 
L 233.916356 212.850558 
L 234.111148 213.279421 
L 234.41957 214.596243 
L 235.555861 220.036225 
L 235.766887 220.190023 
L 235.929214 220.038671 
L 236.156472 219.454535 
L 236.529825 217.750444 
L 237.45509 213.320141 
L 237.698581 213.051608 
L 237.844676 213.160159 
L 238.055701 213.656606 
L 238.412821 215.210554 
L 239.354319 219.59486 
L 239.614043 219.934448 
L 239.77637 219.863613 
L 239.987396 219.45474 
L 240.31205 218.234152 
L 241.464574 213.382013 
L 241.659367 213.328899 
L 241.837927 213.570426 
L 242.113883 214.425785 
L 242.665796 217.102033 
L 243.201476 219.257666 
L 243.493665 219.691885 
L 243.672225 219.635463 
L 243.88325 219.260097 
L 244.207905 218.13067 
L 245.360428 213.619208 
L 245.555221 213.564581 
L 245.733781 213.783241 
L 246.009738 214.569078 
L 246.545418 216.971485 
L 247.09733 219.059824 
L 247.389519 219.471027 
L 247.568079 219.422868 
L 247.779105 219.078206 
L 248.103759 218.033106 
L 249.256283 213.838717 
L 249.451076 213.783299 
L 249.629636 213.981381 
L 249.905592 214.703623 
L 250.441272 216.928476 
L 251.009418 218.91256 
L 251.301607 219.270898 
L 251.480167 219.210565 
L 251.707425 218.835616 
L 252.048312 217.758024 
L 253.103439 214.09688 
L 253.330698 213.980761 
L 253.509258 214.140695 
L 253.768981 214.730781 
L 254.23973 216.490811 
L 254.889039 218.707503 
L 255.181228 219.074991 
L 255.376021 219.027456 
L 255.603279 218.682641 
L 255.944167 217.685042 
L 256.999294 214.281833 
L 257.226552 214.169832 
L 257.421345 214.337392 
L 257.697301 214.948068 
L 258.216748 216.79503 
L 258.801127 218.582299 
L 259.093316 218.902785 
L 259.288108 218.843671 
L 259.531599 218.472746 
L 259.904952 217.397001 
L 260.84645 214.515454 
L 261.106174 214.342692 
L 261.300967 214.476045 
L 261.56069 214.974554 
L 262.031439 216.481859 
L 262.696981 218.435354 
L 262.98917 218.738017 
L 263.200196 218.672638 
L 263.443687 218.311887 
L 263.833272 217.243495 
L 264.726072 214.692267 
L 264.985796 214.505244 
L 265.180588 214.608489 
L 265.440312 215.047341 
L 265.878596 216.319541 
L 266.592836 218.299322 
L 266.885025 218.584927 
L 267.09605 218.527166 
L 267.339541 218.194825 
L 267.729127 217.205172 
L 268.621927 214.83384 
L 268.897883 214.657244 
L 269.108908 214.783572 
L 269.384865 215.259277 
L 269.904312 216.726574 
L 270.504923 218.198185 
L 270.797112 218.446192 
L 271.02437 218.365676 
L 271.300327 217.964069 
L 271.73861 216.843018 
L 272.469083 215.030206 
L 272.761272 214.7987 
L 272.972298 214.881013 
L 273.248254 215.283676 
L 273.719003 216.47887 
L 274.400778 218.080017 
L 274.709199 218.316318 
L 274.936458 218.228282 
L 275.212414 217.841098 
L 275.683163 216.699925 
L 276.364938 215.147158 
L 276.657127 214.929265 
L 276.884385 215.016629 
L 277.160341 215.403518 
L 277.647323 216.565256 
L 278.296632 217.970582 
L 278.605054 218.193562 
L 278.848545 218.100703 
L 279.140734 217.69856 
L 279.643948 216.534472 
L 280.260792 215.255351 
L 280.569214 215.048998 
L 280.796472 215.142303 
L 281.088661 215.542754 
L 281.624341 216.758322 
L 282.208719 217.888722 
L 282.517141 218.080834 
L 282.760632 217.982306 
L 283.069054 217.567625 
L 283.637199 216.317791 
L 284.189112 215.31898 
L 284.481301 215.160816 
L 284.724792 215.272884 
L 285.033214 215.699279 
L 285.763687 217.259429 
L 286.20197 217.885524 
L 286.494159 217.967935 
L 286.753883 217.794465 
L 287.111003 217.238881 
L 288.214828 215.311711 
L 288.490785 215.286963 
L 288.766741 215.520188 
L 289.172559 216.216201 
L 290.032894 217.737388 
L 290.341316 217.876843 
L 290.601039 217.757079 
L 290.941927 217.310854 
L 292.208079 215.368956 
L 292.467803 215.420164 
L 292.776225 215.743468 
L 293.328138 216.741779 
L 293.912516 217.639189 
L 294.23717 217.785714 
L 294.513127 217.663124 
L 294.870247 217.212115 
L 296.055236 215.472461 
L 296.331192 215.487244 
L 296.639614 215.759622 
L 297.142828 216.580112 
L 297.80837 217.562616 
L 298.133025 217.701051 
L 298.425214 217.576178 
L 298.798567 217.122541 
L 299.934858 215.560643 
L 300.227047 215.566474 
L 300.535468 215.817152 
L 301.038683 216.57705 
L 301.704225 217.491673 
L 302.045112 217.62179 
L 302.337301 217.495764 
L 302.726887 217.041531 
L 303.798247 215.649771 
L 304.106668 215.634121 
L 304.431323 215.870794 
L 304.95077 216.599948 
L 305.616312 217.437901 
L 305.957199 217.547765 
L 306.265621 217.408823 
L 306.671439 216.945782 
L 307.661636 215.73427 
L 307.98629 215.698215 
L 308.310945 215.904918 
L 308.814159 216.5491 
L 309.512167 217.376243 
L 309.869287 217.478665 
L 310.193941 217.32799 
L 310.632225 216.837946 
L 311.525025 215.814092 
L 311.865912 215.758859 
L 312.190567 215.938523 
L 312.693781 216.527468 
L 313.424254 217.329085 
L 313.781374 217.414197 
L 314.122261 217.253015 
L 314.609243 216.720869 
L 315.388414 215.889237 
L 315.745534 215.816165 
L 316.086421 215.984197 
L 316.589636 216.529509 
L 317.336341 217.284381 
L 317.693461 217.354082 
L 318.050581 217.183639 
L 318.570028 216.637297 
L 319.284268 215.941793 
L 319.657621 215.874972 
L 320.014741 216.051382 
L 320.566654 216.625719 
L 321.232196 217.234173 
L 321.605548 217.298056 
L 321.978901 217.119598 
L 322.563279 216.528797 
L 323.212588 215.975396 
L 323.585941 215.932982 
L 323.959294 216.125805 
L 324.624836 216.792248 
L 325.192981 217.21465 
L 325.566334 217.235364 
L 325.955919 217.023087 
L 327.433098 215.97298 
L 327.822683 216.135286 
L 328.439527 216.697639 
L 329.072603 217.164081 
L 329.462188 217.190496 
L 329.868007 216.982491 
L 331.312719 216.01646 
L 331.702305 216.157076 
L 332.319148 216.673561 
L 332.968458 217.122883 
L 333.374276 217.145136 
L 333.796327 216.933696 
L 335.176108 216.056837 
L 335.581927 216.17852 
L 336.182538 216.638498 
L 336.880545 217.089753 
L 337.302596 217.098979 
L 337.757112 216.866237 
L 339.007032 216.097483 
L 339.429083 216.184089 
L 339.997228 216.569064 
L 340.776399 217.054031 
L 341.214683 217.059876 
L 341.685432 216.826869 
L 342.870421 216.136632 
L 343.308705 216.206321 
L 343.87685 216.557503 
L 344.688487 217.025077 
L 345.143003 217.019366 
L 345.646218 216.769926 
L 346.73381 216.174126 
L 347.188327 216.227848 
L 347.772705 216.558933 
L 348.600574 216.997753 
L 349.05509 216.985826 
L 349.59077 216.728815 
L 350.613432 216.207399 
L 351.084181 216.253899 
L 351.684792 216.570737 
L 352.512661 216.971986 
L 352.98341 216.950461 
L 353.567788 216.672523 
L 354.493054 216.238426 
L 354.980036 216.27814 
L 355.613112 216.590698 
L 356.424748 216.947706 
L 356.927963 216.912822 
L 357.577272 216.604175 
L 358.388908 216.264884 
L 358.892123 216.305369 
L 359.573898 216.625766 
L 360.353068 216.926972 
L 360.872516 216.8772 
L 361.602988 216.536987 
L 362.333461 216.283804 
L 362.852908 216.345054 
L 363.680778 216.726279 
L 364.346319 216.910997 
L 364.881999 216.822224 
L 366.602668 216.327114 
L 367.251978 216.566273 
L 368.177243 216.884604 
L 368.729156 216.822247 
L 370.612152 216.370845 
L 371.456254 216.70047 
L 372.170494 216.868844 
L 372.754872 216.76733 
L 374.313214 216.353031 
L 374.978756 216.542949 
L 376.033883 216.848767 
L 376.634494 216.761153 
L 378.257767 216.376403 
L 378.972007 216.582789 
L 379.929738 216.83093 
L 380.562814 216.741035 
L 382.137388 216.390379 
L 382.884094 216.588968 
L 383.858058 216.815194 
L 384.523599 216.713388 
L 385.968312 216.399652 
L 386.698785 216.562719 
L 387.786378 216.80007 
L 388.484385 216.687974 
L 389.831701 216.412184 
L 390.578407 216.559932 
L 391.714698 216.785584 
L 392.44517 216.664853 
L 393.711323 216.425038 
L 394.490494 216.566723 
L 395.643018 216.771754 
L 396.422188 216.639754 
L 397.607178 216.437639 
L 398.418814 216.576964 
L 399.555105 216.759142 
L 400.382974 216.621479 
L 401.519265 216.449869 
L 402.379599 216.593811 
L 403.467192 216.747391 
L 404.343759 216.605476 
L 405.447585 216.46192 
L 406.37285 216.615663 
L 407.411745 216.735092 
L 408.369476 216.577755 
L 409.392138 216.474192 
L 410.414799 216.64368 
L 411.388763 216.721054 
L 411.90821 216.65045 
L 411.90821 216.65045 
" clip-path="url(#pc7eb71d4a1)" style="fill: none; stroke: #bfbf00; stroke-width: 1.5; stroke-linecap: square"/>
   </g>
   <g id="patch_3">
    <path d="M 71.020938 280.150594 
L 71.020938 14.038594 
" style="fill: none; stroke: #000000; stroke-width: 0.8; stroke-linejoin: miter; stroke-linecap: square"/>
   </g>
   <g id="patch_4">
    <path d="M 428.140938 280.150594 
L 428.140938 14.038594 
" style="fill: none; stroke: #000000; stroke-width: 0.8; stroke-linejoin: miter; stroke-linecap: square"/>
   </g>
   <g id="patch_5">
    <path d="M 71.020938 280.150594 
L 428.140938 280.150594 
" style="fill: none; stroke: #000000; stroke-width: 0.8; stroke-linejoin: miter; stroke-linecap: square"/>
   </g>
   <g id="patch_6">
    <path d="M 71.020938 14.038594 
L 428.140938 14.038594 
" style="fill: none; stroke: #000000; stroke-width: 0.8; stroke-linejoin: miter; stroke-linecap: square"/>
   </g>
  </g>
 </g>
 <defs>
  <clipPath id="pc7eb71d4a1">
   <rect x="71.020938" y="14.038594" width="357.12" height="266.112"/>
  </clipPath>
 </defs>
</svg>
